<svg width="132" height="37" viewBox="0 0 132 37" fill="none" xmlns="http://www.w3.org/2000/svg">
<path d="M125.955 31.1903C125.667 31.0667 125.334 30.9133 125.047 30.9555C124.589 31.0226 124.143 31.045 123.687 31.0157C122.999 30.9717 122.311 30.9371 121.624 30.8921C121.35 30.8741 121.077 30.8389 120.804 30.8116C120.801 30.8421 120.799 30.8727 120.796 30.9032C121.114 30.9612 121.431 31.0191 121.748 31.0772C121.702 31.1543 121.659 31.1693 121.618 31.167C120.832 31.1225 120.046 31.0804 119.261 31.0288C118.421 30.9738 117.582 30.9118 116.743 30.8481C116.299 30.8144 115.855 30.7752 115.413 30.73C114.984 30.6863 114.559 30.6073 114.13 30.5868C113.143 30.5395 112.158 30.487 111.178 30.3509C110.796 30.2978 110.401 30.3447 110.013 30.3263C109.308 30.2928 108.603 30.2311 107.898 30.2071C107.431 30.1911 106.97 29.9325 106.495 30.1676C106.464 30.1831 106.407 30.1424 106.361 30.1336C106.202 30.1032 106.042 30.0685 105.881 30.0476C105.329 29.9761 104.737 30.2436 104.221 29.8422C104.171 29.8034 104.047 29.8158 103.98 29.8498C103.453 30.1186 102.898 29.9365 102.398 29.8461C101.939 29.7627 101.52 29.7577 101.079 29.8381C100.714 29.905 100.54 29.7355 100.529 29.3612C100.519 29.0395 100.446 28.7201 100.41 28.3987C100.372 28.0517 100.319 27.7037 100.318 27.3559C100.315 26.6668 100.359 25.9776 100.356 25.2885C100.353 24.4301 100.31 23.5717 100.308 22.7133C100.305 21.9055 100.339 21.0977 100.343 20.2898C100.344 19.9109 100.32 19.531 100.289 19.1532C100.262 18.83 100.185 18.5102 100.171 18.1871C100.153 17.7783 100.21 17.3651 100.177 16.9584C100.1 16.0022 99.9891 15.0487 99.8903 14.0943C99.8627 13.8276 99.8287 13.5616 99.7987 13.2951C99.7469 12.8322 99.7045 12.368 99.6418 11.9066C99.5928 11.546 99.519 11.1887 99.4562 10.8299C99.8342 11.2099 100.183 11.5811 100.44 12.0081C100.77 12.5575 101.016 13.1564 101.315 13.7252C101.685 14.4282 102.072 15.122 102.452 15.82C102.86 16.5724 103.28 17.319 103.674 18.0792C104.069 18.8423 104.423 19.6272 104.822 20.3879C105.461 21.6034 106.135 22.7998 106.767 24.0188C107.003 24.4749 107.205 24.9595 107.34 25.4538C107.489 25.9961 107.54 26.5648 107.639 27.1211C107.651 27.1899 107.695 27.253 107.725 27.3188C107.754 27.3194 107.784 27.3199 107.813 27.3204C107.847 27.1811 107.884 27.0423 107.914 26.9023C107.993 26.5476 108.056 26.1885 108.154 25.8393C108.188 25.7158 108.308 25.6161 108.326 25.5915C108.679 25.7637 108.94 25.9252 109.224 26.0205C109.597 26.1459 109.985 26.2278 110.371 26.308C110.448 26.3239 110.553 26.2617 110.629 26.2114C110.846 26.0684 111.308 24.9521 111.254 24.6921C111.14 24.1436 111.219 23.6149 111.369 23.0842C111.458 22.7725 111.515 22.45 111.561 22.1287C111.678 21.3162 111.752 20.4967 111.896 19.6894C112.05 18.8213 112.275 17.966 112.45 17.1013C112.536 16.6774 112.577 16.2445 112.645 15.8167C112.693 15.5186 112.767 15.2242 112.802 14.9248C112.857 14.4499 112.862 13.968 112.937 13.4967C113.041 12.8414 113.206 12.1958 113.313 11.5408C113.379 11.1392 113.382 10.7274 113.419 10.3208C113.473 9.73789 113.536 9.15579 113.59 8.57284C113.625 8.20179 113.643 7.8291 113.681 7.45858C113.719 7.0991 113.788 6.74255 113.818 6.38262C113.847 6.03045 113.765 5.64823 113.875 5.32886C114.017 4.92089 113.899 4.59261 113.777 4.23787C113.738 4.12707 113.684 4.01498 113.678 3.90117C113.654 3.48323 113.607 3.14054 113.155 2.88477C112.776 2.67008 112.518 2.24124 112.205 1.90848C111.912 1.59744 111.628 1.27798 111.322 0.98068C111.023 0.690559 110.76 0.260119 110.232 0.601564C110.19 0.62851 110.116 0.608034 110.057 0.604711C109.433 0.569697 108.969 0.980015 109.019 1.59966C109.077 2.31641 109.204 3.02761 109.303 3.75642C109.242 3.78709 109.153 3.82037 109.076 3.87196C108.839 4.03081 108.75 4.38253 108.905 4.5825C109.174 4.92936 109.365 5.29389 109.34 5.75487C109.324 6.04862 109.351 6.34597 109.374 6.64039C109.485 8.02327 109.593 9.40655 109.723 10.7876C109.753 11.1106 109.928 11.4258 109.928 11.7444C109.927 12.1449 110.19 12.5373 109.943 12.9549C109.869 13.0798 109.942 13.2939 109.954 13.4667C109.98 13.849 110.012 14.231 110.033 14.6136C110.036 14.6633 109.971 14.7132 109.956 14.768C109.91 14.9398 109.839 15.1139 109.838 15.2873C109.835 15.7896 109.864 16.292 109.876 16.7944C109.877 16.8369 109.833 16.8785 109.823 16.9234C109.787 17.0834 109.733 17.2442 109.73 17.4055C109.723 17.7542 109.748 18.1034 109.751 18.4524C109.757 18.9796 109.756 19.5068 109.756 20.034C109.756 20.383 109.753 20.732 109.752 21.1423C109.438 20.7677 109.184 20.451 108.916 20.1455C108.412 19.5699 107.965 18.9628 107.584 18.2908C107.41 17.9848 107.151 17.7181 106.97 17.3828C106.71 16.8996 106.289 16.5044 105.95 16.0614C105.548 15.5364 105.167 14.9954 104.765 14.4706C104.317 13.8861 104.075 13.1459 103.431 12.709C103.378 12.6735 103.36 12.5895 103.321 12.5313C103.206 12.359 103.092 12.1861 102.971 12.0178C102.882 11.8936 102.781 11.778 102.689 11.6559C102.274 11.1038 101.865 10.5472 101.442 10.0012C101.368 9.90529 101.178 9.87364 101.144 9.77619C100.976 9.30395 100.557 9.09263 100.215 8.794C99.887 8.50787 99.5182 8.25706 99.3647 7.80025C99.3115 7.64172 99.1065 7.44795 98.949 7.42574C98.3126 7.33604 97.7002 7.3824 97.1535 7.82108C96.7419 8.15144 96.6695 8.6875 97.0221 8.92741C97.0722 9.1779 97.1658 9.40987 97.2571 9.64269C97.2823 9.70695 97.3168 9.77308 97.3197 9.83956C97.3324 10.1292 97.3403 10.4192 97.3404 10.7091C97.3407 11.977 97.3379 13.245 97.3358 14.5129C97.3353 14.835 97.3333 15.1571 97.3319 15.4792C97.2701 15.3855 97.2151 15.2736 97.2085 15.1588C97.1662 14.4335 97.1414 13.7072 97.0983 12.982C97.0217 11.6964 96.9422 10.4109 96.8428 9.12702C96.8352 9.02748 96.6626 8.9407 96.5666 8.84803C96.5153 8.9372 96.4261 9.02376 96.4197 9.11608C96.4005 9.39219 96.4013 9.67124 96.4165 9.94788C96.4882 11.2528 96.5618 12.5577 96.6459 13.8619C96.6882 14.5174 96.7534 15.1715 96.8101 15.826C96.8618 16.4236 96.9103 17.0215 96.9707 17.6183C97.0463 18.3641 97.1628 19.1072 97.2056 19.8547C97.245 20.5413 97.2159 21.2323 97.2059 21.9212C97.1989 22.3976 97.1812 22.8741 97.1531 23.3496C97.1292 23.7536 96.9883 24.1767 97.0691 24.5551C97.1993 25.1654 96.9016 25.693 96.8767 26.2692C96.8553 26.7661 96.6333 27.2512 96.5424 27.7493C96.4679 28.158 96.4734 28.5808 96.4094 28.9921C96.3701 29.2438 96.3028 29.5074 96.1742 29.7211C96.12 29.811 95.8754 29.8039 95.7162 29.8097C95.1123 29.8316 94.5079 29.8412 93.9037 29.8537C93.845 29.8549 93.786 29.8421 93.727 29.8405C92.8852 29.8179 92.0435 29.7899 91.2014 29.7782C90.9563 29.7748 90.7107 29.8369 90.4652 29.8373C90.0272 29.838 89.5883 29.79 89.1514 29.8066C88.347 29.8372 87.5441 29.903 86.7401 29.9478C86.3223 29.9711 85.9037 29.989 85.4853 29.9945C85.0943 29.9996 84.703 29.9779 84.3119 29.981C83.8348 29.9847 83.3576 30.0109 82.8806 30.0104C82.5385 30.01 82.1965 29.9813 81.8545 29.9671C81.8324 29.9662 81.8075 29.9773 81.7876 29.9891C81.1666 30.3552 80.5068 29.8219 79.8598 30.0824C79.5864 30.1925 79.2297 30.0975 78.9109 30.092C78.8427 30.0908 78.773 30.0797 78.7072 30.0614C78.4922 30.0018 78.282 29.9024 78.0638 29.8817C77.7304 29.8499 77.3919 29.8708 77.0473 29.8694C77.0504 29.1451 77.0448 28.478 77.0619 27.8115C77.0662 27.6446 77.1035 27.4521 77.1954 27.3197C77.3692 27.0691 77.3793 26.8324 77.2225 26.5949C77.1009 26.4106 77.0835 26.248 77.2215 26.0771C77.4772 25.7606 77.4099 25.3818 77.3275 25.0584C77.1562 24.3856 76.9702 23.7224 76.9381 23.0224C76.9306 22.8595 76.7699 22.7059 76.7535 22.5408C76.6981 21.9788 76.6758 21.4136 76.6408 20.8495C76.6306 20.6863 76.6573 20.5093 76.6023 20.3629C76.4927 20.0712 76.4356 19.8146 76.4532 19.4754C76.4702 19.1479 76.376 18.7775 76.3708 18.4062C76.3629 17.8342 76.2012 17.2646 76.1112 16.6929C76.1031 16.6409 76.161 16.5799 76.1565 16.5257C76.1438 16.3724 76.1187 16.2197 76.0899 16.0684C76.076 15.9952 76.0224 15.9258 76.0218 15.8544C76.0193 15.5658 76.0538 15.2751 76.0312 14.9887C75.9917 14.4854 75.8628 13.9825 75.8802 13.4833C75.8944 13.071 75.7539 12.6902 75.797 12.2606C75.8605 11.6267 75.6934 10.9712 75.6407 10.3236C75.6163 10.0235 75.6311 9.7203 75.6263 9.41852C75.6235 9.23787 75.6012 9.05598 75.6162 8.87706C75.6399 8.59376 75.5977 8.23667 75.7523 8.05319C75.8871 7.89332 76.0236 7.78363 75.9859 7.57368C75.9496 7.37114 75.9172 7.14848 75.8099 6.98183C75.5219 6.53468 75.1877 6.11763 74.886 5.6789C74.7184 5.43518 74.3446 5.25356 74.2166 5.39671C73.7825 5.88242 73.1572 6.21371 72.9836 6.91362C72.9687 6.97385 72.8883 7.01494 72.85 7.07269C72.7122 7.2809 72.5564 7.48163 72.4515 7.70585C72.3501 7.92262 72.3579 8.19142 72.0749 8.30284C72.0061 8.32992 71.9753 8.453 71.9265 8.53167C71.6838 8.9232 71.4655 9.33307 71.1907 9.70062C70.9395 10.0366 70.6179 10.319 70.3436 10.6389C69.9093 11.1454 69.7133 11.8407 69.0628 12.1856C68.9072 12.2681 68.8649 12.5463 68.7432 12.7148C68.551 12.981 68.3458 13.2396 68.1269 13.4841C67.9685 13.661 67.7753 13.8061 67.6043 13.9722C67.4547 14.1176 67.317 14.2752 67.1694 14.4228C66.9754 14.6168 66.8068 14.879 66.5713 14.9764C66.3521 15.067 66.1699 15.1319 66.0583 15.3516C66.0111 15.4444 65.9166 15.513 65.8364 15.6005C65.7347 15.4555 65.6673 15.3508 65.5915 15.2527C65.2371 14.7941 64.8685 14.3459 64.5279 13.8773C64.2048 13.4327 63.9305 12.952 63.5978 12.5153C63.2147 12.0126 62.7851 11.5457 62.3868 11.0542C62.0323 10.6166 61.687 10.1712 61.3484 9.72118C60.8079 9.00284 60.2763 8.27789 59.7412 7.55551C59.358 7.03821 58.9766 6.51966 58.592 6.00333C58.3678 5.70217 58.1422 5.40185 57.9116 5.10553C57.5856 4.68661 57.2514 4.27412 56.9264 3.85441C56.5775 3.40376 56.2445 2.94057 55.8877 2.49644C55.5298 2.05106 55.1498 1.62337 54.7819 1.18597C54.6177 0.990785 54.4714 0.778933 54.2931 0.598151C54.2101 0.513942 54.0505 0.508358 53.9596 0.428448C53.4975 0.0218977 52.9745 0.148521 52.4842 0.294379C51.9587 0.450609 51.4675 0.719057 50.9464 0.893945C50.6754 0.98489 50.635 1.13345 50.6591 1.37225C50.6682 1.46368 50.6568 1.59447 50.5994 1.64872C50.3791 1.85672 50.4168 2.04858 50.5606 2.27966C50.7589 2.59815 50.8807 2.91442 50.8584 3.33387C50.8348 3.77601 51.0331 4.22998 51.1345 4.67877C51.1904 4.67824 51.2463 4.67771 51.3023 4.67722C51.3872 4.27656 51.4722 3.87591 51.5647 3.43944C51.6716 3.55325 51.7506 3.63844 51.8307 3.72251C52.3283 4.24461 52.8187 4.77384 53.3272 5.28498C53.5496 5.50853 53.8302 5.67522 54.046 5.90392C54.2453 6.11519 54.4024 6.36901 54.5615 6.61481C54.7294 6.87418 54.9802 7.1346 55.0119 7.41524C55.0674 7.906 54.9939 8.41342 54.9546 8.91234C54.9053 9.53606 54.8359 10.1582 54.7758 10.7749C54.2887 10.6223 54.1184 10.6771 54.0323 11.0325C53.9383 11.4201 54.159 11.9526 54.4642 12.2112C54.585 12.3136 54.6995 12.515 54.6908 12.664C54.6136 13.9923 54.5228 15.3204 54.4065 16.646C54.3091 17.7562 54.1959 18.8661 54.0457 19.9701C53.9116 20.9556 53.7153 21.9326 53.5529 22.9144C53.5383 23.0028 53.5741 23.0987 53.5801 23.1916C53.5859 23.2809 53.5919 23.3716 53.5826 23.4602C53.556 23.7144 53.4661 23.9758 53.5015 24.2198C53.5808 24.7651 53.7119 25.3037 53.844 25.8397C53.8717 25.9525 53.9871 26.0489 54.0751 26.1404C54.1479 26.2161 54.2736 26.2561 54.3179 26.3418C54.6299 26.9457 55.2986 26.9857 55.805 27.2688C56.0949 27.4308 56.4912 27.3902 56.8226 27.4949C57.0416 27.5641 57.2153 27.6574 57.3754 27.4119C57.4063 27.3644 57.5081 27.3693 57.5596 27.3281C57.7136 27.2048 57.945 27.0945 57.9892 26.9356C58.0751 26.6266 58.0549 26.288 58.0757 25.9614C58.0778 25.9279 58.0597 25.8928 58.0503 25.8586C57.9305 25.4186 57.788 24.9831 57.6992 24.5369C57.6469 24.2739 57.5531 24.0831 57.3233 23.9365C57.2343 23.8798 57.1406 23.7132 57.1629 23.6258C57.1989 23.4852 57.3194 23.3595 57.4246 23.2464C57.4718 23.1957 57.5682 23.1909 57.6534 23.1615C57.6373 22.9092 57.633 22.6756 57.6057 22.4448C57.5446 21.9302 57.4326 21.4184 57.4137 20.9029C57.3864 20.1602 57.4266 19.4152 57.4317 18.6712C57.4348 18.2248 57.4161 17.7782 57.4248 17.332C57.4364 16.7369 57.4615 16.142 57.4875 15.5473C57.5074 15.0935 57.521 14.6384 57.5666 14.1869C57.653 13.3308 57.7573 12.4764 57.8624 11.6223C57.878 11.4954 57.939 11.3741 57.9962 11.1969C58.5403 11.811 59.0421 12.3606 59.5252 12.9262C60.4046 13.9555 61.2716 14.9954 62.1495 16.026C62.194 16.0783 62.2918 16.0851 62.3649 16.1131C62.3448 16.0425 62.343 15.9584 62.302 15.9034C61.3267 14.5958 60.3407 13.296 59.3727 11.983C59.1016 11.6153 58.8813 11.2102 58.6378 10.8222C58.6743 10.7985 58.7108 10.7748 58.7472 10.7511C58.8134 10.8538 58.8669 10.968 58.9481 11.057C59.3153 11.4594 59.7474 11.8162 60.0482 12.2621C60.4297 12.8279 61.0977 13.1382 61.3549 13.8007C61.3779 13.8599 61.4541 13.8974 61.5023 13.9481C61.8288 14.2915 62.1818 14.6143 62.4723 14.986C62.746 15.336 62.9522 15.7386 63.1905 16.1165C63.3449 16.3614 63.5769 16.5852 63.6443 16.8513C63.7672 17.3366 63.8749 17.87 63.2654 18.1693C63.2139 18.1945 63.1455 18.2375 63.1349 18.2837C63.1087 18.3978 63.0574 18.5712 63.1122 18.6275C63.3376 18.8596 63.3934 19.2837 63.8318 19.2912C63.873 19.2919 63.9277 19.3923 63.9503 19.4557C64.0986 19.8724 64.4067 20.0796 64.8156 20.2211C65.1617 20.3409 65.5337 20.4923 65.7906 20.7381C66.1336 21.0665 66.296 21.1216 66.6302 20.785C66.6985 20.7163 66.8524 20.6356 66.9065 20.6664C67.1871 20.826 67.4292 20.7233 67.6855 20.6176C67.8105 20.5661 67.9503 20.5506 68.1792 20.4958C68.2369 21.977 68.2914 23.3763 68.3458 24.7755C68.3889 24.7763 68.432 24.7771 68.475 24.7779C68.4975 24.6199 68.5335 24.4625 68.5396 24.3039C68.5542 23.9272 68.5453 23.5495 68.5626 23.173C68.618 21.9672 68.6598 20.7603 68.7518 19.5572C68.7865 19.1029 68.8766 18.6274 69.0627 18.2165C69.2936 17.7066 69.6522 17.2548 69.9521 16.7756C70.3132 16.1989 70.6834 15.6272 71.0251 15.0391C71.2525 14.6477 71.388 14.1955 71.6517 13.8341C72.0928 13.2297 72.4346 12.5935 72.6381 11.8731C72.7043 11.6386 72.8589 11.429 73.0181 11.1208C73.1412 11.4887 73.2288 11.7402 73.3068 11.9945C73.3184 12.0321 73.2824 12.0829 73.273 12.1285C73.2191 12.392 73.1359 12.6541 73.1213 12.92C73.1031 13.2537 73.1726 13.593 73.148 13.9257C73.1101 14.4387 72.9782 14.9489 73.2066 15.4518C73.2263 15.4952 73.1864 15.5632 73.1827 15.6203C73.1718 15.7885 73.1471 15.9584 73.1609 16.125C73.1853 16.4202 73.2545 16.7125 73.2672 17.0076C73.2823 17.3582 73.2484 17.7106 73.2518 18.0621C73.2603 18.9481 73.2382 19.828 73.0219 20.6971C72.8801 21.267 72.7606 21.8468 72.691 22.4293C72.6324 22.9207 72.6389 23.4232 72.6586 23.9191C72.6684 24.1646 72.7526 24.4143 72.8406 24.6479C72.9389 24.9088 73.1084 25.1443 73.194 25.408C73.2829 25.6818 73.2993 25.9783 73.3644 26.2609C73.427 26.5329 73.5114 26.8 73.6127 27.1648C73.9671 27.1408 74.4308 27.148 74.8789 27.0681C75.3099 26.9914 75.4593 27.0305 75.7295 27.3794C75.8361 27.5171 76.0386 27.5979 76.2133 27.6594C76.3354 27.7025 76.4846 27.6688 76.6399 27.6695C76.6729 28.4196 76.7038 29.1188 76.7351 29.8296C76.6497 29.8415 76.6048 29.8537 76.5601 29.853C75.6773 29.8402 74.7946 29.821 73.9118 29.8133C72.855 29.8039 71.7981 29.7965 70.7413 29.8023C69.7528 29.8077 68.7644 29.8323 67.7759 29.8469C66.5396 29.8652 65.3031 29.8806 64.0668 29.8997C63.1097 29.9144 62.1528 29.9336 61.1958 29.9493C60.4424 29.9617 59.6889 29.9787 58.9355 29.9812C57.5735 29.9859 56.2115 29.9818 54.8495 29.98C54.3752 29.9794 53.9009 29.9793 53.4266 29.9711C53.0288 29.9642 52.6267 29.9778 52.235 29.922C51.9455 29.8808 51.6864 29.8181 51.434 30.0312C51.3661 30.0885 51.1978 30.1206 51.137 30.0776C50.751 29.8038 50.3545 30.1056 49.9514 30.0366C49.4618 29.953 48.9377 30.0858 48.4279 30.0984C48.2622 30.1025 48.0916 29.9789 47.9281 29.9895C47.3387 30.0276 46.7518 30.1042 46.1628 30.1522C45.9923 30.1661 45.8167 30.1135 45.6456 30.1247C45.1656 30.156 44.6874 30.2259 44.2074 30.2386C43.9221 30.2461 43.6349 30.1745 43.321 30.1349C43.3407 29.9569 43.3586 29.8322 43.3678 29.7067C43.4133 29.0829 43.4655 28.4594 43.4976 27.8349C43.519 27.417 43.5033 26.9973 43.5172 26.5788C43.5432 25.7954 43.5853 25.0125 43.6073 24.229C43.6182 23.8421 43.5901 23.4542 43.5956 23.0671C43.6064 22.3125 43.6358 21.5581 43.6428 20.8034C43.6468 20.3765 43.6121 19.9492 43.6114 19.522C43.6103 18.7707 43.6302 18.0193 43.6261 17.2681C43.62 16.1548 43.603 15.0416 43.586 13.9285C43.5755 13.2466 43.5564 12.565 43.5413 11.8832C43.5293 11.3424 43.5167 10.8016 43.5062 10.2608C43.4995 9.92235 43.5234 9.58051 43.4824 9.24647C43.4514 8.99397 43.3392 8.75145 43.2679 8.5197C43.7664 8.27124 44.2076 8.05137 44.6487 7.83149C44.6521 7.80162 44.6556 7.77175 44.659 7.74192C44.4881 7.70239 44.3188 7.65111 44.1457 7.627C43.995 7.60595 43.838 7.63041 43.6874 7.60936C42.7323 7.47565 41.7785 7.32881 40.8232 7.61012C40.7699 7.62585 40.7068 7.61096 40.6485 7.60728C40.3738 7.58991 40.0957 7.53504 39.8252 7.5607C39.1837 7.62155 38.548 7.75509 37.906 7.79631C36.7214 7.8724 35.5339 7.90329 34.347 7.95302C34.2568 8.05248 34.1383 8.18304 34.0198 8.31366C33.8994 8.17883 33.7878 8.03453 33.6555 7.9126C33.568 7.83194 33.453 7.73337 33.3467 7.72889C32.7899 7.70545 32.2312 7.68963 31.6747 7.71077C31.2842 7.72557 30.9169 8.1779 31.0177 8.51704C31.1579 8.98848 31.3456 9.446 31.5198 9.90688C31.6098 10.1449 31.8202 10.3904 31.7931 10.6099C31.7064 11.3121 31.5467 12.0066 31.391 12.6986C31.2653 13.2573 31.0788 13.803 30.9661 14.3639C30.8344 15.0195 30.3442 15.5148 30.2495 16.2035C30.1684 16.7942 29.8727 17.3543 29.6851 17.9323C29.6278 18.1089 29.6396 18.309 29.5758 18.4821C29.4266 18.8873 29.2388 19.2783 29.0889 19.6833C28.9095 20.168 28.7518 20.6607 28.5888 21.1513C28.5639 21.2262 28.5289 21.365 28.5527 21.3785C28.871 21.5583 28.7898 21.8854 28.8623 22.1568C28.9919 22.6417 28.9064 22.7564 28.4009 22.8248C28.2571 22.8443 28.0358 22.932 28.005 23.0347C27.8656 23.5006 27.7815 23.9831 27.6781 24.4597C27.6757 24.4708 27.6783 24.4835 27.6805 24.495C27.7638 24.9219 27.5762 25.4499 28.1306 25.7022C28.1475 25.7099 28.1566 25.7414 28.1633 25.7637C28.3333 26.3222 28.7453 26.6789 29.1906 27.0129C29.5024 27.2468 29.798 27.2315 30.0097 26.9973C30.1682 26.8219 30.3684 26.6779 30.5678 26.547C30.8994 26.3292 31.2722 26.1653 31.5728 25.9131C31.7054 25.8018 31.8117 25.4179 31.7429 25.3515C31.5007 25.1178 31.5833 24.8843 31.6077 24.6295C31.629 24.4074 31.6447 24.1791 31.6179 23.959C31.4812 22.8365 31.548 21.7215 31.7386 20.6134C31.7858 20.3392 31.9371 20.0847 32.008 19.8125C32.166 19.2051 32.3192 18.5954 32.4407 17.9801C32.4841 17.7604 32.5934 17.7104 32.773 17.709C33.3161 17.7047 33.8606 17.7268 34.4021 17.6952C34.8922 17.6667 35.3786 17.5775 35.8674 17.5224C36.0425 17.5027 36.2527 17.4392 36.3907 17.5081C36.8549 17.7399 37.2892 17.4581 37.7402 17.4724C38.2775 17.4893 38.8192 17.3638 39.4101 17.2939C39.3677 17.8099 39.3098 18.2858 39.2937 18.7632C39.2633 19.6574 39.2611 20.5526 39.24 21.4473C39.219 22.3351 39.1987 23.2232 39.1603 24.1104C39.1264 24.8961 39.0814 25.6818 39.0149 26.4653C38.9827 26.8444 38.8716 27.2163 38.8287 27.5952C38.7497 28.2941 38.6997 28.9964 38.6268 29.6961C38.6009 29.9449 38.3347 30.0909 38.1069 29.9909C37.6888 29.8074 37.2501 29.87 36.8176 29.8756C36.3331 29.8818 35.8489 29.9095 35.3645 29.9238C34.9028 29.9373 34.4217 29.8667 33.9834 29.9737C33.2583 30.1508 32.5385 30.0132 31.8187 30.0628C31.3653 30.094 30.9069 30.0555 30.4509 30.0441C29.8757 30.0297 29.4203 30.3074 28.8484 30.2559C27.6807 30.1507 24.3429 30.8088 23.6672 30.7854C23.5047 30.7798 19.22 30.9009 19.084 30.9713C18.8041 31.1164 16.1548 31.174 15.7127 31.2652C13.9572 31.6275 12.9197 31.7982 12.8746 31.8079C12.3652 31.9172 25.0444 30.9001 24.5496 31.0563C24.0583 31.2114 13.6958 31.9758 12.5442 32.1764C11.8213 32.3023 10.6846 32.6746 10.4254 32.7016C10.0796 32.7377 9.32477 33.0606 9.14934 33.1893C8.96178 33.327 8.25957 33.8826 8.01195 34.0941C7.81229 34.2646 7.79913 34.4505 8.07124 34.5965C8.49527 34.824 8.91736 34.6681 9.34448 34.6297C9.42905 35.119 9.54845 35.2304 9.9108 35.1607C10.3045 35.085 10.6976 34.9954 11.0953 34.9543C11.8223 34.8793 12.5539 34.8489 13.281 34.7746C13.9013 34.7112 14.5169 34.6022 15.1368 34.532C15.8543 34.4507 16.5749 34.3965 17.2925 34.3152C17.4721 34.2948 17.642 34.1892 17.8216 34.1681C18.2704 34.1154 18.7217 34.0808 19.173 34.0558C19.34 34.0466 19.5096 34.0846 19.6779 34.1011C19.6731 34.1351 19.6683 34.1691 19.6635 34.2031C19.563 34.1958 19.4604 34.1712 19.3625 34.1838C18.4581 34.3004 17.5534 34.4153 16.6511 34.5468C15.8752 34.6598 15.0998 34.7801 14.3287 34.9217C13.2411 35.1213 12.1555 35.3332 11.0748 35.5666C10.8983 35.6047 10.5994 35.8443 10.6152 35.882C10.7377 36.1724 10.9963 36.0141 11.1969 35.9771C12.3527 35.764 13.5009 35.5063 14.6608 35.3209C15.7391 35.1485 16.8275 35.0347 17.9139 34.9187C19.1835 34.7831 20.4555 34.6698 21.727 34.5534C22.4153 34.4904 23.104 34.4296 23.7938 34.389C24.6292 34.3398 25.4659 34.3143 26.3019 34.2761C27.6956 34.2125 29.0888 34.1346 30.4831 34.088C31.1192 34.0667 31.7586 34.1361 32.3944 34.1112C33.7925 34.0565 35.1909 33.9883 36.5863 33.8864C37.5474 33.8162 38.5038 33.6817 39.462 33.5728C39.7611 33.5388 40.0075 33.5625 40.275 33.7813C40.6752 34.1086 41.1447 34.3891 41.7098 34.2554C41.8969 34.2112 42.0748 33.9938 42.239 34.0126C42.7076 34.0663 42.7825 33.7998 42.7949 33.3592C43.1469 33.3532 43.4829 33.3468 43.8189 33.3421C43.9007 33.341 43.9837 33.3545 44.0645 33.3458C44.6039 33.287 45.1415 33.1922 45.6823 33.1706C46.3222 33.1451 46.9733 33.3252 47.597 33.0329C47.6534 33.0065 47.7483 33.0666 47.8264 33.0806C47.9162 33.0967 48.0122 33.1314 48.0968 33.1144C48.636 33.0061 49.1716 32.9495 49.7235 33.0444C49.958 33.0846 50.2097 33.0402 50.4519 33.0167C50.7692 32.9859 51.0842 32.9098 51.4013 32.9031C51.9286 32.8919 52.4569 32.9356 52.9844 32.9277C53.4965 32.92 54.0086 32.884 54.5197 32.845C54.7522 32.8273 54.9814 32.7445 55.2129 32.741C55.5521 32.7358 55.8919 32.7908 56.2315 32.7928C57.1046 32.798 57.9778 32.7928 58.8508 32.7824C59.3107 32.7769 59.7705 32.7349 60.2301 32.7389C61.5124 32.75 62.7945 32.7793 64.0767 32.7959C64.7699 32.8049 65.4633 32.793 66.1562 32.8075C67.0566 32.8262 67.9565 32.8684 68.8568 32.8863C69.1445 32.892 69.4332 32.8527 69.7213 32.8339C69.7216 32.7847 69.722 32.7355 69.7222 32.6863C67.7883 32.3558 65.8241 32.255 63.8768 32.0009C63.9921 31.9449 64.1052 31.9169 64.2193 31.9116C64.9597 31.8777 65.7002 31.8291 66.4409 31.8255C66.8841 31.8233 67.3282 31.8886 67.7708 31.9347C67.9424 31.9526 68.1107 32.0302 68.2807 32.0309C69.4888 32.0362 70.6969 32.0259 71.9049 32.0257C73.3039 32.0255 74.7029 32.0312 76.1019 32.0327C76.453 32.0331 76.8041 32.0232 77.1552 32.0253C77.701 32.0287 78.2471 32.0288 78.7925 32.0478C79.409 32.0692 80.0246 32.1262 80.6411 32.1378C81.3393 32.151 82.0383 32.118 82.7366 32.1293C83.4506 32.1408 84.1638 32.1882 84.8778 32.2071C85.2598 32.2171 85.6674 32.1132 86.0197 32.2138C86.7193 32.4137 87.3954 32.1016 88.1002 32.2402C88.7374 32.3655 89.4185 32.2606 90.0801 32.2692C90.6737 32.277 91.267 32.3101 91.8606 32.3136C92.1021 32.315 92.3453 32.2383 92.5854 32.2492C92.9785 32.2671 93.3689 32.3502 93.762 32.3649C94.3653 32.3874 94.97 32.3753 95.5986 32.378C95.417 32.975 95.2292 33.5729 95.0545 34.1745C94.9673 34.4749 94.8264 34.7897 94.8552 35.0838C94.8759 35.2964 95.099 35.565 95.3016 35.66C95.4634 35.7358 95.7329 35.5968 95.9497 35.5359C96.1125 35.4902 96.2628 35.3918 96.4269 35.3612C96.8632 35.2798 97.323 35.2793 97.7378 35.1404C98.2086 34.9828 98.6382 34.7046 99.0904 34.4884C99.5422 34.2723 99.7 33.7069 100.208 33.5571C100.238 33.5482 100.242 33.4706 100.271 33.435C100.341 33.3473 100.423 33.2683 100.493 33.1805C100.635 33.0041 100.763 32.816 100.915 32.6493C100.982 32.5762 101.095 32.4973 101.184 32.501C101.512 32.5148 101.838 32.5846 102.165 32.5918C102.786 32.6054 103.408 32.5722 104.028 32.5916C104.825 32.6165 105.62 32.6801 106.417 32.7155C107.023 32.7425 107.634 32.7186 108.237 32.7772C108.963 32.8479 109.675 33.1039 110.42 32.9054C110.505 32.8829 110.618 32.9642 110.717 33.0022C110.792 33.0314 110.863 33.0918 110.939 33.0982C111.793 33.1704 112.648 33.2463 113.504 33.2977C114.224 33.3411 114.947 33.3702 115.669 33.3756C116.646 33.3829 117.623 33.3682 118.6 33.3493C119.071 33.3402 119.541 33.3013 120.011 33.2734C120.163 33.2643 120.32 33.2656 120.467 33.2303C120.915 33.1226 121.363 33.0099 121.805 32.8778C122.021 32.813 122.215 32.6663 122.433 32.6166C123.278 32.4239 124.124 32.1717 124.981 32.1175C125.34 32.0948 125.559 31.9353 125.822 31.8104C126.122 31.6678 126.186 31.2898 125.955 31.1903ZM109.97 2.16678C110.085 2.29349 110.155 2.37127 110.226 2.44901C110.09 2.53885 109.961 2.64748 109.812 2.70549C109.774 2.72025 109.674 2.57439 109.602 2.50229C109.713 2.40163 109.823 2.30098 109.97 2.16678ZM109.974 10.767C109.962 10.7666 109.949 10.7662 109.937 10.7658C109.868 8.92297 109.798 7.08009 109.728 5.22502C110.01 5.41515 110.296 6.16301 110.215 6.45867C110.191 6.54798 110.161 6.64322 110.169 6.73275C110.205 7.15535 110.255 7.57674 110.296 7.99898C110.302 8.06803 110.308 8.14874 110.279 8.20782C110.064 8.65949 110.153 9.12853 110.156 9.60063C110.159 9.98901 110.039 10.3781 109.974 10.767ZM106.697 20.5958C106.942 20.5896 107.065 20.7753 107.038 21.0256C107.017 21.2138 107.051 21.5035 106.766 21.4532C106.621 21.4277 106.516 21.1785 106.357 20.9871C106.509 20.8034 106.6 20.5982 106.697 20.5958ZM103.282 15.0512C103.439 15.3176 103.621 15.5725 103.748 15.8525C104.263 16.9887 104.75 18.1377 105.269 19.2722C105.787 20.4047 106.331 21.5252 106.861 22.652C106.908 22.7507 106.936 22.8577 106.973 22.9609C106.934 22.9782 106.895 22.9954 106.856 23.0127C106.203 21.6887 105.541 20.3687 104.898 19.0394C104.276 17.7526 103.505 16.5292 103.197 15.1066C103.225 15.0881 103.253 15.0697 103.282 15.0512ZM55.4797 10.2261C55.4828 9.49439 55.4859 8.76271 55.4891 8.03102C55.5132 8.02748 55.5374 8.02389 55.5615 8.02034C55.7103 8.22276 55.8592 8.42517 56.0329 8.66135C55.8848 8.7499 55.7613 8.82374 55.6767 8.87435C55.5405 9.3313 55.7075 9.8034 55.4797 10.2261ZM55.7404 25.0372C55.8555 24.6379 56.2232 24.5019 56.7282 24.6656C56.3552 24.8059 56.0739 24.9118 55.7404 25.0372ZM39.7743 21.5886C39.7313 21.5812 39.6884 21.5738 39.6454 21.5664C39.6798 20.2573 39.7084 18.948 39.7516 17.6392C39.7667 17.1787 39.8717 17.1319 40.3508 17.3519C40.1374 18.7538 40.0337 20.183 39.7743 21.5886ZM40.9868 12.4986C40.9619 13.0223 40.9503 13.5467 40.9298 14.0707C40.9286 14.1013 40.8974 14.1308 40.8799 14.1613C40.4589 14.0803 40.07 14.0144 39.6855 13.9286C39.3773 13.8598 39.073 13.7718 38.7698 13.6832C38.4137 13.5792 38.0576 13.9376 38.0591 14.2968C38.0599 14.4746 37.8708 14.7086 37.7032 14.8212C37.2195 15.1462 36.6721 15.3266 36.112 15.5066C35.5874 15.6752 35.0606 15.8123 34.5259 15.9194C34.1149 16.0017 33.6915 16.0256 33.2726 16.0621C33.1764 16.0705 33.0755 16.0243 32.955 15.9987C33.1278 15.4379 33.2782 14.9095 33.455 14.3902C33.5651 14.0664 33.5167 13.8107 33.3005 13.5381C33.1757 13.3807 33.0614 13.111 33.1125 12.9436C33.1802 12.7216 33.4393 12.6359 33.7098 12.6875C33.7656 12.6982 33.8844 12.5837 33.9105 12.5056C33.9786 12.3012 33.9853 12.0746 34.0643 11.8759C34.1941 11.5497 34.4748 11.3692 34.8021 11.2856C35.1862 11.1873 35.6149 11.1938 35.9579 11.0223C36.4046 10.799 36.9948 10.9294 37.3312 10.4534C37.3562 10.418 37.44 10.4196 37.4975 10.4124C37.8223 10.3713 38.1613 10.378 38.469 10.2826C38.9106 10.1458 39.3259 9.92638 39.7591 9.75926C40.0108 9.6621 40.2759 9.59974 40.5341 9.5189C40.825 9.42787 40.8717 9.58782 40.8888 9.82884C40.9134 10.1752 40.9771 10.5186 41.0098 10.8646C41.0369 11.152 41.0585 11.4416 41.0546 11.7299C41.0512 11.9864 40.999 12.2418 40.9868 12.4986ZM42.9287 27.9868C42.9316 27.2963 42.9311 26.6056 42.9382 25.9151C42.9569 24.1119 42.9572 22.3081 43.011 20.5059C43.0316 19.8177 43.1761 19.1329 43.2704 18.4474C43.2785 18.3886 43.3344 18.3364 43.3998 18.2889C43.1828 21.526 43.3826 24.7733 43.0527 27.9995C43.0114 27.9953 42.97 27.991 42.9287 27.9868Z" fill="white"/>
<path d="M78.7296 11.4757C78.6854 11.8852 78.6876 12.3077 78.9702 12.6186C79.1688 12.837 79.4718 12.9489 79.6969 13.1467C79.8257 13.2598 79.9401 13.439 79.9745 13.6075C80.022 13.8394 79.9877 14.0894 79.9884 14.3317C79.991 15.3156 79.9904 16.2996 79.9994 17.2835C80.0012 17.473 80.0668 17.6633 80.059 17.8514C80.0347 18.4333 79.9705 19.0138 79.9563 19.5958C79.9392 20.2979 80.0272 21.0104 79.9401 21.7008C79.8593 22.3417 79.6176 22.9626 79.4279 23.5861C79.3309 23.9056 79.5275 24.4383 79.8334 24.5299C80.1265 24.6174 80.4489 24.7592 80.7274 24.705C81.2894 24.5958 81.6278 25.346 82.2011 25.0554C82.7835 25.3459 83.3865 25.1107 83.9796 25.128C84.0226 25.1292 84.0831 25.1056 84.1079 25.0717C84.3997 24.6724 84.8283 24.8609 85.1935 24.8076C85.7667 24.7239 86.35 24.7152 86.9236 24.633C87.4216 24.5617 87.9124 24.4325 88.5016 24.309C88.3267 24.5447 88.2097 24.7022 88.0768 24.8813C88.1549 24.9192 88.2024 24.9512 88.2544 24.966C89.1488 25.2203 90.0336 24.8632 90.9253 24.9158C90.9674 24.9183 91.0117 24.8794 91.0551 24.8596C91.9027 24.4725 92.5188 24.639 93.0551 25.4236C93.1742 25.5981 93.2865 25.8062 93.3165 26.0123C93.372 26.3936 93.3599 26.7851 93.384 27.1718C93.4462 28.1671 93.5107 29.1623 93.5796 30.157C93.5894 30.2958 93.6295 30.4321 93.6556 30.5696C93.688 30.57 93.7205 30.5703 93.7528 30.5706C93.788 30.4966 93.8502 30.424 93.8541 30.3482C93.9102 29.2531 93.9435 28.1566 94.0143 27.0627C94.0508 26.4959 93.9022 25.8769 94.3766 25.4022C94.4352 25.3434 94.4216 25.1961 94.4242 25.0894C94.4343 24.7016 94.4471 24.3134 94.4393 23.9258C94.433 23.6104 94.6058 23.2502 94.2129 23.006C94.3117 22.8708 94.3888 22.7506 94.4799 22.6431C94.8871 22.1632 95.1445 21.6307 95.0525 20.9666C95.0173 20.7128 94.969 20.4582 94.9635 20.2031C94.9475 19.4526 94.8584 18.7038 94.8224 17.9566C94.7905 17.3008 94.9865 16.6523 94.8204 15.9933C94.7162 15.5801 94.7731 15.1259 94.7046 14.6993C94.6259 14.2088 94.4608 13.7332 94.3827 13.2426C94.256 12.4465 94.2019 11.6368 94.0507 10.8467C93.9865 10.5114 93.8241 10.1222 93.5815 9.91544C93.204 9.5934 92.7411 9.34141 92.2758 9.17769C91.6698 8.96451 91.0736 8.6523 90.3882 8.76626C89.83 8.85897 89.2455 8.52299 88.6936 8.86133C88.6582 8.883 88.5857 8.83053 88.5294 8.8259C88.36 8.81208 88.1808 8.76395 88.0221 8.80295C87.6139 8.90328 87.2147 9.12449 86.8203 8.76139C86.7777 8.72216 86.6842 8.73954 86.6141 8.73598C86.4008 8.72516 86.187 8.71061 85.9735 8.70971C85.7865 8.70891 85.5991 8.7253 85.4119 8.73279C85.2841 8.73789 85.1434 8.77845 85.031 8.7371C84.74 8.63006 84.5159 8.72367 84.266 8.87882C84.1202 8.96934 83.9071 8.94977 83.723 8.96401C83.5429 8.97793 83.3502 8.93238 83.1825 8.98273C82.82 9.09157 82.475 9.26359 82.1124 9.3718C81.9534 9.41932 81.743 9.43004 81.6007 9.35976C81.2672 9.19501 80.9919 9.24483 80.7074 9.45995C80.5254 9.59745 80.3201 9.57311 80.0964 9.58291C79.7494 9.59806 79.3557 9.78864 79.0852 10.03C78.7614 10.3187 78.577 10.7433 78.782 11.2316C78.8077 11.293 78.7387 11.3922 78.7296 11.4757ZM82.152 15.9133C82.2433 15.7118 82.3114 15.4758 82.6167 15.4885C82.8845 15.4998 82.8558 15.285 82.8314 15.0922C82.7268 14.2628 82.6237 13.4332 82.5236 12.6032C82.5122 12.508 82.5228 12.4099 82.5233 12.2729C82.7465 12.2619 82.9705 12.2789 83.1824 12.2345C83.6129 12.1443 84.0397 11.9226 84.4634 11.9347C85.0673 11.952 85.6146 11.7388 86.1893 11.6508C86.5734 11.5919 86.9419 11.3561 87.3213 11.3449C88.0111 11.3245 88.7017 11.026 89.4052 11.3879C89.6898 11.5345 90.0681 11.476 90.3999 11.5348C90.7242 11.5923 91.0474 11.6665 91.3624 11.7635C91.4536 11.7916 91.5343 11.9121 91.5869 12.0094C91.7586 12.3273 91.9149 12.654 92.0776 12.9771C92.0936 13.0091 92.1344 13.0477 92.1268 13.0696C91.9335 13.631 92.2289 14.1595 92.2216 14.7048C92.2183 14.9534 92.0427 15.2234 92.0958 15.4445C92.2802 16.2106 92.1182 16.9764 92.1576 17.7405C92.1971 18.511 92.1867 19.2929 92.1035 20.0586C92.0465 20.5835 91.8337 21.0916 91.6741 21.6015C91.6516 21.6731 91.5383 21.7522 91.4602 21.7609C90.5945 21.8578 89.7288 21.9703 88.8601 22.0214C87.8296 22.0819 86.7955 22.1218 85.764 22.1033C85.0521 22.0906 84.3397 21.9815 83.6325 21.8806C83.2463 21.8256 83.1406 21.5296 83.3358 21.1915C83.3712 21.1303 83.41 21.0532 83.4045 20.9874C83.3783 20.6807 83.3529 20.3717 83.2897 20.0722C83.2743 19.9999 83.1155 19.9149 83.0219 19.914C82.6596 19.9103 82.5006 19.6776 82.5503 19.3698C82.6049 19.0321 82.7119 18.6678 82.9039 18.3982C83.1847 18.0042 83.1591 17.6415 83.0239 17.2259C82.9821 17.0969 83.0167 16.9409 83.0171 16.7972C83.0175 16.6021 83.0186 16.407 83.0198 16.1507C82.7594 16.206 82.589 16.2556 82.4152 16.2759C82.1677 16.3048 82.0469 16.145 82.152 15.9133Z" fill="white"/>
<path d="M131.022 24.3211C130.967 24.0084 130.797 23.6883 130.835 23.393C130.914 22.7758 131.15 22.174 130.851 21.5559C130.842 21.535 130.846 21.506 130.846 21.4808C130.845 20.5245 130.842 19.5683 130.848 18.6121C130.849 18.3612 130.907 18.1092 130.895 17.8599C130.86 17.1218 130.807 16.3845 130.753 15.6475C130.743 15.5136 130.733 15.3585 130.665 15.2549C130.545 15.0749 130.557 14.9388 130.688 14.7828C131.228 14.139 130.97 13.4319 130.819 12.7434C130.71 12.2475 130.565 11.7596 130.421 11.2729C130.37 11.101 130.316 10.8786 130.191 10.7922C129.891 10.5856 129.562 10.3944 129.218 10.2924C128.742 10.1512 128.215 10.1694 127.759 9.98765C127.636 9.9387 127.527 9.90623 127.427 9.89146C127.409 9.88407 127.391 9.87693 127.372 9.8724C127.34 9.86451 127.312 9.86504 127.282 9.85609C127.258 9.84919 127.231 9.83814 127.208 9.83344C127.171 9.82609 127.128 9.83651 127.089 9.83234C127.014 9.82413 126.944 9.79516 126.87 9.78043C126.767 9.76005 126.67 9.69761 126.569 9.67701C126.513 9.66544 126.455 9.65533 126.399 9.64074C126.324 9.62147 126.248 9.62214 126.171 9.61397C125.974 9.59301 125.781 9.57029 125.582 9.56943C125.446 9.56887 125.309 9.56744 125.173 9.56785C125.08 9.56811 124.993 9.5615 124.902 9.54223C124.863 9.53394 124.827 9.53127 124.787 9.53171C124.674 9.533 124.555 9.51528 124.445 9.54267C124.381 9.55866 124.315 9.56048 124.251 9.57255C124.226 9.57719 124.206 9.58095 124.179 9.5806C124.133 9.57999 124.083 9.58742 124.037 9.57893C124.005 9.57285 123.972 9.55149 123.943 9.53651C123.901 9.51563 123.891 9.4905 123.853 9.4668C123.797 9.43328 123.736 9.38732 123.678 9.36091C123.636 9.3419 123.58 9.33782 123.537 9.32795C123.509 9.3216 123.484 9.31956 123.455 9.31965C123.385 9.31979 123.313 9.32349 123.243 9.31486C123.047 9.29047 122.85 9.30436 122.654 9.29807C122.71 9.34441 122.788 9.3469 122.856 9.35078C122.912 9.3539 122.971 9.39533 123.026 9.38564C122.963 9.41264 122.872 9.41538 122.804 9.41999C122.674 9.42881 122.542 9.42774 122.412 9.44428C122.233 9.46732 122.034 9.45606 121.855 9.43323C121.72 9.41605 121.59 9.32705 121.48 9.24873C121.438 9.21886 121.395 9.22103 121.344 9.2251C121.213 9.23574 121.085 9.28867 120.955 9.30871C120.921 9.31393 120.907 9.32301 120.871 9.32624C120.753 9.33694 120.634 9.35227 120.516 9.36857C120.418 9.32777 120.269 9.3372 120.06 9.38735C120.002 9.40133 119.941 9.40806 119.881 9.40607C119.418 9.39033 118.954 9.37048 118.491 9.35558C118.443 9.35407 118.396 9.3819 118.348 9.38709C118.182 9.40491 118.016 9.41122 117.851 9.43619C117.685 9.4616 117.519 9.49639 117.356 9.54049C117.022 9.63117 116.694 9.79015 116.356 9.81528C115.461 9.88177 114.794 10.565 115.341 11.5076C115.42 11.6438 115.439 11.8375 115.433 12.0026C115.404 12.8245 115.335 13.6452 115.32 14.467C115.299 15.6909 115.287 16.9161 115.318 18.1394C115.343 19.1412 115.417 20.1431 115.506 21.1413C115.587 22.0331 115.67 22.9008 114.921 23.584C114.832 23.6646 114.859 23.9102 114.876 24.0746C114.89 24.2186 114.948 24.3663 115.018 24.4934C115.099 24.6387 115.193 24.7938 115.319 24.8913C115.878 25.3215 116.467 25.712 117.012 26.1604C117.239 26.3476 117.361 26.4386 117.448 26.1471C117.695 26.167 117.939 26.2622 118.114 26.1862C118.546 25.9989 119.091 26.1754 119.443 25.7347C119.477 25.6914 119.621 25.7361 119.713 25.7476C120.056 25.7902 120.401 25.9688 120.737 25.7095C120.779 25.6771 120.856 25.6752 120.913 25.6853C121.259 25.7476 121.602 25.8429 121.95 25.8748C122.153 25.8934 122.38 25.8529 122.567 25.7692C122.798 25.6652 122.974 25.6789 123.219 25.7626C123.725 25.9357 124.261 26.0174 124.786 26.1314C124.828 26.1407 124.895 26.1254 124.924 26.0947C125.172 25.8309 125.447 25.8225 125.79 26.0641C125.791 25.8802 125.803 25.7709 125.789 25.6652C125.745 25.323 125.949 25.1721 126.217 25.1039C126.551 25.0187 126.922 24.822 127.208 25.1651C127.3 25.2756 127.262 25.5144 127.257 25.6936C127.254 25.802 127.186 25.9067 127.17 26.0166C127.14 26.2195 127.238 26.3752 127.433 26.3075C127.85 26.1625 128.237 26.2959 128.641 26.3465C128.909 26.38 129.05 26.4732 129.08 26.7424C129.106 26.9683 129.142 27.1941 129.148 27.4207C129.168 28.1715 129.152 28.9241 129.195 29.6731C129.245 30.524 129.342 31.3719 129.424 32.2207C129.436 32.353 129.475 32.4827 129.501 32.6136C129.549 32.6119 129.596 32.61 129.643 32.6082C129.667 32.24 129.695 31.872 129.713 31.5036C129.747 30.8176 129.789 30.1316 129.803 29.4452C129.815 28.8303 129.794 28.2149 129.79 27.5997C129.79 27.5518 129.798 27.4817 129.828 27.4595C130.078 27.2747 130.051 26.9971 130.056 26.7367C130.06 26.477 130.164 26.3551 130.421 26.3166C130.548 26.2977 130.712 26.1965 130.768 26.084C130.914 25.7895 131.06 25.4767 131.111 25.1551C131.153 24.8888 131.072 24.5973 131.022 24.3211ZM116.258 13.8673C116.196 14.5068 116.073 15.1399 115.89 15.7674C115.894 14.7182 115.899 13.669 115.903 12.6198C115.938 12.6045 115.974 12.5891 116.009 12.5738C116.075 12.6374 116.19 12.6953 116.198 12.7654C116.236 13.1313 116.293 13.505 116.258 13.8673ZM128.495 20.2029C128.586 20.3342 128.478 20.6181 128.443 20.829C128.418 20.9823 128.317 21.1351 128.331 21.2801C128.38 21.8142 128.076 22.2698 127.575 22.4073C127.46 22.4387 127.338 22.5627 127.283 22.6768C127.141 22.9685 126.967 23.1239 126.621 23.0826C126.47 23.0646 126.261 23.1605 126.151 23.2776C125.936 23.5069 125.703 23.5428 125.419 23.5165C125.092 23.4862 124.762 23.4803 124.434 23.4843C124.169 23.4876 123.905 23.5395 123.641 23.5375C123.223 23.5343 122.791 23.4234 122.392 23.5039C121.765 23.6304 121.167 23.4935 120.555 23.467C120.185 23.4509 119.81 23.4632 119.441 23.5023C119.207 23.5272 119.155 23.4399 119.112 23.225C119.073 23.0333 118.981 22.8277 118.853 22.6872C118.684 22.5037 118.568 22.3607 118.705 22.0979C118.763 21.9864 118.798 21.7938 118.744 21.7006C118.553 21.3754 118.38 21.0728 118.639 20.7012C118.663 20.6669 118.639 20.5619 118.603 20.524C118.377 20.2845 118.324 20.0151 118.34 19.6779C118.37 19.0497 118.421 18.3983 118.295 17.7938C118.182 17.2494 118.138 16.7307 118.188 16.1871C118.204 16.0177 118.174 15.8434 118.162 15.6716C118.136 15.2905 118.082 14.9094 118.085 14.5287C118.089 14.1505 118.141 13.7716 118.193 13.396C118.2 13.3398 118.318 13.2923 118.392 13.2546C118.632 13.132 118.868 12.9963 119.119 12.9027C119.262 12.8491 119.411 12.7878 119.56 12.7468C119.566 12.7518 119.573 12.756 119.58 12.7587C119.628 12.7782 119.686 12.7409 119.732 12.7305C119.779 12.7199 119.828 12.7086 119.877 12.7008C119.885 12.7009 119.894 12.7008 119.903 12.7012C120.1 12.7109 120.269 12.6943 120.393 12.6307C120.427 12.6227 120.463 12.6188 120.498 12.6134C120.528 12.6087 120.551 12.5966 120.579 12.5914C120.615 12.5849 120.645 12.588 120.682 12.5757C120.712 12.5659 120.733 12.5499 120.761 12.5372C120.88 12.4813 121.019 12.491 121.147 12.4916C121.258 12.492 121.37 12.4925 121.481 12.493C121.543 12.4932 121.604 12.4963 121.666 12.4929C121.734 12.4891 121.8 12.4675 121.867 12.4606C121.916 12.4556 121.958 12.4299 122.005 12.4135C122.088 12.3843 122.171 12.3777 122.257 12.368C122.385 12.3535 122.511 12.3287 122.637 12.298C122.731 12.2749 122.82 12.242 122.918 12.2403C123.068 12.2378 123.217 12.2424 123.367 12.243C123.563 12.2438 123.754 12.2433 123.938 12.1744C124.059 12.129 124.171 12.0146 124.308 12.0658C124.332 12.0751 124.352 12.0978 124.376 12.1063C124.424 12.1237 124.496 12.1102 124.547 12.1105C124.616 12.1108 124.686 12.1135 124.754 12.1126C124.828 12.1116 124.899 12.0902 124.966 12.0598C124.983 12.0525 125.02 12.042 125.03 12.0287C125.05 12.0009 125.025 11.9589 125.054 11.927C125.068 11.9116 125.078 11.91 125.096 11.9022C125.142 11.8823 125.197 11.8902 125.25 11.8897C125.338 11.889 125.396 11.9677 125.479 11.9906C125.555 12.0114 125.608 12.0354 125.671 12.0885C125.71 12.1218 125.757 12.1419 125.801 12.1689C125.869 12.2104 125.904 12.2372 125.982 12.2373C126.048 12.2373 126.115 12.2375 126.181 12.2378C126.292 12.2384 126.406 12.2423 126.515 12.265C126.559 12.2742 126.597 12.2741 126.643 12.2738C126.691 12.2735 126.734 12.2896 126.782 12.2929C126.885 12.3 126.988 12.2864 127.091 12.3058C127.161 12.319 127.224 12.3289 127.297 12.3288C127.398 12.3285 127.5 12.3278 127.601 12.3295C127.657 12.3305 127.7 12.3549 127.754 12.3715C127.858 12.4036 127.949 12.4675 128.045 12.5174C128.071 12.5305 128.094 12.5429 128.117 12.5554C128.138 12.5939 128.156 12.6358 128.17 12.6817C128.241 12.9102 128.262 13.1599 128.275 13.4018C128.305 13.98 128.246 14.5742 128.357 15.1338C128.474 15.7212 128.438 16.2732 128.371 16.8532C128.323 17.2674 128.354 17.7187 128.47 18.1165C128.56 18.4281 128.602 18.6747 128.476 18.9804C128.313 19.3768 128.204 19.7771 128.495 20.2029ZM129.36 24.085C129.176 24.1229 128.946 23.7618 128.989 23.4801C129.006 23.3641 129.136 23.2662 129.215 23.1602C129.371 23.3441 129.527 23.5281 129.731 23.7698C129.557 23.9242 129.469 24.0624 129.36 24.085Z" fill="white"/>
<path d="M46.0432 28.0186C46.1823 28.0379 46.3329 28.0576 46.4656 28.025C47.0047 27.8922 47.4992 27.6124 47.9684 27.3535C48.5153 27.0516 49.0918 26.9854 49.6596 26.8505C50.0159 26.7659 50.4549 26.3305 50.3222 25.9831C50.2537 25.8038 50.0158 25.6892 49.7784 25.4777C49.8085 25.438 49.8699 25.2812 49.9815 25.2264C50.2015 25.1182 50.1468 25.0007 50.1264 24.8029C50.0822 24.3737 50.0865 23.9311 50.1396 23.5025C50.2054 22.9708 50.3888 22.4518 50.4341 21.9199C50.5025 21.1208 50.4036 20.2984 50.5476 19.5175C50.6682 18.8638 50.5813 18.2243 50.6499 17.5824C50.6835 17.2697 50.7228 16.951 50.6979 16.64C50.6552 16.1106 50.5834 15.5866 50.7959 15.0756C50.9053 14.8127 50.8216 14.3727 50.6339 14.3556C50.1819 14.3144 49.9644 13.9829 49.7231 13.6847C49.284 13.1421 48.6233 13.206 48.3319 13.83C48.3033 13.8918 48.2387 13.9367 48.2088 13.9983C47.8984 14.6354 47.3719 15.2047 47.5869 16.0089C47.6153 16.1149 47.5763 16.243 47.5539 16.3579C47.4491 16.8957 47.3057 17.4284 47.24 17.9706C47.1652 18.5887 47.1592 19.2149 47.1199 19.8374C47.1171 19.8817 47.0797 19.9228 47.0695 19.9679C47.0061 20.245 46.9245 20.5201 46.8897 20.801C46.8299 21.2845 46.8116 21.7731 46.7542 22.2571C46.7039 22.6828 46.6217 23.1047 46.5581 23.529C46.4897 23.9847 46.4424 24.4442 46.3554 24.8963C46.2932 25.2204 46.1549 25.5302 46.0966 25.8547C45.9876 26.4608 45.9283 27.0758 45.815 27.6809C45.7718 27.9111 45.8539 27.9924 46.0432 28.0186Z" fill="white"/>
<path d="M47.3723 11.5689C47.4148 11.7258 47.5582 11.8553 47.6561 11.9972C47.7804 11.9011 47.9042 11.8043 48.0292 11.7093C48.1191 11.6409 48.2598 11.4978 48.2946 11.5198C48.6479 11.7426 48.964 11.3523 49.3188 11.4808C49.4913 11.5433 49.7698 11.5511 49.8973 11.4517C50.1945 11.2201 50.5643 11.1729 50.8582 10.9966C51.2733 10.7476 51.5128 10.2833 51.7732 9.86953C51.8069 9.81595 51.8085 9.73059 51.7994 9.66337C51.7438 9.25215 51.6509 8.84346 51.6293 8.43084C51.6094 8.05017 51.6133 7.6535 51.7021 7.28703C51.7654 7.0258 51.6799 6.89093 51.535 6.72668C51.3685 6.53778 51.2067 6.62727 51.0231 6.69571C50.5242 6.88157 50.0792 7.17666 49.5176 7.24408C49.0145 7.30444 48.4017 7.21031 48.0682 7.78474C48.0526 7.81146 47.9824 7.80473 47.9386 7.81692C47.4564 7.95077 47.3165 8.09291 47.3027 8.56735C47.2827 9.25462 47.2925 9.94279 47.2896 10.6306C47.2653 10.6325 47.241 10.6345 47.2168 10.6364C47.2654 10.9481 47.2904 11.2662 47.3723 11.5689Z" fill="white"/>
<path d="M113.743 27.8714C113.719 28.2656 114.408 28.9569 114.83 28.9576C115.293 28.9585 115.755 28.9448 116.185 28.713C116.56 28.5107 116.668 28.2717 116.45 27.8952C116.365 27.7493 116.161 27.675 116.068 27.5312C115.855 27.2027 115.543 27.1675 115.203 27.1595C115.1 27.1572 114.994 27.1207 114.898 27.0805C114.123 26.7573 113.95 26.8449 113.784 27.6548C113.767 27.7357 113.753 27.817 113.743 27.8714Z" fill="white"/>
<path d="M33.6625 25.9012C33.4327 25.4458 33.2004 24.9914 32.9645 24.5391C32.9115 24.4373 32.841 24.3445 32.7785 24.2477C32.6153 24.3538 32.3364 24.4367 32.3097 24.57C32.2126 25.0563 32.184 25.559 32.168 26.0568C32.1648 26.1591 32.3243 26.2692 32.4136 26.3715C32.5212 26.4949 32.615 26.6441 32.7489 26.7275C32.9441 26.8491 33.1651 26.9711 33.3848 26.9922C33.4775 27.001 33.634 26.7681 33.6897 26.6183C33.7428 26.4758 33.7024 26.2985 33.7031 26.1365L33.7422 26.1321C33.7161 26.0549 33.6989 25.9733 33.6625 25.9012Z" fill="white"/>
<path d="M92.7626 7.30159C93.1759 7.32309 93.3602 7.11693 93.3983 6.6563C93.421 6.38332 93.2345 6.26912 92.7338 6.24944C92.4974 6.24013 92.0455 6.65369 92.0687 6.90273C92.1166 7.41031 92.5514 7.20157 92.7626 7.30159Z" fill="white"/>
<path d="M72.5463 18.1865C72.6536 18.1467 72.799 17.9998 72.7931 17.9076C72.7794 17.6927 72.7223 17.4599 72.6106 17.2789C72.5363 17.1585 72.3138 17.0289 72.2004 17.06C72.076 17.094 72.0007 17.3076 71.8872 17.4665C72.0125 17.6969 72.0983 17.904 72.2301 18.0756C72.2902 18.1535 72.4625 18.2176 72.5463 18.1865Z" fill="white"/>
<path d="M51.0474 26.6041C51.1512 26.7343 51.239 26.8837 51.3646 26.9875C51.4468 27.0553 51.5837 27.0568 51.7842 27.1124C51.9089 27.0254 52.1582 26.9398 52.2042 26.7913C52.2411 26.6725 52.0631 26.4309 51.9197 26.3308C51.8103 26.2544 51.5931 26.276 51.447 26.3241C51.2991 26.3726 51.1793 26.5073 51.0474 26.6041Z" fill="white"/>
<path d="M118.918 28.3793C119.143 28.35 119.466 28.3993 119.59 27.9906C119.431 27.8407 119.276 27.6007 119.067 27.536C118.96 27.5027 118.676 27.7557 118.619 27.9279C118.571 28.0735 118.624 28.4178 118.918 28.3793Z" fill="white"/>
<path d="M31.194 29.2228C31.3117 29.2092 31.5164 28.9766 31.5031 28.9553C31.3856 28.7676 31.2278 28.6052 31.0303 28.375C30.8262 28.5445 30.634 28.627 30.5906 28.7585C30.5285 28.9468 30.9163 29.2548 31.194 29.2228Z" fill="white"/>
<path d="M79.192 27.7925C79.1908 27.7073 78.9546 27.5336 78.9056 27.5583C78.7379 27.643 78.6053 27.7978 78.4595 27.9259C78.5386 28.0028 78.6176 28.0797 78.6964 28.1566C78.9812 28.1217 79.1967 28.0675 79.192 27.7925Z" fill="white"/>
<path d="M49.3394 28.1145C49.6102 28.3877 49.9055 28.3123 50.0183 27.9411C49.5933 27.863 49.5016 27.8863 49.3394 28.1145Z" fill="white"/>
<path d="M53.0272 6.51721C53.1221 6.50822 53.2107 6.43399 53.302 6.38708C53.3019 6.3547 53.3016 6.32229 53.3014 6.28985C53.2288 6.26184 53.1478 6.1994 53.0853 6.21415C52.9996 6.23437 52.9277 6.31321 52.8501 6.36688C52.9094 6.42056 52.9734 6.52231 53.0272 6.51721Z" fill="white"/>
<path d="M84.9595 20.5009C85.0697 20.4731 85.2121 20.3164 85.2273 20.2015C85.2634 19.9308 85.0884 19.8138 84.716 19.8209C84.6886 19.8484 84.5501 19.9243 84.5204 20.0325C84.4711 20.2128 84.7778 20.5467 84.9595 20.5009Z" fill="white"/>
<path d="M12.4298 25.6038C12.4341 25.6032 12.4383 25.6027 12.4425 25.6021C12.3636 25.6124 12.3105 25.6199 12.4298 25.6038Z" fill="white"/>
<path d="M8.73004 30.4556C8.87325 30.4477 9.0183 30.4444 9.15776 30.418C10.9142 30.0861 12.6884 29.8629 14.3621 29.288C14.4125 29.2708 14.4509 29.2552 14.4788 29.241C12.543 29.5646 10.5689 29.7289 8.59131 30.3263C8.69014 30.4201 8.71227 30.4566 8.73004 30.4556Z" fill="white"/>
<path d="M12.8393 25.5211C12.861 25.5189 12.8826 25.5161 12.9042 25.513C12.7793 25.5269 12.7411 25.5314 12.8393 25.5211Z" fill="white"/>
<path d="M27.2983 9.06041C27.0965 8.37526 26.7362 7.97908 26.051 7.7429C25.4261 7.52751 25.3389 7.29292 25.6972 6.90192C25.3795 6.47574 24.803 6.18947 24.2675 6.18503C23.1285 6.17569 21.988 6.16394 20.8465 6.15207C20.7087 6.15065 20.5699 6.14236 20.439 6.13753C20.6501 6.61797 20.838 7.05421 21.0393 7.48947C21.0588 7.53162 21.1529 7.55751 21.215 7.5826C21.51 7.70181 21.8082 7.81244 22.102 7.93759C22.3698 8.05164 22.4822 8.23848 22.5286 8.51216C22.7555 9.84953 23.0099 11.2099 23.2674 12.5934C23.3366 12.9649 23.4657 13.3402 23.5045 13.7119C23.5366 14.0193 23.468 14.3203 23.4557 14.6281C23.4408 15.0016 23.4485 15.3815 23.4278 15.757C23.4029 16.2065 23.3683 16.6568 23.3183 17.1051C23.2838 17.4138 23.2134 17.7139 23.164 18.0211C23.1456 18.1355 23.1025 18.2615 23.1381 18.371C23.2962 18.8568 23.1757 19.282 23.0928 19.72C23.0315 20.0438 22.9563 20.3646 22.9068 20.6947C22.7827 21.522 22.6566 22.3576 22.5556 23.2091C22.5184 23.5228 22.3647 23.645 22.081 23.69C21.8073 23.7334 21.5458 23.8216 21.2821 23.8988C20.9253 24.0033 20.5725 24.1191 20.2142 24.2226C20.1599 24.2383 20.0877 24.2037 20.0265 24.2072C19.8704 24.2159 19.7051 24.207 19.5625 24.2517C19.1419 24.3839 18.744 24.5851 18.3093 24.6736C17.7874 24.78 17.2327 24.7773 16.7004 24.8577C15.6544 25.0157 14.6111 25.1972 13.5636 25.3742C13.3419 25.4117 13.1271 25.4814 12.9045 25.5129C13.2574 25.4735 14.3033 25.3583 14.9265 25.2874C14.8478 25.2989 14.769 25.3102 14.69 25.3202C13.9422 25.4139 13.1915 25.5009 12.4427 25.6021C12.6424 25.5759 13.0079 25.5317 11.1724 25.8058C10.8417 25.8552 10.4957 25.8237 10.1605 25.8542C9.57212 25.9077 8.98802 25.9945 8.39737 26.0413C7.67219 26.0988 6.94259 26.13 6.21357 26.1709C6.07445 26.1788 5.9316 26.2037 5.79532 26.178C5.06062 26.0395 4.32911 26.064 3.59725 26.0849C3.45986 26.0888 3.29911 26.1056 3.19482 26.183C2.68004 26.5645 2.08003 26.8488 1.73092 27.4474C1.66688 27.5572 1.52465 27.8653 1.65713 27.853C2.47413 27.7771 2.33345 28.3775 2.9226 28.6215C3.69347 28.9406 4.46562 28.8366 5.10662 29.4819C5.32534 29.7021 5.61768 29.8534 5.89597 29.9828C6.05596 30.0573 6.27252 29.9724 6.43114 30.0485C6.89229 30.2699 7.28023 30.1128 7.67592 29.9345C7.788 29.884 7.909 29.8374 8.03079 29.8287C8.62676 29.7859 9.22394 29.7567 9.81991 29.722C9.8325 29.7213 9.84411 29.7133 9.85626 29.7089C10.3425 29.5316 10.8203 29.3328 11.3136 29.1845C11.8138 29.0341 12.3337 28.9458 12.8363 28.8076C13.0403 28.7515 13.2511 28.7783 13.4641 28.8356C14.3042 28.7311 15.167 28.9915 15.9869 28.7965C16.0236 28.7868 16.0603 28.7772 16.097 28.7675C16.1334 28.7569 16.1697 28.7454 16.2059 28.7327C16.4735 28.6395 16.7233 28.5015 16.9937 28.4196C17.5131 28.2624 18.0395 28.1269 18.5637 27.9897C19.3578 27.7817 20.0759 27.3639 20.9465 27.3869C21.0186 27.3888 21.0879 27.3503 21.1539 27.3216C21.5379 27.155 21.9028 26.9431 22.3045 26.8278C23.063 26.61 23.8421 26.4507 24.6066 26.2596C24.7466 26.2246 24.8936 26.1775 24.9998 26.0896C25.3176 25.8266 25.63 25.5566 25.9168 25.2628C26.3025 24.8677 26.2108 24.0918 25.6989 23.6985C25.3904 23.4615 25.4284 23.2794 25.5055 23.0386C25.6606 22.554 25.8543 22.0864 25.9503 21.5858C26.1427 20.5826 26.2775 19.571 26.4378 18.5816C26.5452 17.9189 26.6596 17.2643 26.7694 16.6137C26.8071 16.3897 26.8456 16.1667 26.8813 15.9433C27.0268 15.0337 27.1772 14.1363 27.3073 13.243C27.345 12.9836 27.3291 12.7084 27.3367 12.4751C27.1744 12.3898 27.0407 12.3196 26.9071 12.2494C26.9074 12.2072 26.9076 12.165 26.9078 12.1228C27.0487 12.103 27.1895 12.0833 27.3303 12.0636C27.3652 12.0861 27.4001 12.1086 27.4349 12.1311C27.4408 11.8767 27.428 11.6178 27.4561 11.3713C27.5427 10.61 27.535 9.8642 27.2983 9.06041ZM23.4248 11.8192C23.274 10.7335 23.1252 9.66237 22.9725 8.56349C23.2676 8.69539 23.4397 9.09692 23.3701 9.36795C23.3495 9.44786 23.2823 9.54111 23.3136 9.60471C23.4849 9.95334 23.4737 10.2932 23.4796 10.6387C23.4864 11.0327 23.502 11.4301 23.5138 11.8289C23.4842 11.8257 23.4545 11.8225 23.4248 11.8192ZM16.352 25.5355C16.2977 25.5457 16.2441 25.5321 16.1903 25.5457C16.1051 25.5673 16.0344 25.604 15.9438 25.6053C15.854 25.6066 15.7763 25.6181 15.6879 25.6305C15.5081 25.6556 15.329 25.6639 15.149 25.6967C14.9807 25.7274 14.813 25.7604 14.6411 25.7614C14.406 25.7627 14.1721 25.7723 13.9386 25.7879C13.6401 25.8272 13.3426 25.8744 13.0535 25.9503C12.4334 26.1133 11.8029 26.2007 11.1747 26.3214C10.9367 26.3671 10.695 26.418 10.454 26.4437C10.2724 26.4632 10.0853 26.4441 9.90293 26.4451C9.68478 26.4461 9.46761 26.4713 9.24893 26.474C9.08641 26.4759 8.91915 26.5587 8.75924 26.5385C8.92048 26.5337 9.05752 26.4841 9.21552 26.4429C9.41239 26.3915 9.61688 26.365 9.81641 26.3281C10.1379 26.2684 10.4563 26.1935 10.7826 26.1663C11.0564 26.1435 11.3277 26.1042 11.5987 26.058C11.6856 26.0431 11.7707 26.0121 11.8578 26.0026C12.189 25.9668 12.5225 25.9388 12.8544 25.8967C13.2164 25.8508 13.5769 25.8121 13.9386 25.7879C14.1425 25.761 14.3468 25.7378 14.5492 25.7116C14.6962 25.6925 14.8414 25.6562 14.9873 25.6367C15.0105 25.6335 15.0295 25.6285 15.053 25.632L16.6941 25.446C16.5867 25.4828 16.4636 25.5146 16.352 25.5355Z" fill="white"/>
<path d="M14.8439 29.1035C14.4033 29.23 13.9281 28.9604 13.4639 28.8356C13.317 28.8538 13.1708 28.8832 13.0257 28.9282C12.1127 29.211 14.9763 28.9892 14.4789 29.241C15.3173 29.101 16.1486 28.931 16.9699 28.6829C16.955 28.6389 16.94 28.5947 16.9251 28.5507C16.6529 28.6219 16.3802 28.6923 16.1077 28.7646C16.104 28.7656 16.1004 28.7665 16.0967 28.7674C16.0601 28.7781 16.0234 28.7877 15.9866 28.7965C15.6056 28.8968 15.2231 28.9944 14.8439 29.1035Z" fill="white"/>
<path d="M3.79379 8.98082C3.89369 9.13093 4.03693 9.27688 4.07433 9.43909C4.16169 9.81773 4.19639 10.2065 4.25432 10.5937C4.30068 10.9037 4.37607 11.2152 4.39012 11.5271C4.40488 11.8547 4.35728 12.1826 4.34451 12.513C4.33826 12.675 4.34952 12.8389 4.35289 13.0023C4.39623 13.008 4.43953 13.0137 4.48288 13.0193C4.52126 12.7952 4.55858 12.5714 4.59785 12.3487C4.75944 11.4332 4.93942 10.5321 5.06791 9.63189C5.11467 9.30418 5.11666 9.02009 5.57551 9.04933C5.65156 9.05421 5.72181 8.95444 5.80513 8.93034C5.95281 8.88756 6.10624 8.85154 6.26137 8.84042C6.35922 8.83336 6.46808 8.8997 6.56638 8.89359C7.1573 8.85667 6.84409 8.85162 7.43368 8.80784C7.76418 8.78328 8.0953 8.7636 8.42491 8.7364C8.74273 8.71016 8.87494 8.85007 8.93504 9.15163C9.1054 10.0067 9.27989 10.8724 9.50876 11.738C9.78749 12.7922 9.98937 13.8563 9.95573 14.9517C9.91939 16.1347 9.90973 17.3384 9.86173 18.555C9.82787 19.4127 9.74428 20.2729 9.69243 21.1464C9.67824 21.3856 9.72921 21.6368 9.70191 21.8735C9.65617 22.2703 9.52556 22.6556 9.51381 23.0581C9.49977 23.5393 9.55712 24.0348 9.62741 24.5251C9.63982 24.6119 9.93668 24.781 9.98268 24.7465C10.2675 24.533 10.5491 24.3011 10.7691 24.0217C10.998 23.7308 11.0982 23.3138 11.3578 23.0714C11.8548 22.6072 11.8334 21.8878 12.1565 21.3561C11.936 20.8941 12.2345 20.5754 12.3471 20.2073C12.3718 20.1266 12.3906 20.0402 12.3919 19.9542C12.4018 19.3018 12.3817 18.6497 12.4199 18.0121C12.4589 17.3589 12.5404 16.7168 12.6242 16.0822C12.7319 15.2663 12.8688 14.4655 12.9743 13.6657C13.0466 13.117 13.0657 12.5592 13.1559 12.0233C13.1991 11.7664 13.1663 11.6029 12.9288 11.4307C12.821 11.3525 12.7436 11.1886 12.7127 11.0567C12.5908 10.5363 12.5023 10.0154 12.3834 9.50141C12.3281 9.26229 12.3017 9.04562 12.5626 8.94953C12.7996 8.86221 13.0442 8.75385 13.2983 8.74747C13.6345 8.73905 13.8004 8.66769 13.6389 8.30874C14.3748 8.23499 15.0807 8.16727 15.7833 8.09087C15.9014 8.07801 16.0367 8.05572 16.118 7.98923C16.4646 7.70563 16.5326 7.14994 16.2993 6.72291C16.267 6.66379 16.218 6.59567 16.2224 6.54049C16.2545 6.13792 15.9644 6.10469 15.6664 6.09254C15.0355 6.06692 14.4055 6.0562 13.7738 6.02442C13.5867 6.01499 13.3452 6.01298 13.2164 5.90928C12.6334 5.43983 12.0868 5.65195 11.5218 5.74889C11.0906 5.8229 10.6569 5.91044 10.2141 5.92448C9.65888 5.94208 9.09406 5.8873 8.53371 5.87289C8.46369 5.87108 8.39699 5.92501 8.35023 5.94425C8.95963 6.23676 9.54714 6.51877 10.1365 6.80167C10.1265 6.83176 10.1166 6.8619 10.1066 6.89204C10.067 6.8962 10.0273 6.9076 9.98782 6.90356C8.87467 6.79024 7.83008 6.39352 6.78333 6.01702C6.48549 5.90986 6.16909 5.84777 5.85792 5.79316C5.66127 5.75864 6.34331 5.74348 6.14316 5.72774C5.56864 5.68253 4.99363 5.60676 4.42017 5.58725C3.89187 5.5693 3.36291 5.65337 2.83656 5.61153C2.20255 5.5611 1.57298 5.42149 0.941153 5.32784C0.468787 5.25777 0.268503 5.47135 0.435635 5.89222C0.535666 6.14409 0.781112 6.37439 0.804824 6.62302C0.840502 6.99747 1.09153 7.20556 1.35005 7.38032C2.12269 7.90255 2.98082 8.31357 3.70479 8.92625C3.73103 8.94846 3.7769 8.95543 3.79379 8.98082ZM12.0095 13.3623C12.1579 13.0158 12.1959 13.0052 12.5367 13.2283C12.5968 13.2677 12.6479 13.3214 12.6295 13.3058C12.6188 13.6294 12.6221 13.8598 12.5968 14.085C12.5892 14.1533 12.4921 14.2652 12.4532 14.255C12.1343 14.172 11.8854 13.6524 12.0095 13.3623ZM9.63064 8.72713C9.67483 9.53979 9.71919 10.356 9.76693 11.2336C9.58402 10.3444 9.41299 9.51283 9.23655 8.65511C9.39477 8.684 9.48213 8.7 9.63064 8.72713Z" fill="white"/>
<path d="M16.5788 4.52138C16.8941 5.18552 17.2201 5.85294 17.5288 6.53171C17.6678 6.83712 17.7885 7.15273 17.8762 7.47042C17.9263 7.65195 17.9692 7.89819 17.8811 8.02216C17.5493 8.48881 17.3245 9.0503 16.7725 9.3558C16.6862 9.40358 16.6473 9.51939 16.5855 9.60324C16.4957 9.72499 16.4074 9.84824 16.3138 9.96778C16.1083 10.2305 15.781 10.458 15.7233 10.7646C15.6635 11.0823 15.7965 11.5051 15.9709 11.8344C16.278 12.4146 16.6918 12.9559 17.049 13.5267C17.4193 14.1184 17.7815 14.7202 18.1328 15.3321C18.2072 15.4617 18.2725 15.6679 18.2225 15.7703C18.0335 16.1579 17.7965 16.5204 17.5706 16.8909C17.5009 17.0051 17.4217 17.1151 17.3322 17.2138C17.1791 17.3826 17.0142 17.541 16.8538 17.7042C16.7983 17.6642 16.7427 17.6241 16.6872 17.584C16.7764 17.3499 16.8515 17.1084 16.9581 16.8858C17.0554 16.6828 17.219 16.5142 17.2913 16.3034C17.3401 16.1607 17.3346 15.9505 17.2624 15.806C17.0905 15.4616 16.8732 15.1351 16.6616 14.8108C16.4102 14.4256 16.1457 14.0499 15.8523 13.6194C15.6377 13.8791 15.4805 14.0555 15.3384 14.2442C15.1086 14.5496 14.8812 14.8591 14.6644 15.1779C14.478 15.4522 14.2131 15.714 14.1579 16.0317C14.0996 16.3675 13.9704 16.6227 13.7916 16.8804C13.7513 16.9385 13.7599 17.0967 13.8096 17.1486C14.2191 17.5755 14.5922 18.1038 15.0844 18.3787C15.5804 18.6558 15.8596 19.1343 16.3255 19.4135C16.5857 19.5695 16.7999 19.8162 17.0542 19.9913C17.4687 20.2766 17.91 20.5197 18.3214 20.8147C18.6044 21.0176 18.7711 21.0269 18.9177 20.7458C18.988 20.6109 19.0126 20.442 19.1014 20.3258C19.5143 19.7854 19.9456 19.2666 20.3528 18.7334C20.4745 18.5741 20.556 18.3812 20.6479 18.1997C20.8295 17.8407 21.0126 17.4845 21.1787 17.1208C21.2623 16.9377 21.2765 16.7094 21.3846 16.549C21.718 16.0548 21.6673 15.7808 21.1812 15.3293C21.0256 15.1847 20.9531 14.9534 20.8395 14.764C20.6604 14.4653 20.5403 14.0654 20.2851 13.8976C19.9106 13.6513 19.8195 13.2688 19.5301 12.9961C19.0554 12.5486 18.8651 11.866 18.2168 11.5579C18.1699 11.5357 18.1098 11.4257 18.1243 11.3892C18.1974 11.2047 18.0682 10.9214 18.364 10.8382C18.428 10.8202 18.4815 10.6746 18.4644 10.5922C18.4069 10.3135 18.514 10.1594 18.748 10.0499C18.8374 10.0082 18.8992 9.90356 18.9441 9.81168C19.1385 9.41373 19.3178 9.01015 19.5084 8.6153C19.6009 8.42352 19.7153 8.24398 19.8062 8.05256C19.8441 7.97274 19.8965 7.85605 19.8586 7.78859C19.6798 7.47028 19.8403 7.02344 19.3316 6.83105C19.3034 6.82037 19.29 6.7546 19.2721 6.71382C19.0581 6.22705 18.881 5.73022 18.6248 5.26588C18.3825 4.82688 18.059 4.42029 17.7711 4.00381C17.7466 3.96849 17.705 3.94101 17.6694 3.91207C17.2362 3.5595 17.1337 3.16873 17.3361 2.74631C17.4937 2.41705 17.6168 2.07268 17.7696 1.74467C17.8786 1.51048 18.0127 1.28923 18.135 1.06324C18.1205 1.0601 18.1061 1.05691 18.0916 1.05372C18.175 0.755484 18.2581 0.458494 18.3408 0.162656C18.3676 0.0995878 18.3656 0.0826131 18.4123 0C17.8773 0.419802 17.2408 1.00807 16.8692 1.57599C16.7208 1.80291 16.605 2.05141 16.4835 2.29615C16.416 2.43212 16.3926 2.59389 16.3077 2.71799C15.8812 3.341 15.9344 3.81018 16.5211 4.40535C16.5508 4.43549 16.5602 4.48225 16.5788 4.52138Z" fill="#7DEAFA"/>
<path d="M12.8392 22.73C12.626 22.6985 12.4246 23.041 12.4414 23.5282C12.4931 23.5905 12.5933 23.8021 12.7429 23.8706C12.9463 23.964 13.1853 23.5651 13.159 23.2033C13.1436 22.9906 13.105 22.7692 12.8392 22.73Z" fill="white"/>
<path d="M4.12185 14.6863C4.08414 14.7345 4.082 14.8639 4.12198 14.909C4.2213 15.0211 4.35338 15.1749 4.47287 15.1817C4.59466 15.1888 4.71658 15.0403 4.90801 14.914C4.65839 14.7925 4.50327 14.7031 4.33862 14.6438C4.27475 14.6208 4.15735 14.6409 4.12185 14.6863Z" fill="white"/>
</svg>
