<svg xmlns="http://www.w3.org/2000/svg" width="175.307" height="203.938" viewBox="0 0 175.307 203.938">
  <g id="Group_33" data-name="Group 33" transform="translate(87.986 -4.659) rotate(60)">
    <g id="Group_20" data-name="Group 20" transform="translate(0 0)">
      <path id="Path_40" data-name="Path 40" d="M132.551,1.5c-.253.178-.619.185-.864.388-.351.291-.7.584-1.04.869a14.354,14.354,0,0,1-2.723,1.7,23.535,23.535,0,0,0-2.7,1.559c-.221.154-.434.2-.674.343-.258.15-.472.375-.742.521-.58.312-1.091.684-1.672.989a7.346,7.346,0,0,0-2.165,1.724c-.2.234-.466.406-.674.618a8.561,8.561,0,0,0-.7.651,6.318,6.318,0,0,0,1.062-.511c.42-.209.815-.358,1.262-.538a10.957,10.957,0,0,1,1.632-.552c.389-.091,1.149-.155,1.368-.56-.077.1-.058.232-.126.331a2.921,2.921,0,0,1-.608.483,10.734,10.734,0,0,0-1.177,1.017,6.943,6.943,0,0,1-.9.764,11.669,11.669,0,0,0-1.229.9,4.47,4.47,0,0,1-.746.67c-.608.4-1.078.966-1.7,1.339-.426.255-.806.565-1.215.848a9.37,9.37,0,0,0-.708.676,14.106,14.106,0,0,0-1.279,1,8.026,8.026,0,0,1-1.871,1.379c-1.622.908-3.273,1.792-4.882,2.732-1.083.632-2.278,1.042-3.377,1.626-.561.3-1.063.688-1.624,1.045a11.25,11.25,0,0,0-1.614,1.292,12.129,12.129,0,0,1-1.818,1.782c-1.4.847-2.781,1.673-4.169,2.527-.585.36-1.042.956-1.654,1.266a6.506,6.506,0,0,0-.737.305c-.183.122-.311.323-.5.437-.137.082-.377.122-.529.2a4.1,4.1,0,0,1-.641.326,13.14,13.14,0,0,0-2.31,1.063c-1.85,1.024-3.887,1.7-5.795,2.6a20.8,20.8,0,0,0-2.446,1.508c-.807.531-1.689,1.012-2.483,1.559a15.708,15.708,0,0,1-1.941,1.275,3.868,3.868,0,0,0-.732.541c-.2.16-.6.2-.637.5.315.134.5-.073.8-.129.273-.053.54.015.814-.056.22-.057.512-.093.723-.171.327-.121.445-.494.857-.3a1.861,1.861,0,0,1-.584.33,8.019,8.019,0,0,0-.892.624,24.63,24.63,0,0,1-2.691,1.549c-.729.412-1.433.708-2.187,1.067a9.51,9.51,0,0,0-.946.63c-.871.54-1.762,1.153-2.644,1.73a18.665,18.665,0,0,1-1.738,1.1,7,7,0,0,0-1.411.833c-.632.524-1.4.868-2,1.431a2.777,2.777,0,0,1-.715.634c-.159.072-.329.086-.485.169-.8.424-1.5,1.124-2.286,1.582a46.73,46.73,0,0,0-5.364,3.4c-.554.433-1.217.578-1.7,1.112a7.906,7.906,0,0,1-1.445,1.184c-.811.56-1.466,1.208-2.259,1.764a25.383,25.383,0,0,0-3.56,2.478c-.757.757-1.706,1.293-2.481,2.039-.514.494-1.1.829-1.595,1.36a9.412,9.412,0,0,1-1.453,1.225c-.851.612-1.634,1.346-2.476,1.99-.257.2-.562.331-.82.528-.314.24-.568.546-.894.772a3.971,3.971,0,0,0-.451.275c-.138.129-.21.309-.362.436s-.34.12-.469.232c-.164.142-.212.313-.379.462-.382.34-.855.52-1.23.9-.4.4-.868.62-1.27,1a2.334,2.334,0,0,1-.512.371,2.92,2.92,0,0,0-.437.353c-.276.223-.57.479-.856.679-.457.32-.926.685-1.41.958s-1.064.48-1.554.761c-.178.1-.274.316-.47.362A3.536,3.536,0,0,0,26.62,76a23.44,23.44,0,0,1,3-.9,7.406,7.406,0,0,1,1.739-.385A12.174,12.174,0,0,1,29.765,76.1c-.266.23-.595.387-.877.6-.639.473-1.134,1.109-1.779,1.577A12.6,12.6,0,0,1,25.251,79.4c-.361.17-.694.421-1.074.579a6.937,6.937,0,0,0-1.12.719c-.649.414-1.388.667-2.034,1.089-.534.349-1.075.773-1.636,1.066a5.155,5.155,0,0,0-.91.489,4.961,4.961,0,0,1-.922.533c-.214.114-.351.318-.549.442-.267.167-.6.228-.879.379-.573.311-1.181.494-1.721.844a23.759,23.759,0,0,1-2.669,1.356A25.733,25.733,0,0,0,8.356,88.67c-.542.368-1.05.75-1.617,1.069a18.167,18.167,0,0,1-2.445,1.019C2.872,91.3,1.438,91.79,0,92.28L114.229,40.694,135.423,0a24.481,24.481,0,0,0-2.246.983,5.522,5.522,0,0,0-.627.516" transform="translate(0 9.318)" fill="#84fdfe"/>
      <path id="Path_41" data-name="Path 41" d="M123.8,9.281,143.405,0,114.54,19.094l21.129-9.813L123.8,19.094l7.556-3.11s-7.971,10.847-9.722,11.628-2.532.97-3,2.058-.8.615-1.112,2.2.142,2.2-.947,3.313a74.207,74.207,0,0,0-5.039,5.678,57.013,57.013,0,0,1-6.625,7.264A55.618,55.618,0,0,0,99.7,53.33c-.946,1.088,2.7.308-3.147,3.147S83.616,62.321,82.2,62.795s-3,1.42-4.425,1.893-11.806,1.42-11.806,1.42,2.65-1.278-8.541,4.4S39.584,80.942,38.022,82.2,0,101.6,0,101.6L32.2,82.2H27.138S40.246,71,43.085,68.946,56.477,60.1,63.1,56.477s24.63-9.63,27.777-12,8.683-10.411,9.937-12.611a17.059,17.059,0,0,1,4.093-4.259L117.521,14.2Z" transform="translate(11.835 0)" fill="#84fdfe"/>
    </g>
    <g id="Group_21" data-name="Group 21" transform="translate(184.352 107.204) rotate(180)">
      <path id="Path_40-2" data-name="Path 40" d="M132.551,1.5c-.253.178-.619.185-.864.388-.351.291-.7.584-1.04.869a14.355,14.355,0,0,1-2.723,1.7,23.535,23.535,0,0,0-2.7,1.559c-.221.154-.434.2-.674.343-.258.15-.472.375-.742.521-.58.312-1.091.684-1.672.989a7.346,7.346,0,0,0-2.165,1.724c-.2.234-.466.406-.674.618a8.562,8.562,0,0,0-.7.651,6.318,6.318,0,0,0,1.062-.511c.42-.209.815-.358,1.262-.538a10.957,10.957,0,0,1,1.632-.552c.389-.091,1.149-.155,1.368-.56-.077.1-.058.232-.126.331a2.921,2.921,0,0,1-.608.483,10.733,10.733,0,0,0-1.177,1.017,6.943,6.943,0,0,1-.9.764,11.669,11.669,0,0,0-1.229.9,4.47,4.47,0,0,1-.746.67c-.608.4-1.078.966-1.7,1.339-.426.255-.806.565-1.215.848a9.371,9.371,0,0,0-.708.676,14.106,14.106,0,0,0-1.279,1,8.027,8.027,0,0,1-1.871,1.379c-1.622.908-3.273,1.792-4.882,2.732-1.083.632-2.278,1.042-3.377,1.626-.561.3-1.063.688-1.624,1.045a11.25,11.25,0,0,0-1.614,1.292,12.129,12.129,0,0,1-1.818,1.782c-1.4.847-2.781,1.673-4.169,2.527-.585.36-1.042.956-1.654,1.266a6.5,6.5,0,0,0-.737.305c-.183.122-.311.323-.5.437-.137.082-.377.122-.529.2a4.1,4.1,0,0,1-.641.326,13.14,13.14,0,0,0-2.31,1.063c-1.85,1.024-3.887,1.7-5.795,2.6a20.806,20.806,0,0,0-2.446,1.508c-.807.531-1.689,1.012-2.483,1.559a15.707,15.707,0,0,1-1.941,1.275,3.868,3.868,0,0,0-.732.541c-.2.16-.6.2-.637.5.315.134.5-.073.8-.129.273-.053.54.015.814-.056.22-.057.512-.093.723-.171.327-.121.445-.494.857-.3a1.861,1.861,0,0,1-.584.33,8.018,8.018,0,0,0-.892.624,24.631,24.631,0,0,1-2.691,1.549c-.729.412-1.433.708-2.187,1.067a9.514,9.514,0,0,0-.946.63c-.871.54-1.762,1.153-2.644,1.73a18.664,18.664,0,0,1-1.738,1.1,7,7,0,0,0-1.411.833c-.632.524-1.4.868-2,1.431a2.777,2.777,0,0,1-.715.634c-.159.072-.329.086-.485.169-.8.424-1.5,1.124-2.286,1.582a46.732,46.732,0,0,0-5.364,3.4c-.554.433-1.217.578-1.7,1.112a7.905,7.905,0,0,1-1.445,1.184c-.811.56-1.466,1.208-2.259,1.764a25.383,25.383,0,0,0-3.56,2.478c-.757.757-1.706,1.293-2.481,2.039-.514.494-1.1.829-1.595,1.36a9.412,9.412,0,0,1-1.453,1.225c-.851.612-1.634,1.346-2.476,1.99-.257.2-.562.331-.82.528-.314.24-.568.546-.894.772a3.971,3.971,0,0,0-.451.275c-.138.129-.21.309-.362.436s-.34.12-.469.232c-.164.142-.212.313-.379.462-.382.34-.855.52-1.23.9-.4.4-.868.62-1.27,1a2.334,2.334,0,0,1-.512.371,2.921,2.921,0,0,0-.437.353c-.276.223-.57.479-.856.679-.457.32-.926.685-1.41.958s-1.064.48-1.555.761c-.178.1-.274.316-.47.362A3.536,3.536,0,0,0,26.62,76a23.444,23.444,0,0,1,3-.9,7.407,7.407,0,0,1,1.739-.385A12.172,12.172,0,0,1,29.765,76.1c-.266.23-.595.387-.877.6-.639.473-1.134,1.109-1.779,1.577A12.6,12.6,0,0,1,25.251,79.4c-.361.17-.694.421-1.074.579a6.936,6.936,0,0,0-1.12.719c-.649.414-1.388.667-2.034,1.089-.534.349-1.075.773-1.636,1.066a5.155,5.155,0,0,0-.91.489,4.96,4.96,0,0,1-.922.533c-.214.114-.351.318-.549.442-.267.167-.6.228-.879.379-.573.311-1.181.494-1.721.844a23.757,23.757,0,0,1-2.669,1.356A25.73,25.73,0,0,0,8.356,88.67c-.542.368-1.05.75-1.617,1.069a18.169,18.169,0,0,1-2.445,1.019C2.873,91.3,1.438,91.79,0,92.28L114.229,40.694,135.423,0a24.481,24.481,0,0,0-2.246.983,5.522,5.522,0,0,0-.627.516" transform="translate(0 9.318)" fill="#84fdfe"/>
      <path id="Path_41-2" data-name="Path 41" d="M123.8,9.281,143.405,0,114.54,19.094l21.129-9.813L123.8,19.094l7.556-3.11s-7.971,10.847-9.722,11.628-2.532.97-3,2.058-.8.615-1.112,2.2.142,2.2-.946,3.312a74.148,74.148,0,0,0-5.04,5.678,56.988,56.988,0,0,1-6.625,7.264A55.627,55.627,0,0,0,99.7,53.33c-.946,1.088,2.7.308-3.147,3.147S83.616,62.321,82.2,62.795s-3,1.42-4.425,1.893-11.807,1.42-11.807,1.42,2.65-1.278-8.541,4.4S39.584,80.942,38.022,82.2,0,101.6,0,101.6L32.2,82.2H27.138S40.246,71,43.085,68.946,56.477,60.1,63.1,56.477s24.63-9.63,27.777-12,8.683-10.411,9.937-12.611a17.059,17.059,0,0,1,4.093-4.259L117.521,14.2Z" transform="translate(11.835 0)" fill="#84fdfe"/>
    </g>
  </g>
</svg>
