<svg width="132" height="39" viewBox="0 0 132 39" fill="none" xmlns="http://www.w3.org/2000/svg">
<mask id="mask0_1_566" style="mask-type:alpha" maskUnits="userSpaceOnUse" x="0" y="0" width="132" height="39">
<rect x="0.377441" width="130.745" height="38.7094" fill="white"/>
</mask>
<g mask="url(#mask0_1_566)">
<path d="M125.955 31.1903C125.668 31.0667 125.334 30.9133 125.047 30.9555C124.59 31.0226 124.143 31.045 123.687 31.0157C123 30.9717 122.312 30.9371 121.625 30.8921C121.351 30.8741 121.078 30.8389 120.804 30.8116C120.802 30.8421 120.799 30.8727 120.797 30.9032C121.114 30.9612 121.431 31.0191 121.748 31.0772C121.702 31.1543 121.66 31.1693 121.619 31.167C120.833 31.1225 120.047 31.0804 119.261 31.0288C118.421 30.9738 117.582 30.9118 116.743 30.8481C116.299 30.8144 115.856 30.7752 115.413 30.73C114.985 30.6863 114.559 30.6073 114.13 30.5868C113.143 30.5395 112.159 30.487 111.178 30.3509C110.796 30.2978 110.401 30.3447 110.013 30.3263C109.308 30.2928 108.604 30.2311 107.899 30.2071C107.432 30.1911 106.971 29.9325 106.496 30.1676C106.464 30.1831 106.408 30.1424 106.362 30.1336C106.202 30.1032 106.043 30.0685 105.881 30.0476C105.33 29.9761 104.737 30.2436 104.221 29.8422C104.171 29.8034 104.047 29.8158 103.981 29.8498C103.454 30.1186 102.898 29.9365 102.399 29.8461C101.939 29.7627 101.52 29.7577 101.08 29.8381C100.714 29.905 100.541 29.7355 100.529 29.3612C100.519 29.0395 100.446 28.7201 100.411 28.3987C100.372 28.0517 100.319 27.7037 100.318 27.3559C100.316 26.6668 100.359 25.9776 100.357 25.2885C100.354 24.4301 100.311 23.5717 100.308 22.7133C100.305 21.9055 100.34 21.0977 100.343 20.2898C100.345 19.9109 100.321 19.531 100.289 19.1532C100.262 18.83 100.185 18.5102 100.171 18.1871C100.154 17.7783 100.21 17.3651 100.177 16.9584C100.1 16.0022 99.9896 15.0487 99.8908 14.0943C99.8632 13.8276 99.8292 13.5616 99.7992 13.2951C99.7473 12.8322 99.705 12.368 99.6423 11.9066C99.5933 11.546 99.5195 11.1887 99.4567 10.8299C99.8347 11.2099 100.184 11.5811 100.44 12.0081C100.77 12.5575 101.017 13.1564 101.316 13.7252C101.686 14.4282 102.073 15.122 102.452 15.82C102.861 16.5724 103.281 17.319 103.674 18.0792C104.07 18.8423 104.423 19.6272 104.823 20.3879C105.461 21.6034 106.136 22.7998 106.767 24.0188C107.003 24.4749 107.206 24.9595 107.341 25.4538C107.489 25.9961 107.54 26.5648 107.639 27.1211C107.651 27.1899 107.696 27.253 107.725 27.3188C107.755 27.3194 107.784 27.3199 107.814 27.3204C107.848 27.1811 107.884 27.0423 107.915 26.9023C107.994 26.5476 108.056 26.1885 108.154 25.8393C108.189 25.7158 108.308 25.6161 108.326 25.5915C108.68 25.7637 108.941 25.9252 109.224 26.0205C109.597 26.1459 109.986 26.2278 110.372 26.308C110.448 26.3239 110.553 26.2617 110.63 26.2114C110.846 26.0684 111.309 24.9521 111.255 24.6921C111.141 24.1436 111.219 23.6149 111.37 23.0842C111.458 22.7725 111.516 22.45 111.562 22.1287C111.678 21.3162 111.752 20.4967 111.896 19.6894C112.051 18.8213 112.275 17.966 112.451 17.1013C112.537 16.6774 112.578 16.2445 112.646 15.8167C112.693 15.5186 112.768 15.2242 112.803 14.9248C112.858 14.4499 112.863 13.968 112.937 13.4967C113.041 12.8414 113.207 12.1958 113.314 11.5408C113.38 11.1392 113.382 10.7274 113.42 10.3208C113.474 9.73789 113.537 9.15579 113.591 8.57284C113.625 8.20179 113.643 7.8291 113.682 7.45858C113.72 7.0991 113.788 6.74255 113.818 6.38262C113.848 6.03045 113.766 5.64823 113.876 5.32886C114.017 4.92089 113.899 4.59261 113.777 4.23787C113.739 4.12707 113.685 4.01498 113.678 3.90117C113.654 3.48323 113.608 3.14054 113.156 2.88477C112.776 2.67008 112.518 2.24124 112.205 1.90848C111.913 1.59744 111.628 1.27798 111.322 0.98068C111.024 0.690559 110.76 0.260119 110.232 0.601564C110.19 0.62851 110.116 0.608034 110.057 0.604711C109.433 0.569697 108.97 0.980015 109.02 1.59966C109.078 2.31641 109.205 3.02761 109.304 3.75642C109.242 3.78709 109.153 3.82037 109.076 3.87196C108.84 4.03081 108.75 4.38253 108.906 4.5825C109.175 4.92936 109.366 5.29389 109.341 5.75487C109.325 6.04862 109.351 6.34597 109.375 6.64039C109.486 8.02327 109.593 9.40655 109.723 10.7876C109.754 11.1106 109.929 11.4258 109.928 11.7444C109.928 12.1449 110.19 12.5373 109.943 12.9549C109.869 13.0798 109.943 13.2939 109.954 13.4667C109.98 13.849 110.013 14.231 110.033 14.6136C110.036 14.6633 109.972 14.7132 109.957 14.768C109.91 14.9398 109.839 15.1139 109.838 15.2873C109.836 15.7896 109.865 16.292 109.876 16.7944C109.877 16.8369 109.834 16.8785 109.824 16.9234C109.788 17.0834 109.733 17.2442 109.73 17.4055C109.723 17.7542 109.748 18.1034 109.752 18.4524C109.757 18.9796 109.756 19.5068 109.757 20.034C109.757 20.383 109.754 20.732 109.752 21.1423C109.439 20.7677 109.184 20.451 108.916 20.1455C108.412 19.5699 107.966 18.9628 107.585 18.2908C107.411 17.9848 107.152 17.7181 106.971 17.3828C106.71 16.8996 106.29 16.5044 105.951 16.0614C105.549 15.5364 105.168 14.9954 104.766 14.4706C104.318 13.8861 104.076 13.1459 103.431 12.709C103.379 12.6735 103.361 12.5895 103.322 12.5313C103.207 12.359 103.092 12.1861 102.972 12.0178C102.882 11.8936 102.782 11.778 102.69 11.6559C102.275 11.1038 101.866 10.5472 101.443 10.0012C101.368 9.90529 101.179 9.87364 101.144 9.77619C100.977 9.30395 100.557 9.09263 100.215 8.794C99.8875 8.50787 99.5186 8.25706 99.3652 7.80025C99.312 7.64172 99.107 7.44795 98.9495 7.42574C98.313 7.33604 97.7007 7.3824 97.154 7.82108C96.7423 8.15144 96.67 8.6875 97.0226 8.92741C97.0727 9.1779 97.1663 9.40987 97.2576 9.64269C97.2828 9.70695 97.3173 9.77308 97.3202 9.83956C97.3329 10.1292 97.3408 10.4192 97.3409 10.7091C97.3412 11.977 97.3384 13.245 97.3363 14.5129C97.3358 14.835 97.3337 15.1571 97.3324 15.4792C97.2706 15.3855 97.2156 15.2736 97.209 15.1588C97.1667 14.4335 97.1419 13.7072 97.0988 12.982C97.0222 11.6964 96.9427 10.4109 96.8433 9.12702C96.8357 9.02748 96.6631 8.9407 96.5671 8.84803C96.5157 8.9372 96.4266 9.02376 96.4202 9.11608C96.401 9.39219 96.4018 9.67124 96.417 9.94788C96.4887 11.2528 96.5623 12.5577 96.6464 13.8619C96.6887 14.5174 96.7539 15.1715 96.8106 15.826C96.8623 16.4236 96.9108 17.0215 96.9712 17.6183C97.0468 18.3641 97.1633 19.1072 97.2061 19.8547C97.2455 20.5413 97.2164 21.2323 97.2064 21.9212C97.1994 22.3976 97.1817 22.8741 97.1536 23.3496C97.1297 23.7536 96.9888 24.1767 97.0695 24.5551C97.1998 25.1654 96.9021 25.693 96.8772 26.2692C96.8558 26.7661 96.6338 27.2512 96.5429 27.7493C96.4684 28.158 96.4739 28.5808 96.4099 28.9921C96.3706 29.2438 96.3033 29.5074 96.1747 29.7211C96.1205 29.811 95.8759 29.8039 95.7167 29.8097C95.1128 29.8316 94.5084 29.8412 93.9042 29.8537C93.8455 29.8549 93.7865 29.8421 93.7275 29.8405C92.8857 29.8179 92.0439 29.7899 91.2019 29.7782C90.9568 29.7748 90.7112 29.8369 90.4657 29.8373C90.0277 29.838 89.5887 29.79 89.1519 29.8066C88.3475 29.8372 87.5446 29.903 86.7406 29.9478C86.3228 29.9711 85.9042 29.989 85.4858 29.9945C85.0948 29.9996 84.7035 29.9779 84.3124 29.981C83.8353 29.9847 83.3581 30.0109 82.8811 30.0104C82.539 30.01 82.197 29.9813 81.8549 29.9671C81.8329 29.9662 81.808 29.9773 81.7881 29.9891C81.1671 30.3552 80.5073 29.8219 79.8603 30.0824C79.5869 30.1925 79.2302 30.0975 78.9113 30.092C78.8432 30.0908 78.7735 30.0797 78.7077 30.0614C78.4927 30.0018 78.2824 29.9024 78.0643 29.8817C77.7309 29.8499 77.3924 29.8708 77.0478 29.8694C77.0508 29.1451 77.0453 28.478 77.0624 27.8115C77.0667 27.6446 77.104 27.4521 77.1959 27.3197C77.3696 27.0691 77.3798 26.8324 77.223 26.5949C77.1013 26.4106 77.084 26.248 77.222 26.0771C77.4777 25.7606 77.4104 25.3818 77.328 25.0584C77.1566 24.3856 76.9706 23.7224 76.9386 23.0224C76.9311 22.8595 76.7704 22.7059 76.754 22.5408C76.6986 21.9788 76.6763 21.4136 76.6413 20.8495C76.6311 20.6863 76.6578 20.5093 76.6028 20.3629C76.4932 20.0712 76.4361 19.8146 76.4537 19.4754C76.4707 19.1479 76.3765 18.7775 76.3713 18.4062C76.3634 17.8342 76.2017 17.2646 76.1117 16.6929C76.1035 16.6409 76.1615 16.5799 76.157 16.5257C76.1443 16.3724 76.1192 16.2197 76.0904 16.0684C76.0765 15.9952 76.0229 15.9258 76.0223 15.8544C76.0197 15.5658 76.0542 15.2751 76.0317 14.9887C75.9922 14.4854 75.8633 13.9825 75.8807 13.4833C75.8949 13.071 75.7544 12.6902 75.7975 12.2606C75.861 11.6267 75.6938 10.9712 75.6411 10.3236C75.6168 10.0235 75.6316 9.7203 75.6268 9.41852C75.624 9.23787 75.6017 9.05598 75.6167 8.87706C75.6404 8.59376 75.5982 8.23667 75.7528 8.05319C75.8876 7.89332 76.024 7.78363 75.9864 7.57368C75.9501 7.37114 75.9177 7.14848 75.8104 6.98183C75.5224 6.53468 75.1882 6.11763 74.8865 5.6789C74.7189 5.43518 74.3451 5.25356 74.2171 5.39671C73.783 5.88242 73.1577 6.21371 72.9841 6.91362C72.9692 6.97385 72.8888 7.01494 72.8505 7.07269C72.7127 7.2809 72.5569 7.48163 72.452 7.70585C72.3506 7.92262 72.3584 8.19142 72.0754 8.30284C72.0066 8.32992 71.9758 8.453 71.927 8.53167C71.6843 8.9232 71.466 9.33307 71.1912 9.70062C70.94 10.0366 70.6184 10.319 70.3441 10.6389C69.9098 11.1454 69.7137 11.8407 69.0633 12.1856C68.9077 12.2681 68.8654 12.5463 68.7437 12.7148C68.5515 12.981 68.3463 13.2396 68.1274 13.4841C67.969 13.661 67.7758 13.8061 67.6048 13.9722C67.4552 14.1176 67.3175 14.2752 67.1699 14.4228C66.9759 14.6168 66.8073 14.879 66.5718 14.9764C66.3526 15.067 66.1704 15.1319 66.0587 15.3516C66.0116 15.4444 65.9171 15.513 65.8369 15.6005C65.7352 15.4555 65.6678 15.3508 65.592 15.2527C65.2376 14.7941 64.869 14.3459 64.5284 13.8773C64.2053 13.4327 63.931 12.952 63.5983 12.5153C63.2152 12.0126 62.7856 11.5457 62.3873 11.0542C62.0328 10.6166 61.6875 10.1712 61.3489 9.72118C60.8084 9.00284 60.2768 8.27789 59.7417 7.55551C59.3585 7.03821 58.9771 6.51966 58.5925 6.00333C58.3683 5.70217 58.1427 5.40185 57.9121 5.10553C57.5861 4.68661 57.2518 4.27412 56.9269 3.85441C56.578 3.40376 56.245 2.94057 55.8882 2.49644C55.5302 2.05106 55.1503 1.62337 54.7824 1.18597C54.6182 0.990785 54.4719 0.778933 54.2936 0.598151C54.2106 0.513942 54.0509 0.508358 53.9601 0.428448C53.498 0.0218977 52.975 0.148521 52.4846 0.294379C51.9592 0.450609 51.468 0.719057 50.9469 0.893945C50.6758 0.98489 50.6355 1.13345 50.6595 1.37225C50.6687 1.46368 50.6573 1.59447 50.5999 1.64872C50.3796 1.85672 50.4173 2.04858 50.5611 2.27966C50.7594 2.59815 50.8812 2.91442 50.8588 3.33387C50.8353 3.77601 51.0336 4.22998 51.135 4.67877C51.1909 4.67824 51.2468 4.67771 51.3028 4.67722C51.3877 4.27656 51.4727 3.87591 51.5652 3.43944C51.6721 3.55325 51.7511 3.63844 51.8312 3.72251C52.3288 4.24461 52.8192 4.77384 53.3277 5.28498C53.5501 5.50853 53.8307 5.67522 54.0464 5.90392C54.2458 6.11519 54.4029 6.36901 54.562 6.61481C54.7299 6.87418 54.9807 7.1346 55.0124 7.41524C55.0679 7.906 54.9944 8.41342 54.955 8.91234C54.9058 9.53606 54.8364 10.1582 54.7763 10.7749C54.2892 10.6223 54.1189 10.6771 54.0328 11.0325C53.9388 11.4201 54.1595 11.9526 54.4647 12.2112C54.5854 12.3136 54.7 12.515 54.6913 12.664C54.6141 13.9923 54.5233 15.3204 54.407 16.646C54.3096 17.7562 54.1964 18.8661 54.0462 19.9701C53.9121 20.9556 53.7158 21.9326 53.5534 22.9144C53.5388 23.0028 53.5746 23.0987 53.5806 23.1916C53.5864 23.2809 53.5924 23.3716 53.5831 23.4602C53.5565 23.7144 53.4666 23.9758 53.502 24.2198C53.5813 24.7651 53.7124 25.3037 53.8445 25.8397C53.8722 25.9525 53.9875 26.0489 54.0755 26.1404C54.1483 26.2161 54.2741 26.2561 54.3184 26.3418C54.6304 26.9457 55.2991 26.9857 55.8055 27.2688C56.0954 27.4308 56.4917 27.3902 56.823 27.4949C57.0421 27.5641 57.2158 27.6574 57.3759 27.4119C57.4068 27.3644 57.5086 27.3693 57.5601 27.3281C57.7141 27.2048 57.9455 27.0945 57.9897 26.9356C58.0756 26.6266 58.0554 26.288 58.0762 25.9614C58.0783 25.9279 58.0602 25.8928 58.0508 25.8586C57.931 25.4186 57.7885 24.9831 57.6997 24.5369C57.6474 24.2739 57.5536 24.0831 57.3238 23.9365C57.2348 23.8798 57.1411 23.7132 57.1634 23.6258C57.1994 23.4852 57.3199 23.3595 57.4251 23.2464C57.4722 23.1957 57.5687 23.1909 57.6538 23.1615C57.6378 22.9092 57.6335 22.6756 57.6061 22.4448C57.5451 21.9302 57.4331 21.4184 57.4142 20.9029C57.3869 20.1602 57.4271 19.4152 57.4322 18.6712C57.4353 18.2248 57.4166 17.7782 57.4253 17.332C57.4369 16.7369 57.462 16.142 57.488 15.5473C57.5079 15.0935 57.5215 14.6384 57.5671 14.1869C57.6535 13.3308 57.7578 12.4764 57.8629 11.6223C57.8785 11.4954 57.9395 11.3741 57.9966 11.1969C58.5408 11.811 59.0426 12.3606 59.5257 12.9262C60.4051 13.9555 61.2721 14.9954 62.15 16.026C62.1945 16.0783 62.2923 16.0851 62.3654 16.1131C62.3453 16.0425 62.3434 15.9584 62.3025 15.9034C61.3272 14.5958 60.3412 13.296 59.3732 11.983C59.1021 11.6153 58.8818 11.2102 58.6383 10.8222C58.6747 10.7985 58.7112 10.7748 58.7477 10.7511C58.8139 10.8538 58.8674 10.968 58.9485 11.057C59.3158 11.4594 59.7479 11.8162 60.0487 12.2621C60.4302 12.8279 61.0982 13.1382 61.3554 13.8007C61.3783 13.8599 61.4546 13.8974 61.5028 13.9481C61.8293 14.2915 62.1823 14.6143 62.4728 14.986C62.7465 15.336 62.9527 15.7386 63.1909 16.1165C63.3454 16.3614 63.5774 16.5852 63.6448 16.8513C63.7676 17.3366 63.8754 17.87 63.2659 18.1693C63.2144 18.1945 63.146 18.2375 63.1354 18.2837C63.1092 18.3978 63.0579 18.5712 63.1127 18.6275C63.338 18.8596 63.3939 19.2837 63.8323 19.2912C63.8735 19.2919 63.9282 19.3923 63.9508 19.4557C64.0991 19.8724 64.4072 20.0796 64.8161 20.2211C65.1622 20.3409 65.5342 20.4923 65.791 20.7381C66.1341 21.0665 66.2965 21.1216 66.6307 20.785C66.699 20.7163 66.8529 20.6356 66.907 20.6664C67.1876 20.826 67.4297 20.7233 67.686 20.6176C67.811 20.5661 67.9508 20.5506 68.1797 20.4958C68.2374 21.977 68.2919 23.3763 68.3463 24.7755C68.3894 24.7763 68.4325 24.7771 68.4755 24.7779C68.498 24.6199 68.534 24.4625 68.5401 24.3039C68.5547 23.9272 68.5458 23.5495 68.5631 23.173C68.6185 21.9672 68.6603 20.7603 68.7523 19.5572C68.787 19.1029 68.8771 18.6274 69.0632 18.2165C69.2941 17.7066 69.6527 17.2548 69.9526 16.7756C70.3137 16.1989 70.6839 15.6272 71.0256 15.0391C71.253 14.6477 71.3885 14.1955 71.6522 13.8341C72.0933 13.2297 72.4351 12.5935 72.6386 11.8731C72.7048 11.6386 72.8594 11.429 73.0186 11.1208C73.1417 11.4887 73.2293 11.7402 73.3073 11.9945C73.3189 12.0321 73.2829 12.0829 73.2735 12.1285C73.2196 12.392 73.1364 12.6541 73.1218 12.92C73.1035 13.2537 73.1731 13.593 73.1485 13.9257C73.1106 14.4387 72.9787 14.9489 73.2071 15.4518C73.2268 15.4952 73.1869 15.5632 73.1832 15.6203C73.1723 15.7885 73.1476 15.9584 73.1614 16.125C73.1858 16.4202 73.255 16.7125 73.2677 17.0076C73.2828 17.3582 73.2489 17.7106 73.2523 18.0621C73.2608 18.9481 73.2387 19.828 73.0224 20.6971C72.8806 21.267 72.7611 21.8468 72.6915 22.4293C72.6329 22.9207 72.6393 23.4232 72.6591 23.9191C72.6689 24.1646 72.7531 24.4143 72.8411 24.6479C72.9393 24.9088 73.1089 25.1443 73.1945 25.408C73.2834 25.6818 73.2998 25.9783 73.3649 26.2609C73.4275 26.5329 73.5119 26.8 73.6132 27.1648C73.9676 27.1408 74.4312 27.148 74.8794 27.0681C75.3104 26.9914 75.4598 27.0305 75.73 27.3794C75.8366 27.5171 76.0391 27.5979 76.2138 27.6594C76.3359 27.7025 76.4851 27.6688 76.6404 27.6695C76.6734 28.4196 76.7043 29.1188 76.7356 29.8296C76.6502 29.8415 76.6053 29.8537 76.5606 29.853C75.6778 29.8402 74.7951 29.821 73.9123 29.8133C72.8555 29.8039 71.7986 29.7965 70.7418 29.8023C69.7533 29.8077 68.7649 29.8323 67.7764 29.8469C66.5401 29.8652 65.3036 29.8806 64.0673 29.8997C63.1102 29.9144 62.1533 29.9336 61.1963 29.9493C60.4429 29.9617 59.6894 29.9787 58.936 29.9812C57.574 29.9859 56.212 29.9818 54.85 29.98C54.3757 29.9794 53.9014 29.9793 53.4271 29.9711C53.0293 29.9642 52.6272 29.9778 52.2355 29.922C51.946 29.8808 51.6869 29.8181 51.4345 30.0312C51.3666 30.0885 51.1983 30.1206 51.1375 30.0776C50.7515 29.8038 50.355 30.1056 49.9518 30.0366C49.4623 29.953 48.9382 30.0858 48.4284 30.0984C48.2627 30.1025 48.0921 29.9789 47.9286 29.9895C47.3391 30.0276 46.7523 30.1042 46.1633 30.1522C45.9928 30.1661 45.8172 30.1135 45.6461 30.1247C45.1661 30.156 44.6879 30.2259 44.2079 30.2386C43.9226 30.2461 43.6354 30.1745 43.3215 30.1349C43.3412 29.9569 43.3591 29.8322 43.3682 29.7067C43.4138 29.0829 43.466 28.4594 43.498 27.8349C43.5195 27.417 43.5038 26.9973 43.5176 26.5788C43.5437 25.7954 43.5858 25.0125 43.6078 24.229C43.6187 23.8421 43.5906 23.4542 43.5961 23.0671C43.6068 22.3125 43.6363 21.5581 43.6433 20.8034C43.6473 20.3765 43.6125 19.9492 43.6119 19.522C43.6108 18.7707 43.6307 18.0193 43.6266 17.2681C43.6205 16.1548 43.6035 15.0416 43.5865 13.9285C43.576 13.2466 43.5569 12.565 43.5418 11.8832C43.5298 11.3424 43.5172 10.8016 43.5067 10.2608C43.5 9.92235 43.5239 9.58051 43.4829 9.24647C43.4519 8.99397 43.3397 8.75145 43.2684 8.5197C43.7669 8.27124 44.208 8.05137 44.6491 7.83149C44.6526 7.80162 44.6561 7.77175 44.6595 7.74192C44.4886 7.70239 44.3192 7.65111 44.1461 7.627C43.9955 7.60595 43.8385 7.63041 43.6879 7.60936C42.7328 7.47565 41.779 7.32881 40.8237 7.61012C40.7704 7.62585 40.7073 7.61096 40.649 7.60728C40.3743 7.58991 40.0962 7.53504 39.8257 7.5607C39.1842 7.62155 38.5485 7.75509 37.9065 7.79631C36.7219 7.8724 35.5344 7.90329 34.3474 7.95302C34.2573 8.05248 34.1388 8.18304 34.0203 8.31366C33.8999 8.17883 33.7883 8.03453 33.656 7.9126C33.5685 7.83194 33.4535 7.73337 33.3471 7.72889C32.7904 7.70545 32.2317 7.68963 31.6752 7.71077C31.2846 7.72557 30.9174 8.1779 31.0182 8.51704C31.1584 8.98848 31.3461 9.446 31.5203 9.90688C31.6103 10.1449 31.8207 10.3904 31.7936 10.6099C31.7069 11.3121 31.5472 12.0066 31.3915 12.6986C31.2658 13.2573 31.0793 13.803 30.9665 14.3639C30.8348 15.0195 30.3447 15.5148 30.25 16.2035C30.1689 16.7942 29.8732 17.3543 29.6856 17.9323C29.6283 18.1089 29.6401 18.309 29.5763 18.4821C29.4271 18.8873 29.2393 19.2783 29.0894 19.6833C28.91 20.168 28.7523 20.6607 28.5893 21.1513C28.5644 21.2262 28.5293 21.365 28.5532 21.3785C28.8715 21.5583 28.7903 21.8854 28.8628 22.1568C28.9924 22.6417 28.9069 22.7564 28.4013 22.8248C28.2576 22.8443 28.0363 22.932 28.0055 23.0347C27.8661 23.5006 27.782 23.9831 27.6786 24.4597C27.6762 24.4708 27.6788 24.4835 27.681 24.495C27.7643 24.9219 27.5767 25.4499 28.1311 25.7022C28.148 25.7099 28.1571 25.7414 28.1638 25.7637C28.3337 26.3222 28.7458 26.6789 29.191 27.0129C29.5028 27.2468 29.7985 27.2315 30.0102 26.9973C30.1687 26.8219 30.3689 26.6779 30.5683 26.547C30.8999 26.3292 31.2727 26.1653 31.5733 25.9131C31.7059 25.8018 31.8122 25.4179 31.7434 25.3515C31.5011 25.1178 31.5838 24.8843 31.6082 24.6295C31.6294 24.4074 31.6452 24.1791 31.6184 23.959C31.4817 22.8365 31.5485 21.7215 31.7391 20.6134C31.7863 20.3392 31.9376 20.0847 32.0084 19.8125C32.1664 19.2051 32.3197 18.5954 32.4412 17.9801C32.4846 17.7604 32.5939 17.7104 32.7734 17.709C33.3166 17.7047 33.8611 17.7268 34.4026 17.6952C34.8927 17.6667 35.379 17.5775 35.8679 17.5224C36.043 17.5027 36.2531 17.4392 36.3912 17.5081C36.8553 17.7399 37.2897 17.4581 37.7406 17.4724C38.278 17.4893 38.8197 17.3638 39.4106 17.2939C39.3682 17.8099 39.3103 18.2858 39.2941 18.7632C39.2638 19.6574 39.2616 20.5526 39.2404 21.4473C39.2195 22.3351 39.1992 23.2232 39.1608 24.1104C39.1269 24.8961 39.0819 25.6818 39.0154 26.4653C38.9832 26.8444 38.8721 27.2163 38.8292 27.5952C38.7502 28.2941 38.7002 28.9964 38.6273 29.6961C38.6014 29.9449 38.3352 30.0909 38.1074 29.9909C37.6893 29.8074 37.2506 29.87 36.818 29.8756C36.3336 29.8818 35.8494 29.9095 35.365 29.9238C34.9033 29.9373 34.4222 29.8667 33.9839 29.9737C33.2588 30.1508 32.539 30.0132 31.8192 30.0628C31.3658 30.094 30.9074 30.0555 30.4514 30.0441C29.8762 30.0297 29.4208 30.3074 28.8489 30.2559C27.6812 30.1507 24.3434 30.8088 23.6677 30.7854C23.5052 30.7798 19.2205 30.9009 19.0844 30.9713C18.8046 31.1164 16.1552 31.174 15.7132 31.2652C13.9577 31.6275 12.9202 31.7982 12.8751 31.8079C12.3657 31.9172 25.0449 30.9001 24.5501 31.0563C24.0588 31.2114 13.6963 31.9758 12.5447 32.1764C11.8218 32.3023 10.6851 32.6746 10.4259 32.7016C10.0801 32.7377 9.32526 33.0606 9.14983 33.1893C8.96227 33.327 8.26006 33.8826 8.01244 34.0941C7.81278 34.2646 7.79962 34.4505 8.07173 34.5965C8.49576 34.824 8.91785 34.6681 9.34497 34.6297C9.42954 35.119 9.54894 35.2304 9.91129 35.1607C10.305 35.085 10.6981 34.9954 11.0958 34.9543C11.8228 34.8793 12.5544 34.8489 13.2814 34.7746C13.9018 34.7112 14.5174 34.6022 15.1372 34.532C15.8548 34.4507 16.5754 34.3965 17.293 34.3152C17.4726 34.2948 17.6425 34.1892 17.8221 34.1681C18.2709 34.1154 18.7222 34.0808 19.1735 34.0558C19.3405 34.0466 19.5101 34.0846 19.6784 34.1011C19.6736 34.1351 19.6688 34.1691 19.664 34.2031C19.5635 34.1958 19.4609 34.1712 19.363 34.1838C18.4586 34.3004 17.5539 34.4153 16.6516 34.5468C15.8757 34.6598 15.1003 34.7801 14.3292 34.9217C13.2416 35.1213 12.1559 35.3332 11.0753 35.5666C10.8988 35.6047 10.5999 35.8443 10.6157 35.882C10.7382 36.1724 10.9968 36.0141 11.1974 35.9771C12.3532 35.764 13.5014 35.5063 14.6613 35.3209C15.7396 35.1485 16.828 35.0347 17.9144 34.9187C19.184 34.7831 20.456 34.6698 21.7275 34.5534C22.4157 34.4904 23.1045 34.4296 23.7943 34.389C24.6296 34.3398 25.4664 34.3143 26.3024 34.2761C27.6961 34.2125 29.0893 34.1346 30.4836 34.088C31.1197 34.0667 31.7591 34.1361 32.3949 34.1112C33.793 34.0565 35.1913 33.9883 36.5868 33.8864C37.5479 33.8162 38.5043 33.6817 39.4625 33.5728C39.7616 33.5388 40.008 33.5625 40.2755 33.7813C40.6756 34.1086 41.1452 34.3891 41.7103 34.2554C41.8973 34.2112 42.0753 33.9938 42.2395 34.0126C42.7081 34.0663 42.783 33.7998 42.7954 33.3592C43.1474 33.3532 43.4834 33.3468 43.8194 33.3421C43.9012 33.341 43.9842 33.3545 44.065 33.3458C44.6044 33.287 45.142 33.1922 45.6827 33.1706C46.3227 33.1451 46.9738 33.3252 47.5975 33.0329C47.6539 33.0065 47.7488 33.0666 47.8269 33.0806C47.9167 33.0967 48.0127 33.1314 48.0973 33.1144C48.6365 33.0061 49.1721 32.9495 49.724 33.0444C49.9585 33.0846 50.2102 33.0402 50.4523 33.0167C50.7697 32.9859 51.0847 32.9098 51.4018 32.9031C51.929 32.8919 52.4574 32.9356 52.9849 32.9277C53.497 32.92 54.0091 32.884 54.5202 32.845C54.7527 32.8273 54.9819 32.7445 55.2134 32.741C55.5526 32.7358 55.8924 32.7908 56.232 32.7928C57.1051 32.798 57.9783 32.7928 58.8513 32.7824C59.3112 32.7769 59.771 32.7349 60.2306 32.7389C61.5129 32.75 62.795 32.7793 64.0772 32.7959C64.7704 32.8049 65.4638 32.793 66.1567 32.8075C67.0571 32.8262 67.957 32.8684 68.8573 32.8863C69.145 32.892 69.4337 32.8527 69.7218 32.8339C69.7221 32.7847 69.7224 32.7355 69.7227 32.6863C67.7888 32.3558 65.8246 32.255 63.8773 32.0009C63.9926 31.9449 64.1057 31.9169 64.2198 31.9116C64.9602 31.8777 65.7007 31.8291 66.4414 31.8255C66.8846 31.8233 67.3287 31.8886 67.7713 31.9347C67.9429 31.9526 68.1112 32.0302 68.2812 32.0309C69.4893 32.0362 70.6973 32.0259 71.9054 32.0257C73.3044 32.0255 74.7034 32.0312 76.1024 32.0327C76.4535 32.0331 76.8046 32.0232 77.1556 32.0253C77.7015 32.0287 78.2476 32.0288 78.793 32.0478C79.4095 32.0692 80.0251 32.1262 80.6416 32.1378C81.3398 32.151 82.0388 32.118 82.7371 32.1293C83.4511 32.1408 84.1643 32.1882 84.8783 32.2071C85.2603 32.2171 85.6679 32.1132 86.0201 32.2138C86.7198 32.4137 87.3959 32.1016 88.1007 32.2402C88.7378 32.3655 89.419 32.2606 90.0806 32.2692C90.6742 32.277 91.2675 32.3101 91.8611 32.3136C92.1026 32.315 92.3458 32.2383 92.5859 32.2492C92.979 32.2671 93.3694 32.3502 93.7625 32.3649C94.3658 32.3874 94.9705 32.3753 95.5991 32.378C95.4174 32.975 95.2297 33.5729 95.055 34.1745C94.9677 34.4749 94.8269 34.7897 94.8557 35.0838C94.8764 35.2964 95.0995 35.565 95.3021 35.66C95.4639 35.7358 95.7334 35.5968 95.9502 35.5359C96.1129 35.4902 96.2633 35.3918 96.4274 35.3612C96.8637 35.2798 97.3235 35.2793 97.7383 35.1404C98.2091 34.9828 98.6387 34.7046 99.0909 34.4884C99.5427 34.2723 99.7005 33.7069 100.208 33.5571C100.238 33.5482 100.243 33.4706 100.271 33.435C100.342 33.3473 100.423 33.2683 100.494 33.1805C100.635 33.0041 100.764 32.816 100.916 32.6493C100.983 32.5762 101.096 32.4973 101.184 32.501C101.512 32.5148 101.838 32.5846 102.166 32.5918C102.786 32.6054 103.408 32.5722 104.028 32.5916C104.825 32.6165 105.621 32.6801 106.417 32.7155C107.024 32.7425 107.634 32.7186 108.237 32.7772C108.964 32.8479 109.675 33.1039 110.421 32.9054C110.505 32.8829 110.619 32.9642 110.717 33.0022C110.793 33.0314 110.863 33.0918 110.94 33.0982C111.794 33.1704 112.648 33.2463 113.504 33.2977C114.225 33.3411 114.948 33.3702 115.67 33.3756C116.647 33.3829 117.624 33.3682 118.601 33.3493C119.071 33.3402 119.541 33.3013 120.011 33.2734C120.164 33.2643 120.32 33.2656 120.467 33.2303C120.916 33.1226 121.364 33.0099 121.805 32.8778C122.021 32.813 122.216 32.6663 122.434 32.6166C123.279 32.4239 124.124 32.1717 124.981 32.1175C125.34 32.0948 125.56 31.9353 125.823 31.8104C126.123 31.6678 126.186 31.2898 125.955 31.1903ZM109.971 2.16678C110.086 2.29349 110.156 2.37127 110.226 2.44901C110.09 2.53885 109.961 2.64748 109.813 2.70549C109.775 2.72025 109.674 2.57439 109.602 2.50229C109.713 2.40163 109.824 2.30098 109.971 2.16678ZM109.974 10.767C109.962 10.7666 109.95 10.7662 109.938 10.7658C109.868 8.92297 109.798 7.08009 109.728 5.22502C110.011 5.41515 110.296 6.16301 110.215 6.45867C110.191 6.54798 110.162 6.64322 110.17 6.73275C110.206 7.15535 110.256 7.57674 110.296 7.99898C110.303 8.06803 110.308 8.14874 110.28 8.20782C110.065 8.65949 110.154 9.12853 110.157 9.60063C110.159 9.98901 110.04 10.3781 109.974 10.767ZM106.697 20.5958C106.942 20.5896 107.066 20.7753 107.038 21.0256C107.017 21.2138 107.052 21.5035 106.766 21.4532C106.622 21.4277 106.517 21.1785 106.358 20.9871C106.51 20.8034 106.601 20.5982 106.697 20.5958ZM103.282 15.0512C103.439 15.3176 103.621 15.5725 103.748 15.8525C104.264 16.9887 104.751 18.1377 105.27 19.2722C105.787 20.4047 106.332 21.5252 106.862 22.652C106.908 22.7507 106.937 22.8577 106.974 22.9609C106.935 22.9782 106.896 22.9954 106.857 23.0127C106.203 21.6887 105.541 20.3687 104.899 19.0394C104.277 17.7526 103.506 16.5292 103.197 15.1066C103.226 15.0881 103.254 15.0697 103.282 15.0512ZM55.4802 10.2261C55.4833 9.49439 55.4864 8.76271 55.4896 8.03102C55.5137 8.02748 55.5378 8.02389 55.562 8.02034C55.7108 8.22276 55.8596 8.42517 56.0333 8.66135C55.8853 8.7499 55.7618 8.82374 55.6772 8.87435C55.541 9.3313 55.7079 9.8034 55.4802 10.2261ZM55.7409 25.0372C55.856 24.6379 56.2237 24.5019 56.7287 24.6656C56.3557 24.8059 56.0744 24.9118 55.7409 25.0372ZM39.7748 21.5886C39.7318 21.5812 39.6888 21.5738 39.6459 21.5664C39.6802 20.2573 39.7089 18.948 39.752 17.6392C39.7672 17.1787 39.8722 17.1319 40.3513 17.3519C40.1379 18.7538 40.0342 20.183 39.7748 21.5886ZM40.9873 12.4986C40.9624 13.0223 40.9508 13.5467 40.9303 14.0707C40.9291 14.1013 40.8979 14.1308 40.8804 14.1613C40.4594 14.0803 40.0704 14.0144 39.6859 13.9286C39.3778 13.8598 39.0735 13.7718 38.7703 13.6832C38.4142 13.5792 38.058 13.9376 38.0596 14.2968C38.0604 14.4746 37.8713 14.7086 37.7037 14.8212C37.22 15.1462 36.6726 15.3266 36.1125 15.5066C35.5879 15.6752 35.0611 15.8123 34.5263 15.9194C34.1153 16.0017 33.692 16.0256 33.2731 16.0621C33.1769 16.0705 33.0759 16.0243 32.9555 15.9987C33.1283 15.4379 33.2787 14.9095 33.4555 14.3902C33.5656 14.0664 33.5172 13.8107 33.301 13.5381C33.1761 13.3807 33.0619 13.111 33.113 12.9436C33.1807 12.7216 33.4398 12.6359 33.7103 12.6875C33.7661 12.6982 33.8849 12.5837 33.911 12.5056C33.9791 12.3012 33.9858 12.0746 34.0648 11.8759C34.1946 11.5497 34.4753 11.3692 34.8026 11.2856C35.1866 11.1873 35.6154 11.1938 35.9584 11.0223C36.4051 10.799 36.9952 10.9294 37.3317 10.4534C37.3567 10.418 37.4405 10.4196 37.498 10.4124C37.8227 10.3713 38.1618 10.378 38.4695 10.2826C38.9111 10.1458 39.3264 9.92638 39.7595 9.75926C40.0113 9.6621 40.2764 9.59974 40.5346 9.5189C40.8254 9.42787 40.8722 9.58782 40.8893 9.82884C40.9139 10.1752 40.9776 10.5186 41.0103 10.8646C41.0374 11.152 41.059 11.4416 41.0551 11.7299C41.0517 11.9864 40.9995 12.2418 40.9873 12.4986ZM42.9292 27.9868C42.9321 27.2963 42.9315 26.6056 42.9387 25.9151C42.9574 24.1119 42.9577 22.3081 43.0115 20.5059C43.0321 19.8177 43.1765 19.1329 43.2709 18.4474C43.279 18.3886 43.3349 18.3364 43.4003 18.2889C43.1833 21.526 43.383 24.7733 43.0532 27.9995C43.0118 27.9953 42.9705 27.991 42.9292 27.9868Z" fill="white"/>
<path d="M78.7296 11.4757C78.6854 11.8852 78.6876 12.3077 78.9702 12.6186C79.1688 12.837 79.4718 12.9489 79.6969 13.1467C79.8257 13.2598 79.9401 13.439 79.9745 13.6075C80.022 13.8394 79.9877 14.0894 79.9884 14.3317C79.991 15.3156 79.9904 16.2996 79.9994 17.2835C80.0012 17.473 80.0668 17.6633 80.059 17.8514C80.0347 18.4333 79.9705 19.0138 79.9563 19.5958C79.9392 20.2979 80.0272 21.0104 79.9401 21.7008C79.8593 22.3417 79.6176 22.9626 79.4279 23.5861C79.3309 23.9056 79.5275 24.4383 79.8334 24.5299C80.1265 24.6174 80.4489 24.7592 80.7274 24.705C81.2894 24.5958 81.6278 25.346 82.2011 25.0554C82.7835 25.3459 83.3865 25.1107 83.9796 25.128C84.0226 25.1292 84.0831 25.1056 84.1079 25.0717C84.3997 24.6724 84.8283 24.8609 85.1935 24.8076C85.7667 24.7239 86.35 24.7152 86.9236 24.633C87.4216 24.5617 87.9124 24.4325 88.5016 24.309C88.3267 24.5447 88.2097 24.7022 88.0768 24.8813C88.1549 24.9192 88.2024 24.9512 88.2544 24.966C89.1488 25.2203 90.0336 24.8632 90.9253 24.9158C90.9674 24.9183 91.0117 24.8794 91.0551 24.8596C91.9027 24.4725 92.5188 24.639 93.0551 25.4236C93.1742 25.5981 93.2865 25.8062 93.3165 26.0123C93.372 26.3936 93.3599 26.7851 93.384 27.1718C93.4462 28.1671 93.5107 29.1623 93.5796 30.157C93.5894 30.2958 93.6295 30.4321 93.6556 30.5696C93.688 30.57 93.7205 30.5703 93.7528 30.5706C93.788 30.4966 93.8502 30.424 93.8541 30.3482C93.9102 29.2531 93.9435 28.1566 94.0143 27.0627C94.0508 26.4959 93.9022 25.8769 94.3766 25.4022C94.4352 25.3434 94.4216 25.1961 94.4242 25.0894C94.4343 24.7016 94.4471 24.3134 94.4393 23.9258C94.433 23.6104 94.6058 23.2502 94.2129 23.006C94.3117 22.8708 94.3888 22.7506 94.4799 22.6431C94.8871 22.1632 95.1445 21.6307 95.0525 20.9666C95.0173 20.7128 94.969 20.4582 94.9635 20.2031C94.9475 19.4526 94.8584 18.7038 94.8224 17.9566C94.7905 17.3008 94.9865 16.6523 94.8204 15.9933C94.7162 15.5801 94.7731 15.1259 94.7046 14.6993C94.6259 14.2088 94.4608 13.7332 94.3827 13.2426C94.256 12.4465 94.2019 11.6368 94.0507 10.8467C93.9865 10.5114 93.8241 10.1222 93.5815 9.91544C93.204 9.5934 92.7411 9.34141 92.2758 9.17769C91.6698 8.96451 91.0736 8.6523 90.3882 8.76626C89.83 8.85897 89.2455 8.52299 88.6936 8.86133C88.6582 8.883 88.5857 8.83053 88.5294 8.8259C88.36 8.81208 88.1808 8.76395 88.0221 8.80295C87.6139 8.90328 87.2147 9.12449 86.8203 8.76139C86.7777 8.72216 86.6842 8.73954 86.6141 8.73598C86.4008 8.72516 86.187 8.71061 85.9735 8.70971C85.7865 8.70891 85.5991 8.7253 85.4119 8.73279C85.2841 8.73789 85.1434 8.77845 85.031 8.7371C84.74 8.63006 84.5159 8.72367 84.266 8.87882C84.1202 8.96934 83.9071 8.94977 83.723 8.96401C83.5429 8.97793 83.3502 8.93238 83.1825 8.98273C82.82 9.09157 82.475 9.26359 82.1124 9.3718C81.9534 9.41932 81.743 9.43004 81.6007 9.35976C81.2672 9.19501 80.9919 9.24483 80.7074 9.45995C80.5254 9.59745 80.3201 9.57311 80.0964 9.58291C79.7494 9.59806 79.3557 9.78864 79.0852 10.03C78.7614 10.3187 78.577 10.7433 78.782 11.2316C78.8077 11.293 78.7387 11.3922 78.7296 11.4757ZM82.152 15.9133C82.2433 15.7118 82.3114 15.4758 82.6167 15.4885C82.8845 15.4998 82.8558 15.285 82.8314 15.0922C82.7268 14.2628 82.6237 13.4332 82.5236 12.6032C82.5122 12.508 82.5228 12.4099 82.5233 12.2729C82.7465 12.2619 82.9705 12.2789 83.1824 12.2345C83.6129 12.1443 84.0397 11.9226 84.4634 11.9347C85.0673 11.952 85.6146 11.7388 86.1893 11.6508C86.5734 11.5919 86.9419 11.3561 87.3213 11.3449C88.0111 11.3245 88.7017 11.026 89.4052 11.3879C89.6898 11.5345 90.0681 11.476 90.3999 11.5348C90.7242 11.5923 91.0474 11.6665 91.3624 11.7635C91.4536 11.7916 91.5343 11.9121 91.5869 12.0094C91.7586 12.3273 91.9149 12.654 92.0776 12.9771C92.0936 13.0091 92.1344 13.0477 92.1268 13.0696C91.9335 13.631 92.2289 14.1595 92.2216 14.7048C92.2183 14.9534 92.0427 15.2234 92.0958 15.4445C92.2802 16.2106 92.1182 16.9764 92.1576 17.7405C92.1971 18.511 92.1867 19.2929 92.1035 20.0586C92.0465 20.5835 91.8337 21.0916 91.6741 21.6015C91.6516 21.6731 91.5383 21.7522 91.4602 21.7609C90.5945 21.8578 89.7288 21.9703 88.8601 22.0214C87.8296 22.0819 86.7955 22.1218 85.764 22.1033C85.0521 22.0906 84.3397 21.9815 83.6325 21.8806C83.2463 21.8256 83.1406 21.5296 83.3358 21.1915C83.3712 21.1303 83.41 21.0532 83.4045 20.9874C83.3783 20.6807 83.3529 20.3717 83.2897 20.0722C83.2743 19.9999 83.1155 19.9149 83.0219 19.914C82.6596 19.9103 82.5006 19.6776 82.5503 19.3698C82.6049 19.0321 82.7119 18.6678 82.9039 18.3982C83.1847 18.0042 83.1591 17.6415 83.0239 17.2259C82.9821 17.0969 83.0167 16.9409 83.0171 16.7972C83.0175 16.6021 83.0186 16.407 83.0198 16.1507C82.7594 16.206 82.589 16.2556 82.4152 16.2759C82.1677 16.3048 82.0469 16.145 82.152 15.9133Z" fill="white"/>
<path d="M131.022 24.3211C130.966 24.0084 130.797 23.6883 130.835 23.393C130.914 22.7758 131.15 22.174 130.851 21.5559C130.841 21.535 130.846 21.506 130.846 21.4808C130.845 20.5245 130.841 19.5683 130.847 18.6121C130.849 18.3612 130.906 18.1092 130.895 17.8599C130.86 17.1218 130.806 16.3845 130.753 15.6475C130.743 15.5136 130.733 15.3585 130.664 15.2549C130.545 15.0749 130.557 14.9388 130.688 14.7828C131.228 14.139 130.97 13.4319 130.819 12.7434C130.71 12.2475 130.565 11.7596 130.421 11.2729C130.37 11.101 130.316 10.8786 130.19 10.7922C129.89 10.5856 129.561 10.3944 129.218 10.2924C128.742 10.1512 128.215 10.1694 127.759 9.98765C127.636 9.9387 127.527 9.90623 127.427 9.89146C127.409 9.88407 127.39 9.87693 127.372 9.8724C127.34 9.86451 127.312 9.86504 127.281 9.85609C127.257 9.84919 127.231 9.83814 127.208 9.83344C127.17 9.82609 127.127 9.83651 127.089 9.83234C127.014 9.82413 126.943 9.79516 126.869 9.78043C126.767 9.76005 126.67 9.69761 126.569 9.67701C126.513 9.66544 126.455 9.65533 126.398 9.64074C126.323 9.62147 126.248 9.62214 126.171 9.61397C125.973 9.59301 125.78 9.57029 125.582 9.56943C125.445 9.56887 125.309 9.56744 125.173 9.56785C125.08 9.56811 124.993 9.5615 124.901 9.54223C124.863 9.53394 124.827 9.53127 124.787 9.53171C124.674 9.533 124.555 9.51528 124.445 9.54267C124.38 9.55866 124.315 9.56048 124.251 9.57255C124.226 9.57719 124.206 9.58095 124.179 9.5806C124.133 9.57999 124.083 9.58742 124.037 9.57893C124.005 9.57285 123.972 9.55149 123.943 9.53651C123.901 9.51563 123.891 9.4905 123.852 9.4668C123.797 9.43328 123.735 9.38732 123.678 9.36091C123.636 9.3419 123.58 9.33782 123.537 9.32795C123.509 9.3216 123.484 9.31956 123.455 9.31965C123.385 9.31979 123.312 9.32349 123.243 9.31486C123.047 9.29047 122.85 9.30436 122.654 9.29807C122.71 9.34441 122.788 9.3469 122.856 9.35078C122.912 9.3539 122.97 9.39533 123.026 9.38564C122.963 9.41264 122.871 9.41538 122.804 9.41999C122.674 9.42881 122.541 9.42774 122.412 9.44428C122.232 9.46732 122.034 9.45606 121.855 9.43323C121.72 9.41605 121.589 9.32705 121.479 9.24873C121.437 9.21886 121.395 9.22103 121.344 9.2251C121.212 9.23574 121.085 9.28867 120.955 9.30871C120.921 9.31393 120.907 9.32301 120.871 9.32624C120.753 9.33694 120.634 9.35227 120.516 9.36857C120.418 9.32777 120.269 9.3372 120.06 9.38735C120.002 9.40133 119.94 9.40806 119.881 9.40607C119.417 9.39033 118.954 9.37048 118.49 9.35558C118.443 9.35407 118.396 9.3819 118.347 9.38709C118.182 9.40491 118.015 9.41122 117.851 9.43619C117.685 9.4616 117.519 9.49639 117.356 9.54049C117.022 9.63117 116.694 9.79015 116.356 9.81528C115.461 9.88177 114.793 10.565 115.341 11.5076C115.42 11.6438 115.439 11.8375 115.433 12.0026C115.403 12.8245 115.334 13.6452 115.32 14.467C115.298 15.6909 115.286 16.9161 115.318 18.1394C115.343 19.1412 115.417 20.1431 115.506 21.1413C115.586 22.0331 115.67 22.9008 114.92 23.584C114.832 23.6646 114.859 23.9102 114.875 24.0746C114.89 24.2186 114.947 24.3663 115.018 24.4934C115.099 24.6387 115.193 24.7938 115.319 24.8913C115.878 25.3215 116.467 25.712 117.011 26.1604C117.238 26.3476 117.361 26.4386 117.448 26.1471C117.694 26.167 117.939 26.2622 118.114 26.1862C118.546 25.9989 119.091 26.1754 119.442 25.7347C119.477 25.6914 119.62 25.7361 119.713 25.7476C120.056 25.7902 120.401 25.9688 120.737 25.7095C120.778 25.6771 120.856 25.6752 120.912 25.6853C121.259 25.7476 121.602 25.8429 121.95 25.8748C122.152 25.8934 122.38 25.8529 122.566 25.7692C122.798 25.6652 122.974 25.6789 123.219 25.7626C123.725 25.9357 124.261 26.0174 124.785 26.1314C124.828 26.1407 124.895 26.1254 124.924 26.0947C125.172 25.8309 125.447 25.8225 125.789 26.0641C125.79 25.8802 125.803 25.7709 125.789 25.6652C125.745 25.323 125.948 25.1721 126.216 25.1039C126.551 25.0187 126.921 24.822 127.207 25.1651C127.299 25.2756 127.262 25.5144 127.257 25.6936C127.254 25.802 127.185 25.9067 127.17 26.0166C127.14 26.2195 127.238 26.3752 127.433 26.3075C127.849 26.1625 128.237 26.2959 128.641 26.3465C128.908 26.38 129.05 26.4732 129.08 26.7424C129.105 26.9683 129.142 27.1941 129.148 27.4207C129.168 28.1715 129.151 28.9241 129.195 29.6731C129.245 30.524 129.342 31.3719 129.423 32.2207C129.436 32.353 129.474 32.4827 129.501 32.6136C129.548 32.6119 129.596 32.61 129.643 32.6082C129.667 32.24 129.694 31.872 129.713 31.5036C129.747 30.8176 129.789 30.1316 129.803 29.4452C129.815 28.8303 129.794 28.2149 129.79 27.5997C129.789 27.5518 129.797 27.4817 129.827 27.4595C130.078 27.2747 130.051 26.9971 130.056 26.7367C130.06 26.477 130.163 26.3551 130.421 26.3166C130.547 26.2977 130.712 26.1965 130.768 26.084C130.914 25.7895 131.06 25.4767 131.111 25.1551C131.153 24.8888 131.071 24.5973 131.022 24.3211ZM116.258 13.8673C116.196 14.5068 116.072 15.1399 115.889 15.7674C115.894 14.7182 115.898 13.669 115.903 12.6198C115.938 12.6045 115.974 12.5891 116.009 12.5738C116.075 12.6374 116.19 12.6953 116.197 12.7654C116.236 13.1313 116.293 13.505 116.258 13.8673ZM128.495 20.2029C128.585 20.3342 128.478 20.6181 128.443 20.829C128.418 20.9823 128.317 21.1351 128.331 21.2801C128.38 21.8142 128.076 22.2698 127.575 22.4073C127.46 22.4387 127.338 22.5627 127.282 22.6768C127.14 22.9685 126.967 23.1239 126.621 23.0826C126.47 23.0646 126.261 23.1605 126.151 23.2776C125.936 23.5069 125.703 23.5428 125.419 23.5165C125.092 23.4862 124.762 23.4803 124.433 23.4843C124.169 23.4876 123.904 23.5395 123.64 23.5375C123.223 23.5343 122.79 23.4234 122.392 23.5039C121.765 23.6304 121.166 23.4935 120.555 23.467C120.185 23.4509 119.81 23.4632 119.441 23.5023C119.206 23.5272 119.155 23.4399 119.112 23.225C119.073 23.0333 118.981 22.8277 118.852 22.6872C118.684 22.5037 118.568 22.3607 118.704 22.0979C118.763 21.9864 118.798 21.7938 118.743 21.7006C118.553 21.3754 118.38 21.0728 118.639 20.7012C118.663 20.6669 118.639 20.5619 118.603 20.524C118.377 20.2845 118.324 20.0151 118.339 19.6779C118.369 19.0497 118.421 18.3983 118.295 17.7938C118.182 17.2494 118.137 16.7307 118.188 16.1871C118.204 16.0177 118.174 15.8434 118.162 15.6716C118.135 15.2905 118.082 14.9094 118.085 14.5287C118.088 14.1505 118.141 13.7716 118.192 13.396C118.2 13.3398 118.318 13.2923 118.392 13.2546C118.632 13.132 118.868 12.9963 119.118 12.9027C119.261 12.8491 119.411 12.7878 119.56 12.7468C119.566 12.7518 119.572 12.756 119.579 12.7587C119.628 12.7782 119.686 12.7409 119.732 12.7305C119.779 12.7199 119.828 12.7086 119.877 12.7008C119.885 12.7009 119.894 12.7008 119.902 12.7012C120.1 12.7109 120.269 12.6943 120.393 12.6307C120.427 12.6227 120.462 12.6188 120.498 12.6134C120.528 12.6087 120.551 12.5966 120.579 12.5914C120.614 12.5849 120.645 12.588 120.682 12.5757C120.712 12.5659 120.733 12.5499 120.76 12.5372C120.88 12.4813 121.019 12.491 121.147 12.4916C121.258 12.492 121.37 12.4925 121.481 12.493C121.543 12.4932 121.604 12.4963 121.666 12.4929C121.734 12.4891 121.799 12.4675 121.867 12.4606C121.916 12.4556 121.958 12.4299 122.005 12.4135C122.088 12.3843 122.171 12.3777 122.257 12.368C122.385 12.3535 122.511 12.3287 122.637 12.298C122.731 12.2749 122.82 12.242 122.918 12.2403C123.067 12.2378 123.217 12.2424 123.367 12.243C123.562 12.2438 123.754 12.2433 123.938 12.1744C124.058 12.129 124.171 12.0146 124.307 12.0658C124.332 12.0751 124.351 12.0978 124.375 12.1063C124.424 12.1237 124.496 12.1102 124.547 12.1105C124.616 12.1108 124.685 12.1135 124.754 12.1126C124.828 12.1116 124.898 12.0902 124.966 12.0598C124.983 12.0525 125.02 12.042 125.03 12.0287C125.05 12.0009 125.025 11.9589 125.053 11.927C125.068 11.9116 125.077 11.91 125.095 11.9022C125.141 11.8823 125.196 11.8902 125.25 11.8897C125.338 11.889 125.395 11.9677 125.479 11.9906C125.554 12.0114 125.608 12.0354 125.671 12.0885C125.71 12.1218 125.756 12.1419 125.8 12.1689C125.869 12.2104 125.904 12.2372 125.982 12.2373C126.048 12.2373 126.114 12.2375 126.18 12.2378C126.292 12.2384 126.406 12.2423 126.515 12.265C126.558 12.2742 126.597 12.2741 126.642 12.2738C126.691 12.2735 126.734 12.2896 126.782 12.2929C126.885 12.3 126.987 12.2864 127.09 12.3058C127.161 12.319 127.224 12.3289 127.297 12.3288C127.398 12.3285 127.5 12.3278 127.601 12.3295C127.657 12.3305 127.7 12.3549 127.754 12.3715C127.858 12.4036 127.948 12.4675 128.045 12.5174C128.07 12.5305 128.094 12.5429 128.117 12.5554C128.138 12.5939 128.155 12.6358 128.17 12.6817C128.241 12.9102 128.262 13.1599 128.275 13.4018C128.305 13.98 128.246 14.5742 128.357 15.1338C128.473 15.7212 128.437 16.2732 128.37 16.8532C128.323 17.2674 128.354 17.7187 128.47 18.1165C128.56 18.4281 128.602 18.6747 128.476 18.9804C128.313 19.3768 128.204 19.7771 128.495 20.2029ZM129.359 24.085C129.175 24.1229 128.946 23.7618 128.988 23.4801C129.006 23.3641 129.136 23.2662 129.215 23.1602C129.371 23.3441 129.526 23.5281 129.731 23.7698C129.557 23.9242 129.469 24.0624 129.359 24.085Z" fill="white"/>
<path d="M46.043 28.0186C46.182 28.0379 46.3327 28.0576 46.4654 28.025C47.0044 27.8922 47.4989 27.6124 47.9682 27.3535C48.5151 27.0516 49.0916 26.9854 49.6593 26.8505C50.0157 26.7659 50.4546 26.3305 50.3219 25.9831C50.2535 25.8038 50.0155 25.6892 49.7781 25.4777C49.8083 25.438 49.8697 25.2812 49.9812 25.2264C50.2012 25.1182 50.1465 25.0007 50.1261 24.8029C50.0819 24.3737 50.0862 23.9311 50.1393 23.5025C50.2051 22.9708 50.3886 22.4518 50.4339 21.9199C50.5022 21.1208 50.4034 20.2984 50.5474 19.5175C50.668 18.8638 50.5811 18.2243 50.6497 17.5824C50.6833 17.2697 50.7226 16.951 50.6977 16.64C50.6549 16.1106 50.5832 15.5866 50.7957 15.0756C50.9051 14.8127 50.8213 14.3727 50.6337 14.3556C50.1817 14.3144 49.9641 13.9829 49.7228 13.6847C49.2837 13.1421 48.6231 13.206 48.3317 13.83C48.303 13.8918 48.2384 13.9367 48.2085 13.9983C47.8981 14.6354 47.3716 15.2047 47.5867 16.0089C47.615 16.1149 47.5761 16.243 47.5536 16.3579C47.4489 16.8957 47.3055 17.4284 47.2398 17.9706C47.165 18.5887 47.159 19.2149 47.1197 19.8374C47.1169 19.8817 47.0795 19.9228 47.0692 19.9679C47.0059 20.245 46.9242 20.5201 46.8894 20.801C46.8296 21.2845 46.8113 21.7731 46.7539 22.2571C46.7036 22.6828 46.6215 23.1047 46.5579 23.529C46.4894 23.9847 46.4422 24.4442 46.3551 24.8963C46.293 25.2204 46.1547 25.5302 46.0963 25.8547C45.9873 26.4608 45.928 27.0758 45.8147 27.6809C45.7715 27.9111 45.8537 27.9924 46.043 28.0186Z" fill="white"/>
<path d="M47.3721 11.5689C47.4146 11.7258 47.558 11.8553 47.6559 11.9972C47.7802 11.9011 47.9039 11.8043 48.0289 11.7093C48.1189 11.6409 48.2595 11.4978 48.2943 11.5198C48.6477 11.7426 48.9637 11.3523 49.3186 11.4808C49.4911 11.5433 49.7695 11.5511 49.8971 11.4517C50.1942 11.2201 50.5641 11.1729 50.8579 10.9966C51.2731 10.7476 51.5126 10.2833 51.7729 9.86953C51.8066 9.81595 51.8082 9.73059 51.7992 9.66337C51.7435 9.25215 51.6506 8.84346 51.629 8.43084C51.6091 8.05017 51.613 7.6535 51.7019 7.28703C51.7651 7.0258 51.6797 6.89093 51.5348 6.72668C51.3683 6.53778 51.2064 6.62727 51.0228 6.69571C50.5239 6.88157 50.079 7.17666 49.5173 7.24408C49.0143 7.30444 48.4015 7.21031 48.068 7.78474C48.0524 7.81146 47.9822 7.80473 47.9384 7.81692C47.4562 7.95077 47.3163 8.09291 47.3025 8.56735C47.2825 9.25462 47.2922 9.94279 47.2893 10.6306C47.265 10.6325 47.2407 10.6345 47.2166 10.6364C47.2651 10.9481 47.2902 11.2662 47.3721 11.5689Z" fill="white"/>
<path d="M113.743 27.8714C113.719 28.2656 114.408 28.9569 114.83 28.9576C115.293 28.9585 115.755 28.9448 116.185 28.713C116.56 28.5107 116.668 28.2717 116.45 27.8952C116.365 27.7493 116.161 27.675 116.068 27.5312C115.855 27.2027 115.543 27.1675 115.203 27.1595C115.1 27.1572 114.994 27.1207 114.898 27.0805C114.122 26.7573 113.95 26.8449 113.784 27.6548C113.767 27.7357 113.753 27.817 113.743 27.8714Z" fill="white"/>
<path d="M33.6628 25.9012C33.433 25.4458 33.2007 24.9914 32.9648 24.5391C32.9117 24.4373 32.8412 24.3445 32.7787 24.2477C32.6156 24.3538 32.3366 24.4367 32.3099 24.57C32.2128 25.0563 32.1843 25.559 32.1683 26.0568C32.165 26.1591 32.3246 26.2692 32.4138 26.3715C32.5215 26.4949 32.6153 26.6441 32.7491 26.7275C32.9444 26.8491 33.1654 26.9711 33.385 26.9922C33.4778 27.001 33.6342 26.7681 33.69 26.6183C33.743 26.4758 33.7026 26.2985 33.7033 26.1365L33.7424 26.1321C33.7163 26.0549 33.6991 25.9733 33.6628 25.9012Z" fill="white"/>
<path d="M92.7626 7.30159C93.1759 7.32309 93.3602 7.11693 93.3983 6.6563C93.421 6.38332 93.2345 6.26912 92.7338 6.24944C92.4974 6.24013 92.0455 6.65369 92.0687 6.90273C92.1166 7.41031 92.5514 7.20157 92.7626 7.30159Z" fill="white"/>
<path d="M72.5463 18.1865C72.6536 18.1467 72.799 17.9998 72.7931 17.9076C72.7794 17.6927 72.7223 17.4599 72.6106 17.2789C72.5363 17.1585 72.3138 17.0289 72.2004 17.06C72.076 17.094 72.0007 17.3076 71.8872 17.4665C72.0125 17.6969 72.0983 17.904 72.2301 18.0756C72.2902 18.1535 72.4625 18.2176 72.5463 18.1865Z" fill="white"/>
<path d="M51.0474 26.6041C51.1512 26.7343 51.239 26.8837 51.3646 26.9875C51.4468 27.0553 51.5837 27.0568 51.7842 27.1124C51.9089 27.0254 52.1582 26.9398 52.2042 26.7913C52.2411 26.6725 52.0631 26.4309 51.9197 26.3308C51.8103 26.2544 51.5931 26.276 51.447 26.3241C51.2991 26.3726 51.1793 26.5073 51.0474 26.6041Z" fill="white"/>
<path d="M118.918 28.3793C119.143 28.35 119.466 28.3993 119.59 27.9906C119.431 27.8407 119.276 27.6007 119.067 27.536C118.96 27.5027 118.676 27.7557 118.619 27.9279C118.571 28.0735 118.624 28.4178 118.918 28.3793Z" fill="white"/>
<path d="M31.194 29.2228C31.3117 29.2092 31.5164 28.9766 31.5031 28.9553C31.3856 28.7676 31.2278 28.6052 31.0303 28.375C30.8262 28.5445 30.634 28.627 30.5906 28.7585C30.5285 28.9468 30.9163 29.2548 31.194 29.2228Z" fill="white"/>
<path d="M79.192 27.7925C79.1908 27.7073 78.9546 27.5336 78.9056 27.5583C78.7379 27.643 78.6053 27.7978 78.4595 27.9259C78.5386 28.0028 78.6176 28.0797 78.6964 28.1566C78.9812 28.1217 79.1967 28.0675 79.192 27.7925Z" fill="white"/>
<path d="M49.3394 28.1145C49.6102 28.3877 49.9055 28.3123 50.0183 27.9411C49.5933 27.863 49.5016 27.8863 49.3394 28.1145Z" fill="white"/>
<path d="M53.0272 6.51721C53.1221 6.50822 53.2107 6.43399 53.302 6.38708C53.3019 6.3547 53.3016 6.32229 53.3014 6.28985C53.2288 6.26184 53.1478 6.1994 53.0853 6.21415C52.9996 6.23437 52.9277 6.31321 52.8501 6.36688C52.9094 6.42056 52.9734 6.52231 53.0272 6.51721Z" fill="white"/>
<path d="M84.9595 20.5009C85.0697 20.4731 85.2121 20.3164 85.2273 20.2015C85.2634 19.9308 85.0884 19.8138 84.716 19.8209C84.6886 19.8484 84.5501 19.9243 84.5204 20.0325C84.4711 20.2128 84.7778 20.5467 84.9595 20.5009Z" fill="white"/>
<path d="M12.4298 25.6038C12.4341 25.6032 12.4383 25.6027 12.4425 25.6021C12.3636 25.6124 12.3105 25.6199 12.4298 25.6038Z" fill="white"/>
<path d="M8.73004 30.4556C8.87325 30.4477 9.0183 30.4444 9.15776 30.418C10.9142 30.0861 12.6884 29.8629 14.3621 29.288C14.4125 29.2708 14.4509 29.2552 14.4788 29.241C12.543 29.5646 10.5689 29.7289 8.59131 30.3263C8.69014 30.4201 8.71227 30.4566 8.73004 30.4556Z" fill="white"/>
<path d="M12.8393 25.5211C12.861 25.5189 12.8826 25.5161 12.9042 25.513C12.7793 25.5269 12.7411 25.5314 12.8393 25.5211Z" fill="white"/>
<path d="M27.2978 9.06041C27.096 8.37526 26.7357 7.97908 26.0505 7.7429C25.4256 7.52751 25.3384 7.29292 25.6967 6.90192C25.379 6.47574 24.8025 6.18947 24.267 6.18503C23.128 6.17569 21.9875 6.16394 20.8461 6.15207C20.7082 6.15065 20.5694 6.14236 20.4385 6.13753C20.6496 6.61797 20.8375 7.05421 21.0388 7.48947C21.0583 7.53162 21.1524 7.55751 21.2145 7.5826C21.5095 7.70181 21.8077 7.81244 22.1015 7.93759C22.3693 8.05164 22.4818 8.23848 22.5282 8.51216C22.755 9.84953 23.0094 11.2099 23.2669 12.5934C23.3361 12.9649 23.4653 13.3402 23.504 13.7119C23.5361 14.0193 23.4675 14.3203 23.4552 14.6281C23.4403 15.0016 23.448 15.3815 23.4273 15.757C23.4025 16.2065 23.3678 16.6568 23.3178 17.1051C23.2833 17.4138 23.2129 17.7139 23.1635 18.0211C23.1451 18.1355 23.102 18.2615 23.1376 18.371C23.2957 18.8568 23.1752 19.282 23.0923 19.72C23.031 20.0438 22.9558 20.3646 22.9063 20.6947C22.7822 21.522 22.6561 22.3576 22.5551 23.2091C22.518 23.5228 22.3642 23.645 22.0805 23.69C21.8068 23.7334 21.5453 23.8216 21.2816 23.8988C20.9249 24.0033 20.572 24.1191 20.2137 24.2226C20.1594 24.2383 20.0872 24.2037 20.026 24.2072C19.8699 24.2159 19.7046 24.207 19.5621 24.2517C19.1415 24.3839 18.7435 24.5851 18.3088 24.6736C17.7869 24.78 17.2322 24.7773 16.6999 24.8577C15.6539 25.0157 14.6106 25.1972 13.5631 25.3742C13.3414 25.4117 13.1266 25.4814 12.904 25.5129C13.2569 25.4735 14.3028 25.3583 14.926 25.2874C14.8473 25.2989 14.7685 25.3102 14.6895 25.3202C13.9417 25.4139 13.1911 25.5009 12.4423 25.6021C12.6419 25.5759 13.0074 25.5317 11.1719 25.8058C10.8412 25.8552 10.4952 25.8237 10.16 25.8542C9.57163 25.9077 8.98753 25.9945 8.39688 26.0413C7.67171 26.0988 6.9421 26.13 6.21308 26.1709C6.07396 26.1788 5.93111 26.2037 5.79483 26.178C5.06013 26.0395 4.32862 26.064 3.59676 26.0849C3.45937 26.0888 3.29862 26.1056 3.19433 26.183C2.67955 26.5645 2.07954 26.8488 1.73043 27.4474C1.66639 27.5572 1.52416 27.8653 1.65664 27.853C2.47364 27.7771 2.33296 28.3775 2.92212 28.6215C3.69298 28.9406 4.46513 28.8366 5.10613 29.4819C5.32486 29.7021 5.61719 29.8534 5.89548 29.9828C6.05548 30.0573 6.27203 29.9724 6.43065 30.0485C6.8918 30.2699 7.27974 30.1128 7.67543 29.9345C7.78752 29.884 7.90851 29.8374 8.0303 29.8287C8.62628 29.7859 9.22345 29.7567 9.81943 29.722C9.83201 29.7213 9.84363 29.7133 9.85577 29.7089C10.342 29.5316 10.8198 29.3328 11.3131 29.1845C11.8133 29.0341 12.3332 28.9458 12.8358 28.8076C13.0398 28.7515 13.2506 28.7783 13.4636 28.8356C14.3037 28.7311 15.1665 28.9915 15.9864 28.7965C16.0231 28.7868 16.0598 28.7772 16.0965 28.7675C16.1329 28.7569 16.1692 28.7454 16.2055 28.7327C16.473 28.6395 16.7228 28.5015 16.9932 28.4196C17.5126 28.2624 18.039 28.1269 18.5632 27.9897C19.3573 27.7817 20.0755 27.3639 20.946 27.3869C21.0181 27.3888 21.0874 27.3503 21.1534 27.3216C21.5374 27.155 21.9023 26.9431 22.304 26.8278C23.0625 26.61 23.8416 26.4507 24.6061 26.2596C24.7461 26.2246 24.8931 26.1775 24.9993 26.0896C25.3171 25.8266 25.6295 25.5566 25.9163 25.2628C26.302 24.8677 26.2103 24.0918 25.6984 23.6985C25.3899 23.4615 25.4279 23.2794 25.505 23.0386C25.6601 22.554 25.8539 22.0864 25.9499 21.5858C26.1423 20.5826 26.277 19.571 26.4373 18.5816C26.5447 17.9189 26.6591 17.2643 26.7689 16.6137C26.8067 16.3897 26.8451 16.1667 26.8808 15.9433C27.0264 15.0337 27.1767 14.1363 27.3068 13.243C27.3445 12.9836 27.3286 12.7084 27.3362 12.4751C27.1739 12.3898 27.0402 12.3196 26.9066 12.2494C26.9069 12.2072 26.9071 12.165 26.9074 12.1228C27.0482 12.103 27.189 12.0833 27.3298 12.0636C27.3647 12.0861 27.3996 12.1086 27.4345 12.1311C27.4403 11.8767 27.4275 11.6178 27.4556 11.3713C27.5422 10.61 27.5345 9.8642 27.2978 9.06041ZM23.4244 11.8192C23.2735 10.7335 23.1247 9.66237 22.972 8.56349C23.2671 8.69539 23.4392 9.09692 23.3696 9.36795C23.3491 9.44786 23.2818 9.54111 23.3131 9.60471C23.4845 9.95334 23.4732 10.2932 23.4791 10.6387C23.4859 11.0327 23.5015 11.4301 23.5134 11.8289C23.4837 11.8257 23.454 11.8225 23.4244 11.8192ZM16.3515 25.5355C16.2972 25.5457 16.2436 25.5321 16.1898 25.5457C16.1046 25.5673 16.0339 25.604 15.9433 25.6053C15.8535 25.6066 15.7758 25.6181 15.6874 25.6305C15.5076 25.6556 15.3285 25.6639 15.1486 25.6967C14.9802 25.7274 14.8125 25.7604 14.6406 25.7614C14.4055 25.7627 14.1716 25.7723 13.9381 25.7879C13.6396 25.8272 13.3421 25.8744 13.053 25.9503C12.433 26.1133 11.8025 26.2007 11.1742 26.3214C10.9363 26.3671 10.6945 26.418 10.4535 26.4437C10.2719 26.4632 10.0848 26.4441 9.90244 26.4451C9.68429 26.4461 9.46712 26.4713 9.24845 26.474C9.08592 26.4759 8.91866 26.5587 8.75875 26.5385C8.91999 26.5337 9.05703 26.4841 9.21503 26.4429C9.4119 26.3915 9.61639 26.365 9.81592 26.3281C10.1374 26.2684 10.4558 26.1935 10.7822 26.1663C11.0559 26.1435 11.3272 26.1042 11.5982 26.058C11.6851 26.0431 11.7702 26.0121 11.8573 26.0026C12.1885 25.9668 12.522 25.9388 12.8539 25.8967C13.2159 25.8508 13.5765 25.8121 13.9381 25.7879C14.142 25.761 14.3463 25.7378 14.5487 25.7116C14.6957 25.6925 14.8409 25.6562 14.9868 25.6367C15.01 25.6335 15.029 25.6285 15.0525 25.632L16.6936 25.446C16.5862 25.4828 16.4631 25.5146 16.3515 25.5355Z" fill="white"/>
<path d="M14.8439 29.1035C14.4033 29.23 13.9281 28.9604 13.4639 28.8356C13.317 28.8538 13.1708 28.8832 13.0257 28.9282C12.1127 29.211 14.9763 28.9892 14.4789 29.241C15.3173 29.101 16.1486 28.931 16.9699 28.6829C16.955 28.6389 16.94 28.5947 16.9251 28.5507C16.6529 28.6219 16.3802 28.6923 16.1077 28.7646C16.104 28.7656 16.1004 28.7665 16.0967 28.7674C16.0601 28.7781 16.0234 28.7877 15.9866 28.7965C15.6056 28.8968 15.2231 28.9944 14.8439 29.1035Z" fill="white"/>
<path d="M3.79379 8.98082C3.89369 9.13093 4.03693 9.27688 4.07433 9.43909C4.16169 9.81773 4.19639 10.2065 4.25432 10.5937C4.30068 10.9037 4.37607 11.2152 4.39012 11.5271C4.40488 11.8547 4.35728 12.1826 4.34451 12.513C4.33826 12.675 4.34952 12.8389 4.35289 13.0023C4.39623 13.008 4.43953 13.0137 4.48288 13.0193C4.52126 12.7952 4.55858 12.5714 4.59785 12.3487C4.75944 11.4332 4.93942 10.5321 5.06791 9.63189C5.11467 9.30418 5.11666 9.02009 5.57551 9.04933C5.65156 9.05421 5.72181 8.95444 5.80513 8.93034C5.95281 8.88756 6.10624 8.85154 6.26137 8.84042C6.35922 8.83336 6.46808 8.8997 6.56638 8.89359C7.1573 8.85667 6.84409 8.85162 7.43368 8.80784C7.76418 8.78328 8.0953 8.7636 8.42491 8.7364C8.74273 8.71016 8.87494 8.85007 8.93504 9.15163C9.1054 10.0067 9.27989 10.8724 9.50876 11.738C9.78749 12.7922 9.98937 13.8563 9.95573 14.9517C9.91939 16.1347 9.90973 17.3384 9.86173 18.555C9.82787 19.4127 9.74428 20.2729 9.69243 21.1464C9.67824 21.3856 9.72921 21.6368 9.70191 21.8735C9.65617 22.2703 9.52556 22.6556 9.51381 23.0581C9.49977 23.5393 9.55712 24.0348 9.62741 24.5251C9.63982 24.6119 9.93668 24.781 9.98268 24.7465C10.2675 24.533 10.5491 24.3011 10.7691 24.0217C10.998 23.7308 11.0982 23.3138 11.3578 23.0714C11.8548 22.6072 11.8334 21.8878 12.1565 21.3561C11.936 20.8941 12.2345 20.5754 12.3471 20.2073C12.3718 20.1266 12.3906 20.0402 12.3919 19.9542C12.4018 19.3018 12.3817 18.6497 12.4199 18.0121C12.4589 17.3589 12.5404 16.7168 12.6242 16.0822C12.7319 15.2663 12.8688 14.4655 12.9743 13.6657C13.0466 13.117 13.0657 12.5592 13.1559 12.0233C13.1991 11.7664 13.1663 11.6029 12.9288 11.4307C12.821 11.3525 12.7436 11.1886 12.7127 11.0567C12.5908 10.5363 12.5023 10.0154 12.3834 9.50141C12.3281 9.26229 12.3017 9.04562 12.5626 8.94953C12.7996 8.86221 13.0442 8.75385 13.2983 8.74747C13.6345 8.73905 13.8004 8.66769 13.6389 8.30874C14.3748 8.23499 15.0807 8.16727 15.7833 8.09087C15.9014 8.07801 16.0367 8.05572 16.118 7.98923C16.4646 7.70563 16.5326 7.14994 16.2993 6.72291C16.267 6.66379 16.218 6.59567 16.2224 6.54049C16.2545 6.13792 15.9644 6.10469 15.6664 6.09254C15.0355 6.06692 14.4055 6.0562 13.7738 6.02442C13.5867 6.01499 13.3452 6.01298 13.2164 5.90928C12.6334 5.43983 12.0868 5.65195 11.5218 5.74889C11.0906 5.8229 10.6569 5.91044 10.2141 5.92448C9.65888 5.94208 9.09406 5.8873 8.53371 5.87289C8.46369 5.87108 8.39699 5.92501 8.35023 5.94425C8.95963 6.23676 9.54714 6.51877 10.1365 6.80167C10.1265 6.83176 10.1166 6.8619 10.1066 6.89204C10.067 6.8962 10.0273 6.9076 9.98782 6.90356C8.87467 6.79024 7.83008 6.39352 6.78333 6.01702C6.48549 5.90986 6.16909 5.84777 5.85792 5.79316C5.66127 5.75864 6.34331 5.74348 6.14316 5.72774C5.56864 5.68253 4.99363 5.60676 4.42017 5.58725C3.89187 5.5693 3.36291 5.65337 2.83656 5.61153C2.20255 5.5611 1.57298 5.42149 0.941153 5.32784C0.468787 5.25777 0.268503 5.47135 0.435635 5.89222C0.535666 6.14409 0.781112 6.37439 0.804824 6.62302C0.840502 6.99747 1.09153 7.20556 1.35005 7.38032C2.12269 7.90255 2.98082 8.31357 3.70479 8.92625C3.73103 8.94846 3.7769 8.95543 3.79379 8.98082ZM12.0095 13.3623C12.1579 13.0158 12.1959 13.0052 12.5367 13.2283C12.5968 13.2677 12.6479 13.3214 12.6295 13.3058C12.6188 13.6294 12.6221 13.8598 12.5968 14.085C12.5892 14.1533 12.4921 14.2652 12.4532 14.255C12.1343 14.172 11.8854 13.6524 12.0095 13.3623ZM9.63064 8.72713C9.67483 9.53979 9.71919 10.356 9.76693 11.2336C9.58402 10.3444 9.41299 9.51283 9.23655 8.65511C9.39477 8.684 9.48213 8.7 9.63064 8.72713Z" fill="white"/>
<path d="M16.5788 4.52138C16.8941 5.18552 17.2201 5.85294 17.5288 6.53171C17.6678 6.83712 17.7885 7.15273 17.8762 7.47042C17.9263 7.65195 17.9692 7.89819 17.8811 8.02216C17.5493 8.48881 17.3245 9.0503 16.7725 9.3558C16.6862 9.40358 16.6473 9.51939 16.5855 9.60324C16.4957 9.72499 16.4074 9.84824 16.3138 9.96778C16.1083 10.2305 15.781 10.458 15.7233 10.7646C15.6635 11.0823 15.7965 11.5051 15.9709 11.8344C16.278 12.4146 16.6918 12.9559 17.049 13.5267C17.4193 14.1184 17.7815 14.7202 18.1328 15.3321C18.2072 15.4617 18.2725 15.6679 18.2225 15.7703C18.0335 16.1579 17.7965 16.5204 17.5706 16.8909C17.5009 17.0051 17.4217 17.1151 17.3322 17.2138C17.1791 17.3826 17.0142 17.541 16.8538 17.7042C16.7983 17.6642 16.7427 17.6241 16.6872 17.584C16.7764 17.3499 16.8515 17.1084 16.9581 16.8858C17.0554 16.6828 17.219 16.5142 17.2913 16.3034C17.3401 16.1607 17.3346 15.9505 17.2624 15.806C17.0905 15.4616 16.8732 15.1351 16.6616 14.8108C16.4102 14.4256 16.1457 14.0499 15.8523 13.6194C15.6377 13.8791 15.4805 14.0555 15.3384 14.2442C15.1086 14.5496 14.8812 14.8591 14.6644 15.1779C14.478 15.4522 14.2131 15.714 14.1579 16.0317C14.0996 16.3675 13.9704 16.6227 13.7916 16.8804C13.7513 16.9385 13.7599 17.0967 13.8096 17.1486C14.2191 17.5755 14.5922 18.1038 15.0844 18.3787C15.5804 18.6558 15.8596 19.1343 16.3255 19.4135C16.5857 19.5695 16.7999 19.8162 17.0542 19.9913C17.4687 20.2766 17.91 20.5197 18.3214 20.8147C18.6044 21.0176 18.7711 21.0269 18.9177 20.7458C18.988 20.6109 19.0126 20.442 19.1014 20.3258C19.5143 19.7854 19.9456 19.2666 20.3528 18.7334C20.4745 18.5741 20.556 18.3812 20.6479 18.1997C20.8295 17.8407 21.0126 17.4845 21.1787 17.1208C21.2623 16.9377 21.2765 16.7094 21.3846 16.549C21.718 16.0548 21.6673 15.7808 21.1812 15.3293C21.0256 15.1847 20.9531 14.9534 20.8395 14.764C20.6604 14.4653 20.5403 14.0654 20.2851 13.8976C19.9106 13.6513 19.8195 13.2688 19.5301 12.9961C19.0554 12.5486 18.8651 11.866 18.2168 11.5579C18.1699 11.5357 18.1098 11.4257 18.1243 11.3892C18.1974 11.2047 18.0682 10.9214 18.364 10.8382C18.428 10.8202 18.4815 10.6746 18.4644 10.5922C18.4069 10.3135 18.514 10.1594 18.748 10.0499C18.8374 10.0082 18.8992 9.90356 18.9441 9.81168C19.1385 9.41373 19.3178 9.01015 19.5084 8.6153C19.6009 8.42352 19.7153 8.24398 19.8062 8.05256C19.8441 7.97274 19.8965 7.85605 19.8586 7.78859C19.6798 7.47028 19.8403 7.02344 19.3316 6.83105C19.3034 6.82037 19.29 6.7546 19.2721 6.71382C19.0581 6.22705 18.881 5.73022 18.6248 5.26588C18.3825 4.82688 18.059 4.42029 17.7711 4.00381C17.7466 3.96849 17.705 3.94101 17.6694 3.91207C17.2362 3.5595 17.1337 3.16873 17.3361 2.74631C17.4937 2.41705 17.6168 2.07268 17.7696 1.74467C17.8786 1.51048 18.0127 1.28923 18.135 1.06324C18.1205 1.0601 18.1061 1.05691 18.0916 1.05372C18.175 0.755484 18.2581 0.458494 18.3408 0.162656C18.3676 0.0995878 18.3656 0.0826131 18.4123 0C17.8773 0.419802 17.2408 1.00807 16.8692 1.57599C16.7208 1.80291 16.605 2.05141 16.4835 2.29615C16.416 2.43212 16.3926 2.59389 16.3077 2.71799C15.8812 3.341 15.9344 3.81018 16.5211 4.40535C16.5508 4.43549 16.5602 4.48225 16.5788 4.52138Z" fill="#F3C32F"/>
<path d="M12.8392 22.73C12.626 22.6985 12.4246 23.041 12.4414 23.5282C12.4931 23.5905 12.5933 23.8021 12.7429 23.8706C12.9463 23.964 13.1853 23.5651 13.159 23.2033C13.1436 22.9906 13.105 22.7692 12.8392 22.73Z" fill="white"/>
<path d="M4.12185 14.6863C4.08414 14.7345 4.082 14.8639 4.12198 14.909C4.2213 15.0211 4.35338 15.1749 4.47287 15.1817C4.59466 15.1888 4.71658 15.0403 4.90801 14.914C4.65839 14.7925 4.50327 14.7031 4.33862 14.6438C4.27475 14.6208 4.15735 14.6409 4.12185 14.6863Z" fill="white"/>
</g>
</svg>
