<svg width="32" height="22" viewBox="0 0 32 22" fill="none" xmlns="http://www.w3.org/2000/svg">
<path d="M17.025 20.938C17.099 20.8835 17.3168 20.7357 17.3168 20.4245V0.813548C17.3168 0.521775 17.0951 0.354497 17.025 0.300023C16.9317 0.265012 16.6944 0.1522 16.422 0.300023L6.41235 5.85146V15.3827L16.4182 20.938C16.6944 21.1014 16.9356 20.9925 17.025 20.938Z" fill="white"/>
<path d="M1.51833 15.0909H5.03903V6.14709H1.51833C0.841417 6.14709 0.273438 6.71509 0.273438 7.39198V13.8421C0.273438 14.5423 0.841417 15.0909 1.51833 15.0909Z" fill="white"/>
<path d="M25.817 0.268919C25.4591 0.626823 25.4591 1.20647 25.817 1.56438C30.8121 6.55951 30.8121 14.6824 25.817 19.6737C25.4591 20.0316 25.4591 20.6112 25.817 20.9691C25.996 21.1481 26.2294 21.2376 26.4667 21.2376C26.704 21.2376 26.9374 21.1481 27.1164 20.9691C32.8234 15.2621 32.8234 5.97597 27.1164 0.265024C26.7546 -0.0889877 26.1749 -0.0889877 25.817 0.268919Z" fill="white"/>
<path d="M22.2692 17.4211C22.4481 17.6001 22.6815 17.6896 22.9188 17.6896C23.1523 17.6896 23.3896 17.6001 23.5685 17.4211C27.3187 13.6748 27.3187 7.57091 23.5685 3.82067C23.2106 3.46277 22.6309 3.46277 22.273 3.82067C21.9152 4.17858 21.9152 4.75824 22.273 5.11615C25.3075 8.15057 25.3075 13.0912 22.273 16.1257C21.9113 16.4836 21.9113 17.0632 22.2692 17.4211Z" fill="white"/>
</svg>
