<svg xmlns="http://www.w3.org/2000/svg" xmlns:xlink="http://www.w3.org/1999/xlink" width="123.432" height="59.829" viewBox="0 0 123.432 59.829">
  <defs>
    <clipPath id="clip-path">
      <rect id="Rectangle_7" data-name="Rectangle 7" width="123.432" height="36.544" fill="#181818"/>
    </clipPath>
  </defs>
  <g id="Group_34" data-name="Group 34" transform="translate(-623.077 -735.984)">
    <g id="Group_32" data-name="Group 32" transform="matrix(0.875, 0.485, -0.485, 0.875, 692.152, 742.387)">
      <g id="Group_20" data-name="Group 20" transform="translate(0 0)">
        <path id="Path_40" data-name="Path 40" d="M39.92.451c-.076.054-.187.056-.26.117L39.346.83a4.323,4.323,0,0,1-.82.512,7.088,7.088,0,0,0-.813.47c-.067.046-.131.061-.2.1s-.142.113-.223.157c-.175.094-.329.206-.5.3a2.212,2.212,0,0,0-.652.519c-.059.07-.14.122-.2.186a2.579,2.579,0,0,0-.211.2,1.9,1.9,0,0,0,.32-.154c.126-.063.245-.108.38-.162a3.3,3.3,0,0,1,.491-.166c.117-.027.346-.047.412-.169-.023.03-.017.07-.038.1a.88.88,0,0,1-.183.145,3.233,3.233,0,0,0-.354.306,2.091,2.091,0,0,1-.272.23,3.513,3.513,0,0,0-.37.272,1.346,1.346,0,0,1-.225.2c-.183.119-.325.291-.512.4-.128.077-.243.17-.366.255a2.821,2.821,0,0,0-.213.2,4.249,4.249,0,0,0-.385.3,2.417,2.417,0,0,1-.563.415c-.488.274-.986.54-1.47.823-.326.19-.686.314-1.017.49-.169.09-.32.207-.489.315a3.388,3.388,0,0,0-.486.389,3.653,3.653,0,0,1-.547.537c-.423.255-.838.5-1.255.761-.176.109-.314.288-.5.381a1.959,1.959,0,0,0-.222.092c-.055.037-.094.1-.151.132-.041.025-.113.037-.159.061a1.234,1.234,0,0,1-.193.1,3.957,3.957,0,0,0-.7.32c-.557.308-1.171.511-1.745.783a6.266,6.266,0,0,0-.737.454c-.243.16-.509.3-.748.47a4.731,4.731,0,0,1-.584.384,1.165,1.165,0,0,0-.22.163c-.061.048-.182.061-.192.15.095.04.152-.022.239-.039s.163,0,.245-.017c.066-.017.154-.028.218-.051.1-.036.134-.149.258-.09a.56.56,0,0,1-.176.1,2.415,2.415,0,0,0-.269.188,7.418,7.418,0,0,1-.81.467c-.219.124-.432.213-.659.321a2.865,2.865,0,0,0-.285.19c-.262.163-.531.347-.8.521a5.622,5.622,0,0,1-.523.333,2.109,2.109,0,0,0-.425.251c-.19.158-.421.262-.6.431a.836.836,0,0,1-.215.191c-.048.022-.1.026-.146.051-.24.128-.45.339-.688.476A14.074,14.074,0,0,0,16.179,16.6c-.167.13-.366.174-.513.335a2.381,2.381,0,0,1-.435.357c-.244.169-.442.364-.68.531a7.644,7.644,0,0,0-1.072.746c-.228.228-.514.389-.747.614-.155.149-.333.25-.48.409a2.835,2.835,0,0,1-.438.369c-.256.184-.492.405-.746.6-.077.059-.169.1-.247.159-.095.072-.171.165-.269.232a1.2,1.2,0,0,0-.136.083c-.042.039-.063.093-.109.131s-.1.036-.141.07-.064.094-.114.139c-.115.1-.258.157-.37.271s-.261.187-.382.3a.7.7,0,0,1-.154.112.879.879,0,0,0-.132.106c-.083.067-.172.144-.258.2-.138.1-.279.206-.425.288s-.32.145-.468.229c-.054.031-.082.1-.142.109a1.065,1.065,0,0,0,.3-.108,7.059,7.059,0,0,1,.9-.271,2.231,2.231,0,0,1,.524-.116,3.666,3.666,0,0,1-.479.419c-.08.069-.179.117-.264.179-.192.143-.341.334-.536.475a3.794,3.794,0,0,1-.559.338c-.109.051-.209.127-.324.174a2.089,2.089,0,0,0-.337.217c-.2.125-.418.2-.613.328-.161.105-.324.233-.493.321a1.553,1.553,0,0,0-.274.147,1.494,1.494,0,0,1-.278.16c-.064.034-.106.1-.165.133-.081.05-.181.069-.265.114-.173.094-.356.149-.518.254a7.154,7.154,0,0,1-.8.408,7.751,7.751,0,0,0-1.018.535c-.163.111-.316.226-.487.322a5.473,5.473,0,0,1-.736.307c-.428.164-.86.311-1.293.458L34.4,12.256,40.785,0a7.372,7.372,0,0,0-.676.3,1.662,1.662,0,0,0-.189.155" transform="translate(0 2.806)" fill="#fff"/>
        <path id="Path_41" data-name="Path 41" d="M37.286,2.8l5.9-2.8L34.5,5.75,40.859,2.8,37.286,5.75l2.276-.937a27.221,27.221,0,0,1-2.928,3.5c-.527.235-.762.292-.9.62s-.242.185-.335.663.043.663-.285,1a22.341,22.341,0,0,0-1.518,1.71,17.166,17.166,0,0,1-2,2.188,16.757,16.757,0,0,0-1.568,1.568c-.285.328.812.093-.948.948s-3.9,1.76-4.325,1.9-.905.428-1.332.57-3.556.428-3.556.428.8-.385-2.572,1.325a38.452,38.452,0,0,0-5.843,3.52C10.981,25.132,0,30.6,0,30.6l9.7-5.843H8.173s3.948-3.37,4.8-3.99S17.009,18.1,19,17.009s7.418-2.9,8.366-3.613a18.71,18.71,0,0,0,2.993-3.8A5.137,5.137,0,0,1,31.6,8.316l3.8-4.04Z" transform="translate(3.564 0)" fill="#fff"/>
      </g>
      <g id="Group_21" data-name="Group 21" transform="translate(55.521 32.286) rotate(180)">
        <path id="Path_40-2" data-name="Path 40" d="M39.92.451c-.076.054-.187.056-.26.117L39.346.83a4.323,4.323,0,0,1-.82.512,7.088,7.088,0,0,0-.813.47c-.067.046-.131.061-.2.1s-.142.113-.223.157c-.175.094-.329.206-.5.3a2.212,2.212,0,0,0-.652.519c-.059.07-.14.122-.2.186a2.578,2.578,0,0,0-.211.2,1.9,1.9,0,0,0,.32-.154c.126-.063.245-.108.38-.162a3.3,3.3,0,0,1,.491-.166c.117-.027.346-.047.412-.169-.023.03-.017.07-.038.1a.88.88,0,0,1-.183.145,3.233,3.233,0,0,0-.354.306,2.091,2.091,0,0,1-.272.23,3.513,3.513,0,0,0-.37.272,1.346,1.346,0,0,1-.225.2c-.183.119-.325.291-.512.4-.128.077-.243.17-.366.255a2.821,2.821,0,0,0-.213.2,4.249,4.249,0,0,0-.385.3,2.417,2.417,0,0,1-.563.415c-.488.274-.986.54-1.47.823-.326.19-.686.314-1.017.49-.169.09-.32.207-.489.315a3.388,3.388,0,0,0-.486.389,3.653,3.653,0,0,1-.547.537c-.423.255-.838.5-1.255.761-.176.109-.314.288-.5.381a1.959,1.959,0,0,0-.222.092c-.055.037-.094.1-.151.132-.041.025-.113.037-.159.061a1.234,1.234,0,0,1-.193.1,3.957,3.957,0,0,0-.7.32c-.557.308-1.171.511-1.745.783a6.266,6.266,0,0,0-.737.454c-.243.16-.509.3-.748.47a4.73,4.73,0,0,1-.584.384,1.165,1.165,0,0,0-.22.163c-.061.048-.182.061-.192.15.095.04.152-.022.239-.039s.163,0,.245-.017c.066-.017.154-.028.218-.051.1-.036.134-.149.258-.09a.56.56,0,0,1-.176.1,2.415,2.415,0,0,0-.269.188,7.419,7.419,0,0,1-.81.467c-.219.124-.432.213-.659.321a2.865,2.865,0,0,0-.285.19c-.262.163-.531.347-.8.521a5.621,5.621,0,0,1-.523.333,2.11,2.11,0,0,0-.425.251c-.19.158-.421.262-.6.431a.836.836,0,0,1-.215.191c-.048.022-.1.026-.146.051-.24.128-.45.339-.688.476A14.074,14.074,0,0,0,16.179,16.6c-.167.13-.366.174-.513.335a2.381,2.381,0,0,1-.435.357c-.244.169-.442.364-.68.531a7.644,7.644,0,0,0-1.072.746c-.228.228-.514.389-.747.614-.155.149-.333.25-.48.409a2.834,2.834,0,0,1-.438.369c-.256.184-.492.405-.746.6-.077.059-.169.1-.247.159-.095.072-.171.165-.269.232a1.2,1.2,0,0,0-.136.083c-.042.039-.063.093-.109.131s-.1.036-.141.07-.064.094-.114.139c-.115.1-.258.157-.37.271s-.261.187-.382.3a.7.7,0,0,1-.154.112.879.879,0,0,0-.132.106c-.083.067-.172.144-.258.2-.138.1-.279.206-.425.288s-.32.145-.468.229c-.054.031-.082.1-.142.109a1.065,1.065,0,0,0,.3-.108,7.061,7.061,0,0,1,.9-.271,2.231,2.231,0,0,1,.524-.116,3.666,3.666,0,0,1-.479.419c-.08.069-.179.117-.264.179-.192.143-.341.334-.536.475a3.794,3.794,0,0,1-.559.338c-.109.051-.209.127-.324.174a2.088,2.088,0,0,0-.337.217c-.2.125-.418.2-.613.328-.161.105-.324.233-.493.321a1.553,1.553,0,0,0-.274.147,1.494,1.494,0,0,1-.278.16c-.064.034-.106.1-.165.133-.081.05-.181.069-.265.114-.173.094-.356.149-.518.254a7.154,7.154,0,0,1-.8.408,7.75,7.75,0,0,0-1.018.535c-.163.111-.316.226-.487.322a5.473,5.473,0,0,1-.736.307c-.428.164-.86.311-1.293.458L34.4,12.256,40.785,0a7.372,7.372,0,0,0-.676.3,1.663,1.663,0,0,0-.189.155" transform="translate(0 2.806)" fill="#fff"/>
        <path id="Path_41-2" data-name="Path 41" d="M37.286,2.8l5.9-2.8L34.5,5.75,40.859,2.8,37.286,5.75l2.276-.937a27.225,27.225,0,0,1-2.928,3.5c-.527.235-.762.292-.9.62s-.242.185-.335.663.043.663-.285,1a22.332,22.332,0,0,0-1.518,1.71,17.163,17.163,0,0,1-2,2.188,16.752,16.752,0,0,0-1.568,1.568c-.285.328.812.093-.948.948s-3.9,1.76-4.325,1.9-.9.428-1.333.57-3.556.428-3.556.428.8-.385-2.572,1.325a38.445,38.445,0,0,0-5.843,3.52C10.981,25.132,0,30.6,0,30.6l9.7-5.843H8.173s3.948-3.37,4.8-3.99S17.009,18.1,19,17.009s7.418-2.9,8.366-3.613a18.706,18.706,0,0,0,2.993-3.8A5.138,5.138,0,0,1,31.6,8.316l3.8-4.04Z" transform="translate(3.564 0)" fill="#fff"/>
      </g>
    </g>
    <g id="Group_6" data-name="Group 6" transform="translate(623.077 735.984)">
      <g id="Group_5" data-name="Group 5" transform="translate(0 0)" clip-path="url(#clip-path)">
        <path id="Path_3" data-name="Path 3" d="M280.417,32.78a1.753,1.753,0,0,0-.857-.222,6.078,6.078,0,0,1-1.284.057c-.649-.042-1.3-.074-1.947-.117-.259-.017-.516-.05-.774-.076l-.007.086.9.164c-.044.073-.083.087-.122.085-.742-.042-1.484-.082-2.226-.13-.793-.052-1.585-.11-2.377-.171q-.629-.048-1.256-.112c-.4-.041-.806-.116-1.211-.135-.932-.045-1.861-.094-2.787-.223-.361-.05-.734-.006-1.1-.023-.666-.032-1.331-.09-2-.113-.441-.015-.876-.259-1.324-.037-.029.015-.083-.024-.126-.032-.151-.029-.3-.061-.454-.081-.521-.067-1.08.185-1.567-.194a.264.264,0,0,0-.227.007,2.254,2.254,0,0,1-1.493,0,3.373,3.373,0,0,0-1.245-.008c-.345.063-.509-.1-.52-.45-.009-.3-.078-.605-.112-.909a9.336,9.336,0,0,1-.088-.984c0-.651.039-1.3.036-1.952,0-.81-.043-1.621-.046-2.431,0-.763.03-1.525.033-2.288,0-.358-.021-.716-.051-1.073-.026-.305-.1-.607-.112-.912-.017-.386.037-.776.006-1.16-.073-.9-.177-1.8-.271-2.7-.026-.252-.058-.5-.086-.755-.049-.437-.089-.875-.148-1.311-.046-.34-.116-.678-.175-1.016a6.023,6.023,0,0,1,.929,1.112c.311.519.544,1.084.826,1.621.349.664.715,1.319,1.073,1.978.386.71.782,1.415,1.154,2.133s.707,1.461,1.084,2.18c.6,1.147,1.24,2.277,1.836,3.428a6.981,6.981,0,0,1,.542,1.355c.14.512.188,1.049.281,1.574a.862.862,0,0,0,.081.187l.083,0c.032-.132.067-.263.1-.395.074-.335.133-.674.226-1a.646.646,0,0,1,.162-.234,7.937,7.937,0,0,0,.848.405,9.365,9.365,0,0,0,1.083.271.394.394,0,0,0,.244-.091,2.932,2.932,0,0,0,.59-1.434,3.135,3.135,0,0,1,.109-1.518,6.9,6.9,0,0,0,.181-.9c.11-.767.18-1.541.315-2.3.146-.819.358-1.627.524-2.443.081-.4.12-.809.184-1.213.045-.281.115-.559.148-.842.052-.448.057-.9.127-1.348.1-.619.254-1.228.355-1.847.062-.379.064-.768.1-1.152.051-.55.11-1.1.162-1.65.032-.35.049-.7.086-1.052s.1-.676.129-1.016a4.242,4.242,0,0,1,.054-.995,1.461,1.461,0,0,0-.093-1.03,1.248,1.248,0,0,1-.093-.318.984.984,0,0,0-.493-.96,4.517,4.517,0,0,1-.9-.922c-.276-.294-.545-.6-.834-.876s-.531-.68-1.029-.358c-.039.025-.109.006-.165,0a.858.858,0,0,0-.979.939c.055.677.175,1.348.268,2.036a1.747,1.747,0,0,0-.215.109.5.5,0,0,0-.161.671,1.615,1.615,0,0,1,.411,1.107,6.261,6.261,0,0,0,.032.836c.1,1.306.206,2.611.329,3.915.029.3.194.6.194.9,0,.378.247.748.014,1.143-.07.118,0,.32.01.483.024.361.055.722.075,1.083,0,.047-.058.094-.072.146a2,2,0,0,0-.112.49c0,.474.025.948.036,1.423,0,.04-.04.079-.05.122a2.355,2.355,0,0,0-.088.455c-.006.329.017.659.021.988.005.5,0,1,0,1.493,0,.329,0,.659,0,1.046-.3-.354-.536-.653-.789-.941a10.53,10.53,0,0,1-1.257-1.751c-.164-.289-.409-.541-.579-.857a10.138,10.138,0,0,0-.963-1.247c-.379-.5-.739-1.006-1.119-1.5-.423-.552-.651-1.251-1.26-1.663-.049-.034-.066-.113-.1-.168-.109-.163-.217-.326-.331-.485-.084-.117-.179-.226-.266-.342-.392-.521-.778-1.047-1.177-1.562-.07-.091-.249-.12-.282-.212-.158-.446-.554-.645-.877-.927a2.254,2.254,0,0,1-.8-.938.606.606,0,0,0-.393-.354,2.081,2.081,0,0,0-1.7.373c-.389.312-.457.818-.124,1.044a4,4,0,0,0,.222.675.618.618,0,0,1,.059.186c.012.273.02.547.02.821q0,1.8,0,3.591c0,.3,0,.608,0,.912a.64.64,0,0,1-.117-.3c-.04-.685-.063-1.37-.1-2.055-.072-1.214-.147-2.427-.241-3.639-.007-.094-.17-.176-.261-.263-.048.084-.133.166-.139.253a6.342,6.342,0,0,0,0,.785c.068,1.232.137,2.464.217,3.7.04.619.1,1.236.155,1.854.049.564.095,1.129.152,1.692.071.7.181,1.406.222,2.111.037.648.01,1.3,0,1.951q-.01.674-.05,1.348a4.5,4.5,0,0,0-.079,1.138,5.955,5.955,0,0,1-.182,1.618,10.745,10.745,0,0,1-.316,1.4c-.07.386-.065.785-.126,1.173a1.925,1.925,0,0,1-.222.688c-.051.085-.282.078-.432.084-.57.021-1.141.03-1.711.042-.055,0-.111-.011-.167-.013-.795-.021-1.589-.048-2.384-.059-.231,0-.463.055-.7.056-.413,0-.828-.045-1.24-.029-.759.029-1.517.091-2.276.133-.395.022-.79.039-1.185.044-.369,0-.739-.016-1.108-.013-.45,0-.9.028-1.351.028-.323,0-.646-.027-.969-.041a.125.125,0,0,0-.063.021c-.586.346-1.209-.158-1.82.088a2.458,2.458,0,0,1-.9.009.778.778,0,0,1-.192-.029,3.676,3.676,0,0,0-.607-.17c-.315-.03-.634-.01-.96-.012,0-.684,0-1.314.014-1.943a.89.89,0,0,1,.126-.464.56.56,0,0,0,.026-.684.371.371,0,0,1,0-.489,1.039,1.039,0,0,0,.1-.962,9.557,9.557,0,0,1-.368-1.922c-.007-.154-.159-.3-.174-.455-.052-.531-.073-1.064-.106-1.6a1.637,1.637,0,0,0-.036-.459,1.935,1.935,0,0,1-.141-.838c.016-.309-.073-.659-.078-1.009a11.652,11.652,0,0,0-.245-1.618c-.008-.049.047-.107.043-.158a4.156,4.156,0,0,0-.063-.432c-.013-.069-.064-.135-.064-.2,0-.273.03-.547.009-.817a12.825,12.825,0,0,1-.143-1.421c.013-.389-.119-.749-.079-1.154a10.374,10.374,0,0,0-.148-1.829c-.023-.283-.009-.57-.014-.854,0-.171-.024-.342-.01-.511.022-.267-.017-.6.129-.778.127-.151.256-.254.22-.453a1.545,1.545,0,0,0-.166-.559c-.272-.422-.587-.816-.872-1.23-.158-.23-.511-.4-.632-.266-.41.459-1,.771-1.164,1.432-.014.057-.09.1-.126.15a4.856,4.856,0,0,0-.376.6c-.1.2-.088.458-.355.564-.065.026-.094.142-.14.216-.229.37-.435.757-.695,1.1-.237.317-.541.584-.8.886-.41.478-.6,1.135-1.209,1.46-.147.078-.187.341-.3.5a8.9,8.9,0,0,1-.582.726c-.15.167-.332.3-.493.461-.141.137-.271.286-.411.425-.183.183-.342.431-.565.523a.788.788,0,0,0-.484.354,1.244,1.244,0,0,1-.209.235c-.1-.137-.16-.236-.231-.328-.335-.433-.683-.856-1-1.3-.305-.42-.564-.874-.878-1.286-.362-.475-.767-.915-1.143-1.379q-.5-.62-.98-1.258c-.51-.678-1.012-1.363-1.517-2.045-.362-.488-.722-.978-1.085-1.465-.212-.284-.425-.568-.642-.848-.308-.4-.623-.785-.93-1.181-.329-.425-.644-.863-.981-1.282s-.7-.824-1.044-1.237c-.155-.184-.293-.384-.461-.555-.078-.079-.229-.085-.315-.16a1.347,1.347,0,0,0-1.393-.127c-.5.147-.96.4-1.452.566-.256.086-.294.226-.271.452a.357.357,0,0,1-.056.261c-.208.2-.172.377-.037.6a1.616,1.616,0,0,1,.281,1,4.921,4.921,0,0,0,.261,1.27h.158l.248-1.169c.1.107.176.188.251.267.47.493.933.993,1.413,1.475.21.211.475.368.679.584a4.6,4.6,0,0,1,.487.671,2.075,2.075,0,0,1,.425.756,7.494,7.494,0,0,1-.054,1.413c-.047.589-.112,1.176-.169,1.758-.46-.144-.621-.092-.7.243a1.257,1.257,0,0,0,.408,1.113.614.614,0,0,1,.214.427c-.073,1.254-.159,2.508-.268,3.759-.092,1.048-.2,2.1-.341,3.138-.127.93-.312,1.853-.465,2.78a1.218,1.218,0,0,0,.026.262,1.507,1.507,0,0,1,0,.254,3.034,3.034,0,0,0-.077.717c.075.515.2,1.023.323,1.529a.754.754,0,0,0,.218.284c.069.072.187.109.229.19.295.57.926.608,1.4.875a5.268,5.268,0,0,0,.961.214c.207.065.371.153.522-.078.029-.045.125-.04.174-.079.145-.116.364-.22.406-.371a4.541,4.541,0,0,0,.082-.92.323.323,0,0,0-.024-.1c-.113-.415-.248-.827-.331-1.248a.782.782,0,0,0-.355-.567.36.36,0,0,1-.151-.293.934.934,0,0,1,.247-.358c.045-.048.136-.052.216-.08-.015-.238-.019-.459-.045-.677-.058-.486-.163-.969-.181-1.456-.026-.7.012-1.4.017-2.107,0-.421-.015-.843-.007-1.264.011-.562.035-1.123.059-1.685.019-.428.032-.858.075-1.284.082-.808.18-1.615.279-2.421a2.524,2.524,0,0,1,.126-.4c.514.58.987,1.1,1.444,1.633.83.972,1.649,1.953,2.477,2.926.042.049.134.056.2.082a.619.619,0,0,0-.059-.2c-.921-1.235-1.852-2.462-2.765-3.7-.256-.347-.464-.73-.694-1.1l.1-.067a2.115,2.115,0,0,0,.19.289,10.7,10.7,0,0,1,1.039,1.138c.36.534.991.827,1.234,1.452.022.056.094.091.139.139.308.324.641.629.916.98a12.608,12.608,0,0,1,.678,1.067,2.77,2.77,0,0,1,.428.694c.116.458.218.962-.358,1.244-.049.024-.113.064-.123.108-.025.108-.073.271-.021.325.213.219.266.62.679.627.039,0,.091.1.112.155a1.176,1.176,0,0,0,.817.723,2.53,2.53,0,0,1,.92.488c.324.31.477.362.793.044.064-.065.21-.141.261-.112a.767.767,0,0,0,.735-.046,3.662,3.662,0,0,1,.466-.115l.157,4.04.122,0a4.423,4.423,0,0,0,.061-.447c.014-.356.005-.712.022-1.068.052-1.138.092-2.278.179-3.414a3.817,3.817,0,0,1,.293-1.266,12.054,12.054,0,0,1,.84-1.36c.341-.544.69-1.084,1.013-1.639a12.6,12.6,0,0,1,.592-1.138,5.785,5.785,0,0,0,.931-1.851,4.464,4.464,0,0,1,.359-.71c.116.347.2.585.273.825.011.035-.023.083-.032.126a5.238,5.238,0,0,0-.143.747c-.017.315.048.635.025.95a2.8,2.8,0,0,0,.055,1.441c.019.041-.019.105-.023.159a3.281,3.281,0,0,0-.021.476c.023.279.088.555.1.833.014.331-.018.664-.015,1a9.807,9.807,0,0,1-.217,2.488,13.338,13.338,0,0,0-.312,1.635,8.911,8.911,0,0,0-.031,1.406,2.268,2.268,0,0,0,.172.688c.093.246.253.469.334.718s.1.538.161.805.139.509.234.853a10.416,10.416,0,0,0,1.2-.091.648.648,0,0,1,.8.294,1,1,0,0,0,.457.264,1.332,1.332,0,0,0,.4.009l.09,2.039a1.356,1.356,0,0,1-.165.022c-.833-.012-1.667-.03-2.5-.037-1-.009-2-.016-2.993-.01-.933.005-1.866.028-2.8.042-1.167.017-2.335.032-3.5.05-.9.014-1.807.032-2.71.047-.711.012-1.423.028-2.134.03-1.286,0-2.572,0-3.857,0-.448,0-.9,0-1.343-.008a9.115,9.115,0,0,1-1.125-.046.846.846,0,0,0-.756.1.307.307,0,0,1-.28.044c-.364-.258-.739.026-1.119-.039a7.687,7.687,0,0,0-1.438.058c-.156,0-.318-.113-.472-.1-.556.036-1.11.108-1.667.154-.161.013-.327-.037-.488-.026-.453.03-.9.1-1.358.108a5.775,5.775,0,0,1-.837-.1c.019-.168.035-.286.044-.4.043-.589.092-1.178.123-1.767.02-.395.005-.791.018-1.186.025-.74.064-1.479.085-2.218.01-.365-.016-.731-.011-1.1.01-.712.038-1.425.045-2.137,0-.4-.029-.806-.03-1.21,0-.709.018-1.419.014-2.128-.006-1.051-.022-2.1-.038-3.153-.01-.644-.028-1.287-.042-1.931q-.017-.766-.033-1.532a9.4,9.4,0,0,0-.022-.958,4.061,4.061,0,0,0-.2-.686l1.3-.65.01-.085c-.161-.037-.321-.086-.485-.108-.142-.02-.29,0-.433-.017a6.294,6.294,0,0,0-2.7,0,.5.5,0,0,1-.165,0,5.015,5.015,0,0,0-.777-.044c-.606.057-1.206.184-1.812.222-1.118.072-2.239.1-3.36.148l-.309.34c-.114-.127-.219-.264-.344-.379a.553.553,0,0,0-.292-.173c-.526-.022-1.053-.037-1.578-.017a.684.684,0,0,0-.62.761c.132.445.31.877.474,1.312.085.225.284.456.258.664-.082.663-.233,1.319-.38,1.972-.119.527-.295,1.043-.4,1.572-.124.619-.587,1.086-.676,1.737a9.916,9.916,0,0,1-.533,1.632c-.054.167-.043.356-.1.519-.141.383-.318.752-.46,1.134-.169.458-.318.923-.472,1.386-.023.071-.057.2-.034.214.3.17.224.479.292.735.122.458.042.566-.436.631-.136.018-.345.1-.374.2-.132.44-.211.9-.309,1.345a.087.087,0,0,0,0,.033c.079.4-.1.9.425,1.14.016.007.025.037.031.058a2.38,2.38,0,0,0,.97,1.179.531.531,0,0,0,.773-.015,2.7,2.7,0,0,1,.527-.425,9.738,9.738,0,0,0,.949-.6c.125-.105.226-.467.161-.53-.229-.221-.151-.441-.128-.682a2.952,2.952,0,0,0,.01-.633,10.825,10.825,0,0,1,.114-3.159c.045-.259.187-.5.254-.756.149-.573.294-1.149.409-1.73a.271.271,0,0,1,.314-.256c.513,0,1.027.017,1.538-.013.463-.027.922-.111,1.383-.163a1,1,0,0,1,.494-.014c.438.219.848-.047,1.274-.034a11.012,11.012,0,0,0,1.577-.168c-.04.487-.095.936-.11,1.387-.029.844-.031,1.689-.051,2.534s-.039,1.677-.075,2.514c-.032.742-.075,1.483-.137,2.223-.03.358-.135.709-.176,1.067-.075.66-.122,1.323-.191,1.983a.35.35,0,0,1-.491.278,2.814,2.814,0,0,0-1.217-.109c-.457.006-.914.032-1.372.045a6.392,6.392,0,0,0-1.3.047,11.637,11.637,0,0,1-2.044.084c-.428.029-.861-.007-1.291-.018-.543-.014-.973.249-1.513.2-1.1-.1-4.253.522-4.891.5-.153-.005-4.2.109-4.327.176-.264.137-2.765.191-3.183.277-1.657.342-2.637.5-2.679.512-.481.1,11.489-.857,11.022-.71s-10.247.868-11.334,1.057c-.682.119-1.756.47-2,.5a3.99,3.99,0,0,0-1.2.46c-.177.13-.84.654-1.074.854-.189.161-.2.336.056.474a1.968,1.968,0,0,0,1.2.031c.08.462.193.567.535.5.372-.071.743-.156,1.118-.195.686-.071,1.377-.1,2.063-.17.586-.06,1.167-.163,1.752-.229.677-.077,1.358-.128,2.035-.2.17-.019.33-.119.5-.139.424-.05.85-.082,1.276-.106a3.174,3.174,0,0,1,.477.043l-.014.1a1.454,1.454,0,0,0-.284-.018c-.854.11-1.708.219-2.56.343-.733.107-1.465.22-2.193.354-1.027.188-2.052.389-3.072.609a.882.882,0,0,0-.434.3c.116.274.36.125.549.09,1.091-.2,2.175-.444,3.27-.62,1.018-.163,2.046-.27,3.071-.38,1.2-.128,2.4-.235,3.6-.345.65-.059,1.3-.117,1.951-.155.789-.046,1.579-.071,2.368-.107,1.316-.06,2.631-.134,3.947-.178.6-.02,1.2.045,1.8.022,1.32-.052,2.64-.116,3.957-.212.907-.066,1.81-.193,2.715-.3a.921.921,0,0,1,.768.2,1.555,1.555,0,0,0,1.355.448c.177-.042.345-.247.5-.229.442.051.513-.2.525-.617l.967-.016c.077,0,.156.012.232,0,.509-.055,1.017-.145,1.527-.165a4.387,4.387,0,0,0,1.808-.13c.053-.025.143.032.217.045a.732.732,0,0,0,.255.032,4.135,4.135,0,0,1,1.536-.066,2.647,2.647,0,0,0,.688-.026c.3-.029.6-.1.9-.107.5-.011,1,.031,1.494.023s.967-.041,1.449-.078c.219-.017.436-.095.654-.1.32,0,.641.047.962.049.824,0,1.649,0,2.473-.01.434-.005.868-.045,1.3-.041,1.211.011,2.421.038,3.631.054.654.008,1.309,0,1.963.011.85.018,1.7.058,2.55.074.272.005.544-.032.816-.049q0-.07,0-.139c-1.826-.312-3.68-.407-5.518-.647a.817.817,0,0,1,.323-.084c.7-.032,1.4-.078,2.1-.081a11.645,11.645,0,0,1,1.256.1c.162.017.321.09.481.091,1.141,0,2.281,0,3.421,0,1.321,0,2.641.005,3.962.007.332,0,.663-.009.994-.007.515,0,1.031,0,1.546.021.582.02,1.163.074,1.745.085.659.012,1.319-.019,1.978-.008s1.347.056,2.021.073a4.537,4.537,0,0,1,1.078.006c.66.189,1.3-.106,1.964.025a10.562,10.562,0,0,0,1.869.027c.56.007,1.12.039,1.681.042.228,0,.458-.071.684-.061.371.017.74.1,1.111.109.57.021,1.14.01,1.734.012-.171.564-.349,1.128-.514,1.7a2.453,2.453,0,0,0-.188.858.813.813,0,0,0,.421.544c.153.072.407-.06.612-.117.154-.043.3-.136.45-.165a9.235,9.235,0,0,0,1.238-.208,11.664,11.664,0,0,0,1.277-.616c.427-.2.576-.738,1.055-.879.028-.008.033-.082.06-.115.067-.083.144-.157.21-.24.134-.167.255-.344.4-.5a.393.393,0,0,1,.253-.14c.31.013.617.079.927.086.586.013,1.173-.018,1.758,0,.752.023,1.5.084,2.255.117.573.025,1.149,0,1.718.058a5.628,5.628,0,0,0,2.061.121c.08-.021.187.055.28.091a.875.875,0,0,0,.21.091c.807.068,1.613.14,2.421.188.681.041,1.363.068,2.045.074.922.007,1.845-.007,2.767-.025.444-.009.888-.045,1.332-.072a2.487,2.487,0,0,0,.431-.041c.423-.1.846-.208,1.263-.333.2-.061.388-.2.593-.247a15.388,15.388,0,0,1,2.405-.471,1.975,1.975,0,0,0,.794-.29c.283-.135.343-.492.125-.585m-15.09-27.4.241.266a2.226,2.226,0,0,1-.391.242c-.036.014-.131-.124-.2-.192l.348-.317m0,8.119H265.3c-.066-1.74-.132-3.48-.2-5.231a1.536,1.536,0,0,1,.46,1.165.774.774,0,0,0-.043.259c.034.4.081.8.119,1.2a.4.4,0,0,1-.015.2A2.843,2.843,0,0,0,265.5,12.4a6.538,6.538,0,0,1-.172,1.1m-3.094,9.279c.232-.006.348.169.322.406-.02.178.013.451-.257.4-.136-.024-.236-.259-.386-.44.144-.173.23-.367.32-.369m-3.224-5.234a8.293,8.293,0,0,1,.44.756c.486,1.073.946,2.157,1.436,3.228s1,2.127,1.5,3.191c.044.093.071.194.105.292l-.11.049c-.617-1.25-1.242-2.5-1.848-3.751a16.964,16.964,0,0,1-1.606-3.713l.08-.052m-45.128-4.555q0-1.036.009-2.072l.068-.01.445.605-.336.2c-.129.431.029.877-.186,1.276m.246,13.983c.109-.377.456-.505.933-.351l-.933.351m-15.073-3.256-.122-.021c.032-1.236.059-2.472.1-3.707.014-.435.113-.479.566-.271-.2,1.324-.3,2.673-.544,4m1.145-8.582c-.024.494-.034.989-.054,1.484,0,.029-.031.057-.047.086-.4-.076-.765-.139-1.128-.22-.291-.065-.578-.148-.864-.232a.578.578,0,0,0-.671.579.748.748,0,0,1-.336.5,5.81,5.81,0,0,1-1.5.647,13.627,13.627,0,0,1-1.5.39,10.822,10.822,0,0,1-1.183.135,1.152,1.152,0,0,1-.3-.06c.163-.529.305-1.028.472-1.519a.773.773,0,0,0-.146-.8.745.745,0,0,1-.178-.561.457.457,0,0,1,.564-.242c.053.01.165-.1.189-.172.064-.193.071-.407.145-.594a.954.954,0,0,1,.7-.557,5.5,5.5,0,0,0,1.091-.249c.422-.211.979-.088,1.3-.537.024-.033.1-.032.157-.039a5.4,5.4,0,0,0,.917-.122c.417-.129.809-.336,1.218-.494.238-.092.488-.151.732-.227.275-.086.319.065.335.293.023.327.083.651.114.978a7.629,7.629,0,0,1,.042.817c0,.242-.053.483-.064.726m1.833,14.622c0-.652,0-1.3.009-1.956.018-1.7.018-3.405.069-5.107a18.426,18.426,0,0,1,.245-1.943.262.262,0,0,1,.122-.15c-.2,3.056-.016,6.122-.328,9.167l-.117-.012" transform="translate(-161.864 -3.335)" fill="#181818"/>
        <path id="Path_4" data-name="Path 4" d="M1767.127,198.728a1.322,1.322,0,0,0,.227,1.079,7.857,7.857,0,0,0,.686.5.853.853,0,0,1,.262.435,3.5,3.5,0,0,1,.013.684c0,.929,0,1.858.01,2.787,0,.179.064.359.056.536-.023.549-.083,1.1-.1,1.647-.016.663.067,1.335-.015,1.987a10.979,10.979,0,0,1-.484,1.78.8.8,0,0,0,.383.891,1.937,1.937,0,0,0,.844.165c.531-.1.85.605,1.391.331.55.274,1.119.052,1.679.068a.163.163,0,0,0,.121-.053c.275-.377.68-.2,1.025-.249.541-.079,1.092-.087,1.633-.165.47-.067.934-.189,1.49-.306l-.4.54a1.252,1.252,0,0,0,.168.08,11.169,11.169,0,0,0,2.521-.047c.04,0,.082-.034.123-.053a1.336,1.336,0,0,1,1.888.532,1.4,1.4,0,0,1,.247.556c.052.36.041.73.064,1.095q.088,1.409.185,2.818a3.465,3.465,0,0,0,.072.39h.092a.653.653,0,0,0,.1-.21c.053-1.034.085-2.069.151-3.1.034-.535-.106-1.119.342-1.568.056-.055.043-.195.045-.3.01-.366.021-.733.014-1.1-.006-.3.157-.638-.214-.868.093-.128.166-.241.252-.343a1.951,1.951,0,0,0,.541-1.583,6.216,6.216,0,0,1-.084-.721c-.015-.709-.1-1.415-.133-2.121a9.061,9.061,0,0,0,0-1.853c-.1-.39-.045-.819-.109-1.222-.074-.463-.23-.912-.3-1.375-.12-.751-.171-1.516-.313-2.262a1.614,1.614,0,0,0-.443-.879,3.947,3.947,0,0,0-1.233-.7,3.549,3.549,0,0,0-1.782-.388c-.527.088-1.079-.23-1.6.09-.034.02-.1-.029-.155-.033a1.562,1.562,0,0,0-.479-.022c-.385.095-.762.3-1.135-.039-.04-.037-.129-.021-.195-.024-.2-.01-.4-.024-.6-.025-.177,0-.354.015-.53.022a1,1,0,0,1-.36,0,.765.765,0,0,0-.722.134,1.183,1.183,0,0,1-.513.08,2.5,2.5,0,0,0-.51.018c-.343.1-.668.265-1.01.367a.719.719,0,0,1-.483-.011.732.732,0,0,0-.844.095.938.938,0,0,1-.576.116,1.658,1.658,0,0,0-.955.422.959.959,0,0,0-.286,1.134c.024.058-.041.152-.05.23m3.231,4.189c.086-.19.15-.413.438-.4.253.011.226-.192.2-.374q-.148-1.174-.29-2.35a2.787,2.787,0,0,1,0-.312,4.041,4.041,0,0,0,.622-.036,5.573,5.573,0,0,1,1.209-.283,8.879,8.879,0,0,0,1.63-.268,9.674,9.674,0,0,1,1.069-.289c.651-.019,1.3-.3,1.967.041a3.412,3.412,0,0,0,.939.139,7.606,7.606,0,0,1,.909.216c.086.026.162.14.212.232.162.3.31.609.463.914.015.03.053.067.047.087-.183.53.1,1.029.089,1.544,0,.235-.169.49-.119.7a11.477,11.477,0,0,1,.058,2.168,13.787,13.787,0,0,1-.051,2.188,7.9,7.9,0,0,1-.405,1.457.283.283,0,0,1-.2.151c-.817.091-1.635.2-2.455.246-.973.057-1.949.095-2.923.077a16.424,16.424,0,0,1-2.012-.21c-.365-.052-.464-.331-.28-.651a.369.369,0,0,0,.064-.193,7.078,7.078,0,0,0-.108-.864c-.015-.068-.165-.149-.253-.149a.41.41,0,0,1-.445-.514,2.232,2.232,0,0,1,.334-.917,1.124,1.124,0,0,0,.113-1.107,1.379,1.379,0,0,1-.006-.4c0-.184,0-.368,0-.61-.246.052-.406.1-.571.118-.234.027-.347-.124-.248-.342" transform="translate(-1693.157 -187.894)" fill="#181818"/>
        <path id="Path_5" data-name="Path 5" d="M2598.287,222.347a3.235,3.235,0,0,1-.177-.876,2.878,2.878,0,0,0,.016-1.734.183.183,0,0,1-.005-.071c0-.9,0-1.806,0-2.708,0-.237.056-.475.045-.71-.033-.7-.084-1.393-.135-2.089a.8.8,0,0,0-.083-.371.325.325,0,0,1,.022-.446c.51-.608.266-1.275.124-1.925-.1-.468-.24-.929-.376-1.388-.048-.162-.1-.372-.218-.454a3.351,3.351,0,0,0-.918-.472c-.449-.133-.947-.116-1.377-.288a1.419,1.419,0,0,0-.313-.091.4.4,0,0,0-.052-.018c-.03-.007-.056-.007-.085-.015s-.047-.017-.07-.021-.076,0-.112,0c-.071-.008-.137-.035-.207-.049-.1-.019-.188-.078-.284-.1-.053-.011-.108-.02-.161-.034a1.467,1.467,0,0,0-.215-.025,5.466,5.466,0,0,0-.556-.042l-.386,0a1.2,1.2,0,0,1-.256-.024.48.48,0,0,0-.108-.01,1.42,1.42,0,0,0-.323.01c-.06.015-.122.017-.183.028a.318.318,0,0,1-.068.008.808.808,0,0,1-.134,0,.368.368,0,0,1-.089-.04c-.039-.02-.048-.043-.085-.066a1.728,1.728,0,0,0-.165-.1.7.7,0,0,0-.133-.031.325.325,0,0,0-.077-.008,1.611,1.611,0,0,1-.2,0c-.185-.023-.371-.01-.556-.016a.32.32,0,0,0,.191.05c.052,0,.108.042.16.033a.7.7,0,0,1-.209.032c-.123.008-.248.007-.37.023a2.138,2.138,0,0,1-.526-.01.847.847,0,0,1-.354-.174.176.176,0,0,0-.128-.022c-.124.01-.245.06-.367.079-.032,0-.045.014-.079.017-.112.01-.224.025-.335.04a.75.75,0,0,0-.431.018.637.637,0,0,1-.169.018c-.438-.015-.875-.034-1.313-.048a1.079,1.079,0,0,0-.135.03c-.156.017-.313.023-.469.046a4.186,4.186,0,0,0-.467.1,5.288,5.288,0,0,1-.944.259c-.845.063-1.475.708-.958,1.6a.905.905,0,0,1,.087.467c-.028.776-.093,1.551-.106,2.327-.021,1.155-.032,2.312,0,3.467.024.946.094,1.892.178,2.834a2.473,2.473,0,0,1-.553,2.306c-.084.076-.059.308-.042.463a1.058,1.058,0,0,0,.135.4,1.2,1.2,0,0,0,.284.376c.528.406,1.084.775,1.6,1.2.214.177.33.263.412-.013.233.019.464.109.629.037.407-.177.922-.01,1.254-.426.032-.041.168,0,.256.012.323.04.649.209.966-.036a.233.233,0,0,1,.166-.023c.327.059.65.149.979.179a1.209,1.209,0,0,0,.582-.1.746.746,0,0,1,.616-.006,13.2,13.2,0,0,0,1.479.348.16.16,0,0,0,.131-.035.553.553,0,0,1,.817-.029,3.259,3.259,0,0,0,0-.377c-.042-.323.15-.465.4-.53.315-.08.665-.266.935.058.087.1.052.33.047.5a2.806,2.806,0,0,1-.083.3c-.028.192.065.339.249.275a2.382,2.382,0,0,1,1.141.037c.252.032.386.12.414.374.024.213.059.426.064.64.019.709,0,1.419.045,2.126.047.8.139,1.6.215,2.405.012.125.049.247.073.371l.134-.005c.022-.348.048-.695.066-1.043.032-.648.072-1.3.085-1.943.012-.58-.008-1.161-.012-1.742,0-.045.007-.111.035-.132.236-.174.211-.437.215-.682a.35.35,0,0,1,.344-.4.489.489,0,0,0,.328-.22,3.131,3.131,0,0,0,.324-.877,2.468,2.468,0,0,0-.084-.787m-13.938-9.869a9.735,9.735,0,0,1-.347,1.794q.006-1.486.012-2.972l.1-.043c.062.06.171.115.178.181a5.252,5.252,0,0,1,.057,1.04m11.553,5.981c.085.124-.016.392-.049.591-.024.145-.119.289-.106.426a.974.974,0,0,1-.714,1.064.511.511,0,0,0-.276.254.555.555,0,0,1-.625.383.6.6,0,0,0-.443.184.753.753,0,0,1-.691.225,8.912,8.912,0,0,0-.93-.03c-.25,0-.5.052-.749.05a5.918,5.918,0,0,0-1.178-.032,6.955,6.955,0,0,1-1.734-.035,7.085,7.085,0,0,0-1.052.033c-.222.023-.27-.059-.311-.262a1.1,1.1,0,0,0-.245-.508c-.159-.173-.269-.308-.14-.556a.474.474,0,0,0,.037-.375c-.18-.307-.343-.593-.1-.944a.189.189,0,0,0-.034-.167.994.994,0,0,1-.249-.8,7.231,7.231,0,0,0-.042-1.779,5,5,0,0,1-.1-1.517,3.052,3.052,0,0,0-.025-.487c-.025-.36-.076-.72-.073-1.079a8.47,8.47,0,0,1,.1-1.069c.007-.053.119-.1.189-.134a6.661,6.661,0,0,1,.685-.332c.135-.051.276-.108.417-.147a.076.076,0,0,0,.019.011c.046.018.1-.017.144-.027s.091-.021.137-.028h.024a.937.937,0,0,0,.463-.067c.032-.008.066-.011.1-.016s.05-.016.077-.021a.625.625,0,0,0,.1-.015.672.672,0,0,0,.074-.036.847.847,0,0,1,.365-.043h.316c.058,0,.116,0,.174,0s.126-.024.189-.03a.569.569,0,0,0,.13-.044,1.051,1.051,0,0,1,.238-.043,2.86,2.86,0,0,0,.358-.066,1.2,1.2,0,0,1,.265-.054c.141,0,.283,0,.424,0a1.486,1.486,0,0,0,.539-.065c.114-.043.22-.151.349-.1.023.009.041.03.064.038a.542.542,0,0,0,.162,0c.065,0,.131,0,.2,0a.5.5,0,0,0,.2-.05c.016-.007.051-.017.06-.029s0-.066.022-.1a.088.088,0,0,1,.04-.023.382.382,0,0,1,.146-.012c.083,0,.137.074.216.1a.428.428,0,0,1,.181.092.951.951,0,0,0,.123.076.287.287,0,0,0,.172.065h.187a1.584,1.584,0,0,1,.315.026.54.54,0,0,0,.121.008c.046,0,.086.015.132.018a2.447,2.447,0,0,1,.292.012,1.007,1.007,0,0,0,.194.022c.1,0,.192,0,.287,0a.5.5,0,0,1,.144.04,1.7,1.7,0,0,1,.275.138l.068.036a.621.621,0,0,1,.05.119,2.81,2.81,0,0,1,.1.68,11.662,11.662,0,0,0,.078,1.635,5.129,5.129,0,0,1,.012,1.623,3.111,3.111,0,0,0,.094,1.193,1.126,1.126,0,0,1,.006.816,1.115,1.115,0,0,0,.018,1.154m.816,3.665c-.174.036-.39-.305-.35-.571.016-.109.139-.2.214-.3l.487.576c-.165.146-.247.276-.351.3" transform="translate(-2474.95 -199.386)" fill="#181818"/>
        <path id="Path_6" data-name="Path 6" d="M1025.175,314.338a1.09,1.09,0,0,0,.4.006,5.954,5.954,0,0,0,1.419-.634,5.929,5.929,0,0,1,1.6-.475c.336-.08.751-.491.626-.819-.065-.169-.289-.277-.513-.477.029-.038.087-.185.192-.237.208-.1.156-.213.137-.4a5.483,5.483,0,0,1,.012-1.228c.062-.5.235-.992.278-1.494.065-.754-.029-1.531.107-2.268.114-.617.032-1.221.1-1.827a4.851,4.851,0,0,0,.045-.89,3.067,3.067,0,0,1,.093-1.477c.1-.248.024-.664-.153-.68-.427-.039-.632-.352-.86-.633a.732.732,0,0,0-1.313.137c-.027.058-.088.1-.116.159-.293.6-.79,1.139-.587,1.9a.788.788,0,0,1-.031.33c-.1.508-.234,1.011-.3,1.522-.071.583-.076,1.175-.113,1.762,0,.042-.038.081-.048.123a7.993,7.993,0,0,0-.17.786c-.056.456-.073.918-.128,1.375-.047.4-.125.8-.185,1.2-.065.43-.109.864-.191,1.291-.059.306-.189.6-.244.9-.1.572-.159,1.153-.266,1.724-.041.217.037.294.216.319" transform="translate(-982.063 -287.886)" fill="#181818"/>
        <path id="Path_7" data-name="Path 7" d="M1056.975,153.9a1.532,1.532,0,0,0,.268.4c.117-.091.234-.182.352-.272.085-.065.218-.2.251-.179.334.21.632-.158.967-.037a.672.672,0,0,0,.546-.027,7.346,7.346,0,0,1,.907-.43,3,3,0,0,0,.864-1.064.313.313,0,0,0,.025-.195c-.052-.388-.14-.774-.161-1.164a3.8,3.8,0,0,1,.069-1.08.513.513,0,0,0-.158-.529c-.157-.178-.31-.094-.483-.029a6.109,6.109,0,0,1-1.421.518c-.475.057-1.053-.032-1.368.51-.015.025-.081.019-.122.03-.455.126-.587.261-.6.708-.019.649-.01,1.3-.012,1.948l-.069.006a8.186,8.186,0,0,0,.147.88" transform="translate(-1012.609 -142.977)" fill="#181818"/>
        <path id="Path_8" data-name="Path 8" d="M2557.845,607.979c-.022.372.628,1.025,1.026,1.025a2.581,2.581,0,0,0,1.279-.231c.355-.191.457-.417.25-.772-.08-.138-.272-.208-.361-.344a.868.868,0,0,0-.816-.351.824.824,0,0,1-.288-.074c-.732-.305-.9-.223-1.052.542-.016.076-.03.153-.039.2" transform="translate(-2450.821 -581.667)" fill="#181818"/>
        <path id="Path_9" data-name="Path 9" d="M718.7,548.661q-.326-.645-.659-1.286c-.05-.1-.117-.184-.176-.275-.154.1-.417.178-.443.3a8.587,8.587,0,0,0-.134,1.4c0,.1.148.2.232.3a1.628,1.628,0,0,0,.317.336,1.477,1.477,0,0,0,.6.25c.088.008.235-.212.288-.353a1.391,1.391,0,0,0,.013-.455l.037,0a1.66,1.66,0,0,0-.075-.218" transform="translate(-687.281 -524.208)" fill="#181818"/>
        <path id="Path_10" data-name="Path 10" d="M2069.469,142c.39.02.565-.174.6-.609.021-.258-.155-.366-.627-.384-.223-.009-.649.382-.628.617.045.479.456.282.655.377" transform="translate(-1982.251 -135.103)" fill="#181818"/>
        <path id="Path_11" data-name="Path 11" d="M1614.095,385.887c.1-.038.239-.176.233-.263a1.321,1.321,0,0,0-.173-.594.473.473,0,0,0-.387-.207c-.117.032-.188.234-.3.384a4.39,4.39,0,0,0,.323.575.338.338,0,0,0,.3.1" transform="translate(-1545.963 -368.717)" fill="#181818"/>
        <path id="Path_12" data-name="Path 12" d="M1143.262,593.273a2.327,2.327,0,0,0,.3.362,1.293,1.293,0,0,0,.4.118c.118-.082.353-.163.4-.3.035-.112-.133-.34-.269-.435a.583.583,0,0,0-.446-.006,1.542,1.542,0,0,0-.377.264" transform="translate(-1095.427 -568.157)" fill="#181818"/>
        <path id="Path_13" data-name="Path 13" d="M2667.833,622.026c.213-.028.517.019.634-.367-.149-.142-.3-.368-.493-.429-.1-.031-.369.207-.423.37-.045.137,0,.462.282.426" transform="translate(-2555.923 -595.235)" fill="#181818"/>
        <path id="Path_14" data-name="Path 14" d="M682.127,641.026a.574.574,0,0,0,.292-.253,4.978,4.978,0,0,0-.446-.548c-.193.16-.374.238-.415.362-.059.178.307.469.57.438" transform="translate(-653.034 -613.438)" fill="#181818"/>
        <path id="Path_15" data-name="Path 15" d="M1762.454,621.968c0-.081-.224-.245-.27-.221a2.222,2.222,0,0,0-.421.347l.224.218c.269-.033.472-.084.468-.344" transform="translate(-1688.048 -595.73)" fill="#181818"/>
        <path id="Path_16" data-name="Path 16" d="M1104.729,629.724c.256.258.534.187.641-.164-.4-.074-.488-.052-.641.164" transform="translate(-1058.506 -603.182)" fill="#181818"/>
        <path id="Path_17" data-name="Path 17" d="M1184.1,140.448a.819.819,0,0,0,.26-.123c0-.031,0-.061,0-.092-.069-.026-.145-.085-.2-.071a.768.768,0,0,0-.222.144c.056.051.116.147.167.142" transform="translate(-1134.4 -134.295)" fill="#181818"/>
        <path id="Path_18" data-name="Path 18" d="M1898.818,447.853a.417.417,0,0,0,.253-.283c.034-.256-.131-.366-.483-.359-.026.026-.156.1-.185.2-.047.17.243.485.415.442" transform="translate(-1818.968 -428.499)" fill="#181818"/>
        <path id="Path_19" data-name="Path 19" d="M270.423,577.661l.012,0-.012,0" transform="translate(-259.045 -553.49)" fill="#181818"/>
        <path id="Path_20" data-name="Path 20" d="M185.462,660.912a3.12,3.12,0,0,0,.4-.035,35.046,35.046,0,0,0,4.913-1.067.888.888,0,0,0,.11-.044,43.132,43.132,0,0,0-5.558,1.025c.093.089.114.123.131.122" transform="translate(-177.576 -632.16)" fill="#181818"/>
        <path id="Path_21" data-name="Path 21" d="M279.974,575.657l.061-.008c-.118.013-.154.017-.061.008" transform="translate(-268.209 -551.563)" fill="#181818"/>
        <path id="Path_22" data-name="Path 22" d="M51.893,141.24A1.687,1.687,0,0,0,50.715,140c-.59-.2-.672-.425-.334-.794a1.78,1.78,0,0,0-1.35-.677q-1.613-.013-3.23-.031c-.13,0-.261-.009-.385-.014.2.454.377.865.567,1.276.018.04.107.064.166.088.278.113.56.217.837.335a.639.639,0,0,1,.4.542c.214,1.263.454,2.547.7,3.853.065.351.187.7.224,1.056a6,6,0,0,1-.046.865c-.014.353-.007.711-.026,1.066-.023.424-.056.849-.1,1.273-.033.291-.1.575-.146.865a.734.734,0,0,0-.024.33,2.406,2.406,0,0,1-.043,1.274c-.058.306-.129.609-.176.92-.117.781-.236,1.57-.332,2.374a.459.459,0,0,1-.448.454,6.1,6.1,0,0,0-.754.2c-.337.1-.67.208-1.008.306-.051.015-.119-.018-.177-.015a1.845,1.845,0,0,0-.438.042,12.019,12.019,0,0,1-1.183.4c-.493.1-1.016.1-1.519.174-.987.149-1.972.321-2.961.488-.209.035-.412.1-.622.131.333-.037,1.321-.146,1.909-.213l-.223.031c-.706.088-1.415.171-2.122.266.188-.025.534-.066-1.2.192-.312.047-.639.017-.955.046-.555.051-1.107.132-1.665.177-.685.054-1.373.084-2.062.122a1.65,1.65,0,0,1-.395.007,9.6,9.6,0,0,0-2.075-.088.7.7,0,0,0-.38.093,4.367,4.367,0,0,0-1.382,1.194c-.06.1-.195.395-.07.383.771-.072.638.5,1.195.725.728.3,1.457.2,2.062.812a2.554,2.554,0,0,0,.745.473c.151.07.355-.01.505.062a1.288,1.288,0,0,0,1.175-.108,1.015,1.015,0,0,1,.335-.1c.563-.04,1.126-.068,1.689-.1a.132.132,0,0,0,.034-.012c.459-.167.91-.355,1.376-.5s.963-.225,1.438-.356a1.12,1.12,0,0,1,.593.026,22.056,22.056,0,0,0,2.382-.037l.1-.027c.034-.01.069-.021.1-.033.253-.088.488-.218.744-.3.49-.148.987-.276,1.482-.406a7.876,7.876,0,0,1,2.249-.569.486.486,0,0,0,.2-.062,9.115,9.115,0,0,1,1.086-.466c.716-.206,1.452-.356,2.173-.536a.942.942,0,0,0,.371-.161,10.993,10.993,0,0,0,.866-.781,1.038,1.038,0,0,0-.206-1.477.463.463,0,0,1-.183-.623,11.884,11.884,0,0,0,.42-1.372c.182-.947.309-1.9.46-2.836.1-.626.209-1.244.313-1.858.036-.211.072-.422.106-.633.137-.859.279-1.706.4-2.549a6.376,6.376,0,0,0,.028-.725l-.406-.213q0-.06,0-.12l.4-.056.1.064c.006-.24-.007-.485.02-.717a5.335,5.335,0,0,0-.149-2.182m-3.657,2.6-.427-3.074a.72.72,0,0,1,.375.759c-.019.075-.083.163-.053.224a2.147,2.147,0,0,1,.157.976c.006.372.021.747.032,1.124l-.084-.009m-6.677,12.949c-.051.01-.1,0-.153.01a.969.969,0,0,1-.233.056,1.87,1.87,0,0,0-.242.024c-.17.024-.339.032-.509.063a2.759,2.759,0,0,1-.48.061c-.222,0-.443.01-.663.025a6.758,6.758,0,0,0-.836.153c-.585.154-1.181.236-1.774.35-.225.043-.453.091-.68.116a5.166,5.166,0,0,1-.52,0c-.206,0-.411.025-.617.027a3.564,3.564,0,0,1-.462.061,1.888,1.888,0,0,0,.431-.09c.186-.048.379-.074.567-.108a9.218,9.218,0,0,1,.912-.153c.258-.022.515-.059.77-.1.082-.014.162-.043.245-.052.313-.034.628-.06.941-.1.342-.043.682-.08,1.023-.1.193-.025.385-.047.576-.072.139-.018.276-.052.414-.071a.207.207,0,0,1,.062,0l1.549-.176a2.413,2.413,0,0,1-.323.085" transform="translate(-26.478 -132.687)" fill="#181818"/>
        <path id="Path_23" data-name="Path 23" d="M283.186,644.712c-.416.119-.865-.135-1.3-.253a2.388,2.388,0,0,0-.414.087c-.862.267,1.842.058,1.372.3a18.81,18.81,0,0,0,2.352-.527l-.042-.125-.772.2-.01,0c-.035.01-.069.019-.1.027-.36.095-.721.187-1.079.29" transform="translate(-269.529 -617.236)" fill="#181818"/>
        <path id="Path_24" data-name="Path 24" d="M3.225,123.377a1.533,1.533,0,0,1,.265.433c.082.357.115.725.17,1.09a8.689,8.689,0,0,1,.128.881c.014.309-.031.619-.043.931-.006.153,0,.308.008.462l.123.016c.036-.212.071-.423.109-.633.153-.864.322-1.715.444-2.565.044-.309.046-.578.479-.55.072,0,.138-.09.217-.112a2.1,2.1,0,0,1,.431-.085c.092-.007.2.056.288.05.558-.035.262-.04.819-.081.312-.023.625-.042.936-.067s.425.107.482.392c.161.807.326,1.625.542,2.442a10.571,10.571,0,0,1,.422,3.034c-.034,1.117-.043,2.253-.089,3.4-.032.81-.111,1.622-.16,2.446-.013.226.035.463.009.686-.043.375-.166.738-.178,1.118a8.185,8.185,0,0,0,.107,1.385c.012.082.292.242.335.209a3.912,3.912,0,0,0,.742-.684c.216-.275.311-.668.556-.9.469-.438.449-1.117.754-1.619-.208-.436.074-.737.18-1.085a.875.875,0,0,0,.042-.239c.009-.616-.01-1.232.026-1.833s.114-1.223.193-1.822c.1-.77.231-1.526.331-2.281.068-.518.086-1.045.171-1.551a.485.485,0,0,0-.214-.559.645.645,0,0,1-.2-.353c-.115-.491-.2-.983-.311-1.468-.052-.226-.077-.43.169-.521a2.233,2.233,0,0,1,.695-.191c.317-.008.474-.075.322-.414.695-.07,1.361-.134,2.024-.206a.631.631,0,0,0,.316-.1.971.971,0,0,0,.171-1.2.386.386,0,0,1-.073-.172c.03-.38-.244-.411-.525-.423-.6-.024-1.19-.034-1.787-.064a1,1,0,0,1-.526-.109c-.55-.443-1.066-.243-1.6-.151a8.993,8.993,0,0,1-1.235.166c-.524.017-1.057-.035-1.586-.049a.439.439,0,0,0-.173.067l1.686.809-.028.085a.551.551,0,0,1-.112.011,12.869,12.869,0,0,1-3.025-.837,5.27,5.27,0,0,0-.874-.211c-.186-.033.458-.047.269-.062-.542-.043-1.085-.114-1.627-.133-.5-.017-1,.062-1.5.023-.6-.048-1.193-.179-1.789-.268-.446-.066-.635.135-.477.533.094.238.326.455.349.69a.973.973,0,0,0,.515.715,24.422,24.422,0,0,1,2.223,1.459c.025.021.068.028.084.052m7.756,4.136c.14-.327.176-.337.5-.127a.375.375,0,0,1,.088.073c-.01.305-.007.523-.031.736-.007.064-.1.17-.136.161a.726.726,0,0,1-.419-.843m-2.246-4.376.129,2.366-.5-2.434.372.068" transform="translate(0 -114.898)" fill="#181818"/>
        <path id="Path_25" data-name="Path 25" d="M304.741,4.268c.3.627.605,1.257.9,1.9a6.032,6.032,0,0,1,.328.886.716.716,0,0,1,0,.521,3.522,3.522,0,0,1-1.047,1.259c-.081.045-.118.154-.177.234-.085.115-.168.231-.256.344-.194.248-.5.463-.557.752a1.719,1.719,0,0,0,.234,1.01c.29.548.681,1.059,1.018,1.6q.524.838,1.023,1.7a.558.558,0,0,1,.085.414c-.178.366-.4.708-.615,1.058a2.018,2.018,0,0,1-.225.3c-.145.159-.3.309-.452.463l-.157-.113c.084-.221.155-.449.256-.659a5.539,5.539,0,0,0,.315-.55.668.668,0,0,0-.027-.47,9.6,9.6,0,0,0-.567-.94c-.237-.364-.487-.718-.764-1.125-.2.245-.351.412-.485.59-.217.288-.432.58-.636.881a2.32,2.32,0,0,0-.478.806,1.924,1.924,0,0,1-.346.8.268.268,0,0,0,.017.253,5.949,5.949,0,0,0,1.2,1.161c.468.262.732.713,1.172.977.246.147.448.38.688.545.391.269.808.5,1.2.777.267.192.425.2.563-.065a2.709,2.709,0,0,1,.173-.4c.39-.51.8-1,1.181-1.5a3.179,3.179,0,0,0,.279-.5c.171-.339.344-.675.5-1.019a3.781,3.781,0,0,1,.194-.54c.315-.467.267-.725-.192-1.151a2.331,2.331,0,0,1-.323-.534c-.169-.282-.283-.66-.523-.818-.354-.232-.44-.594-.713-.851-.448-.422-.628-1.067-1.24-1.358-.044-.021-.1-.125-.087-.159.069-.174-.053-.442.226-.52.06-.017.111-.154.095-.232a.409.409,0,0,1,.268-.512.464.464,0,0,0,.185-.225c.184-.376.353-.757.533-1.129.087-.181.2-.351.281-.531.036-.075.085-.186.049-.249-.169-.3-.017-.722-.5-.9-.027-.01-.039-.072-.056-.111-.2-.46-.369-.929-.611-1.367-.229-.414-.534-.8-.806-1.191a.486.486,0,0,0-.1-.087.843.843,0,0,1-.315-1.1c.149-.311.265-.636.409-.946.1-.221.229-.43.345-.643L306.17.995,306.4.154A.956.956,0,0,1,306.472,0a6.985,6.985,0,0,0-1.457,1.488,6.533,6.533,0,0,0-.364.68,3.181,3.181,0,0,1-.166.4,1.08,1.08,0,0,0,.2,1.593.379.379,0,0,1,.055.11" transform="translate(-289.446)" fill="#fff"/>
        <path id="Path_26" data-name="Path 26" d="M272.551,512.814c-.2-.03-.392.294-.376.754.049.059.143.259.285.323.192.088.418-.288.393-.63-.015-.2-.051-.41-.3-.447" transform="translate(-260.787 -491.355)" fill="#181818"/>
        <path id="Path_27" data-name="Path 27" d="M83.857,330.241a.215.215,0,0,0,0,.21c.094.106.218.251.331.258s.23-.134.411-.253c-.236-.115-.382-.2-.538-.255a.224.224,0,0,0-.2.04" transform="translate(-80.322 -316.376)" fill="#181818"/>
        <path id="Path_28" data-name="Path 28" d="M781.352,802.659a.143.143,0,0,0,.111.134,1.145,1.145,0,0,0,.292.059q.181.017.412.021t.475.023a4,4,0,0,1,.474.065,1.367,1.367,0,0,1,.412.149.848.848,0,0,1,.292.271.769.769,0,0,1,.111.433,1.293,1.293,0,0,1-.015.185.687.687,0,0,1-.065.2.772.772,0,0,1-.145.2.856.856,0,0,1-.252.17,1.659,1.659,0,0,1-.388.117,2.963,2.963,0,0,1-.55.044h-.538a2.421,2.421,0,0,1-.55-.055,1.561,1.561,0,0,1-.388-.141.86.86,0,0,1-.252-.2.956.956,0,0,1-.145-.229.839.839,0,0,1-.065-.227,1.489,1.489,0,0,1-.015-.2h.794a.306.306,0,0,0,.015.084.245.245,0,0,0,.057.1.337.337,0,0,0,.124.08.563.563,0,0,0,.212.034h1.092a.355.355,0,0,0,.225-.05.152.152,0,0,0-.055-.265,1.026,1.026,0,0,0-.292-.063q-.181-.017-.414-.019t-.475-.021a4.39,4.39,0,0,1-.475-.063,1.4,1.4,0,0,1-.414-.143.81.81,0,0,1-.292-.267.768.768,0,0,1-.111-.432,1.2,1.2,0,0,1,.04-.29.636.636,0,0,1,.185-.3,1.135,1.135,0,0,1,.428-.237,2.452,2.452,0,0,1,.767-.1h.533a2.44,2.44,0,0,1,.554.055,1.5,1.5,0,0,1,.389.143.884.884,0,0,1,.4.428.867.867,0,0,1,.065.227,1.477,1.477,0,0,1,.015.2h-.8a.347.347,0,0,0-.013-.084.217.217,0,0,0-.057-.1.365.365,0,0,0-.124-.08.563.563,0,0,0-.214-.034h-1.092a.356.356,0,0,0-.225.048.156.156,0,0,0-.053.12" transform="translate(-747.895 -768.189)" fill="#181818"/>
        <path id="Path_29" data-name="Path 29" d="M886.462,801.734h.794v3h-.794v-1.146h-2.23v1.146h-.794v-3h.794v1.151h2.23Z" transform="translate(-846.474 -768.189)" fill="#181818"/>
        <path id="Path_30" data-name="Path 30" d="M995.223,801.734l1.508,3h-.891l-.307-.651h-1.592l-.307.651h-.89l1.512-3Zm-.025,1.638-.458-.979-.462.979Z" transform="translate(-951.207 -768.188)" fill="#181818"/>
        <path id="Path_31" data-name="Path 31" d="M1109.888,803.233a1.925,1.925,0,0,1-.08.59,1.306,1.306,0,0,1-.212.412,1.106,1.106,0,0,1-.3.265,1.51,1.51,0,0,1-.343.151,1.734,1.734,0,0,1-.346.067q-.17.015-.3.015h-2.239v-3h2.239q.135,0,.3.015a1.729,1.729,0,0,1,.346.067,1.516,1.516,0,0,1,.343.151,1.106,1.106,0,0,1,.3.265,1.308,1.308,0,0,1,.212.412,1.926,1.926,0,0,1,.08.59m-1.365.747a.484.484,0,0,0,.26-.063.456.456,0,0,0,.16-.168.744.744,0,0,0,.082-.239,1.676,1.676,0,0,0,0-.554.721.721,0,0,0-.082-.237.461.461,0,0,0-.16-.166.484.484,0,0,0-.26-.063h-1.659v1.491Z" transform="translate(-1059.787 -768.188)" fill="#181818"/>
        <path id="Path_32" data-name="Path 32" d="M1219.716,801.734q.135,0,.3.015a1.734,1.734,0,0,1,.346.067,1.566,1.566,0,0,1,.344.151,1.062,1.062,0,0,1,.3.265,1.326,1.326,0,0,1,.21.412,2.22,2.22,0,0,1,0,1.18,1.324,1.324,0,0,1-.21.412,1.062,1.062,0,0,1-.3.265,1.56,1.56,0,0,1-.344.151,1.739,1.739,0,0,1-.346.067q-.17.015-.3.015h-.651q-.135,0-.3-.015a1.738,1.738,0,0,1-.347-.067,1.555,1.555,0,0,1-.344-.151,1.064,1.064,0,0,1-.3-.265,1.321,1.321,0,0,1-.21-.412,2.22,2.22,0,0,1,0-1.18,1.323,1.323,0,0,1,.21-.412,1.064,1.064,0,0,1,.3-.265,1.561,1.561,0,0,1,.344-.151,1.733,1.733,0,0,1,.347-.067q.17-.015.3-.015Zm.219,2.247a.5.5,0,0,0,.262-.063.454.454,0,0,0,.162-.168.747.747,0,0,0,.082-.239,1.676,1.676,0,0,0,0-.554.724.724,0,0,0-.082-.237.458.458,0,0,0-.162-.166.5.5,0,0,0-.262-.063h-1.088a.5.5,0,0,0-.262.063.457.457,0,0,0-.162.166.718.718,0,0,0-.082.237,1.668,1.668,0,0,0,0,.554.741.741,0,0,0,.082.239.453.453,0,0,0,.162.168.5.5,0,0,0,.262.063Z" transform="translate(-1166.541 -768.188)" fill="#181818"/>
        <path id="Path_33" data-name="Path 33" d="M1325.549,801.734l-1.218,3h-.966l-.71-1.751-.71,1.751h-.966l-1.218-3h.89l.861,2.117.756-2.117h.773l.756,2.117.857-2.117Z" transform="translate(-1264.542 -768.189)" fill="#181818"/>
        <path id="Path_34" data-name="Path 34" d="M1532.147,802.659a.143.143,0,0,0,.111.134,1.145,1.145,0,0,0,.292.059q.181.017.412.021t.474.023a4.008,4.008,0,0,1,.475.065,1.366,1.366,0,0,1,.412.149.848.848,0,0,1,.292.271.769.769,0,0,1,.111.433,1.294,1.294,0,0,1-.015.185.685.685,0,0,1-.065.2.771.771,0,0,1-.145.2.853.853,0,0,1-.252.17,1.657,1.657,0,0,1-.388.117,2.964,2.964,0,0,1-.55.044h-.538a2.418,2.418,0,0,1-.55-.055,1.559,1.559,0,0,1-.389-.141.854.854,0,0,1-.252-.2.955.955,0,0,1-.145-.229.835.835,0,0,1-.065-.227,1.5,1.5,0,0,1-.015-.2h.794a.312.312,0,0,0,.015.084.246.246,0,0,0,.057.1.334.334,0,0,0,.124.08.562.562,0,0,0,.212.034h1.092a.355.355,0,0,0,.225-.05.153.153,0,0,0,.057-.118.155.155,0,0,0-.111-.147,1.025,1.025,0,0,0-.292-.063q-.181-.017-.414-.019t-.474-.021a4.415,4.415,0,0,1-.475-.063,1.4,1.4,0,0,1-.414-.143.809.809,0,0,1-.292-.267.768.768,0,0,1-.111-.432,1.2,1.2,0,0,1,.04-.29.636.636,0,0,1,.185-.3,1.137,1.137,0,0,1,.428-.237,2.451,2.451,0,0,1,.766-.1h.533a2.442,2.442,0,0,1,.554.055,1.5,1.5,0,0,1,.389.143.884.884,0,0,1,.4.428.875.875,0,0,1,.065.227,1.46,1.46,0,0,1,.015.2h-.8a.356.356,0,0,0-.013-.084.217.217,0,0,0-.057-.1.363.363,0,0,0-.124-.08.562.562,0,0,0-.214-.034h-1.092a.356.356,0,0,0-.225.048.156.156,0,0,0-.052.12" transform="translate(-1467.275 -768.189)" fill="#181818"/>
        <path id="Path_35" data-name="Path 35" d="M1636.38,801.734q.134,0,.294.01a1.93,1.93,0,0,1,.319.048,1.4,1.4,0,0,1,.306.111.873.873,0,0,1,.26.2.963.963,0,0,1,.183.309,1.448,1.448,0,0,1,0,.886.965.965,0,0,1-.183.309.873.873,0,0,1-.26.2,1.413,1.413,0,0,1-.306.111,1.923,1.923,0,0,1-.319.048q-.159.011-.294.01h-1.348v.756h-.8v-3Zm.067,1.491a1.13,1.13,0,0,0,.263-.025.423.423,0,0,0,.162-.071.24.24,0,0,0,.082-.115.5.5,0,0,0,.023-.158.477.477,0,0,0-.023-.155.253.253,0,0,0-.082-.115.384.384,0,0,0-.162-.072,1.238,1.238,0,0,0-.263-.023h-1.415v.735Z" transform="translate(-1565.855 -768.188)" fill="#181818"/>
        <rect id="Rectangle_5" data-name="Rectangle 5" width="0.794" height="2.999" transform="translate(72.838 33.546)" fill="#181818"/>
        <path id="Path_36" data-name="Path 36" d="M1787.467,802.855a1.277,1.277,0,0,1-.063.426.95.95,0,0,1-.168.3.866.866,0,0,1-.242.2,1.314,1.314,0,0,1-.287.118l.911.831h-1.088l-.79-.756h-1.054v.756h-.8v-3h2.146q.134,0,.294.01a1.932,1.932,0,0,1,.319.048,1.4,1.4,0,0,1,.306.111.867.867,0,0,1,.26.2.967.967,0,0,1,.183.309,1.249,1.249,0,0,1,.07.443m-2.78.37h1.415a1.131,1.131,0,0,0,.262-.025.422.422,0,0,0,.162-.071.243.243,0,0,0,.082-.115.5.5,0,0,0,.023-.158.477.477,0,0,0-.023-.155.256.256,0,0,0-.082-.115.384.384,0,0,0-.162-.072,1.24,1.24,0,0,0-.262-.023h-1.415Z" transform="translate(-1709.249 -768.188)" fill="#181818"/>
        <rect id="Rectangle_6" data-name="Rectangle 6" width="0.794" height="2.999" transform="translate(79.125 33.546)" fill="#181818"/>
        <path id="Path_37" data-name="Path 37" d="M1932.14,801.734h3.02v.756h-1.126v2.243h-.794V802.49h-1.1Z" transform="translate(-1851.297 -768.189)" fill="#181818"/>
        <path id="Path_38" data-name="Path 38" d="M2025.181,802.659a.143.143,0,0,0,.111.134,1.146,1.146,0,0,0,.292.059q.181.017.412.021t.475.023a4.014,4.014,0,0,1,.474.065,1.37,1.37,0,0,1,.412.149.851.851,0,0,1,.292.271.771.771,0,0,1,.111.433,1.329,1.329,0,0,1-.015.185.692.692,0,0,1-.065.2.782.782,0,0,1-.145.2.857.857,0,0,1-.252.17,1.659,1.659,0,0,1-.389.117,2.959,2.959,0,0,1-.55.044h-.538a2.418,2.418,0,0,1-.55-.055,1.56,1.56,0,0,1-.388-.141.86.86,0,0,1-.252-.2.969.969,0,0,1-.145-.229.848.848,0,0,1-.065-.227,1.519,1.519,0,0,1-.015-.2h.794a.312.312,0,0,0,.015.084.249.249,0,0,0,.057.1.337.337,0,0,0,.124.08.564.564,0,0,0,.212.034h1.092a.356.356,0,0,0,.225-.05.153.153,0,0,0,.057-.118.155.155,0,0,0-.112-.147,1.025,1.025,0,0,0-.292-.063q-.18-.017-.413-.019t-.475-.021a4.4,4.4,0,0,1-.475-.063,1.4,1.4,0,0,1-.414-.143.807.807,0,0,1-.292-.267.766.766,0,0,1-.111-.432,1.2,1.2,0,0,1,.04-.29.636.636,0,0,1,.185-.3,1.137,1.137,0,0,1,.428-.237,2.448,2.448,0,0,1,.766-.1h.533a2.445,2.445,0,0,1,.555.055,1.5,1.5,0,0,1,.388.143.882.882,0,0,1,.4.428.867.867,0,0,1,.065.227,1.5,1.5,0,0,1,.015.2h-.8a.364.364,0,0,0-.013-.084.215.215,0,0,0-.057-.1.366.366,0,0,0-.124-.08.562.562,0,0,0-.214-.034h-1.092a.355.355,0,0,0-.225.048.155.155,0,0,0-.053.12" transform="translate(-1939.681 -768.189)" fill="#181818"/>
      </g>
    </g>
  </g>
</svg>
