<svg width="91" height="23" viewBox="0 0 91 23" fill="none" xmlns="http://www.w3.org/2000/svg">
<path d="M41.3704 0.913574H40.572H39.9561V1.39252V2.72294V4.56635H43.4432H43.4508H44.4785V0.913574H41.3704Z" fill="#181818"/>
<path d="M39.957 6.50652V8.23842V11.9878V13.5919V15.6696V17.264V17.2737H44.4795V17.264V15.6696V13.5919V11.9878V10.0219V8.23842V6.17041H39.957V6.50652Z" fill="#181818"/>
<path d="M29.3081 12.8389V11.9877H31.9543H33.8305V13.5919H31.0281H30.2767H30.0271H29.3081V12.8389ZM29.3081 8.23835V6.17038V5.01871V5.00904V4.57593H29.8653H29.8776H31.9931L31.0726 6.17038L29.8788 8.23835L29.3081 9.22673V8.23835ZM13.9531 0.903809L13.9654 0.91348L14.9821 1.70355L14.9917 1.71111L18.659 4.56163V4.56626V4.57593H18.6638H18.6773H23.1815H23.8815H24.7856V5.49324V6.17038V8.23835V8.52421V8.53388V9.32376V10.4668V11.9877V13.1849V13.5919V15.1187V15.1313V15.6695V17.264V17.2737H27.5418H27.558H28.9024H29.3081H33.5417H33.543H33.8305H35.0133H38.3531V17.264V15.6695V13.5919V11.9877V8.23835H37.4135H34.119L35.3129 6.17038L36.2335 4.57593L36.2391 4.56626L36.5364 4.05118L38.348 0.91348L38.3536 0.903809H13.9531Z" fill="#181818"/>
<path d="M62.0518 0.903809V1.27237V4.56626H63.1416H66.2893H66.5547H66.5742V0.91348V0.903809H62.0518Z" fill="#181818"/>
<path d="M84.8279 0.913574H84.8115L82.4758 2.72914L80.1118 4.56635L80.0996 4.57603L78.0483 6.17047L77.9534 6.24431L76.3491 7.49128L76.1931 7.61285L74.3374 6.17047L73.2012 5.28724L72.6768 4.88L72.6724 4.87616L72.2861 4.57603L72.2732 4.56635L68.1589 1.36851L68.1497 1.36099V4.56635V6.01201L68.1589 6.01954L68.3535 6.17047L70.2092 7.61285L71.0142 8.23844L72.6724 9.52734L72.6768 9.53124L73.2012 9.93824L72.6768 10.3455V10.358L72.6724 10.3619V10.3493L70.76 11.8358L70.564 11.9878L68.5005 13.592H68.1589H68.1497H67.0403H67.0356H66.8599H66.5742V13.2335L66.5813 13.2391L66.5742 13.23V11.9878V10.4378V8.58249V8.23844V6.17047H66.5552H63.4714H62.052H62.042V8.23844V9.70732V9.71078V11.9878V13.592V13.9606V14.3583V14.3658V15.6696V17.2641V17.2737H62.052H63.7634H63.7795H65.7834H65.7932H66.5552H66.5742H68.1497H68.1589H69.7634L69.7759 17.2641L70.7681 16.4931L70.7705 16.4914L71.8271 15.6696L72.6724 15.0131L72.6768 15.0092L73.76 14.1676L74.5005 13.592L76.2012 12.2702L76.3491 12.3854L77.9014 13.592L77.9534 13.6322V15.6696V17.2641V17.2737V17.427L82.4683 20.9362L82.4758 20.9422V20.9362V17.2737V17.2641V17.1476V15.6696V13.592V12.4964L81.8213 11.9878L79.1929 9.94463L81.3879 8.23844L82.4758 7.39292L84.0486 6.17047L86.0999 4.57603L86.1123 4.56635L90.8118 0.913574H84.8279Z" fill="#181818"/>
<path d="M50.7123 0.903809L54.2825 3.67913L54.2922 3.68669L55.4237 4.56626L55.4366 4.57593L55.8964 4.93349V6.17038V8.23835V9.58099L54.2922 8.33421V8.34196L54.2825 8.33443V8.32672L54.1687 8.23835L51.5084 6.17038L50.6105 5.47229L49.4574 4.57593L49.4447 4.56626L46.093 1.96109L46.083 1.95331V1.96119V1.96966V4.56626V6.17038V6.61199L46.0881 6.61567V6.62147L46.083 6.61782V8.23835V11.2686L46.0881 11.2725V11.9877H46.083V13.5919V15.6695V17.264V17.2737H46.0881H50.6105H53.8088L53.7964 17.264L51.7451 15.6695L50.6105 14.7876V13.5919V11.9877V10.1368L52.9919 11.9877L54.2825 12.991L54.2922 12.9986L55.0557 13.5919L55.8964 14.2453L55.906 14.2529L57.7284 15.6695L58.7861 16.4915L59.78 17.264L59.7925 17.2737L60.4286 17.768L60.4382 17.7756V17.77V17.2737V17.264V15.6695V15.2074V13.5919V13.119V13.1112V11.9877V8.46372V8.46042V4.04378L60.4456 0.903809H50.7123Z" fill="#181818"/>
<path d="M0.49707 0.903564L5.20896 4.56602L5.22134 4.57569L7.27268 6.17013L8.84529 7.39259V8.2381V11.9875V13.5917V15.6693V16.2626V17.2637V17.2734V20.9233L13.3678 17.4081L13.3775 17.4006L13.5411 17.2734L13.5535 17.2637L14.9816 16.1538L14.9913 16.1463L15.6049 15.6693L17.5493 14.1579L17.8302 13.9397L18.2778 13.5917L18.6585 13.2957V13.5917V14.6512V15.0201L18.6633 15.024L19.4936 15.6693L20.5411 16.4833L21.545 17.2637L21.5575 17.2734L23.181 18.5353V17.2734V17.2637V15.6693V14.4316V13.8843V13.8717V13.5917V11.9875V9.7806V9.77074V9.2205V8.2381V8.07674V6.17013H21.8297H20.7282H19.2576H19.2565H18.6633H18.6585V8.2381V8.63508L17.5513 9.49572L17.5432 9.50208L16.2672 10.4938L14.9913 11.4856L14.9816 11.4932L14.5512 11.8275L14.3454 11.9875L13.3775 12.7399V11.9875H13.3678V10.9078L13.3775 10.9153V8.2381V6.26408V6.2515L13.2727 6.17013L11.2214 4.57569L11.209 4.56602L8.84529 2.72881L6.4971 0.903564H0.49707Z" fill="#181818"/>
<path d="M27.7379 19.0808C27.8092 19.0808 27.845 19.1165 27.845 19.1875V19.6488C27.845 19.72 27.8092 19.7556 27.7379 19.7556H25.3058C25.212 19.7556 25.1458 19.78 25.1069 19.8285C25.068 19.8769 25.0485 19.9435 25.0485 20.0274V20.1924C25.0485 20.3738 25.1327 20.4645 25.3009 20.4645H27.1215C27.403 20.4645 27.6149 20.5364 27.7576 20.6805C27.9 20.8245 27.9712 21.0307 27.9712 21.2994V21.6879C27.9712 21.9242 27.9015 22.1151 27.7622 22.2607C27.6233 22.4064 27.4065 22.4791 27.1118 22.4791H24.4222C24.3478 22.4791 24.3105 22.4435 24.3105 22.3723V21.9111C24.3105 21.84 24.3478 21.8044 24.4222 21.8044H26.9712C27.0649 21.8044 27.1311 21.78 27.17 21.7315C27.2087 21.683 27.2284 21.6168 27.2284 21.5325V21.3334C27.2284 21.1521 27.1442 21.0615 26.976 21.0615H25.1554C24.8739 21.0615 24.6619 20.9896 24.5193 20.8455C24.3768 20.7014 24.3057 20.4952 24.3057 20.2265V19.8721C24.3057 19.636 24.3754 19.4449 24.5145 19.2993C24.6537 19.1537 24.8705 19.0808 25.165 19.0808H27.7379Z" fill="#181818"/>
<path d="M35.5197 19.0808C35.594 19.0808 35.6312 19.1165 35.6312 19.1875V19.6635C35.6312 19.7379 35.594 19.775 35.5197 19.775H33.9951V22.3723C33.9951 22.4435 33.9595 22.4791 33.8883 22.4791H33.3591C33.288 22.4791 33.2523 22.4435 33.2523 22.3723V19.775H31.7278C31.6533 19.775 31.6162 19.7379 31.6162 19.6635V19.1875C31.6162 19.1165 31.6533 19.0808 31.7278 19.0808H35.5197Z" fill="#181818"/>
<path d="M40.0393 19.0808C40.1105 19.0808 40.146 19.1165 40.146 19.1875V21.1247C40.146 21.2542 40.1564 21.3618 40.1779 21.4475C40.1986 21.5333 40.2333 21.6013 40.282 21.6515C40.3306 21.7016 40.3961 21.7372 40.4785 21.7582C40.561 21.7793 40.6655 21.7897 40.7917 21.7897H42.1366C42.2627 21.7897 42.3669 21.7793 42.4495 21.7582C42.5323 21.7372 42.5978 21.7016 42.6462 21.6515C42.6949 21.6013 42.7286 21.5333 42.7482 21.4475C42.7676 21.3618 42.7775 21.2542 42.7775 21.1247V19.1875C42.7775 19.1165 42.8131 19.0808 42.884 19.0808H43.4135C43.4846 19.0808 43.5203 19.1165 43.5203 19.1875V21.1974C43.5203 21.4304 43.4958 21.6288 43.4474 21.7921C43.3986 21.9556 43.3201 22.0884 43.212 22.1903C43.1034 22.2924 42.9624 22.3658 42.7897 22.4113C42.6163 22.4565 42.4066 22.4791 42.1608 22.4791H40.7627C40.5166 22.4791 40.3079 22.4565 40.1365 22.4113C39.9648 22.3658 39.825 22.2924 39.7164 22.1903C39.6082 22.0884 39.5287 21.9556 39.4785 21.7921C39.4286 21.6288 39.4033 21.4304 39.4033 21.1974V19.1875C39.4033 19.1165 39.4406 19.0808 39.5149 19.0808H40.0393Z" fill="#181818"/>
<path d="M49.8757 19.0808C50.1382 19.0808 50.3632 19.1074 50.5508 19.1609C50.7383 19.2142 50.8923 19.2968 51.012 19.4084C51.1317 19.5201 51.2196 19.6626 51.2766 19.8356C51.333 20.0089 51.3615 20.2135 51.3615 20.4498V21.1101C51.3615 21.3463 51.333 21.551 51.2766 21.7241C51.2196 21.8973 51.1317 22.0397 51.012 22.1513C50.8923 22.263 50.7383 22.3456 50.5508 22.399C50.3632 22.4525 50.1382 22.4791 49.8757 22.4791H47.6039C47.5067 22.4791 47.458 22.4305 47.458 22.3336V19.2263C47.458 19.1293 47.5067 19.0808 47.6039 19.0808H49.8757ZM48.201 21.7411C48.201 21.7832 48.2222 21.8043 48.264 21.8043H49.8566C49.9989 21.8043 50.1187 21.7914 50.2157 21.7654C50.3129 21.7395 50.3912 21.6974 50.4512 21.6393C50.511 21.5809 50.5541 21.5032 50.5798 21.4061C50.6058 21.3091 50.6185 21.1894 50.6185 21.0469V20.5129C50.6185 20.3704 50.6058 20.2509 50.5798 20.1537C50.5541 20.0565 50.511 19.979 50.4512 19.9206C50.3912 19.8624 50.3129 19.8203 50.2157 19.7944C50.1187 19.7685 49.9989 19.7555 49.8566 19.7555H48.264C48.2222 19.7555 48.201 19.7783 48.201 19.8236V21.7411Z" fill="#181818"/>
<path d="M55.9045 19.0808C55.9757 19.0808 56.0111 19.1165 56.0111 19.1875V22.3723C56.0111 22.4435 55.9757 22.4791 55.9045 22.4791H55.38C55.3054 22.4791 55.2686 22.4435 55.2686 22.3723V19.1875C55.2686 19.1165 55.3054 19.0808 55.38 19.0808H55.9045Z" fill="#181818"/>
<path d="M62.7795 19.0808C63.0251 19.0808 63.2349 19.1044 63.4081 19.1512C63.5813 19.1982 63.7218 19.2726 63.8304 19.3745C63.9387 19.4764 64.0175 19.6084 64.0658 19.7703C64.1144 19.9321 64.1388 20.1295 64.1388 20.3624V21.1974C64.1388 21.4307 64.1144 21.6288 64.0658 21.7921C64.0175 21.9556 63.9387 22.0884 63.8304 22.1903C63.7218 22.2924 63.5813 22.3658 63.4081 22.4113C63.2349 22.4567 63.0251 22.4791 62.7795 22.4791H61.2792C61.0333 22.4791 60.8241 22.4567 60.6528 22.4113C60.4814 22.3658 60.3413 22.2924 60.2329 22.1903C60.1245 22.0884 60.0454 21.9556 59.9951 21.7921C59.9448 21.6288 59.9199 21.4307 59.9199 21.1974V20.3624C59.9199 20.1295 59.9448 19.9321 59.9951 19.7703C60.0454 19.6084 60.1245 19.4764 60.2329 19.3745C60.3413 19.2726 60.4814 19.1982 60.6528 19.1512C60.8241 19.1044 61.0333 19.0808 61.2792 19.0808H62.7795ZM60.6626 21.1441C60.6626 21.2704 60.6731 21.3763 60.6942 21.462C60.7152 21.5479 60.7501 21.6159 60.7987 21.666C60.8472 21.7161 60.9128 21.7519 60.9952 21.7728C61.0779 21.7939 61.1823 21.8044 61.3083 21.8044H62.7504C62.8765 21.8044 62.9808 21.7939 63.0632 21.7728C63.1456 21.7519 63.2113 21.7161 63.26 21.666C63.3086 21.6159 63.3435 21.5479 63.3643 21.462C63.3854 21.3763 63.3959 21.2704 63.3959 21.1441V20.4159C63.3959 20.2896 63.3854 20.1837 63.3643 20.0978C63.3435 20.0121 63.3086 19.9442 63.26 19.894C63.2113 19.8438 63.1456 19.8082 63.0632 19.7872C62.9808 19.7661 62.8765 19.7556 62.7504 19.7556H61.3083C61.1823 19.7556 61.0779 19.7661 60.9952 19.7872C60.9128 19.8082 60.8472 19.8438 60.7987 19.894C60.7501 19.9442 60.7152 20.0121 60.6942 20.0978C60.6731 20.1837 60.6626 20.2896 60.6626 20.4159V21.1441Z" fill="#181818"/>
<path d="M71.4156 19.0808C71.4869 19.0808 71.5228 19.1165 71.5228 19.1875V19.6488C71.5228 19.72 71.4869 19.7556 71.4156 19.7556H68.9833C68.8893 19.7556 68.8234 19.78 68.7844 19.8285C68.7455 19.8769 68.7261 19.9435 68.7261 20.0274V20.1924C68.7261 20.3738 68.8101 20.4645 68.9784 20.4645H70.799C71.0808 20.4645 71.2926 20.5364 71.4353 20.6805C71.5775 20.8245 71.6486 21.0307 71.6486 21.2994V21.6879C71.6486 21.9242 71.5791 22.1151 71.4402 22.2607C71.3008 22.4064 71.0837 22.4791 70.7892 22.4791H68.1C68.0256 22.4791 67.988 22.4435 67.988 22.3723V21.9111C67.988 21.84 68.0256 21.8044 68.1 21.8044H70.6487C70.7427 21.8044 70.809 21.78 70.8475 21.7315C70.8865 21.683 70.9056 21.6168 70.9056 21.5325V21.3334C70.9056 21.1521 70.8219 21.0615 70.6536 21.0615H68.833C68.5511 21.0615 68.3394 20.9896 68.1969 20.8455C68.0546 20.7014 67.9834 20.4952 67.9834 20.2265V19.8721C67.9834 19.636 68.0529 19.4449 68.192 19.2993C68.3315 19.1537 68.5485 19.0808 68.843 19.0808H71.4156Z" fill="#181818"/>
</svg>
