<svg id="Group_38" data-name="Group 38" xmlns="http://www.w3.org/2000/svg" xmlns:xlink="http://www.w3.org/1999/xlink" width="98.591" height="25.899" viewBox="0 0 98.591 25.899">
  <defs>
    <clipPath id="clip-path">
      <rect id="Rectangle_53" data-name="Rectangle 53" width="98.591" height="25.899" fill="none"/>
    </clipPath>
  </defs>
  <path id="Path_52" data-name="Path 52" d="M1254.1.307h-1.544V4.295h4.937V.307Z" transform="translate(-1209.48 -0.297)" fill="#fff"/>
  <path id="Path_53" data-name="Path 53" d="M1252.555,167.542V179.3h4.937V167.175h-4.937Z" transform="translate(-1209.48 -161.426)" fill="#fff"/>
  <path id="Path_54" data-name="Path 54" d="M443.878,13.029V12.1h4.937v1.751h-4.937Zm0-5.022v-4h2.931l-1,1.741-1.3,2.257-.623,1.079ZM427.116,0l.013.011,1.11.862.011.008,4,3.112v.016h6.688v6.431h0v7.43h14.811V8.007H449.13l1.3-2.257,1-1.741L451.444,4l.325-.562L453.746.011,453.752,0Z" transform="translate(-412.427)" fill="#fff"/>
  <path id="Path_55" data-name="Path 55" d="M1953.923,0V4h4.937V0Z" transform="translate(-1886.728 0)" fill="#fff"/>
  <path id="Path_56" data-name="Path 56" d="M1978.49.307h-.018l-2.55,1.982-2.58,2.006-.013.011-2.239,1.741-.1.081-1.751,1.361-.171.133-2.025-1.575-1.241-.964-.572-.445-.005,0-.422-.328-.014-.011L1960.294.8l-.01-.008V5.873l.01.008.212.165,2.026,1.575.879.683,1.81,1.407.005,0,.572.444-.572.445v.014l-.005,0v-.014l-2.087,1.623-.214.166-2.253,1.751h-2.1v-.391l.008.006-.008-.01V6.046h-4.948V18.166h8.429l.014-.011,1.083-.842,0,0,1.154-.9.922-.717.005,0,1.182-.919.809-.628,1.856-1.443.162.126,1.695,1.317.057.044v4.143l4.928,3.831.008.007v-9.22l-.714-.555-2.87-2.23,2.4-1.863,1.188-.923,1.717-1.334,2.239-1.741.014-.011,5.13-3.987Z" transform="translate(-1886.431 -0.297)" fill="#fff"/>
  <path id="Path_57" data-name="Path 57" d="M1452.083,0l3.9,3.03.011.008,1.235.96.014.011.5.39V9.472l-1.751-1.361V8.12l-.011-.008V8.1l.011.008-.011-.008-.124-.1-2.9-2.257-.98-.762-1.259-.978L1450.7,4l-3.659-2.844-.011-.008V6.231l.005,0v.006l-.005,0v5.077l.005,0V12.1h-.005v5.77h8.433l-.014-.011-2.239-1.741-1.239-.963V10.079l2.6,2.021,1.409,1.1.011.008.833.648.918.713.011.008,1.989,1.546,1.155.9,1.085.843.014.011.694.54.01.008V3.428L1462.708,0Z" transform="translate(-1397.266 0)" fill="#fff"/>
  <path id="Path_58" data-name="Path 58" d="M0,0,5.144,4l.014.011L7.4,5.749,9.113,7.084V21.854l4.937-3.837.011-.008.179-.139.013-.011,1.559-1.212.011-.008.67-.521,2.123-1.65.307-.238.489-.38.416-.323V15.41l.005,0,.906.7,1.144.889,1.1.852.014.011,1.772,1.377V9.079h0V5.749H19.826V8.44l-1.209.94-.009.007-1.393,1.083-1.393,1.083-.011.008-.47.365-.225.175-1.057.821V12.1H14.05V10.921l.011.008V5.838l-.114-.089L11.707,4.009,11.693,4,9.113,1.993,6.55,0Z" transform="translate(0 0)" fill="#fff"/>
  <g id="Group_37" data-name="Group 37">
    <g id="Group_36" data-name="Group 36" clip-path="url(#clip-path)">
      <path id="Path_59" data-name="Path 59" d="M936.979,566.91a.1.1,0,0,1,.117.117v.5a.1.1,0,0,1-.117.117h-2.655a.263.263,0,0,0-.217.08.339.339,0,0,0-.064.217v.18q0,.3.276.3h1.987a.936.936,0,0,1,.694.236.92.92,0,0,1,.233.676v.424a.868.868,0,0,1-.228.625.942.942,0,0,1-.71.238h-2.936q-.122,0-.122-.117V570q0-.116.122-.117h2.782a.263.263,0,0,0,.217-.079.339.339,0,0,0,.064-.217v-.217q0-.3-.276-.3H934.16a.936.936,0,0,1-.694-.236.92.92,0,0,1-.233-.676v-.387a.868.868,0,0,1,.228-.625.942.942,0,0,1,.71-.238Z" transform="translate(-907.242 -547.067)" fill="#fff"/>
      <path id="Path_60" data-name="Path 60" d="M1087.811,566.91q.122,0,.122.117v.519a.108.108,0,0,1-.122.122h-1.664V570.5a.1.1,0,0,1-.117.117h-.578a.1.1,0,0,1-.117-.117v-2.835h-1.664a.108.108,0,0,1-.122-.122v-.519q0-.116.122-.117Z" transform="translate(-1049.579 -547.067)" fill="#fff"/>
      <path id="Path_61" data-name="Path 61" d="M1244.341,566.91a.1.1,0,0,1,.116.117v2.115a1.5,1.5,0,0,0,.035.352.473.473,0,0,0,.114.223.443.443,0,0,0,.215.117,1.412,1.412,0,0,0,.342.034h1.468a1.413,1.413,0,0,0,.342-.034.442.442,0,0,0,.215-.117.457.457,0,0,0,.111-.223,1.629,1.629,0,0,0,.032-.352v-2.115a.1.1,0,0,1,.116-.117h.578a.1.1,0,0,1,.117.117v2.194a2.3,2.3,0,0,1-.079.649.958.958,0,0,1-.257.435,1.047,1.047,0,0,1-.461.241,2.752,2.752,0,0,1-.686.074h-1.526a2.719,2.719,0,0,1-.684-.074,1.045,1.045,0,0,1-.458-.241.974.974,0,0,1-.26-.435,2.235,2.235,0,0,1-.082-.649v-2.194q0-.116.122-.117Z" transform="translate(-1201.175 -547.067)" fill="#fff"/>
      <path id="Path_62" data-name="Path 62" d="M1411.875,566.911a2.714,2.714,0,0,1,.737.087,1.207,1.207,0,0,1,.5.27,1.089,1.089,0,0,1,.289.466,2.174,2.174,0,0,1,.093.67v.721a2.174,2.174,0,0,1-.093.67,1.087,1.087,0,0,1-.289.466,1.209,1.209,0,0,1-.5.27,2.714,2.714,0,0,1-.737.087h-2.48a.14.14,0,0,1-.159-.159V567.07a.14.14,0,0,1,.159-.159Zm-1.828,2.9a.061.061,0,0,0,.069.069h1.739a1.547,1.547,0,0,0,.392-.042.573.573,0,0,0,.257-.138.541.541,0,0,0,.14-.254,1.544,1.544,0,0,0,.042-.392v-.583a1.545,1.545,0,0,0-.042-.392.54.54,0,0,0-.14-.254.573.573,0,0,0-.257-.138,1.55,1.55,0,0,0-.392-.042h-1.739c-.046,0-.069.025-.069.074Z" transform="translate(-1357.972 -547.068)" fill="#fff"/>
      <path id="Path_63" data-name="Path 63" d="M1570.526,566.91a.1.1,0,0,1,.116.117V570.5a.1.1,0,0,1-.116.117h-.573q-.122,0-.122-.117v-3.477q0-.116.122-.117Z" transform="translate(-1510.041 -547.067)" fill="#fff"/>
      <path id="Path_64" data-name="Path 64" d="M1668.574,566.91a2.66,2.66,0,0,1,.686.077,1.069,1.069,0,0,1,.461.244.956.956,0,0,1,.257.432,2.274,2.274,0,0,1,.08.646v.912a2.3,2.3,0,0,1-.08.649.956.956,0,0,1-.257.435,1.048,1.048,0,0,1-.461.241,2.746,2.746,0,0,1-.686.074h-1.638a2.713,2.713,0,0,1-.684-.074,1.046,1.046,0,0,1-.458-.241.976.976,0,0,1-.26-.435,2.235,2.235,0,0,1-.082-.649v-.912a2.208,2.208,0,0,1,.082-.646.976.976,0,0,1,.26-.432,1.067,1.067,0,0,1,.458-.244,2.629,2.629,0,0,1,.684-.077Zm-2.311,2.252a1.484,1.484,0,0,0,.034.347.476.476,0,0,0,.114.223.442.442,0,0,0,.215.117,1.414,1.414,0,0,0,.342.034h1.574a1.412,1.412,0,0,0,.342-.034.444.444,0,0,0,.215-.117.475.475,0,0,0,.114-.223,1.484,1.484,0,0,0,.034-.347v-.795a1.486,1.486,0,0,0-.034-.347.475.475,0,0,0-.114-.222.444.444,0,0,0-.215-.117,1.411,1.411,0,0,0-.342-.035h-1.574a1.413,1.413,0,0,0-.342.035.442.442,0,0,0-.215.117.475.475,0,0,0-.114.222,1.486,1.486,0,0,0-.034.347Z" transform="translate(-1600.584 -547.067)" fill="#fff"/>
      <path id="Path_65" data-name="Path 65" d="M1834.987,566.91a.1.1,0,0,1,.117.117v.5a.1.1,0,0,1-.117.117h-2.655a.262.262,0,0,0-.217.08.338.338,0,0,0-.064.217v.18q0,.3.275.3h1.988a.936.936,0,0,1,.694.236.921.921,0,0,1,.233.676v.424a.868.868,0,0,1-.228.625.943.943,0,0,1-.71.238h-2.936q-.122,0-.122-.117V570q0-.116.122-.117h2.782a.263.263,0,0,0,.217-.079.338.338,0,0,0,.063-.217v-.217q0-.3-.275-.3h-1.987a.935.935,0,0,1-.694-.236.92.92,0,0,1-.233-.676v-.387a.868.868,0,0,1,.228-.625.943.943,0,0,1,.71-.238Z" transform="translate(-1757.569 -547.067)" fill="#fff"/>
    </g>
  </g>
</svg>
