<svg width="393" height="141" viewBox="0 0 393 141" fill="none" xmlns="http://www.w3.org/2000/svg">
<mask id="mask0_41_13" style="mask-type:alpha" maskUnits="userSpaceOnUse" x="0" y="0" width="393" height="141">
<rect width="393" height="141" fill="#D9D9D9"/>
</mask>
<g mask="url(#mask0_41_13)">
<path d="M510.929 -7.27005C509.526 -6.95895 507.948 -7.586 506.537 -7.15276C504.516 -6.53211 502.502 -5.90189 500.538 -5.29075C495.85 -3.83133 490.843 -3.25453 485.849 -2.8727C481.064 -2.50682 475.99 -1.98403 471.517 -1.01461C470.296 -0.74979 469.298 -0.921338 468.021 -0.750005C466.65 -0.566656 465.331 0.0139517 463.916 0.153499C460.879 0.452819 458.025 1.1322 454.995 1.40293C450.77 1.77994 446.4 2.98418 442.651 4.91702C441.391 5.56627 439.933 5.82296 438.66 6.35887C437.837 6.70506 434.657 7.62403 434.501 7.89759C436.168 8.12492 438.223 7.72318 439.958 7.60601C442.128 7.45954 444.085 7.52719 446.319 7.55424C449.06 7.5877 451.585 7.65408 454.287 8.10499C456.116 8.40961 459.479 9.49183 461.143 8.15252C460.632 8.44546 460.482 9.04406 460.013 9.34314C459.136 9.90242 457.577 10.0563 456.549 10.3254C454.153 10.9508 451.987 11.6186 449.697 12.5767C447.919 13.3198 446.291 13.7976 444.461 14.2295C442.323 14.7336 439.559 15.1212 437.587 15.9027C436.017 16.5251 434.987 17.1102 433.199 17.4396C429.892 18.0492 426.863 19.6502 423.53 20.1345C421.251 20.4664 419.073 21.1169 416.817 21.5972C415.199 21.9415 414.083 22.7594 412.583 23.2276C410.211 23.9668 407.676 24.1839 405.326 25.2167C402.121 26.6246 398.376 27.3714 394.858 27.7796C386.295 28.7718 377.65 29.609 369.087 30.7577C363.325 31.5306 357.479 31.1509 351.732 31.6877C348.8 31.962 345.953 32.7354 342.915 33.2637C339.883 33.7904 336.621 34.8062 333.702 35.9126C330.09 37.282 326.595 39.7196 322.742 40.2937C315.226 41.4132 307.852 42.4881 300.39 43.6692C297.243 44.1676 294.224 45.9012 291.051 46.1352C289.802 46.2268 288.6 45.8833 287.351 46.1264C286.35 46.3209 285.444 46.9539 284.426 47.1021C283.694 47.2092 282.598 46.9505 281.801 47.0211C280.702 47.1187 279.595 47.367 278.476 47.2702C274.647 46.9397 270.617 47.2607 266.69 47.6969C256.943 48.7786 247.029 48.0143 237.246 48.4882C232.806 48.7037 228.427 49.754 224.084 50.5763C219.682 51.409 215.05 51.8943 210.675 52.8175C207.19 53.5533 203.702 54.5912 200.094 54.8095C198.509 54.9052 197.524 55.3929 195.995 55.8169C194.837 56.1382 193.047 55.6013 192.379 56.815C193.49 57.9511 194.667 57.4046 196.013 57.6837C197.276 57.945 198.295 58.7112 199.594 58.8976C200.639 59.0473 201.952 59.414 202.996 59.4576C204.613 59.5248 205.783 58.1395 207.197 59.7107C206.296 60.188 205.105 59.9698 204.107 60.0789C202.408 60.2633 200.826 60.7488 199.178 61.156C194.369 62.3441 189.763 62.3988 184.896 62.9838C181.041 63.447 177.498 63.4563 173.632 63.648C171.741 63.7413 170.274 64.3629 168.46 64.6551C163.769 65.4102 158.861 66.4466 154.057 67.3392C150.899 67.9261 147.874 68.7206 144.648 68.9626C142.029 69.1589 139.708 69.2177 137.121 70.0102C133.482 71.1242 129.586 71.2309 126.02 72.5688C124.534 73.1261 123.409 73.955 121.827 74.0039C121.019 74.0295 120.266 73.7852 119.451 73.8615C115.277 74.2538 111.044 76.0038 106.843 76.5522C97.2274 77.8084 87.1922 78.957 77.8174 81.5269C74.6717 82.3892 71.5785 81.8287 68.5475 83.2481C65.8262 84.522 63.1974 85.1073 60.2478 85.7346C55.7753 86.6833 51.8163 88.2875 47.4307 89.2521C40.9532 90.6759 33.9111 90.9754 27.7693 93.501C23.1792 95.3882 18.1595 95.9903 13.5112 97.7982C10.4307 98.9962 7.30206 99.3746 4.25823 100.771C1.57725 102 -1.27734 102.756 -4.14625 103.421C-8.88192 104.52 -13.5439 106.265 -18.2944 107.519C-19.7451 107.902 -21.2918 107.931 -22.7453 108.314C-24.5186 108.782 -26.1495 109.639 -27.9488 110.022C-28.708 110.184 -29.6594 110.13 -30.3676 110.394C-31.1872 110.698 -31.8178 111.342 -32.6937 111.614C-33.4851 111.858 -34.3635 111.518 -35.1155 111.768C-36.0681 112.082 -36.5813 112.731 -37.5597 113.068C-39.8006 113.839 -42.1498 113.769 -44.4265 114.718C-46.8664 115.735 -49.2485 115.823 -51.6452 116.733C-52.8319 117.183 -53.1648 117.194 -54.4995 117.406C-55.7958 117.611 -55.877 117.806 -57.0008 118.135C-58.5781 118.597 -60.2975 119.167 -61.8764 119.514C-64.4045 120.07 -67.0611 120.796 -69.6221 121.096C-72.2196 121.4 -75.032 121.251 -77.6328 121.576C-78.5782 121.694 -79.3692 122.44 -80.2924 122.286C-78.7242 122.76 -77.0505 122.511 -75.4305 122.503C-70.6713 122.481 -65.6837 123.378 -60.999 123.997C-58.4767 124.331 -55.3961 124.444 -52.8669 125.454C-55.6917 126.98 -59.103 127.569 -62.164 128.574C-63.7128 129.082 -65.4008 129.168 -66.9821 129.559C-70.5619 130.444 -73.813 132.281 -77.4116 133.133C-80.4079 133.843 -84.2711 134.476 -87.3627 134.615C-89.2104 134.699 -91.0872 135.18 -92.994 135.175C-95.2632 135.169 -96.8401 135.864 -99.0694 136.254C-102.588 136.868 -106.203 136.63 -109.72 137.285C-112.628 137.826 -115.701 138.672 -118.627 138.925C-120.291 139.069 -121.762 138.928 -123.395 139.392C-125.282 139.926 -126.452 139.855 -128.293 140.026C-129.412 140.131 -130.362 140.763 -131.434 140.939C-132.876 141.176 -134.411 140.844 -135.871 140.994C-138.88 141.304 -141.807 141.001 -144.742 141.534C-149.168 142.338 -154.121 142.352 -158.584 142.573C-164.21 142.852 -170.51 142.974 -176.224 144.141C-179.199 144.75 -182.054 145.476 -185.05 145.83C-189.08 146.307 -193.273 145.95 -197.334 145.828C-204.389 145.617 -211.402 145.148 -218.43 144.677L361.182 386.401L525.897 -8.55809C522.104 -8.57833 518.304 -8.71829 514.531 -8.35911C513.086 -8.2218 512.254 -7.56387 510.929 -7.27005Z" fill="#181818"/>
</g>
</svg>
