<svg width="1399" height="784" viewBox="0 0 1399 784" fill="none" xmlns="http://www.w3.org/2000/svg">
<path d="M267.869 782.917L0.500122 782.917V40.3809C1.50317 39.7979 2.505 39.123 3.38879 38.5276C3.71497 38.3075 4.10168 38.0475 4.495 37.7889C5.30713 37.2545 6.15881 36.7388 6.98242 36.2399C8.01318 35.616 9.07898 34.9709 10.075 34.2852C10.4133 34.0513 10.7562 33.8049 11.0878 33.5665L11.1139 33.5479L11.1719 33.5059L11.183 33.4977L11.1879 33.494C12.2145 32.7538 13.2759 31.9885 14.4363 31.4204C14.9277 31.1794 15.2405 30.9115 15.6027 30.6013C15.7443 30.4802 15.9026 30.345 16.0815 30.2046C16.2346 30.0846 16.4364 29.9938 16.632 29.906C17.0411 29.7222 17.4639 29.5322 17.5125 29.084C17.3542 29.0171 17.2025 28.9841 17.049 28.9841C16.7891 28.9841 16.5614 29.0769 16.3204 29.1753L16.3147 29.1776L16.3062 29.1812C16.1249 29.2552 15.9375 29.332 15.725 29.3729C15.498 29.4172 15.2739 29.4232 15.0845 29.4232C15.0555 29.4232 15.0265 29.4231 14.9972 29.423L14.9674 29.4226L14.9091 29.4224L14.8749 29.4215L14.8256 29.4208L14.7966 29.4205C14.757 29.42 14.7174 29.4197 14.6776 29.4197C14.4332 29.4197 14.1696 29.4291 13.8973 29.498C13.7141 29.5446 13.5212 29.5839 13.2881 29.6304L13.2751 29.6329C12.9261 29.7021 12.5652 29.7737 12.2712 29.8823C12.0192 29.9755 11.8245 30.1331 11.6362 30.2853C11.3879 30.4878 11.1547 30.6779 10.8322 30.6779C10.6804 30.6779 10.5212 30.637 10.3452 30.5529C10.5566 30.2946 10.8887 30.1542 11.2097 30.0186L11.217 30.0155L11.243 30.0045C11.3855 29.9438 11.5306 29.8822 11.6581 29.8121C12.2159 29.5048 12.7194 29.1227 13.2064 28.7533L13.2186 28.7438L13.2339 28.7321C13.3735 28.6259 13.5184 28.517 13.6622 28.41C14.9868 27.4286 16.3408 26.7195 17.7743 25.9688L17.7983 25.9562C18.4255 25.6274 19.0697 25.2898 19.7094 24.9287C20.8973 24.2571 22.0284 23.7352 23.226 23.1827L23.2612 23.1664C23.6528 22.9856 24.1403 22.7605 24.6234 22.5302C25.1212 22.2935 25.5066 22.0052 25.9148 21.7003L25.9193 21.6968L25.9449 21.6776C26.2004 21.4874 26.4608 21.2937 26.7491 21.1152C28.0272 20.3225 29.3479 19.4436 30.6254 18.5936L30.6606 18.5702L30.6677 18.5657C31.3538 18.1091 32.0248 17.6631 32.6912 17.2274C33.0466 16.9956 33.3959 16.7573 33.7826 16.4921L33.7874 16.4895L33.7933 16.4852C34.6804 15.8792 35.5979 15.2523 36.5963 14.7462C36.6974 14.6947 36.7977 14.6444 36.8973 14.5944L36.9279 14.5791L37.0688 14.5085L37.0796 14.5033C38.017 14.0344 38.9026 13.5914 39.7679 12.8741C40.4003 12.3495 41.1046 11.8983 41.7858 11.4618L41.8037 11.4503L41.8097 11.4464C42.6483 10.9093 43.5155 10.3539 44.2561 9.65857C44.425 9.49927 44.5763 9.33423 44.7224 9.17456L44.7274 9.16931C45.0614 8.80225 45.3766 8.45532 45.8634 8.2345C46.0259 8.16052 46.201 8.11169 46.3553 8.0686C46.5575 8.01294 46.7617 7.95654 46.9534 7.85486C47.9055 7.34814 48.8055 6.65906 49.6759 5.99268C50.4529 5.39734 51.2524 4.78479 52.0905 4.2998L52.8575 3.85632L53.0355 3.75366L53.2811 3.61133C55.0109 2.61365 56.7993 1.58203 58.5481 0.5H1099.61L1265.37 52.9197L1209.86 20.5782L1193.87 13.3169L1249.12 32.4401L1205.27 0.5H1398.29L1398.29 704.28C1397.86 704.599 1397.43 704.91 1396.95 705.258C1394.84 706.772 1392.8 708.478 1390.84 710.127L1390.83 710.133L1390.75 710.197L1390.75 710.202C1389.24 711.464 1387.68 712.769 1386.09 713.984C1385.53 714.417 1384.9 714.785 1384.3 715.14L1384.29 715.146C1383.68 715.502 1383.06 715.869 1382.49 716.299C1381.88 716.772 1381.31 717.309 1380.75 717.828L1380.74 717.844C1380.06 718.48 1379.36 719.138 1378.58 719.685C1378.33 719.857 1378.02 720.015 1377.76 720.154L1377.74 720.163C1377.33 720.379 1376.9 720.603 1376.6 720.889C1376.32 721.152 1376.09 721.469 1375.88 721.776C1375.63 722.133 1375.37 722.501 1375.01 722.8C1374.71 723.049 1374.34 723.182 1373.98 723.31C1373.61 723.438 1373.24 723.57 1372.95 723.817C1372.59 724.131 1372.35 724.497 1372.13 724.821C1371.9 725.164 1371.66 725.517 1371.3 725.842C1370.54 726.517 1369.68 727.059 1368.85 727.583L1368.83 727.592C1367.83 728.225 1366.79 728.879 1365.9 729.781C1364.97 730.717 1363.95 731.432 1362.96 732.124L1362.96 732.128L1362.95 732.131C1362.07 732.745 1361.17 733.38 1360.33 734.167C1359.57 734.886 1359.25 735.082 1358.48 735.554L1358.41 735.595L1358.24 735.7L1358.09 735.795C1357.42 736.206 1357.17 736.437 1356.86 736.728C1356.71 736.876 1356.49 737.079 1356.17 737.341C1355.91 737.552 1355.61 737.795 1355.21 738.13L1355.19 738.142C1354.33 738.855 1353.35 739.664 1352.42 740.32C1351.97 740.63 1351.52 740.958 1351.08 741.275L1351.01 741.322L1350.86 741.429L1350.85 741.439L1350.84 741.446C1349.35 742.522 1347.81 743.635 1346.23 744.52C1345.19 745.106 1344.04 745.627 1342.93 746.13L1342.9 746.145L1342.87 746.159C1341.7 746.687 1340.5 747.232 1339.41 747.855C1339.09 748.042 1338.82 748.318 1338.56 748.584L1338.56 748.588C1338.19 748.968 1337.85 749.326 1337.35 749.442C1338.51 749.324 1339.58 748.822 1340.62 748.337L1340.64 748.331C1340.96 748.181 1341.32 748.013 1341.67 747.863C1344.95 746.479 1348.56 745.543 1352.05 744.639L1352.06 744.636L1352.14 744.617C1353.14 744.357 1353.97 744.141 1354.81 743.913C1355.31 743.779 1355.8 743.636 1356.43 743.448L1356.45 743.443C1358.32 742.886 1360.45 742.255 1362.44 742.225C1361.14 743.83 1359.43 745.169 1357.78 746.464L1357.76 746.475L1357.74 746.494C1356.98 747.087 1356.19 747.701 1355.46 748.333C1354.78 748.922 1354 749.403 1353.25 749.869L1353.25 749.873C1352.7 750.209 1352.14 750.557 1351.62 750.946C1350.24 751.966 1349 753.174 1347.8 754.342L1347.79 754.347C1346.55 755.559 1345.26 756.813 1343.81 757.863C1341.2 759.761 1338.08 761.644 1335.67 762.778C1334.95 763.117 1334.23 763.542 1333.6 763.917L1333.6 763.92L1333.59 763.924L1333.58 763.927C1332.74 764.424 1331.87 764.937 1330.96 765.317C1329.67 765.85 1328.74 766.537 1327.76 767.264L1327.75 767.27L1327.75 767.275C1327.22 767.665 1326.67 768.069 1326.05 768.47C1324.65 769.36 1323.15 770.088 1321.69 770.792L1321.68 770.796L1321.68 770.799C1320.15 771.537 1318.57 772.3 1317.12 773.247C1316.37 773.738 1315.6 774.273 1314.86 774.791L1314.85 774.799L1314.84 774.806C1313.25 775.91 1311.61 777.051 1309.95 777.921C1309.49 778.161 1309.03 778.368 1308.63 778.55C1307.7 778.978 1306.81 779.382 1305.95 780.064C1304.88 780.919 1304.03 781.34 1303.04 781.827L1303.03 781.831L1302.99 781.854L1302.98 781.859C1302.64 782.026 1302.29 782.199 1301.91 782.401C1301.67 782.532 1301.43 782.695 1301.17 782.917L377.276 782.917L401.82 765.606H371.869L387.859 758.345L401.82 752.005L267.869 782.917Z" fill="#202020" stroke="#707070"/>
</svg>
