<svg xmlns="http://www.w3.org/2000/svg" width="175.307" height="203.938" viewBox="0 0 175.307 203.938">
  <g id="Group_138" data-name="Group 138" transform="translate(-1666.219 -705.256)">
    <g id="Group_22" data-name="Group 22" transform="translate(1669.649 755.523)">
      <g id="Group_20" data-name="Group 20" transform="translate(0 0)">
        <path id="Path_40" data-name="Path 40" d="M121.114,34.886c-.232.163-.566.169-.79.354-.32.266-.639.534-.95.794a13.116,13.116,0,0,1-2.488,1.554,21.5,21.5,0,0,0-2.465,1.425c-.2.141-.4.185-.616.313-.235.137-.431.343-.678.476-.53.285-1,.625-1.528.9a6.712,6.712,0,0,0-1.978,1.575c-.18.214-.425.371-.616.565a7.824,7.824,0,0,0-.64.6,5.772,5.772,0,0,0,.97-.467c.384-.191.745-.327,1.153-.492a10.012,10.012,0,0,1,1.491-.5c.356-.083,1.049-.142,1.25-.511-.071.092-.053.212-.115.3a2.669,2.669,0,0,1-.556.441,9.806,9.806,0,0,0-1.075.929,6.345,6.345,0,0,1-.827.7,10.66,10.66,0,0,0-1.123.826,4.084,4.084,0,0,1-.681.612c-.555.362-.985.883-1.554,1.223-.389.233-.736.517-1.11.775a8.56,8.56,0,0,0-.646.618,12.888,12.888,0,0,0-1.169.912,7.334,7.334,0,0,1-1.709,1.26c-1.482.83-2.991,1.638-4.461,2.5-.989.578-2.081.952-3.086,1.485-.512.272-.971.629-1.484.955a10.28,10.28,0,0,0-1.474,1.18A11.082,11.082,0,0,1,90.5,57.809c-1.282.774-2.541,1.528-3.809,2.309-.534.329-.952.874-1.511,1.157a5.944,5.944,0,0,0-.674.279c-.167.111-.284.3-.458.4-.125.075-.344.111-.484.184a3.744,3.744,0,0,1-.586.3,12.006,12.006,0,0,0-2.111.971c-1.691.936-3.552,1.549-5.295,2.377a19.01,19.01,0,0,0-2.235,1.378c-.737.485-1.543.925-2.268,1.424A14.354,14.354,0,0,1,69.3,69.75a3.534,3.534,0,0,0-.669.494c-.186.146-.552.184-.582.456.288.122.461-.066.727-.118.25-.048.493.014.743-.051.2-.052.468-.085.661-.156.3-.11.407-.451.783-.273a1.7,1.7,0,0,1-.534.3,7.326,7.326,0,0,0-.815.57,22.507,22.507,0,0,1-2.459,1.416c-.666.377-1.31.647-2,.975a8.692,8.692,0,0,0-.864.575c-.8.493-1.61,1.054-2.416,1.58a17.055,17.055,0,0,1-1.588,1.009A6.4,6.4,0,0,0,59,77.29c-.577.479-1.278.793-1.825,1.307a2.538,2.538,0,0,1-.654.579c-.145.066-.3.079-.443.154-.729.388-1.366,1.027-2.089,1.445a42.7,42.7,0,0,0-4.9,3.106c-.507.4-1.112.528-1.555,1.016a7.224,7.224,0,0,1-1.321,1.082c-.741.512-1.34,1.1-2.064,1.612a23.193,23.193,0,0,0-3.253,2.264c-.692.691-1.559,1.182-2.267,1.863-.469.451-1.01.758-1.457,1.242A8.6,8.6,0,0,1,35.84,94.08c-.778.559-1.493,1.23-2.262,1.818-.235.18-.514.3-.749.482-.287.22-.519.5-.817.705a3.627,3.627,0,0,0-.412.251c-.126.118-.192.282-.33.4s-.311.109-.429.212c-.149.129-.193.286-.346.422-.349.31-.782.476-1.124.821-.367.37-.793.567-1.16.914a2.133,2.133,0,0,1-.468.339,2.668,2.668,0,0,0-.4.322c-.252.2-.521.438-.782.621-.418.293-.846.626-1.289.875s-.972.439-1.42.695c-.163.093-.25.289-.43.331a3.231,3.231,0,0,0,.9-.329,21.415,21.415,0,0,1,2.738-.823,6.767,6.767,0,0,1,1.589-.352,11.124,11.124,0,0,1-1.454,1.272c-.243.21-.544.354-.8.545-.584.432-1.036,1.013-1.626,1.441a11.51,11.51,0,0,1-1.7,1.024c-.33.155-.635.385-.982.529a6.337,6.337,0,0,0-1.023.657c-.593.379-1.269.61-1.859,1-.488.319-.982.706-1.5.974a4.711,4.711,0,0,0-.832.447,4.533,4.533,0,0,1-.843.487c-.2.1-.32.291-.5.4-.244.152-.549.209-.8.347-.524.285-1.079.452-1.572.771a21.708,21.708,0,0,1-2.438,1.239,23.515,23.515,0,0,0-3.089,1.623c-.495.336-.959.685-1.477.977a16.6,16.6,0,0,1-2.234.931c-1.3.5-2.61.943-3.924,1.391L104.373,70.7l19.365-37.183a22.369,22.369,0,0,0-2.052.9,5.045,5.045,0,0,0-.573.471" transform="translate(0 -25.003)" fill="#6c3333"/>
        <path id="Path_41" data-name="Path 41" d="M2544.085,463.051l17.91-8.48-26.375,17.446,19.306-8.966-10.841,8.966,6.9-2.841s-7.283,9.911-8.883,10.624-2.313.886-2.745,1.881-.735.562-1.016,2.011.13,2.011-.865,3.027a67.822,67.822,0,0,0-4.6,5.188,52.079,52.079,0,0,1-6.053,6.637,50.822,50.822,0,0,0-4.756,4.756c-.865.994,2.464.281-2.875,2.875s-11.825,5.34-13.123,5.772-2.746,1.3-4.043,1.73-10.788,1.3-10.788,1.3,2.421-1.167-7.8,4.021a116.646,116.646,0,0,0-17.728,10.68c-1.427,1.146-34.741,17.727-34.741,17.727l29.423-17.727h-4.626s11.977-10.226,14.571-12.107,12.236-8.085,18.289-11.393,22.505-8.8,25.381-10.961,7.934-9.512,9.08-11.523a15.586,15.586,0,0,1,3.74-3.891l11.523-12.258Z" transform="translate(-2420.15 -454.571)" fill="#6c3333"/>
      </g>
      <g id="Group_21" data-name="Group 21" transform="translate(168.445 97.954) rotate(180)">
        <path id="Path_40-2" data-name="Path 40" d="M121.114,1.369c-.232.163-.566.169-.79.354-.32.266-.639.534-.95.794a13.116,13.116,0,0,1-2.488,1.554A21.5,21.5,0,0,0,114.421,5.5c-.2.141-.4.185-.616.313-.235.137-.431.343-.678.476-.53.285-1,.625-1.528.9a6.712,6.712,0,0,0-1.978,1.575c-.18.214-.425.371-.616.565a7.822,7.822,0,0,0-.64.6,5.773,5.773,0,0,0,.97-.467c.384-.191.745-.327,1.153-.492a10.012,10.012,0,0,1,1.491-.5c.356-.083,1.049-.142,1.25-.511-.071.092-.053.212-.115.3a2.669,2.669,0,0,1-.556.441,9.808,9.808,0,0,0-1.075.929,6.345,6.345,0,0,1-.827.7,10.66,10.66,0,0,0-1.123.826,4.084,4.084,0,0,1-.681.612c-.555.362-.985.883-1.554,1.223-.389.233-.736.517-1.11.775a8.561,8.561,0,0,0-.646.618,12.888,12.888,0,0,0-1.169.912,7.334,7.334,0,0,1-1.709,1.26c-1.482.83-2.991,1.638-4.461,2.5-.989.578-2.081.952-3.086,1.485-.512.272-.971.629-1.484.955a10.28,10.28,0,0,0-1.474,1.18A11.082,11.082,0,0,1,90.5,24.292c-1.282.774-2.541,1.528-3.809,2.309-.534.329-.952.874-1.511,1.157a5.944,5.944,0,0,0-.674.279c-.167.111-.284.3-.458.4-.125.075-.344.111-.484.184a3.744,3.744,0,0,1-.586.3,12.007,12.007,0,0,0-2.111.971c-1.691.936-3.552,1.549-5.295,2.377a19.012,19.012,0,0,0-2.235,1.378c-.737.485-1.543.925-2.268,1.424A14.353,14.353,0,0,1,69.3,36.233a3.534,3.534,0,0,0-.669.494c-.186.146-.552.184-.582.456.288.122.461-.066.727-.118.25-.048.493.014.743-.051.2-.052.468-.085.661-.156.3-.11.407-.451.783-.273a1.7,1.7,0,0,1-.534.3,7.325,7.325,0,0,0-.815.57,22.508,22.508,0,0,1-2.459,1.416c-.666.377-1.31.647-2,.975a8.692,8.692,0,0,0-.864.575c-.8.493-1.61,1.054-2.416,1.58a17.051,17.051,0,0,1-1.588,1.009A6.4,6.4,0,0,0,59,43.773c-.577.479-1.278.793-1.825,1.307a2.538,2.538,0,0,1-.654.579c-.145.066-.3.079-.443.154-.729.388-1.366,1.027-2.089,1.445a42.7,42.7,0,0,0-4.9,3.106c-.507.4-1.112.528-1.555,1.016a7.223,7.223,0,0,1-1.321,1.082c-.741.512-1.34,1.1-2.064,1.612a23.193,23.193,0,0,0-3.253,2.264c-.692.691-1.559,1.182-2.267,1.863-.469.452-1.01.758-1.457,1.242a8.6,8.6,0,0,1-1.327,1.119c-.778.559-1.493,1.23-2.262,1.818-.235.18-.514.3-.749.482-.287.22-.519.5-.817.705a3.629,3.629,0,0,0-.412.251c-.126.118-.192.282-.33.4s-.311.109-.429.212c-.149.129-.193.286-.346.422-.349.31-.782.476-1.124.821-.367.37-.793.567-1.16.914a2.133,2.133,0,0,1-.468.339,2.668,2.668,0,0,0-.4.322c-.252.2-.521.438-.782.621-.418.293-.846.626-1.289.875s-.972.439-1.42.695c-.163.093-.25.289-.43.331a3.23,3.23,0,0,0,.9-.329,21.42,21.42,0,0,1,2.738-.823,6.768,6.768,0,0,1,1.589-.352A11.122,11.122,0,0,1,27.2,69.538c-.243.21-.544.354-.8.545-.584.432-1.036,1.013-1.626,1.441a11.51,11.51,0,0,1-1.7,1.024c-.33.155-.635.385-.982.529a6.337,6.337,0,0,0-1.023.657c-.593.379-1.269.61-1.859,1-.488.319-.982.706-1.5.974a4.711,4.711,0,0,0-.832.447,4.532,4.532,0,0,1-.843.487c-.2.1-.32.291-.5.4-.244.152-.549.209-.8.347-.524.285-1.079.452-1.572.771A21.707,21.707,0,0,1,10.724,79.4a23.512,23.512,0,0,0-3.089,1.623c-.495.336-.959.685-1.477.977a16.6,16.6,0,0,1-2.234.931c-1.3.5-2.61.943-3.924,1.391L104.373,37.183,123.738,0a22.368,22.368,0,0,0-2.052.9,5.045,5.045,0,0,0-.573.471" transform="translate(0 8.514)" fill="#6c3333"/>
        <path id="Path_41-2" data-name="Path 41" d="M113.122,8.48,131.032,0,104.657,17.446,123.963,8.48l-10.841,8.966,6.9-2.841s-7.283,9.911-8.883,10.624-2.313.886-2.746,1.881-.735.562-1.016,2.011.13,2.011-.865,3.027a67.751,67.751,0,0,0-4.6,5.189,52.071,52.071,0,0,1-6.053,6.637A50.828,50.828,0,0,0,91.1,48.729c-.865.994,2.465.281-2.875,2.875S76.4,56.944,75.1,57.376s-2.746,1.3-4.043,1.729-10.788,1.3-10.788,1.3,2.421-1.167-7.8,4.021A116.64,116.64,0,0,0,34.741,75.1C33.315,76.25,0,92.831,0,92.831L29.423,75.1H24.8S36.774,64.878,39.368,63,51.6,54.912,57.657,51.6s22.505-8.8,25.381-10.961,7.934-9.512,9.08-11.523a15.587,15.587,0,0,1,3.74-3.891l11.523-12.258Z" transform="translate(10.813 0)" fill="#6c3333"/>
      </g>
    </g>
    <g id="Group_23" data-name="Group 23" transform="translate(1754.205 700.597) rotate(60)">
      <g id="Group_20-2" data-name="Group 20" transform="translate(0 0)">
        <path id="Path_40-3" data-name="Path 40" d="M132.551,1.5c-.253.178-.619.185-.864.388-.351.291-.7.584-1.04.869a14.354,14.354,0,0,1-2.723,1.7,23.535,23.535,0,0,0-2.7,1.559c-.221.154-.434.2-.674.343-.258.15-.472.375-.742.521-.58.312-1.091.684-1.672.989a7.346,7.346,0,0,0-2.165,1.724c-.2.234-.466.406-.674.618a8.561,8.561,0,0,0-.7.651,6.318,6.318,0,0,0,1.062-.511c.42-.209.815-.358,1.262-.538a10.957,10.957,0,0,1,1.632-.552c.389-.091,1.149-.155,1.368-.56-.077.1-.058.232-.126.331a2.921,2.921,0,0,1-.608.483,10.734,10.734,0,0,0-1.177,1.017,6.943,6.943,0,0,1-.9.764,11.669,11.669,0,0,0-1.229.9,4.47,4.47,0,0,1-.746.67c-.608.4-1.078.966-1.7,1.339-.426.255-.806.565-1.215.848a9.37,9.37,0,0,0-.708.676,14.106,14.106,0,0,0-1.279,1,8.026,8.026,0,0,1-1.871,1.379c-1.622.908-3.273,1.792-4.882,2.732-1.083.632-2.278,1.042-3.377,1.626-.561.3-1.063.688-1.624,1.045a11.25,11.25,0,0,0-1.614,1.292,12.129,12.129,0,0,1-1.818,1.782c-1.4.847-2.781,1.673-4.169,2.527-.585.36-1.042.956-1.654,1.266a6.506,6.506,0,0,0-.737.305c-.183.122-.311.323-.5.437-.137.082-.377.122-.529.2a4.1,4.1,0,0,1-.641.326,13.14,13.14,0,0,0-2.31,1.063c-1.85,1.024-3.887,1.7-5.795,2.6a20.8,20.8,0,0,0-2.446,1.508c-.807.531-1.689,1.012-2.483,1.559a15.708,15.708,0,0,1-1.941,1.275,3.868,3.868,0,0,0-.732.541c-.2.16-.6.2-.637.5.315.134.5-.073.8-.129.273-.053.54.015.814-.056.22-.057.512-.093.723-.171.327-.121.445-.494.857-.3a1.861,1.861,0,0,1-.584.33,8.019,8.019,0,0,0-.892.624,24.63,24.63,0,0,1-2.691,1.549c-.729.412-1.433.708-2.187,1.067a9.51,9.51,0,0,0-.946.63c-.871.54-1.762,1.153-2.644,1.73a18.665,18.665,0,0,1-1.738,1.1,7,7,0,0,0-1.411.833c-.632.524-1.4.868-2,1.431a2.777,2.777,0,0,1-.715.634c-.159.072-.329.086-.485.169-.8.424-1.5,1.124-2.286,1.582a46.73,46.73,0,0,0-5.364,3.4c-.554.433-1.217.578-1.7,1.112a7.906,7.906,0,0,1-1.445,1.184c-.811.56-1.466,1.208-2.259,1.764a25.383,25.383,0,0,0-3.56,2.478c-.757.757-1.706,1.293-2.481,2.039-.514.494-1.1.829-1.595,1.36a9.412,9.412,0,0,1-1.453,1.225c-.851.612-1.634,1.346-2.476,1.99-.257.2-.562.331-.82.528-.314.24-.568.546-.894.772a3.971,3.971,0,0,0-.451.275c-.138.129-.21.309-.362.436s-.34.12-.469.232c-.164.142-.212.313-.379.462-.382.34-.855.52-1.23.9-.4.4-.868.62-1.27,1a2.334,2.334,0,0,1-.512.371,2.92,2.92,0,0,0-.437.353c-.276.223-.57.479-.856.679-.457.32-.926.685-1.41.958s-1.064.48-1.554.761c-.178.1-.274.316-.47.362A3.536,3.536,0,0,0,26.62,76a23.44,23.44,0,0,1,3-.9,7.406,7.406,0,0,1,1.739-.385A12.174,12.174,0,0,1,29.765,76.1c-.266.23-.595.387-.877.6-.639.473-1.134,1.109-1.779,1.577A12.6,12.6,0,0,1,25.251,79.4c-.361.17-.694.421-1.074.579a6.937,6.937,0,0,0-1.12.719c-.649.414-1.388.667-2.034,1.089-.534.349-1.075.773-1.636,1.066a5.155,5.155,0,0,0-.91.489,4.961,4.961,0,0,1-.922.533c-.214.114-.351.318-.549.442-.267.167-.6.228-.879.379-.573.311-1.181.494-1.721.844a23.759,23.759,0,0,1-2.669,1.356A25.733,25.733,0,0,0,8.356,88.67c-.542.368-1.05.75-1.617,1.069a18.167,18.167,0,0,1-2.445,1.019C2.872,91.3,1.438,91.79,0,92.28L114.229,40.694,135.423,0a24.481,24.481,0,0,0-2.246.983,5.522,5.522,0,0,0-.627.516" transform="translate(0 9.318)" fill="#6c3333"/>
        <path id="Path_41-3" data-name="Path 41" d="M123.8,9.281,143.405,0,114.54,19.094l21.129-9.813L123.8,19.094l7.556-3.11s-7.971,10.847-9.722,11.628-2.532.97-3,2.058-.8.615-1.112,2.2.142,2.2-.947,3.313a74.207,74.207,0,0,0-5.039,5.678,57.013,57.013,0,0,1-6.625,7.264A55.618,55.618,0,0,0,99.7,53.33c-.946,1.088,2.7.308-3.147,3.147S83.616,62.321,82.2,62.795s-3,1.42-4.425,1.893-11.806,1.42-11.806,1.42,2.65-1.278-8.541,4.4S39.584,80.942,38.022,82.2,0,101.6,0,101.6L32.2,82.2H27.138S40.246,71,43.085,68.946,56.477,60.1,63.1,56.477s24.63-9.63,27.777-12,8.683-10.411,9.937-12.611a17.059,17.059,0,0,1,4.093-4.259L117.521,14.2Z" transform="translate(11.835 0)" fill="#6c3333"/>
      </g>
      <g id="Group_21-2" data-name="Group 21" transform="translate(184.352 107.204) rotate(180)">
        <path id="Path_40-4" data-name="Path 40" d="M132.551,1.5c-.253.178-.619.185-.864.388-.351.291-.7.584-1.04.869a14.355,14.355,0,0,1-2.723,1.7,23.535,23.535,0,0,0-2.7,1.559c-.221.154-.434.2-.674.343-.258.15-.472.375-.742.521-.58.312-1.091.684-1.672.989a7.346,7.346,0,0,0-2.165,1.724c-.2.234-.466.406-.674.618a8.562,8.562,0,0,0-.7.651,6.318,6.318,0,0,0,1.062-.511c.42-.209.815-.358,1.262-.538a10.957,10.957,0,0,1,1.632-.552c.389-.091,1.149-.155,1.368-.56-.077.1-.058.232-.126.331a2.921,2.921,0,0,1-.608.483,10.733,10.733,0,0,0-1.177,1.017,6.943,6.943,0,0,1-.9.764,11.669,11.669,0,0,0-1.229.9,4.47,4.47,0,0,1-.746.67c-.608.4-1.078.966-1.7,1.339-.426.255-.806.565-1.215.848a9.371,9.371,0,0,0-.708.676,14.106,14.106,0,0,0-1.279,1,8.027,8.027,0,0,1-1.871,1.379c-1.622.908-3.273,1.792-4.882,2.732-1.083.632-2.278,1.042-3.377,1.626-.561.3-1.063.688-1.624,1.045a11.25,11.25,0,0,0-1.614,1.292,12.129,12.129,0,0,1-1.818,1.782c-1.4.847-2.781,1.673-4.169,2.527-.585.36-1.042.956-1.654,1.266a6.5,6.5,0,0,0-.737.305c-.183.122-.311.323-.5.437-.137.082-.377.122-.529.2a4.1,4.1,0,0,1-.641.326,13.14,13.14,0,0,0-2.31,1.063c-1.85,1.024-3.887,1.7-5.795,2.6a20.806,20.806,0,0,0-2.446,1.508c-.807.531-1.689,1.012-2.483,1.559a15.707,15.707,0,0,1-1.941,1.275,3.868,3.868,0,0,0-.732.541c-.2.16-.6.2-.637.5.315.134.5-.073.8-.129.273-.053.54.015.814-.056.22-.057.512-.093.723-.171.327-.121.445-.494.857-.3a1.861,1.861,0,0,1-.584.33,8.018,8.018,0,0,0-.892.624,24.631,24.631,0,0,1-2.691,1.549c-.729.412-1.433.708-2.187,1.067a9.514,9.514,0,0,0-.946.63c-.871.54-1.762,1.153-2.644,1.73a18.664,18.664,0,0,1-1.738,1.1,7,7,0,0,0-1.411.833c-.632.524-1.4.868-2,1.431a2.777,2.777,0,0,1-.715.634c-.159.072-.329.086-.485.169-.8.424-1.5,1.124-2.286,1.582a46.732,46.732,0,0,0-5.364,3.4c-.554.433-1.217.578-1.7,1.112a7.905,7.905,0,0,1-1.445,1.184c-.811.56-1.466,1.208-2.259,1.764a25.383,25.383,0,0,0-3.56,2.478c-.757.757-1.706,1.293-2.481,2.039-.514.494-1.1.829-1.595,1.36a9.412,9.412,0,0,1-1.453,1.225c-.851.612-1.634,1.346-2.476,1.99-.257.2-.562.331-.82.528-.314.24-.568.546-.894.772a3.971,3.971,0,0,0-.451.275c-.138.129-.21.309-.362.436s-.34.12-.469.232c-.164.142-.212.313-.379.462-.382.34-.855.52-1.23.9-.4.4-.868.62-1.27,1a2.334,2.334,0,0,1-.512.371,2.921,2.921,0,0,0-.437.353c-.276.223-.57.479-.856.679-.457.32-.926.685-1.41.958s-1.064.48-1.555.761c-.178.1-.274.316-.47.362A3.536,3.536,0,0,0,26.62,76a23.444,23.444,0,0,1,3-.9,7.407,7.407,0,0,1,1.739-.385A12.172,12.172,0,0,1,29.765,76.1c-.266.23-.595.387-.877.6-.639.473-1.134,1.109-1.779,1.577A12.6,12.6,0,0,1,25.251,79.4c-.361.17-.694.421-1.074.579a6.936,6.936,0,0,0-1.12.719c-.649.414-1.388.667-2.034,1.089-.534.349-1.075.773-1.636,1.066a5.155,5.155,0,0,0-.91.489,4.96,4.96,0,0,1-.922.533c-.214.114-.351.318-.549.442-.267.167-.6.228-.879.379-.573.311-1.181.494-1.721.844a23.757,23.757,0,0,1-2.669,1.356A25.73,25.73,0,0,0,8.356,88.67c-.542.368-1.05.75-1.617,1.069a18.169,18.169,0,0,1-2.445,1.019C2.873,91.3,1.438,91.79,0,92.28L114.229,40.694,135.423,0a24.481,24.481,0,0,0-2.246.983,5.522,5.522,0,0,0-.627.516" transform="translate(0 9.318)" fill="#6c3333"/>
        <path id="Path_41-4" data-name="Path 41" d="M123.8,9.281,143.405,0,114.54,19.094l21.129-9.813L123.8,19.094l7.556-3.11s-7.971,10.847-9.722,11.628-2.532.97-3,2.058-.8.615-1.112,2.2.142,2.2-.946,3.312a74.148,74.148,0,0,0-5.04,5.678,56.988,56.988,0,0,1-6.625,7.264A55.627,55.627,0,0,0,99.7,53.33c-.946,1.088,2.7.308-3.147,3.147S83.616,62.321,82.2,62.795s-3,1.42-4.425,1.893-11.807,1.42-11.807,1.42,2.65-1.278-8.541,4.4S39.584,80.942,38.022,82.2,0,101.6,0,101.6L32.2,82.2H27.138S40.246,71,43.085,68.946,56.477,60.1,63.1,56.477s24.63-9.63,27.777-12,8.683-10.411,9.937-12.611a17.059,17.059,0,0,1,4.093-4.259L117.521,14.2Z" transform="translate(11.835 0)" fill="#6c3333"/>
      </g>
    </g>
  </g>
</svg>
