<svg width="272" height="97" viewBox="0 0 272 97" fill="none" xmlns="http://www.w3.org/2000/svg">
<path d="M1.98015 0.0954369C2.00574 0.0954369 2.02676 0.0741257 2.02676 0.0481817C2.02676 0.0213111 2.00574 0 1.98015 0C1.95364 0 1.93262 0.0213111 1.93262 0.0481817C1.93262 0.0741257 1.95364 0.0954369 1.98015 0.0954369Z" fill="#6C2A29"/>
<path d="M10.5056 0.0954369C10.5321 0.0954369 10.5531 0.0741257 10.5531 0.0481817C10.5531 0.0213111 10.5321 0 10.5056 0C10.4791 0 10.459 0.0213111 10.459 0.0481817C10.459 0.0741257 10.4791 0.0954369 10.5056 0.0954369Z" fill="#6C2A29"/>
<path d="M19.0319 0.0954369C19.0584 0.0954369 19.0794 0.0741257 19.0794 0.0481817C19.0794 0.0213111 19.0584 0 19.0319 0C19.0054 0 18.9844 0.0213111 18.9844 0.0481817C18.9844 0.0741257 19.0054 0.0954369 19.0319 0.0954369Z" fill="#6C2A29"/>
<path d="M27.5573 0.0954369C27.5838 0.0954369 27.6039 0.0741257 27.6039 0.0481817C27.6039 0.0213111 27.5838 0 27.5573 0C27.5308 0 27.5098 0.0213111 27.5098 0.0481817C27.5098 0.0741257 27.5308 0.0954369 27.5573 0.0954369Z" fill="#6C2A29"/>
<path d="M36.0837 0.0954369C36.1102 0.0954369 36.1313 0.0741257 36.1313 0.0481817C36.1313 0.0213111 36.1102 0 36.0837 0C36.0581 0 36.0371 0.0213111 36.0371 0.0481817C36.0371 0.0741257 36.0581 0.0954369 36.0837 0.0954369Z" fill="#6C2A29"/>
<path d="M44.61 0.0954369C44.6365 0.0954369 44.6576 0.0741257 44.6576 0.0481817C44.6576 0.0213111 44.6365 0 44.61 0C44.5835 0 44.5625 0.0213111 44.5625 0.0481817C44.5625 0.0741257 44.5835 0.0954369 44.61 0.0954369Z" fill="#6C2A29"/>
<path d="M53.1354 0.0954369C53.1619 0.0954369 53.1829 0.0741257 53.1829 0.0481817C53.1829 0.0213111 53.1619 0 53.1354 0C53.1089 0 53.0879 0.0213111 53.0879 0.0481817C53.0879 0.0741257 53.1089 0.0954369 53.1354 0.0954369Z" fill="#6C2A29"/>
<path d="M61.6618 0.0954369C61.6883 0.0954369 61.7093 0.0741257 61.7093 0.0481817C61.7093 0.0213111 61.6883 0 61.6618 0C61.6353 0 61.6143 0.0213111 61.6143 0.0481817C61.6143 0.0741257 61.6353 0.0954369 61.6618 0.0954369Z" fill="#6C2A29"/>
<path d="M70.1882 0.0954369C70.2137 0.0954369 70.2348 0.0741257 70.2348 0.0481817C70.2348 0.0213111 70.2137 0 70.1882 0C70.1617 0 70.1406 0.0213111 70.1406 0.0481817C70.1406 0.0741257 70.1617 0.0954369 70.1882 0.0954369Z" fill="#6C2A29"/>
<path d="M78.7136 0.0954369C78.7401 0.0954369 78.7611 0.0741257 78.7611 0.0481817C78.7611 0.0213111 78.7401 0 78.7136 0C78.6871 0 78.667 0.0213111 78.667 0.0481817C78.667 0.0741257 78.6871 0.0954369 78.7136 0.0954369Z" fill="#6C2A29"/>
<path d="M87.2389 0.0954369C87.2654 0.0954369 87.2865 0.0741257 87.2865 0.0481817C87.2865 0.0213111 87.2654 0 87.2389 0C87.2124 0 87.1914 0.0213111 87.1914 0.0481817C87.1914 0.0741257 87.2124 0.0954369 87.2389 0.0954369Z" fill="#6C2A29"/>
<path d="M95.7653 0.0954369C95.7918 0.0954369 95.8119 0.0741257 95.8119 0.0481817C95.8119 0.0213111 95.7918 0 95.7653 0C95.7388 0 95.7178 0.0213111 95.7178 0.0481817C95.7178 0.0741257 95.7388 0.0954369 95.7653 0.0954369Z" fill="#6C2A29"/>
<path d="M104.291 0.0954369C104.317 0.0954369 104.338 0.0741257 104.338 0.0481817C104.338 0.0213111 104.317 0 104.291 0C104.265 0 104.244 0.0213111 104.244 0.0481817C104.244 0.0741257 104.265 0.0954369 104.291 0.0954369Z" fill="#6C2A29"/>
<path d="M112.817 0.0954369C112.844 0.0954369 112.865 0.0741257 112.865 0.0481817C112.865 0.0213111 112.844 0 112.817 0C112.791 0 112.77 0.0213111 112.77 0.0481817C112.77 0.0741257 112.791 0.0954369 112.817 0.0954369Z" fill="#6C2A29"/>
<path d="M121.343 0.0954369C121.369 0.0954369 121.391 0.0741257 121.391 0.0481817C121.391 0.0213111 121.369 0 121.343 0C121.318 0 121.296 0.0213111 121.296 0.0481817C121.296 0.0741257 121.318 0.0954369 121.343 0.0954369Z" fill="#6C2A29"/>
<path d="M129.869 0.0954369C129.895 0.0954369 129.917 0.0741257 129.917 0.0481817C129.917 0.0213111 129.895 0 129.869 0C129.843 0 129.822 0.0213111 129.822 0.0481817C129.822 0.0741257 129.843 0.0954369 129.869 0.0954369Z" fill="#6C2A29"/>
<path d="M138.394 0.0954369C138.421 0.0954369 138.443 0.0741257 138.443 0.0481817C138.443 0.0213111 138.421 0 138.394 0C138.369 0 138.347 0.0213111 138.347 0.0481817C138.347 0.0741257 138.369 0.0954369 138.394 0.0954369Z" fill="#6C2A29"/>
<path d="M146.921 0.0954369C146.947 0.0954369 146.969 0.0741257 146.969 0.0481817C146.969 0.0213111 146.947 0 146.921 0C146.895 0 146.873 0.0213111 146.873 0.0481817C146.873 0.0741257 146.895 0.0954369 146.921 0.0954369Z" fill="#6C2A29"/>
<path d="M155.446 0.0954369C155.472 0.0954369 155.494 0.0741257 155.494 0.0481817C155.494 0.0213111 155.472 0 155.446 0C155.42 0 155.398 0.0213111 155.398 0.0481817C155.398 0.0741257 155.42 0.0954369 155.446 0.0954369Z" fill="#6C2A29"/>
<path d="M163.972 0.0954369C163.998 0.0954369 164.02 0.0741257 164.02 0.0481817C164.02 0.0213111 163.998 0 163.972 0C163.946 0 163.924 0.0213111 163.924 0.0481817C163.924 0.0741257 163.946 0.0954369 163.972 0.0954369Z" fill="#6C2A29"/>
<path d="M172.499 0.0954369C172.525 0.0954369 172.547 0.0741257 172.547 0.0481817C172.547 0.0213111 172.525 0 172.499 0C172.473 0 172.451 0.0213111 172.451 0.0481817C172.451 0.0741257 172.473 0.0954369 172.499 0.0954369Z" fill="#6C2A29"/>
<path d="M181.025 0.0954369C181.052 0.0954369 181.074 0.0741257 181.074 0.0481817C181.074 0.0213111 181.052 0 181.025 0C180.999 0 180.978 0.0213111 180.978 0.0481817C180.978 0.0741257 180.999 0.0954369 181.025 0.0954369Z" fill="#6C2A29"/>
<path d="M189.551 0.0954369C189.578 0.0954369 189.599 0.0741257 189.599 0.0481817C189.599 0.0213111 189.578 0 189.551 0C189.525 0 189.504 0.0213111 189.504 0.0481817C189.504 0.0741257 189.525 0.0954369 189.551 0.0954369Z" fill="#6C2A29"/>
<path d="M198.076 0.0954369C198.102 0.0954369 198.124 0.0741257 198.124 0.0481817C198.124 0.0213111 198.102 0 198.076 0C198.05 0 198.028 0.0213111 198.028 0.0481817C198.028 0.0741257 198.05 0.0954369 198.076 0.0954369Z" fill="#6C2A29"/>
<path d="M206.602 0.0954369C206.629 0.0954369 206.651 0.0741257 206.651 0.0481817C206.651 0.0213111 206.629 0 206.602 0C206.577 0 206.555 0.0213111 206.555 0.0481817C206.555 0.0741257 206.577 0.0954369 206.602 0.0954369Z" fill="#6C2A29"/>
<path d="M215.128 0.0954369C215.154 0.0954369 215.176 0.0741257 215.176 0.0481817C215.176 0.0213111 215.154 0 215.128 0C215.102 0 215.08 0.0213111 215.08 0.0481817C215.08 0.0741257 215.102 0.0954369 215.128 0.0954369Z" fill="#6C2A29"/>
<path d="M223.653 0.0954369C223.68 0.0954369 223.701 0.0741257 223.701 0.0481817C223.701 0.0213111 223.68 0 223.653 0C223.627 0 223.605 0.0213111 223.605 0.0481817C223.605 0.0741257 223.627 0.0954369 223.653 0.0954369Z" fill="#6C2A29"/>
<path d="M232.18 0.0954369C232.207 0.0954369 232.229 0.0741257 232.229 0.0481817C232.229 0.0213111 232.207 0 232.18 0C232.155 0 232.133 0.0213111 232.133 0.0481817C232.133 0.0741257 232.155 0.0954369 232.18 0.0954369Z" fill="#6C2A29"/>
<path d="M240.707 0.0954369C240.733 0.0954369 240.755 0.0741257 240.755 0.0481817C240.755 0.0213111 240.733 0 240.707 0C240.681 0 240.659 0.0213111 240.659 0.0481817C240.659 0.0741257 240.681 0.0954369 240.707 0.0954369Z" fill="#6C2A29"/>
<path d="M249.233 0.0954369C249.26 0.0954369 249.281 0.0741257 249.281 0.0481817C249.281 0.0213111 249.26 0 249.233 0C249.207 0 249.186 0.0213111 249.186 0.0481817C249.186 0.0741257 249.207 0.0954369 249.233 0.0954369Z" fill="#6C2A29"/>
<path d="M257.758 0.0954369C257.784 0.0954369 257.806 0.0741257 257.806 0.0481817C257.806 0.0213111 257.784 0 257.758 0C257.733 0 257.711 0.0213111 257.711 0.0481817C257.711 0.0741257 257.733 0.0954369 257.758 0.0954369Z" fill="#6C2A29"/>
<path d="M266.283 0.0954369C266.309 0.0954369 266.331 0.0741257 266.331 0.0481817C266.331 0.0213111 266.309 0 266.283 0C266.257 0 266.236 0.0213111 266.236 0.0481817C266.236 0.0741257 266.257 0.0954369 266.283 0.0954369Z" fill="#6C2A29"/>
<path d="M6.24317 8.83486C6.32087 8.83486 6.38485 8.77 6.38485 8.69031C6.38485 8.61155 6.32087 8.54669 6.24317 8.54669C6.16457 8.54669 6.10059 8.61155 6.10059 8.69031C6.10059 8.77 6.16457 8.83486 6.24317 8.83486Z" fill="#6C2A29"/>
<path d="M14.7686 8.83486C14.8463 8.83486 14.9103 8.77 14.9103 8.69031C14.9103 8.61155 14.8463 8.54669 14.7686 8.54669C14.6909 8.54669 14.627 8.61155 14.627 8.69031C14.627 8.77 14.6909 8.83486 14.7686 8.83486Z" fill="#6C2A29"/>
<path d="M23.295 8.83486C23.3736 8.83486 23.4367 8.77 23.4367 8.69031C23.4367 8.61155 23.3736 8.54669 23.295 8.54669C23.2173 8.54669 23.1533 8.61155 23.1533 8.69031C23.1533 8.77 23.2173 8.83486 23.295 8.83486Z" fill="#6C2A29"/>
<path d="M31.8203 8.83486C31.898 8.83486 31.962 8.77 31.962 8.69031C31.962 8.61155 31.898 8.54669 31.8203 8.54669C31.7426 8.54669 31.6777 8.61155 31.6777 8.69031C31.6777 8.77 31.7426 8.83486 31.8203 8.83486Z" fill="#6C2A29"/>
<path d="M40.3468 8.83486C40.4254 8.83486 40.4884 8.77 40.4884 8.69031C40.4884 8.61155 40.4254 8.54669 40.3468 8.54669C40.2691 8.54669 40.2051 8.61155 40.2051 8.69031C40.2051 8.77 40.2691 8.83486 40.3468 8.83486Z" fill="#6C2A29"/>
<path d="M48.8721 8.83486C48.9507 8.83486 49.0138 8.77 49.0138 8.69031C49.0138 8.61155 48.9507 8.54669 48.8721 8.54669C48.7944 8.54669 48.7305 8.61155 48.7305 8.69031C48.7305 8.77 48.7944 8.83486 48.8721 8.83486Z" fill="#6C2A29"/>
<path d="M57.3985 8.83486C57.4762 8.83486 57.5402 8.77 57.5402 8.69031C57.5402 8.61155 57.4762 8.54669 57.3985 8.54669C57.3208 8.54669 57.2568 8.61155 57.2568 8.69031C57.2568 8.77 57.3208 8.83486 57.3985 8.83486Z" fill="#6C2A29"/>
<path d="M65.9249 8.83486C66.0026 8.83486 66.0665 8.77 66.0665 8.69031C66.0665 8.61155 66.0026 8.54669 65.9249 8.54669C65.8463 8.54669 65.7832 8.61155 65.7832 8.69031C65.7832 8.77 65.8463 8.83486 65.9249 8.83486Z" fill="#6C2A29"/>
<path d="M74.4512 8.83486C74.5289 8.83486 74.5929 8.77 74.5929 8.69031C74.5929 8.61155 74.5289 8.54669 74.4512 8.54669C74.3726 8.54669 74.3086 8.61155 74.3086 8.69031C74.3086 8.77 74.3726 8.83486 74.4512 8.83486Z" fill="#6C2A29"/>
<path d="M82.9766 8.83486C83.0543 8.83486 83.1183 8.77 83.1183 8.69031C83.1183 8.61155 83.0543 8.54669 82.9766 8.54669C82.8989 8.54669 82.835 8.61155 82.835 8.69031C82.835 8.77 82.8989 8.83486 82.9766 8.83486Z" fill="#6C2A29"/>
<path d="M91.503 8.83486C91.5807 8.83486 91.6447 8.77 91.6447 8.69031C91.6447 8.61155 91.5807 8.54669 91.503 8.54669C91.4253 8.54669 91.3613 8.61155 91.3613 8.69031C91.3613 8.77 91.4253 8.83486 91.503 8.83486Z" fill="#6C2A29"/>
<path d="M100.028 8.83486C100.106 8.83486 100.17 8.77 100.17 8.69031C100.17 8.61155 100.106 8.54669 100.028 8.54669C99.9506 8.54669 99.8857 8.61155 99.8857 8.69031C99.8857 8.77 99.9506 8.83486 100.028 8.83486Z" fill="#6C2A29"/>
<path d="M108.554 8.83486C108.632 8.83486 108.695 8.77 108.695 8.69031C108.695 8.61155 108.632 8.54669 108.554 8.54669C108.476 8.54669 108.412 8.61155 108.412 8.69031C108.412 8.77 108.476 8.83486 108.554 8.83486Z" fill="#6C2A29"/>
<path d="M117.079 8.83486C117.159 8.83486 117.222 8.77 117.222 8.69031C117.222 8.61155 117.159 8.54669 117.079 8.54669C117.002 8.54669 116.938 8.61155 116.938 8.69031C116.938 8.77 117.002 8.83486 117.079 8.83486Z" fill="#6C2A29"/>
<path d="M125.606 8.83486C125.684 8.83486 125.748 8.77 125.748 8.69031C125.748 8.61155 125.684 8.54669 125.606 8.54669C125.528 8.54669 125.465 8.61155 125.465 8.69031C125.465 8.77 125.528 8.83486 125.606 8.83486Z" fill="#6C2A29"/>
<path d="M134.131 8.83486C134.21 8.83486 134.274 8.77 134.274 8.69031C134.274 8.61155 134.21 8.54669 134.131 8.54669C134.053 8.54669 133.99 8.61155 133.99 8.69031C133.99 8.77 134.053 8.83486 134.131 8.83486Z" fill="#6C2A29"/>
<path d="M142.657 8.83486C142.736 8.83486 142.8 8.77 142.8 8.69031C142.8 8.61155 142.736 8.54669 142.657 8.54669C142.58 8.54669 142.517 8.61155 142.517 8.69031C142.517 8.77 142.58 8.83486 142.657 8.83486Z" fill="#6C2A29"/>
<path d="M151.184 8.83486C151.262 8.83486 151.326 8.77 151.326 8.69031C151.326 8.61155 151.262 8.54669 151.184 8.54669C151.106 8.54669 151.043 8.61155 151.043 8.69031C151.043 8.77 151.106 8.83486 151.184 8.83486Z" fill="#6C2A29"/>
<path d="M159.709 8.83486C159.788 8.83486 159.852 8.77 159.852 8.69031C159.852 8.61155 159.788 8.54669 159.709 8.54669C159.631 8.54669 159.567 8.61155 159.567 8.69031C159.567 8.77 159.631 8.83486 159.709 8.83486Z" fill="#6C2A29"/>
<path d="M168.235 8.83486C168.314 8.83486 168.377 8.77 168.377 8.69031C168.377 8.61155 168.314 8.54669 168.235 8.54669C168.158 8.54669 168.094 8.61155 168.094 8.69031C168.094 8.77 168.158 8.83486 168.235 8.83486Z" fill="#6C2A29"/>
<path d="M176.762 8.83486C176.84 8.83486 176.903 8.77 176.903 8.69031C176.903 8.61155 176.84 8.54669 176.762 8.54669C176.684 8.54669 176.62 8.61155 176.62 8.69031C176.62 8.77 176.684 8.83486 176.762 8.83486Z" fill="#6C2A29"/>
<path d="M185.288 8.83486C185.367 8.83486 185.43 8.77 185.43 8.69031C185.43 8.61155 185.367 8.54669 185.288 8.54669C185.21 8.54669 185.146 8.61155 185.146 8.69031C185.146 8.77 185.21 8.83486 185.288 8.83486Z" fill="#6C2A29"/>
<path d="M193.813 8.83486C193.892 8.83486 193.955 8.77 193.955 8.69031C193.955 8.61155 193.892 8.54669 193.813 8.54669C193.735 8.54669 193.672 8.61155 193.672 8.69031C193.672 8.77 193.735 8.83486 193.813 8.83486Z" fill="#6C2A29"/>
<path d="M202.339 8.83486C202.418 8.83486 202.482 8.77 202.482 8.69031C202.482 8.61155 202.418 8.54669 202.339 8.54669C202.261 8.54669 202.198 8.61155 202.198 8.69031C202.198 8.77 202.261 8.83486 202.339 8.83486Z" fill="#6C2A29"/>
<path d="M210.865 8.83486C210.944 8.83486 211.008 8.77 211.008 8.69031C211.008 8.61155 210.944 8.54669 210.865 8.54669C210.788 8.54669 210.725 8.61155 210.725 8.69031C210.725 8.77 210.788 8.83486 210.865 8.83486Z" fill="#6C2A29"/>
<path d="M219.391 8.83486C219.469 8.83486 219.533 8.77 219.533 8.69031C219.533 8.61155 219.469 8.54669 219.391 8.54669C219.313 8.54669 219.249 8.61155 219.249 8.69031C219.249 8.77 219.313 8.83486 219.391 8.83486Z" fill="#6C2A29"/>
<path d="M227.918 8.83486C227.997 8.83486 228.06 8.77 228.06 8.69031C228.06 8.61155 227.997 8.54669 227.918 8.54669C227.839 8.54669 227.775 8.61155 227.775 8.69031C227.775 8.77 227.839 8.83486 227.918 8.83486Z" fill="#6C2A29"/>
<path d="M236.443 8.83486C236.522 8.83486 236.585 8.77 236.585 8.69031C236.585 8.61155 236.522 8.54669 236.443 8.54669C236.366 8.54669 236.302 8.61155 236.302 8.69031C236.302 8.77 236.366 8.83486 236.443 8.83486Z" fill="#6C2A29"/>
<path d="M244.97 8.83486C245.048 8.83486 245.111 8.77 245.111 8.69031C245.111 8.61155 245.048 8.54669 244.97 8.54669C244.892 8.54669 244.828 8.61155 244.828 8.69031C244.828 8.77 244.892 8.83486 244.97 8.83486Z" fill="#6C2A29"/>
<path d="M253.494 8.83486C253.574 8.83486 253.637 8.77 253.637 8.69031C253.637 8.61155 253.574 8.54669 253.494 8.54669C253.418 8.54669 253.354 8.61155 253.354 8.69031C253.354 8.77 253.418 8.83486 253.494 8.83486Z" fill="#6C2A29"/>
<path d="M262.021 8.83486C262.099 8.83486 262.163 8.77 262.163 8.69031C262.163 8.61155 262.099 8.54669 262.021 8.54669C261.943 8.54669 261.88 8.61155 261.88 8.69031C261.88 8.77 261.943 8.83486 262.021 8.83486Z" fill="#6C2A29"/>
<path d="M270.547 8.83486C270.626 8.83486 270.69 8.77 270.69 8.69031C270.69 8.61155 270.626 8.54669 270.547 8.54669C270.469 8.54669 270.406 8.61155 270.406 8.69031C270.406 8.77 270.469 8.83486 270.547 8.83486Z" fill="#6C2A29"/>
<path d="M1.98022 17.5975C2.12372 17.5975 2.2398 17.4798 2.2398 17.3334C2.2398 17.1879 2.12372 17.0703 1.98022 17.0703C1.83581 17.0703 1.71973 17.1879 1.71973 17.3334C1.71973 17.4798 1.83581 17.5975 1.98022 17.5975Z" fill="#6C2A29"/>
<path d="M10.5057 17.5975C10.6501 17.5975 10.7662 17.4798 10.7662 17.3334C10.7662 17.1879 10.6501 17.0703 10.5057 17.0703C10.3622 17.0703 10.2461 17.1879 10.2461 17.3334C10.2461 17.4798 10.3622 17.5975 10.5057 17.5975Z" fill="#6C2A29"/>
<path d="M19.032 17.5975C19.1764 17.5975 19.2925 17.4798 19.2925 17.3334C19.2925 17.1879 19.1764 17.0703 19.032 17.0703C18.8885 17.0703 18.7715 17.1879 18.7715 17.3334C18.7715 17.4798 18.8885 17.5975 19.032 17.5975Z" fill="#6C2A29"/>
<path d="M27.5574 17.5975C27.7009 17.5975 27.8169 17.4798 27.8169 17.3334C27.8169 17.1879 27.7009 17.0703 27.5574 17.0703C27.413 17.0703 27.2969 17.1879 27.2969 17.3334C27.2969 17.4798 27.413 17.5975 27.5574 17.5975Z" fill="#6C2A29"/>
<path d="M36.0838 17.5975C36.2282 17.5975 36.3443 17.4798 36.3443 17.3334C36.3443 17.1879 36.2282 17.0703 36.0838 17.0703C35.9403 17.0703 35.8242 17.1879 35.8242 17.3334C35.8242 17.4798 35.9403 17.5975 36.0838 17.5975Z" fill="#6C2A29"/>
<path d="M44.6092 17.5975C44.7527 17.5975 44.8697 17.4798 44.8697 17.3334C44.8697 17.1879 44.7527 17.0703 44.6092 17.0703C44.4657 17.0703 44.3496 17.1879 44.3496 17.3334C44.3496 17.4798 44.4657 17.5975 44.6092 17.5975Z" fill="#6C2A29"/>
<path d="M53.1356 17.5975C53.2791 17.5975 53.3951 17.4798 53.3951 17.3334C53.3951 17.1879 53.2791 17.0703 53.1356 17.0703C52.9921 17.0703 52.876 17.1879 52.876 17.3334C52.876 17.4798 52.9921 17.5975 53.1356 17.5975Z" fill="#6C2A29"/>
<path d="M61.6619 17.5975C61.8054 17.5975 61.9214 17.4798 61.9214 17.3334C61.9214 17.1879 61.8054 17.0703 61.6619 17.0703C61.5184 17.0703 61.4014 17.1879 61.4014 17.3334C61.4014 17.4798 61.5184 17.5975 61.6619 17.5975Z" fill="#6C2A29"/>
<path d="M70.1882 17.5975C70.3317 17.5975 70.4478 17.4798 70.4478 17.3334C70.4478 17.1879 70.3317 17.0703 70.1882 17.0703C70.0438 17.0703 69.9277 17.1879 69.9277 17.3334C69.9277 17.4798 70.0438 17.5975 70.1882 17.5975Z" fill="#6C2A29"/>
<path d="M78.7137 17.5975C78.8581 17.5975 78.9742 17.4798 78.9742 17.3334C78.9742 17.1879 78.8581 17.0703 78.7137 17.0703C78.5702 17.0703 78.4541 17.1879 78.4541 17.3334C78.4541 17.4798 78.5702 17.5975 78.7137 17.5975Z" fill="#6C2A29"/>
<path d="M87.239 17.5975C87.3825 17.5975 87.4995 17.4798 87.4995 17.3334C87.4995 17.1879 87.3825 17.0703 87.239 17.0703C87.0955 17.0703 86.9785 17.1879 86.9785 17.3334C86.9785 17.4798 87.0955 17.5975 87.239 17.5975Z" fill="#6C2A29"/>
<path d="M95.7654 17.5975C95.9089 17.5975 96.025 17.4798 96.025 17.3334C96.025 17.1879 95.9089 17.0703 95.7654 17.0703C95.621 17.0703 95.5049 17.1879 95.5049 17.3334C95.5049 17.4798 95.621 17.5975 95.7654 17.5975Z" fill="#6C2A29"/>
<path d="M104.291 17.5975C104.435 17.5975 104.551 17.4798 104.551 17.3334C104.551 17.1879 104.435 17.0703 104.291 17.0703C104.147 17.0703 104.031 17.1879 104.031 17.3334C104.031 17.4798 104.147 17.5975 104.291 17.5975Z" fill="#6C2A29"/>
<path d="M112.817 17.5975C112.961 17.5975 113.078 17.4798 113.078 17.3334C113.078 17.1879 112.961 17.0703 112.817 17.0703C112.674 17.0703 112.557 17.1879 112.557 17.3334C112.557 17.4798 112.674 17.5975 112.817 17.5975Z" fill="#6C2A29"/>
<path d="M121.343 17.5975C121.487 17.5975 121.604 17.4798 121.604 17.3334C121.604 17.1879 121.487 17.0703 121.343 17.0703C121.2 17.0703 121.083 17.1879 121.083 17.3334C121.083 17.4798 121.2 17.5975 121.343 17.5975Z" fill="#6C2A29"/>
<path d="M129.869 17.5975C130.013 17.5975 130.13 17.4798 130.13 17.3334C130.13 17.1879 130.013 17.0703 129.869 17.0703C129.726 17.0703 129.609 17.1879 129.609 17.3334C129.609 17.4798 129.726 17.5975 129.869 17.5975Z" fill="#6C2A29"/>
<path d="M138.394 17.5975C138.539 17.5975 138.655 17.4798 138.655 17.3334C138.655 17.1879 138.539 17.0703 138.394 17.0703C138.252 17.0703 138.135 17.1879 138.135 17.3334C138.135 17.4798 138.252 17.5975 138.394 17.5975Z" fill="#6C2A29"/>
<path d="M146.92 17.5975C147.064 17.5975 147.18 17.4798 147.18 17.3334C147.18 17.1879 147.064 17.0703 146.92 17.0703C146.777 17.0703 146.66 17.1879 146.66 17.3334C146.66 17.4798 146.777 17.5975 146.92 17.5975Z" fill="#6C2A29"/>
<path d="M155.446 17.5975C155.591 17.5975 155.707 17.4798 155.707 17.3334C155.707 17.1879 155.591 17.0703 155.446 17.0703C155.303 17.0703 155.187 17.1879 155.187 17.3334C155.187 17.4798 155.303 17.5975 155.446 17.5975Z" fill="#6C2A29"/>
<path d="M163.973 17.5975C164.117 17.5975 164.233 17.4798 164.233 17.3334C164.233 17.1879 164.117 17.0703 163.973 17.0703C163.829 17.0703 163.713 17.1879 163.713 17.3334C163.713 17.4798 163.829 17.5975 163.973 17.5975Z" fill="#6C2A29"/>
<path d="M172.499 17.5975C172.642 17.5975 172.759 17.4798 172.759 17.3334C172.759 17.1879 172.642 17.0703 172.499 17.0703C172.355 17.0703 172.238 17.1879 172.238 17.3334C172.238 17.4798 172.355 17.5975 172.499 17.5975Z" fill="#6C2A29"/>
<path d="M181.025 17.5975C181.169 17.5975 181.286 17.4798 181.286 17.3334C181.286 17.1879 181.169 17.0703 181.025 17.0703C180.882 17.0703 180.765 17.1879 180.765 17.3334C180.765 17.4798 180.882 17.5975 181.025 17.5975Z" fill="#6C2A29"/>
<path d="M189.552 17.5975C189.695 17.5975 189.812 17.4798 189.812 17.3334C189.812 17.1879 189.695 17.0703 189.552 17.0703C189.408 17.0703 189.291 17.1879 189.291 17.3334C189.291 17.4798 189.408 17.5975 189.552 17.5975Z" fill="#6C2A29"/>
<path d="M198.076 17.5975C198.22 17.5975 198.337 17.4798 198.337 17.3334C198.337 17.1879 198.22 17.0703 198.076 17.0703C197.933 17.0703 197.816 17.1879 197.816 17.3334C197.816 17.4798 197.933 17.5975 198.076 17.5975Z" fill="#6C2A29"/>
<path d="M206.601 17.5975C206.746 17.5975 206.863 17.4798 206.863 17.3334C206.863 17.1879 206.746 17.0703 206.601 17.0703C206.459 17.0703 206.342 17.1879 206.342 17.3334C206.342 17.4798 206.459 17.5975 206.601 17.5975Z" fill="#6C2A29"/>
<path d="M215.128 17.5975C215.272 17.5975 215.388 17.4798 215.388 17.3334C215.388 17.1879 215.272 17.0703 215.128 17.0703C214.984 17.0703 214.868 17.1879 214.868 17.3334C214.868 17.4798 214.984 17.5975 215.128 17.5975Z" fill="#6C2A29"/>
<path d="M223.654 17.5975C223.799 17.5975 223.915 17.4798 223.915 17.3334C223.915 17.1879 223.799 17.0703 223.654 17.0703C223.511 17.0703 223.395 17.1879 223.395 17.3334C223.395 17.4798 223.511 17.5975 223.654 17.5975Z" fill="#6C2A29"/>
<path d="M232.18 17.5975C232.324 17.5975 232.441 17.4798 232.441 17.3334C232.441 17.1879 232.324 17.0703 232.18 17.0703C232.037 17.0703 231.921 17.1879 231.921 17.3334C231.921 17.4798 232.037 17.5975 232.18 17.5975Z" fill="#6C2A29"/>
<path d="M240.707 17.5975C240.85 17.5975 240.967 17.4798 240.967 17.3334C240.967 17.1879 240.85 17.0703 240.707 17.0703C240.563 17.0703 240.447 17.1879 240.447 17.3334C240.447 17.4798 240.563 17.5975 240.707 17.5975Z" fill="#6C2A29"/>
<path d="M249.233 17.5975C249.377 17.5975 249.494 17.4798 249.494 17.3334C249.494 17.1879 249.377 17.0703 249.233 17.0703C249.09 17.0703 248.973 17.1879 248.973 17.3334C248.973 17.4798 249.09 17.5975 249.233 17.5975Z" fill="#6C2A29"/>
<path d="M257.758 17.5975C257.902 17.5975 258.019 17.4798 258.019 17.3334C258.019 17.1879 257.902 17.0703 257.758 17.0703C257.615 17.0703 257.498 17.1879 257.498 17.3334C257.498 17.4798 257.615 17.5975 257.758 17.5975Z" fill="#6C2A29"/>
<path d="M266.283 17.5975C266.427 17.5975 266.544 17.4798 266.544 17.3334C266.544 17.1879 266.427 17.0703 266.283 17.0703C266.14 17.0703 266.023 17.1879 266.023 17.3334C266.023 17.4798 266.14 17.5975 266.283 17.5975Z" fill="#6C2A29"/>
<path d="M6.24364 26.36C6.45295 26.36 6.62204 26.1886 6.62204 25.9774C6.62204 25.7652 6.45295 25.5938 6.24364 25.5938C6.03433 25.5938 5.86523 25.7652 5.86523 25.9774C5.86523 26.1886 6.03433 26.36 6.24364 26.36Z" fill="#6C2A29"/>
<path d="M14.769 26.36C14.9783 26.36 15.1474 26.1886 15.1474 25.9774C15.1474 25.7652 14.9783 25.5938 14.769 25.5938C14.5597 25.5938 14.3906 25.7652 14.3906 25.9774C14.3906 26.1886 14.5597 26.36 14.769 26.36Z" fill="#6C2A29"/>
<path d="M23.2944 26.36C23.5037 26.36 23.6728 26.1886 23.6728 25.9774C23.6728 25.7652 23.5037 25.5938 23.2944 25.5938C23.0851 25.5938 22.916 25.7652 22.916 25.9774C22.916 26.1886 23.0851 26.36 23.2944 26.36Z" fill="#6C2A29"/>
<path d="M31.8208 26.36C32.0301 26.36 32.1992 26.1886 32.1992 25.9774C32.1992 25.7652 32.0301 25.5938 31.8208 25.5938C31.6115 25.5938 31.4424 25.7652 31.4424 25.9774C31.4424 26.1886 31.6115 26.36 31.8208 26.36Z" fill="#6C2A29"/>
<path d="M40.3472 26.36C40.5565 26.36 40.7256 26.1886 40.7256 25.9774C40.7256 25.7652 40.5565 25.5938 40.3472 25.5938C40.1378 25.5938 39.9688 25.7652 39.9688 25.9774C39.9688 26.1886 40.1378 26.36 40.3472 26.36Z" fill="#6C2A29"/>
<path d="M48.8725 26.36C49.0818 26.36 49.2509 26.1886 49.2509 25.9774C49.2509 25.7652 49.0818 25.5938 48.8725 25.5938C48.6641 25.5938 48.4941 25.7652 48.4941 25.9774C48.4941 26.1886 48.6641 26.36 48.8725 26.36Z" fill="#6C2A29"/>
<path d="M57.3979 26.36C57.6072 26.36 57.7763 26.1886 57.7763 25.9774C57.7763 25.7652 57.6072 25.5938 57.3979 25.5938C57.1886 25.5938 57.0195 25.7652 57.0195 25.9774C57.0195 26.1886 57.1886 26.36 57.3979 26.36Z" fill="#6C2A29"/>
<path d="M65.9253 26.36C66.1346 26.36 66.3037 26.1886 66.3037 25.9774C66.3037 25.7652 66.1346 25.5938 65.9253 25.5938C65.716 25.5938 65.5469 25.7652 65.5469 25.9774C65.5469 26.1886 65.716 26.36 65.9253 26.36Z" fill="#6C2A29"/>
<path d="M74.4507 26.36C74.66 26.36 74.8291 26.1886 74.8291 25.9774C74.8291 25.7652 74.66 25.5938 74.4507 25.5938C74.2414 25.5938 74.0723 25.7652 74.0723 25.9774C74.0723 26.1886 74.2414 26.36 74.4507 26.36Z" fill="#6C2A29"/>
<path d="M82.9761 26.36C83.1854 26.36 83.3545 26.1886 83.3545 25.9774C83.3545 25.7652 83.1854 25.5938 82.9761 25.5938C82.7668 25.5938 82.5977 25.7652 82.5977 25.9774C82.5977 26.1886 82.7668 26.36 82.9761 26.36Z" fill="#6C2A29"/>
<path d="M91.5024 26.36C91.7117 26.36 91.8808 26.1886 91.8808 25.9774C91.8808 25.7652 91.7117 25.5938 91.5024 25.5938C91.2931 25.5938 91.124 25.7652 91.124 25.9774C91.124 26.1886 91.2931 26.36 91.5024 26.36Z" fill="#6C2A29"/>
<path d="M100.029 26.36C100.238 26.36 100.406 26.1886 100.406 25.9774C100.406 25.7652 100.238 25.5938 100.029 25.5938C99.8195 25.5938 99.6504 25.7652 99.6504 25.9774C99.6504 26.1886 99.8195 26.36 100.029 26.36Z" fill="#6C2A29"/>
<path d="M108.554 26.36C108.764 26.36 108.933 26.1886 108.933 25.9774C108.933 25.7652 108.764 25.5938 108.554 25.5938C108.345 25.5938 108.176 25.7652 108.176 25.9774C108.176 26.1886 108.345 26.36 108.554 26.36Z" fill="#6C2A29"/>
<path d="M117.08 26.36C117.29 26.36 117.458 26.1886 117.458 25.9774C117.458 25.7652 117.29 25.5938 117.08 25.5938C116.872 25.5938 116.703 25.7652 116.703 25.9774C116.703 26.1886 116.872 26.36 117.08 26.36Z" fill="#6C2A29"/>
<path d="M125.605 26.36C125.815 26.36 125.983 26.1886 125.983 25.9774C125.983 25.7652 125.815 25.5938 125.605 25.5938C125.397 25.5938 125.229 25.7652 125.229 25.9774C125.229 26.1886 125.397 26.36 125.605 26.36Z" fill="#6C2A29"/>
<path d="M134.131 26.36C134.341 26.36 134.51 26.1886 134.51 25.9774C134.51 25.7652 134.341 25.5938 134.131 25.5938C133.924 25.5938 133.754 25.7652 133.754 25.9774C133.754 26.1886 133.924 26.36 134.131 26.36Z" fill="#6C2A29"/>
<path d="M142.657 26.36C142.866 26.36 143.035 26.1886 143.035 25.9774C143.035 25.7652 142.866 25.5938 142.657 25.5938C142.448 25.5938 142.279 25.7652 142.279 25.9774C142.279 26.1886 142.448 26.36 142.657 26.36Z" fill="#6C2A29"/>
<path d="M151.183 26.36C151.392 26.36 151.562 26.1886 151.562 25.9774C151.562 25.7652 151.392 25.5938 151.183 25.5938C150.976 25.5938 150.806 25.7652 150.806 25.9774C150.806 26.1886 150.976 26.36 151.183 26.36Z" fill="#6C2A29"/>
<path d="M159.71 26.36C159.919 26.36 160.088 26.1886 160.088 25.9774C160.088 25.7652 159.919 25.5938 159.71 25.5938C159.501 25.5938 159.332 25.7652 159.332 25.9774C159.332 26.1886 159.501 26.36 159.71 26.36Z" fill="#6C2A29"/>
<path d="M168.236 26.36C168.445 26.36 168.614 26.1886 168.614 25.9774C168.614 25.7652 168.445 25.5938 168.236 25.5938C168.028 25.5938 167.858 25.7652 167.858 25.9774C167.858 26.1886 168.028 26.36 168.236 26.36Z" fill="#6C2A29"/>
<path d="M176.762 26.36C176.972 26.36 177.141 26.1886 177.141 25.9774C177.141 25.7652 176.972 25.5938 176.762 25.5938C176.553 25.5938 176.385 25.7652 176.385 25.9774C176.385 26.1886 176.553 26.36 176.762 26.36Z" fill="#6C2A29"/>
<path d="M185.288 26.36C185.497 26.36 185.666 26.1886 185.666 25.9774C185.666 25.7652 185.497 25.5938 185.288 25.5938C185.078 25.5938 184.91 25.7652 184.91 25.9774C184.91 26.1886 185.078 26.36 185.288 26.36Z" fill="#6C2A29"/>
<path d="M193.813 26.36C194.022 26.36 194.191 26.1886 194.191 25.9774C194.191 25.7652 194.022 25.5938 193.813 25.5938C193.605 25.5938 193.436 25.7652 193.436 25.9774C193.436 26.1886 193.605 26.36 193.813 26.36Z" fill="#6C2A29"/>
<path d="M202.338 26.36C202.548 26.36 202.717 26.1886 202.717 25.9774C202.717 25.7652 202.548 25.5938 202.338 25.5938C202.13 25.5938 201.961 25.7652 201.961 25.9774C201.961 26.1886 202.13 26.36 202.338 26.36Z" fill="#6C2A29"/>
<path d="M210.865 26.36C211.074 26.36 211.243 26.1886 211.243 25.9774C211.243 25.7652 211.074 25.5938 210.865 25.5938C210.657 25.5938 210.487 25.7652 210.487 25.9774C210.487 26.1886 210.657 26.36 210.865 26.36Z" fill="#6C2A29"/>
<path d="M219.391 26.36C219.6 26.36 219.77 26.1886 219.77 25.9774C219.77 25.7652 219.6 25.5938 219.391 25.5938C219.183 25.5938 219.014 25.7652 219.014 25.9774C219.014 26.1886 219.183 26.36 219.391 26.36Z" fill="#6C2A29"/>
<path d="M227.917 26.36C228.126 26.36 228.295 26.1886 228.295 25.9774C228.295 25.7652 228.126 25.5938 227.917 25.5938C227.708 25.5938 227.539 25.7652 227.539 25.9774C227.539 26.1886 227.708 26.36 227.917 26.36Z" fill="#6C2A29"/>
<path d="M236.444 26.36C236.652 26.36 236.822 26.1886 236.822 25.9774C236.822 25.7652 236.652 25.5938 236.444 25.5938C236.236 25.5938 236.066 25.7652 236.066 25.9774C236.066 26.1886 236.236 26.36 236.444 26.36Z" fill="#6C2A29"/>
<path d="M244.969 26.36C245.179 26.36 245.348 26.1886 245.348 25.9774C245.348 25.7652 245.179 25.5938 244.969 25.5938C244.761 25.5938 244.592 25.7652 244.592 25.9774C244.592 26.1886 244.761 26.36 244.969 26.36Z" fill="#6C2A29"/>
<path d="M253.495 26.36C253.704 26.36 253.873 26.1886 253.873 25.9774C253.873 25.7652 253.704 25.5938 253.495 25.5938C253.286 25.5938 253.118 25.7652 253.118 25.9774C253.118 26.1886 253.286 26.36 253.495 26.36Z" fill="#6C2A29"/>
<path d="M262.021 26.36C262.23 26.36 262.399 26.1886 262.399 25.9774C262.399 25.7652 262.23 25.5938 262.021 25.5938C261.813 25.5938 261.645 25.7652 261.645 25.9774C261.645 26.1886 261.813 26.36 262.021 26.36Z" fill="#6C2A29"/>
<path d="M270.546 26.36C270.756 26.36 270.925 26.1886 270.925 25.9774C270.925 25.7652 270.756 25.5938 270.546 25.5938C270.338 25.5938 270.169 25.7652 270.169 25.9774C270.169 26.1886 270.338 26.36 270.546 26.36Z" fill="#6C2A29"/>
<path d="M1.98069 35.1227C2.25489 35.1227 2.477 34.8984 2.477 34.6195C2.477 34.3425 2.25489 34.1164 1.98069 34.1164C1.70648 34.1164 1.48438 34.3425 1.48438 34.6195C1.48438 34.8984 1.70648 35.1227 1.98069 35.1227Z" fill="#6C2A29"/>
<path d="M10.5061 35.1227C10.7803 35.1227 11.0024 34.8984 11.0024 34.6195C11.0024 34.3425 10.7803 34.1164 10.5061 34.1164C10.2319 34.1164 10.0098 34.3425 10.0098 34.6195C10.0098 34.8984 10.2319 35.1227 10.5061 35.1227Z" fill="#6C2A29"/>
<path d="M19.0315 35.1227C19.3057 35.1227 19.5278 34.8984 19.5278 34.6195C19.5278 34.3425 19.3057 34.1164 19.0315 34.1164C18.7573 34.1164 18.5352 34.3425 18.5352 34.6195C18.5352 34.8984 18.7573 35.1227 19.0315 35.1227Z" fill="#6C2A29"/>
<path d="M27.5578 35.1227C27.832 35.1227 28.0541 34.8984 28.0541 34.6195C28.0541 34.3425 27.832 34.1164 27.5578 34.1164C27.2836 34.1164 27.0615 34.3425 27.0615 34.6195C27.0615 34.8984 27.2836 35.1227 27.5578 35.1227Z" fill="#6C2A29"/>
<path d="M36.0842 35.1227C36.3584 35.1227 36.5805 34.8984 36.5805 34.6195C36.5805 34.3425 36.3584 34.1164 36.0842 34.1164C35.81 34.1164 35.5879 34.3425 35.5879 34.6195C35.5879 34.8984 35.81 35.1227 36.0842 35.1227Z" fill="#6C2A29"/>
<path d="M44.6096 35.1227C44.8838 35.1227 45.1059 34.8984 45.1059 34.6195C45.1059 34.3425 44.8838 34.1164 44.6096 34.1164C44.3354 34.1164 44.1133 34.3425 44.1133 34.6195C44.1133 34.8984 44.3354 35.1227 44.6096 35.1227Z" fill="#6C2A29"/>
<path d="M53.135 35.1227C53.4092 35.1227 53.6313 34.8984 53.6313 34.6195C53.6313 34.3425 53.4092 34.1164 53.135 34.1164C52.8608 34.1164 52.6387 34.3425 52.6387 34.6195C52.6387 34.8984 52.8608 35.1227 53.135 35.1227Z" fill="#6C2A29"/>
<path d="M61.6623 35.1227C61.9365 35.1227 62.1586 34.8984 62.1586 34.6195C62.1586 34.3425 61.9365 34.1164 61.6623 34.1164C61.3881 34.1164 61.166 34.3425 61.166 34.6195C61.166 34.8984 61.3881 35.1227 61.6623 35.1227Z" fill="#6C2A29"/>
<path d="M70.1877 35.1227C70.4619 35.1227 70.684 34.8984 70.684 34.6195C70.684 34.3425 70.4619 34.1164 70.1877 34.1164C69.9135 34.1164 69.6914 34.3425 69.6914 34.6195C69.6914 34.8984 69.9135 35.1227 70.1877 35.1227Z" fill="#6C2A29"/>
<path d="M78.7131 35.1227C78.9873 35.1227 79.2094 34.8984 79.2094 34.6195C79.2094 34.3425 78.9873 34.1164 78.7131 34.1164C78.4389 34.1164 78.2168 34.3425 78.2168 34.6195C78.2168 34.8984 78.4389 35.1227 78.7131 35.1227Z" fill="#6C2A29"/>
<path d="M87.2395 35.1227C87.5137 35.1227 87.7358 34.8984 87.7358 34.6195C87.7358 34.3425 87.5137 34.1164 87.2395 34.1164C86.9653 34.1164 86.7432 34.3425 86.7432 34.6195C86.7432 34.8984 86.9653 35.1227 87.2395 35.1227Z" fill="#6C2A29"/>
<path d="M95.7659 35.1227C96.04 35.1227 96.2622 34.8984 96.2622 34.6195C96.2622 34.3425 96.04 34.1164 95.7659 34.1164C95.4916 34.1164 95.2695 34.3425 95.2695 34.6195C95.2695 34.8984 95.4916 35.1227 95.7659 35.1227Z" fill="#6C2A29"/>
<path d="M104.291 35.1227C104.565 35.1227 104.788 34.8984 104.788 34.6195C104.788 34.3425 104.565 34.1164 104.291 34.1164C104.017 34.1164 103.795 34.3425 103.795 34.6195C103.795 34.8984 104.017 35.1227 104.291 35.1227Z" fill="#6C2A29"/>
<path d="M112.817 35.1227C113.091 35.1227 113.313 34.8984 113.313 34.6195C113.313 34.3425 113.091 34.1164 112.817 34.1164C112.542 34.1164 112.32 34.3425 112.32 34.6195C112.32 34.8984 112.542 35.1227 112.817 35.1227Z" fill="#6C2A29"/>
<path d="M121.343 35.1227C121.618 35.1227 121.84 34.8984 121.84 34.6195C121.84 34.3425 121.618 34.1164 121.343 34.1164C121.07 34.1164 120.848 34.3425 120.848 34.6195C120.848 34.8984 121.07 35.1227 121.343 35.1227Z" fill="#6C2A29"/>
<path d="M129.868 35.1227C130.144 35.1227 130.366 34.8984 130.366 34.6195C130.366 34.3425 130.144 34.1164 129.868 34.1164C129.595 34.1164 129.373 34.3425 129.373 34.6195C129.373 34.8984 129.595 35.1227 129.868 35.1227Z" fill="#6C2A29"/>
<path d="M138.394 35.1227C138.669 35.1227 138.891 34.8984 138.891 34.6195C138.891 34.3425 138.669 34.1164 138.394 34.1164C138.121 34.1164 137.898 34.3425 137.898 34.6195C137.898 34.8984 138.121 35.1227 138.394 35.1227Z" fill="#6C2A29"/>
<path d="M146.92 35.1227C147.195 35.1227 147.417 34.8984 147.417 34.6195C147.417 34.3425 147.195 34.1164 146.92 34.1164C146.646 34.1164 146.425 34.3425 146.425 34.6195C146.425 34.8984 146.646 35.1227 146.92 35.1227Z" fill="#6C2A29"/>
<path d="M155.446 35.1227C155.721 35.1227 155.942 34.8984 155.942 34.6195C155.942 34.3425 155.721 34.1164 155.446 34.1164C155.171 34.1164 154.949 34.3425 154.949 34.6195C154.949 34.8984 155.171 35.1227 155.446 35.1227Z" fill="#6C2A29"/>
<path d="M163.973 35.1227C164.247 35.1227 164.468 34.8984 164.468 34.6195C164.468 34.3425 164.247 34.1164 163.973 34.1164C163.698 34.1164 163.476 34.3425 163.476 34.6195C163.476 34.8984 163.698 35.1227 163.973 35.1227Z" fill="#6C2A29"/>
<path d="M172.498 35.1227C172.773 35.1227 172.995 34.8984 172.995 34.6195C172.995 34.3425 172.773 34.1164 172.498 34.1164C172.224 34.1164 172.002 34.3425 172.002 34.6195C172.002 34.8984 172.224 35.1227 172.498 35.1227Z" fill="#6C2A29"/>
<path d="M181.026 35.1227C181.3 35.1227 181.522 34.8984 181.522 34.6195C181.522 34.3425 181.3 34.1164 181.026 34.1164C180.751 34.1164 180.529 34.3425 180.529 34.6195C180.529 34.8984 180.751 35.1227 181.026 35.1227Z" fill="#6C2A29"/>
<path d="M189.551 35.1227C189.825 35.1227 190.047 34.8984 190.047 34.6195C190.047 34.3425 189.825 34.1164 189.551 34.1164C189.277 34.1164 189.055 34.3425 189.055 34.6195C189.055 34.8984 189.277 35.1227 189.551 35.1227Z" fill="#6C2A29"/>
<path d="M198.075 35.1227C198.351 35.1227 198.573 34.8984 198.573 34.6195C198.573 34.3425 198.351 34.1164 198.075 34.1164C197.802 34.1164 197.58 34.3425 197.58 34.6195C197.58 34.8984 197.802 35.1227 198.075 35.1227Z" fill="#6C2A29"/>
<path d="M206.602 35.1227C206.877 35.1227 207.099 34.8984 207.099 34.6195C207.099 34.3425 206.877 34.1164 206.602 34.1164C206.328 34.1164 206.106 34.3425 206.106 34.6195C206.106 34.8984 206.328 35.1227 206.602 35.1227Z" fill="#6C2A29"/>
<path d="M215.128 35.1227C215.403 35.1227 215.625 34.8984 215.625 34.6195C215.625 34.3425 215.403 34.1164 215.128 34.1164C214.854 34.1164 214.633 34.3425 214.633 34.6195C214.633 34.8984 214.854 35.1227 215.128 35.1227Z" fill="#6C2A29"/>
<path d="M223.654 35.1227C223.929 35.1227 224.151 34.8984 224.151 34.6195C224.151 34.3425 223.929 34.1164 223.654 34.1164C223.379 34.1164 223.158 34.3425 223.158 34.6195C223.158 34.8984 223.379 35.1227 223.654 35.1227Z" fill="#6C2A29"/>
<path d="M232.18 35.1227C232.455 35.1227 232.676 34.8984 232.676 34.6195C232.676 34.3425 232.455 34.1164 232.18 34.1164C231.906 34.1164 231.684 34.3425 231.684 34.6195C231.684 34.8984 231.906 35.1227 232.18 35.1227Z" fill="#6C2A29"/>
<path d="M240.706 35.1227C240.98 35.1227 241.203 34.8984 241.203 34.6195C241.203 34.3425 240.98 34.1164 240.706 34.1164C240.432 34.1164 240.21 34.3425 240.21 34.6195C240.21 34.8984 240.432 35.1227 240.706 35.1227Z" fill="#6C2A29"/>
<path d="M249.233 35.1227C249.507 35.1227 249.729 34.8984 249.729 34.6195C249.729 34.3425 249.507 34.1164 249.233 34.1164C248.958 34.1164 248.736 34.3425 248.736 34.6195C248.736 34.8984 248.958 35.1227 249.233 35.1227Z" fill="#6C2A29"/>
<path d="M257.757 35.1227C258.032 35.1227 258.254 34.8984 258.254 34.6195C258.254 34.3425 258.032 34.1164 257.757 34.1164C257.484 34.1164 257.262 34.3425 257.262 34.6195C257.262 34.8984 257.484 35.1227 257.757 35.1227Z" fill="#6C2A29"/>
<path d="M266.283 35.1227C266.559 35.1227 266.781 34.8984 266.781 34.6195C266.781 34.3425 266.559 34.1164 266.283 34.1164C266.01 34.1164 265.788 34.3425 265.788 34.6195C265.788 34.8984 266.01 35.1227 266.283 35.1227Z" fill="#6C2A29"/>
<path d="M6.24241 43.9103C6.59431 43.9103 6.8804 43.6202 6.8804 43.2626C6.8804 42.9059 6.59431 42.6158 6.24241 42.6158C5.8896 42.6158 5.60352 42.9059 5.60352 43.2626C5.60352 43.6202 5.8896 43.9103 6.24241 43.9103Z" fill="#6C2A29"/>
<path d="M14.7688 43.9103C15.1217 43.9103 15.4077 43.6202 15.4077 43.2626C15.4077 42.9059 15.1217 42.6158 14.7688 42.6158C14.4169 42.6158 14.1309 42.9059 14.1309 43.2626C14.1309 43.6202 14.4169 43.9103 14.7688 43.9103Z" fill="#6C2A29"/>
<path d="M23.2951 43.9103C23.648 43.9103 23.9331 43.6202 23.9331 43.2626C23.9331 42.9059 23.648 42.6158 23.2951 42.6158C22.9423 42.6158 22.6562 42.9059 22.6562 43.2626C22.6562 43.6202 22.9423 43.9103 23.2951 43.9103Z" fill="#6C2A29"/>
<path d="M31.8205 43.9103C32.1724 43.9103 32.4585 43.6202 32.4585 43.2626C32.4585 42.9059 32.1724 42.6158 31.8205 42.6158C31.4677 42.6158 31.1816 42.9059 31.1816 43.2626C31.1816 43.6202 31.4677 43.9103 31.8205 43.9103Z" fill="#6C2A29"/>
<path d="M40.347 43.9103C40.6998 43.9103 40.9859 43.6202 40.9859 43.2626C40.9859 42.9059 40.6998 42.6158 40.347 42.6158C39.9951 42.6158 39.709 42.9059 39.709 43.2626C39.709 43.6202 39.9951 43.9103 40.347 43.9103Z" fill="#6C2A29"/>
<path d="M48.8724 43.9103C49.2252 43.9103 49.5103 43.6202 49.5103 43.2626C49.5103 42.9059 49.2252 42.6158 48.8724 42.6158C48.5196 42.6158 48.2344 42.9059 48.2344 43.2626C48.2344 43.6202 48.5196 43.9103 48.8724 43.9103Z" fill="#6C2A29"/>
<path d="M57.3987 43.9103C57.7515 43.9103 58.0367 43.6202 58.0367 43.2626C58.0367 42.9059 57.7515 42.6158 57.3987 42.6158C57.0459 42.6158 56.7607 42.9059 56.7607 43.2626C56.7607 43.6202 57.0459 43.9103 57.3987 43.9103Z" fill="#6C2A29"/>
<path d="M65.9241 43.9103C66.2769 43.9103 66.562 43.6202 66.562 43.2626C66.562 42.9059 66.2769 42.6158 65.9241 42.6158C65.5712 42.6158 65.2852 42.9059 65.2852 43.2626C65.2852 43.6202 65.5712 43.9103 65.9241 43.9103Z" fill="#6C2A29"/>
<path d="M74.4504 43.9103C74.8023 43.9103 75.0884 43.6202 75.0884 43.2626C75.0884 42.9059 74.8023 42.6158 74.4504 42.6158C74.0976 42.6158 73.8115 42.9059 73.8115 43.2626C73.8115 43.6202 74.0976 43.9103 74.4504 43.9103Z" fill="#6C2A29"/>
<path d="M82.9759 43.9103C83.3287 43.9103 83.6148 43.6202 83.6148 43.2626C83.6148 42.9059 83.3287 42.6158 82.9759 42.6158C82.624 42.6158 82.3379 42.9059 82.3379 43.2626C82.3379 43.6202 82.624 43.9103 82.9759 43.9103Z" fill="#6C2A29"/>
<path d="M91.5022 43.9103C91.855 43.9103 92.1402 43.6202 92.1402 43.2626C92.1402 42.9059 91.855 42.6158 91.5022 42.6158C91.1494 42.6158 90.8633 42.9059 90.8633 43.2626C90.8633 43.6202 91.1494 43.9103 91.5022 43.9103Z" fill="#6C2A29"/>
<path d="M100.029 43.9103C100.38 43.9103 100.667 43.6202 100.667 43.2626C100.667 42.9059 100.38 42.6158 100.029 42.6158C99.6757 42.6158 99.3896 42.9059 99.3896 43.2626C99.3896 43.6202 99.6757 43.9103 100.029 43.9103Z" fill="#6C2A29"/>
<path d="M108.554 43.9103C108.907 43.9103 109.193 43.6202 109.193 43.2626C109.193 42.9059 108.907 42.6158 108.554 42.6158C108.201 42.6158 107.916 42.9059 107.916 43.2626C107.916 43.6202 108.201 43.9103 108.554 43.9103Z" fill="#6C2A29"/>
<path d="M117.079 43.9103C117.433 43.9103 117.718 43.6202 117.718 43.2626C117.718 42.9059 117.433 42.6158 117.079 42.6158C116.727 42.6158 116.441 42.9059 116.441 43.2626C116.441 43.6202 116.727 43.9103 117.079 43.9103Z" fill="#6C2A29"/>
<path d="M125.605 43.9103C125.958 43.9103 126.244 43.6202 126.244 43.2626C126.244 42.9059 125.958 42.6158 125.605 42.6158C125.253 42.6158 124.967 42.9059 124.967 43.2626C124.967 43.6202 125.253 43.9103 125.605 43.9103Z" fill="#6C2A29"/>
<path d="M134.131 43.9103C134.485 43.9103 134.77 43.6202 134.77 43.2626C134.77 42.9059 134.485 42.6158 134.131 42.6158C133.778 42.6158 133.493 42.9059 133.493 43.2626C133.493 43.6202 133.778 43.9103 134.131 43.9103Z" fill="#6C2A29"/>
<path d="M142.658 43.9103C143.011 43.9103 143.295 43.6202 143.295 43.2626C143.295 42.9059 143.011 42.6158 142.658 42.6158C142.305 42.6158 142.02 42.9059 142.02 43.2626C142.02 43.6202 142.305 43.9103 142.658 43.9103Z" fill="#6C2A29"/>
<path d="M151.183 43.9103C151.537 43.9103 151.821 43.6202 151.821 43.2626C151.821 42.9059 151.537 42.6158 151.183 42.6158C150.83 42.6158 150.545 42.9059 150.545 43.2626C150.545 43.6202 150.83 43.9103 151.183 43.9103Z" fill="#6C2A29"/>
<path d="M159.709 43.9103C160.063 43.9103 160.347 43.6202 160.347 43.2626C160.347 42.9059 160.063 42.6158 159.709 42.6158C159.356 42.6158 159.071 42.9059 159.071 43.2626C159.071 43.6202 159.356 43.9103 159.709 43.9103Z" fill="#6C2A29"/>
<path d="M168.236 43.9103C168.589 43.9103 168.874 43.6202 168.874 43.2626C168.874 42.9059 168.589 42.6158 168.236 42.6158C167.883 42.6158 167.598 42.9059 167.598 43.2626C167.598 43.6202 167.883 43.9103 168.236 43.9103Z" fill="#6C2A29"/>
<path d="M176.762 43.9103C177.116 43.9103 177.4 43.6202 177.4 43.2626C177.4 42.9059 177.116 42.6158 176.762 42.6158C176.409 42.6158 176.123 42.9059 176.123 43.2626C176.123 43.6202 176.409 43.9103 176.762 43.9103Z" fill="#6C2A29"/>
<path d="M185.287 43.9103C185.641 43.9103 185.925 43.6202 185.925 43.2626C185.925 42.9059 185.641 42.6158 185.287 42.6158C184.935 42.6158 184.648 42.9059 184.648 43.2626C184.648 43.6202 184.935 43.9103 185.287 43.9103Z" fill="#6C2A29"/>
<path d="M193.813 43.9103C194.167 43.9103 194.452 43.6202 194.452 43.2626C194.452 42.9059 194.167 42.6158 193.813 42.6158C193.46 42.6158 193.175 42.9059 193.175 43.2626C193.175 43.6202 193.46 43.9103 193.813 43.9103Z" fill="#6C2A29"/>
<path d="M202.339 43.9103C202.693 43.9103 202.977 43.6202 202.977 43.2626C202.977 42.9059 202.693 42.6158 202.339 42.6158C201.986 42.6158 201.701 42.9059 201.701 43.2626C201.701 43.6202 201.986 43.9103 202.339 43.9103Z" fill="#6C2A29"/>
<path d="M210.865 43.9103C211.218 43.9103 211.503 43.6202 211.503 43.2626C211.503 42.9059 211.218 42.6158 210.865 42.6158C210.512 42.6158 210.227 42.9059 210.227 43.2626C210.227 43.6202 210.512 43.9103 210.865 43.9103Z" fill="#6C2A29"/>
<path d="M219.391 43.9103C219.745 43.9103 220.029 43.6202 220.029 43.2626C220.029 42.9059 219.745 42.6158 219.391 42.6158C219.038 42.6158 218.753 42.9059 218.753 43.2626C218.753 43.6202 219.038 43.9103 219.391 43.9103Z" fill="#6C2A29"/>
<path d="M227.918 43.9103C228.272 43.9103 228.556 43.6202 228.556 43.2626C228.556 42.9059 228.272 42.6158 227.918 42.6158C227.564 42.6158 227.279 42.9059 227.279 43.2626C227.279 43.6202 227.564 43.9103 227.918 43.9103Z" fill="#6C2A29"/>
<path d="M236.444 43.9103C236.797 43.9103 237.082 43.6202 237.082 43.2626C237.082 42.9059 236.797 42.6158 236.444 42.6158C236.091 42.6158 235.806 42.9059 235.806 43.2626C235.806 43.6202 236.091 43.9103 236.444 43.9103Z" fill="#6C2A29"/>
<path d="M244.97 43.9103C245.324 43.9103 245.608 43.6202 245.608 43.2626C245.608 42.9059 245.324 42.6158 244.97 42.6158C244.617 42.6158 244.332 42.9059 244.332 43.2626C244.332 43.6202 244.617 43.9103 244.97 43.9103Z" fill="#6C2A29"/>
<path d="M253.494 43.9103C253.848 43.9103 254.133 43.6202 254.133 43.2626C254.133 42.9059 253.848 42.6158 253.494 42.6158C253.143 42.6158 252.856 42.9059 252.856 43.2626C252.856 43.6202 253.143 43.9103 253.494 43.9103Z" fill="#6C2A29"/>
<path d="M262.021 43.9103C262.375 43.9103 262.66 43.6202 262.66 43.2626C262.66 42.9059 262.375 42.6158 262.021 42.6158C261.669 42.6158 261.383 42.9059 261.383 43.2626C261.383 43.6202 261.669 43.9103 262.021 43.9103Z" fill="#6C2A29"/>
<path d="M270.546 43.9103C270.9 43.9103 271.184 43.6202 271.184 43.2626C271.184 42.9059 270.9 42.6158 270.546 42.6158C270.193 42.6158 269.908 42.9059 269.908 43.2626C269.908 43.6202 270.193 43.9103 270.546 43.9103Z" fill="#6C2A29"/>
<path d="M1.97946 52.6728C2.39717 52.6728 2.73627 52.3291 2.73627 51.9056C2.73627 51.4822 2.39717 51.1393 1.97946 51.1393C1.56176 51.1393 1.22266 51.4822 1.22266 51.9056C1.22266 52.3291 1.56176 52.6728 1.97946 52.6728Z" fill="#6C2A29"/>
<path d="M10.5058 52.6728C10.9235 52.6728 11.2626 52.3291 11.2626 51.9056C11.2626 51.4822 10.9235 51.1393 10.5058 51.1393C10.0881 51.1393 9.74902 51.4822 9.74902 51.9056C9.74902 52.3291 10.0881 52.6728 10.5058 52.6728Z" fill="#6C2A29"/>
<path d="M19.0322 52.6728C19.4499 52.6728 19.789 52.3291 19.789 51.9056C19.789 51.4822 19.4499 51.1393 19.0322 51.1393C18.6145 51.1393 18.2754 51.4822 18.2754 51.9056C18.2754 52.3291 18.6145 52.6728 19.0322 52.6728Z" fill="#6C2A29"/>
<path d="M27.5576 52.6728C27.9753 52.6728 28.3144 52.3291 28.3144 51.9056C28.3144 51.4822 27.9753 51.1393 27.5576 51.1393C27.1399 51.1393 26.8008 51.4822 26.8008 51.9056C26.8008 52.3291 27.1399 52.6728 27.5576 52.6728Z" fill="#6C2A29"/>
<path d="M36.084 52.6728C36.5017 52.6728 36.8408 52.3291 36.8408 51.9056C36.8408 51.4822 36.5017 51.1393 36.084 51.1393C35.6663 51.1393 35.3271 51.4822 35.3271 51.9056C35.3271 52.3291 35.6663 52.6728 36.084 52.6728Z" fill="#6C2A29"/>
<path d="M44.6103 52.6728C45.028 52.6728 45.3671 52.3291 45.3671 51.9056C45.3671 51.4822 45.028 51.1393 44.6103 51.1393C44.1926 51.1393 43.8535 51.4822 43.8535 51.9056C43.8535 52.3291 44.1926 52.6728 44.6103 52.6728Z" fill="#6C2A29"/>
<path d="M53.1357 52.6728C53.5534 52.6728 53.8925 52.3291 53.8925 51.9056C53.8925 51.4822 53.5534 51.1393 53.1357 51.1393C52.718 51.1393 52.3789 51.4822 52.3789 51.9056C52.3789 52.3291 52.718 52.6728 53.1357 52.6728Z" fill="#6C2A29"/>
<path d="M61.6611 52.6728C62.0788 52.6728 62.4179 52.3291 62.4179 51.9056C62.4179 51.4822 62.0788 51.1393 61.6611 51.1393C61.2434 51.1393 60.9043 51.4822 60.9043 51.9056C60.9043 52.3291 61.2434 52.6728 61.6611 52.6728Z" fill="#6C2A29"/>
<path d="M70.1875 52.6728C70.6052 52.6728 70.9443 52.3291 70.9443 51.9056C70.9443 51.4822 70.6052 51.1393 70.1875 51.1393C69.7698 51.1393 69.4307 51.4822 69.4307 51.9056C69.4307 52.3291 69.7698 52.6728 70.1875 52.6728Z" fill="#6C2A29"/>
<path d="M78.7138 52.6728C79.1315 52.6728 79.4706 52.3291 79.4706 51.9056C79.4706 51.4822 79.1315 51.1393 78.7138 51.1393C78.2961 51.1393 77.957 51.4822 77.957 51.9056C77.957 52.3291 78.2961 52.6728 78.7138 52.6728Z" fill="#6C2A29"/>
<path d="M87.2392 52.6728C87.6569 52.6728 87.996 52.3291 87.996 51.9056C87.996 51.4822 87.6569 51.1393 87.2392 51.1393C86.8215 51.1393 86.4824 51.4822 86.4824 51.9056C86.4824 52.3291 86.8215 52.6728 87.2392 52.6728Z" fill="#6C2A29"/>
<path d="M95.7656 52.6728C96.1833 52.6728 96.5224 52.3291 96.5224 51.9056C96.5224 51.4822 96.1833 51.1393 95.7656 51.1393C95.3479 51.1393 95.0088 51.4822 95.0088 51.9056C95.0088 52.3291 95.3479 52.6728 95.7656 52.6728Z" fill="#6C2A29"/>
<path d="M104.292 52.6728C104.71 52.6728 105.049 52.3291 105.049 51.9056C105.049 51.4822 104.71 51.1393 104.292 51.1393C103.874 51.1393 103.535 51.4822 103.535 51.9056C103.535 52.3291 103.874 52.6728 104.292 52.6728Z" fill="#6C2A29"/>
<path d="M112.817 52.6728C113.235 52.6728 113.573 52.3291 113.573 51.9056C113.573 51.4822 113.235 51.1393 112.817 51.1393C112.4 51.1393 112.062 51.4822 112.062 51.9056C112.062 52.3291 112.4 52.6728 112.817 52.6728Z" fill="#6C2A29"/>
<path d="M121.343 52.6728C121.762 52.6728 122.1 52.3291 122.1 51.9056C122.1 51.4822 121.762 51.1393 121.343 51.1393C120.926 51.1393 120.588 51.4822 120.588 51.9056C120.588 52.3291 120.926 52.6728 121.343 52.6728Z" fill="#6C2A29"/>
<path d="M129.868 52.6728C130.287 52.6728 130.625 52.3291 130.625 51.9056C130.625 51.4822 130.287 51.1393 129.868 51.1393C129.451 51.1393 129.113 51.4822 129.113 51.9056C129.113 52.3291 129.451 52.6728 129.868 52.6728Z" fill="#6C2A29"/>
<path d="M138.394 52.6728C138.812 52.6728 139.15 52.3291 139.15 51.9056C139.15 51.4822 138.812 51.1393 138.394 51.1393C137.977 51.1393 137.639 51.4822 137.639 51.9056C137.639 52.3291 137.977 52.6728 138.394 52.6728Z" fill="#6C2A29"/>
<path d="M146.92 52.6728C147.339 52.6728 147.677 52.3291 147.677 51.9056C147.677 51.4822 147.339 51.1393 146.92 51.1393C146.503 51.1393 146.164 51.4822 146.164 51.9056C146.164 52.3291 146.503 52.6728 146.92 52.6728Z" fill="#6C2A29"/>
<path d="M155.446 52.6728C155.864 52.6728 156.203 52.3291 156.203 51.9056C156.203 51.4822 155.864 51.1393 155.446 51.1393C155.029 51.1393 154.69 51.4822 154.69 51.9056C154.69 52.3291 155.029 52.6728 155.446 52.6728Z" fill="#6C2A29"/>
<path d="M163.974 52.6728C164.39 52.6728 164.729 52.3291 164.729 51.9056C164.729 51.4822 164.39 51.1393 163.974 51.1393C163.555 51.1393 163.217 51.4822 163.217 51.9056C163.217 52.3291 163.555 52.6728 163.974 52.6728Z" fill="#6C2A29"/>
<path d="M172.499 52.6728C172.917 52.6728 173.256 52.3291 173.256 51.9056C173.256 51.4822 172.917 51.1393 172.499 51.1393C172.081 51.1393 171.743 51.4822 171.743 51.9056C171.743 52.3291 172.081 52.6728 172.499 52.6728Z" fill="#6C2A29"/>
<path d="M181.025 52.6728C181.443 52.6728 181.781 52.3291 181.781 51.9056C181.781 51.4822 181.443 51.1393 181.025 51.1393C180.608 51.1393 180.27 51.4822 180.27 51.9056C180.27 52.3291 180.608 52.6728 181.025 52.6728Z" fill="#6C2A29"/>
<path d="M189.551 52.6728C189.969 52.6728 190.307 52.3291 190.307 51.9056C190.307 51.4822 189.969 51.1393 189.551 51.1393C189.133 51.1393 188.795 51.4822 188.795 51.9056C188.795 52.3291 189.133 52.6728 189.551 52.6728Z" fill="#6C2A29"/>
<path d="M198.075 52.6728C198.494 52.6728 198.832 52.3291 198.832 51.9056C198.832 51.4822 198.494 51.1393 198.075 51.1393C197.659 51.1393 197.32 51.4822 197.32 51.9056C197.32 52.3291 197.659 52.6728 198.075 52.6728Z" fill="#6C2A29"/>
<path d="M206.602 52.6728C207.02 52.6728 207.358 52.3291 207.358 51.9056C207.358 51.4822 207.02 51.1393 206.602 51.1393C206.185 51.1393 205.846 51.4822 205.846 51.9056C205.846 52.3291 206.185 52.6728 206.602 52.6728Z" fill="#6C2A29"/>
<path d="M215.128 52.6728C215.547 52.6728 215.885 52.3291 215.885 51.9056C215.885 51.4822 215.547 51.1393 215.128 51.1393C214.711 51.1393 214.372 51.4822 214.372 51.9056C214.372 52.3291 214.711 52.6728 215.128 52.6728Z" fill="#6C2A29"/>
<path d="M223.654 52.6728C224.073 52.6728 224.411 52.3291 224.411 51.9056C224.411 51.4822 224.073 51.1393 223.654 51.1393C223.238 51.1393 222.898 51.4822 222.898 51.9056C222.898 52.3291 223.238 52.6728 223.654 52.6728Z" fill="#6C2A29"/>
<path d="M232.181 52.6728C232.598 52.6728 232.938 52.3291 232.938 51.9056C232.938 51.4822 232.598 51.1393 232.181 51.1393C231.763 51.1393 231.425 51.4822 231.425 51.9056C231.425 52.3291 231.763 52.6728 232.181 52.6728Z" fill="#6C2A29"/>
<path d="M240.707 52.6728C241.125 52.6728 241.463 52.3291 241.463 51.9056C241.463 51.4822 241.125 51.1393 240.707 51.1393C240.289 51.1393 239.951 51.4822 239.951 51.9056C239.951 52.3291 240.289 52.6728 240.707 52.6728Z" fill="#6C2A29"/>
<path d="M249.232 52.6728C249.65 52.6728 249.988 52.3291 249.988 51.9056C249.988 51.4822 249.65 51.1393 249.232 51.1393C248.815 51.1393 248.477 51.4822 248.477 51.9056C248.477 52.3291 248.815 52.6728 249.232 52.6728Z" fill="#6C2A29"/>
<path d="M257.757 52.6728C258.176 52.6728 258.514 52.3291 258.514 51.9056C258.514 51.4822 258.176 51.1393 257.757 51.1393C257.34 51.1393 257.002 51.4822 257.002 51.9056C257.002 52.3291 257.34 52.6728 257.757 52.6728Z" fill="#6C2A29"/>
<path d="M266.283 52.6728C266.702 52.6728 267.04 52.3291 267.04 51.9056C267.04 51.4822 266.702 51.1393 266.283 51.1393C265.867 51.1393 265.528 51.4822 265.528 51.9056C265.528 52.3291 265.867 52.6728 266.283 52.6728Z" fill="#6C2A29"/>
<path d="M6.2432 61.4595C6.73952 61.4595 7.14077 61.0518 7.14077 60.5487C7.14077 60.0456 6.73952 59.6379 6.2432 59.6379C5.74689 59.6379 5.34473 60.0456 5.34473 60.5487C5.34473 61.0518 5.74689 61.4595 6.2432 61.4595Z" fill="#6C2A29"/>
<path d="M14.7696 61.4595C15.2659 61.4595 15.6681 61.0518 15.6681 60.5487C15.6681 60.0456 15.2659 59.6379 14.7696 59.6379C14.2733 59.6379 13.8711 60.0456 13.8711 60.5487C13.8711 61.0518 14.2733 61.4595 14.7696 61.4595Z" fill="#6C2A29"/>
<path d="M23.295 61.4595C23.7913 61.4595 24.1934 61.0518 24.1934 60.5487C24.1934 60.0456 23.7913 59.6379 23.295 59.6379C22.7987 59.6379 22.3965 60.0456 22.3965 60.5487C22.3965 61.0518 22.7987 61.4595 23.295 61.4595Z" fill="#6C2A29"/>
<path d="M31.8204 61.4595C32.3167 61.4595 32.7188 61.0518 32.7188 60.5487C32.7188 60.0456 32.3167 59.6379 31.8204 59.6379C31.324 59.6379 30.9219 60.0456 30.9219 60.5487C30.9219 61.0518 31.324 61.4595 31.8204 61.4595Z" fill="#6C2A29"/>
<path d="M40.3468 61.4595C40.8431 61.4595 41.2453 61.0518 41.2453 60.5487C41.2453 60.0456 40.8431 59.6379 40.3468 59.6379C39.8505 59.6379 39.4492 60.0456 39.4492 60.5487C39.4492 61.0518 39.8505 61.4595 40.3468 61.4595Z" fill="#6C2A29"/>
<path d="M48.8722 61.4595C49.3685 61.4595 49.7706 61.0518 49.7706 60.5487C49.7706 60.0456 49.3685 59.6379 48.8722 59.6379C48.3759 59.6379 47.9746 60.0456 47.9746 60.5487C47.9746 61.0518 48.3759 61.4595 48.8722 61.4595Z" fill="#6C2A29"/>
<path d="M57.3985 61.4595C57.8948 61.4595 58.297 61.0518 58.297 60.5487C58.297 60.0456 57.8948 59.6379 57.3985 59.6379C56.9022 59.6379 56.5 60.0456 56.5 60.5487C56.5 61.0518 56.9022 61.4595 57.3985 61.4595Z" fill="#6C2A29"/>
<path d="M65.9248 61.4595C66.4212 61.4595 66.8224 61.0518 66.8224 60.5487C66.8224 60.0456 66.4212 59.6379 65.9248 59.6379C65.4285 59.6379 65.0264 60.0456 65.0264 60.5487C65.0264 61.0518 65.4285 61.4595 65.9248 61.4595Z" fill="#6C2A29"/>
<path d="M74.4512 61.4595C74.9475 61.4595 75.3488 61.0518 75.3488 60.5487C75.3488 60.0456 74.9475 59.6379 74.4512 59.6379C73.954 59.6379 73.5527 60.0456 73.5527 60.5487C73.5527 61.0518 73.954 61.4595 74.4512 61.4595Z" fill="#6C2A29"/>
<path d="M82.9766 61.4595C83.4729 61.4595 83.8751 61.0518 83.8751 60.5487C83.8751 60.0456 83.4729 59.6379 82.9766 59.6379C82.4803 59.6379 82.0781 60.0456 82.0781 60.5487C82.0781 61.0518 82.4803 61.4595 82.9766 61.4595Z" fill="#6C2A29"/>
<path d="M91.502 61.4595C91.9983 61.4595 92.4005 61.0518 92.4005 60.5487C92.4005 60.0456 91.9983 59.6379 91.502 59.6379C91.0057 59.6379 90.6035 60.0456 90.6035 60.5487C90.6035 61.0518 91.0057 61.4595 91.502 61.4595Z" fill="#6C2A29"/>
<path d="M100.028 61.4595C100.525 61.4595 100.927 61.0518 100.927 60.5487C100.927 60.0456 100.525 59.6379 100.028 59.6379C99.5311 59.6379 99.1299 60.0456 99.1299 60.5487C99.1299 61.0518 99.5311 61.4595 100.028 61.4595Z" fill="#6C2A29"/>
<path d="M108.554 61.4595C109.05 61.4595 109.452 61.0518 109.452 60.5487C109.452 60.0456 109.05 59.6379 108.554 59.6379C108.057 59.6379 107.656 60.0456 107.656 60.5487C107.656 61.0518 108.057 61.4595 108.554 61.4595Z" fill="#6C2A29"/>
<path d="M117.079 61.4595C117.576 61.4595 117.979 61.0518 117.979 60.5487C117.979 60.0456 117.576 59.6379 117.079 59.6379C116.584 59.6379 116.182 60.0456 116.182 60.5487C116.182 61.0518 116.584 61.4595 117.079 61.4595Z" fill="#6C2A29"/>
<path d="M125.606 61.4595C126.103 61.4595 126.505 61.0518 126.505 60.5487C126.505 60.0456 126.103 59.6379 125.606 59.6379C125.11 59.6379 124.708 60.0456 124.708 60.5487C124.708 61.0518 125.11 61.4595 125.606 61.4595Z" fill="#6C2A29"/>
<path d="M134.132 61.4595C134.629 61.4595 135.031 61.0518 135.031 60.5487C135.031 60.0456 134.629 59.6379 134.132 59.6379C133.637 59.6379 133.234 60.0456 133.234 60.5487C133.234 61.0518 133.637 61.4595 134.132 61.4595Z" fill="#6C2A29"/>
<path d="M142.657 61.4595C143.155 61.4595 143.557 61.0518 143.557 60.5487C143.557 60.0456 143.155 59.6379 142.657 59.6379C142.162 59.6379 141.76 60.0456 141.76 60.5487C141.76 61.0518 142.162 61.4595 142.657 61.4595Z" fill="#6C2A29"/>
<path d="M151.183 61.4595C151.68 61.4595 152.082 61.0518 152.082 60.5487C152.082 60.0456 151.68 59.6379 151.183 59.6379C150.686 59.6379 150.285 60.0456 150.285 60.5487C150.285 61.0518 150.686 61.4595 151.183 61.4595Z" fill="#6C2A29"/>
<path d="M159.709 61.4595C160.205 61.4595 160.608 61.0518 160.608 60.5487C160.608 60.0456 160.205 59.6379 159.709 59.6379C159.213 59.6379 158.812 60.0456 158.812 60.5487C158.812 61.0518 159.213 61.4595 159.709 61.4595Z" fill="#6C2A29"/>
<path d="M168.236 61.4595C168.733 61.4595 169.135 61.0518 169.135 60.5487C169.135 60.0456 168.733 59.6379 168.236 59.6379C167.74 59.6379 167.338 60.0456 167.338 60.5487C167.338 61.0518 167.74 61.4595 168.236 61.4595Z" fill="#6C2A29"/>
<path d="M176.762 61.4595C177.258 61.4595 177.66 61.0518 177.66 60.5487C177.66 60.0456 177.258 59.6379 176.762 59.6379C176.265 59.6379 175.863 60.0456 175.863 60.5487C175.863 61.0518 176.265 61.4595 176.762 61.4595Z" fill="#6C2A29"/>
<path d="M185.287 61.4595C185.783 61.4595 186.186 61.0518 186.186 60.5487C186.186 60.0456 185.783 59.6379 185.287 59.6379C184.791 59.6379 184.389 60.0456 184.389 60.5487C184.389 61.0518 184.791 61.4595 185.287 61.4595Z" fill="#6C2A29"/>
<path d="M193.814 61.4595C194.311 61.4595 194.713 61.0518 194.713 60.5487C194.713 60.0456 194.311 59.6379 193.814 59.6379C193.318 59.6379 192.916 60.0456 192.916 60.5487C192.916 61.0518 193.318 61.4595 193.814 61.4595Z" fill="#6C2A29"/>
<path d="M202.339 61.4595C202.836 61.4595 203.238 61.0518 203.238 60.5487C203.238 60.0456 202.836 59.6379 202.339 59.6379C201.844 59.6379 201.441 60.0456 201.441 60.5487C201.441 61.0518 201.844 61.4595 202.339 61.4595Z" fill="#6C2A29"/>
<path d="M210.864 61.4595C211.362 61.4595 211.764 61.0518 211.764 60.5487C211.764 60.0456 211.362 59.6379 210.864 59.6379C210.369 59.6379 209.967 60.0456 209.967 60.5487C209.967 61.0518 210.369 61.4595 210.864 61.4595Z" fill="#6C2A29"/>
<path d="M219.391 61.4595C219.888 61.4595 220.289 61.0518 220.289 60.5487C220.289 60.0456 219.888 59.6379 219.391 59.6379C218.895 59.6379 218.493 60.0456 218.493 60.5487C218.493 61.0518 218.895 61.4595 219.391 61.4595Z" fill="#6C2A29"/>
<path d="M227.918 61.4595C228.414 61.4595 228.816 61.0518 228.816 60.5487C228.816 60.0456 228.414 59.6379 227.918 59.6379C227.421 59.6379 227.02 60.0456 227.02 60.5487C227.02 61.0518 227.421 61.4595 227.918 61.4595Z" fill="#6C2A29"/>
<path d="M236.443 61.4595C236.94 61.4595 237.342 61.0518 237.342 60.5487C237.342 60.0456 236.94 59.6379 236.443 59.6379C235.947 59.6379 235.545 60.0456 235.545 60.5487C235.545 61.0518 235.947 61.4595 236.443 61.4595Z" fill="#6C2A29"/>
<path d="M244.969 61.4595C245.465 61.4595 245.867 61.0518 245.867 60.5487C245.867 60.0456 245.465 59.6379 244.969 59.6379C244.472 59.6379 244.07 60.0456 244.07 60.5487C244.07 61.0518 244.472 61.4595 244.969 61.4595Z" fill="#6C2A29"/>
<path d="M253.495 61.4595C253.992 61.4595 254.395 61.0518 254.395 60.5487C254.395 60.0456 253.992 59.6379 253.495 59.6379C253 59.6379 252.598 60.0456 252.598 60.5487C252.598 61.0518 253 61.4595 253.495 61.4595Z" fill="#6C2A29"/>
<path d="M262.021 61.4595C262.518 61.4595 262.92 61.0518 262.92 60.5487C262.92 60.0456 262.518 59.6379 262.021 59.6379C261.525 59.6379 261.123 60.0456 261.123 60.5487C261.123 61.0518 261.525 61.4595 262.021 61.4595Z" fill="#6C2A29"/>
<path d="M270.546 61.4595C271.043 61.4595 271.445 61.0518 271.445 60.5487C271.445 60.0456 271.043 59.6379 270.546 59.6379C270.051 59.6379 269.648 60.0456 269.648 60.5487C269.648 61.0518 270.051 61.4595 270.546 61.4595Z" fill="#6C2A29"/>
<path d="M1.98052 70.2471C2.55452 70.2471 3.02067 69.7746 3.02067 69.1927C3.02067 68.6099 2.55452 68.1382 1.98052 68.1382C1.4056 68.1382 0.939453 68.6099 0.939453 69.1927C0.939453 69.7746 1.4056 70.2471 1.98052 70.2471Z" fill="#6C2A29"/>
<path d="M10.506 70.2471C11.08 70.2471 11.5461 69.7746 11.5461 69.1927C11.5461 68.6099 11.08 68.1382 10.506 68.1382C9.93197 68.1382 9.46582 68.6099 9.46582 69.1927C9.46582 69.7746 9.93197 70.2471 10.506 70.2471Z" fill="#6C2A29"/>
<path d="M19.0323 70.2471C19.6063 70.2471 20.0725 69.7746 20.0725 69.1927C20.0725 68.6099 19.6063 68.1382 19.0323 68.1382C18.4574 68.1382 17.9922 68.6099 17.9922 69.1927C17.9922 69.7746 18.4574 70.2471 19.0323 70.2471Z" fill="#6C2A29"/>
<path d="M27.5577 70.2471C28.1317 70.2471 28.5979 69.7746 28.5979 69.1927C28.5979 68.6099 28.1317 68.1382 27.5577 68.1382C26.9837 68.1382 26.5176 68.6099 26.5176 69.1927C26.5176 69.7746 26.9837 70.2471 27.5577 70.2471Z" fill="#6C2A29"/>
<path d="M36.0831 70.2471C36.658 70.2471 37.1242 69.7746 37.1242 69.1927C37.1242 68.6099 36.658 68.1382 36.0831 68.1382C35.5091 68.1382 35.043 68.6099 35.043 69.1927C35.043 69.7746 35.5091 70.2471 36.0831 70.2471Z" fill="#6C2A29"/>
<path d="M44.6105 70.2471C45.1854 70.2471 45.6506 69.7746 45.6506 69.1927C45.6506 68.6099 45.1854 68.1382 44.6105 68.1382C44.0365 68.1382 43.5703 68.6099 43.5703 69.1927C43.5703 69.7746 44.0365 70.2471 44.6105 70.2471Z" fill="#6C2A29"/>
<path d="M53.1358 70.2471C53.7099 70.2471 54.176 69.7746 54.176 69.1927C54.176 68.6099 53.7099 68.1382 53.1358 68.1382C52.5619 68.1382 52.0957 68.6099 52.0957 69.1927C52.0957 69.7746 52.5619 70.2471 53.1358 70.2471Z" fill="#6C2A29"/>
<path d="M61.6612 70.2471C62.2352 70.2471 62.7014 69.7746 62.7014 69.1927C62.7014 68.6099 62.2352 68.1382 61.6612 68.1382C61.0863 68.1382 60.6211 68.6099 60.6211 69.1927C60.6211 69.7746 61.0863 70.2471 61.6612 70.2471Z" fill="#6C2A29"/>
<path d="M70.1876 70.2471C70.7616 70.2471 71.2277 69.7746 71.2277 69.1927C71.2277 68.6099 70.7616 68.1382 70.1876 68.1382C69.6126 68.1382 69.1465 68.6099 69.1465 69.1927C69.1465 69.7746 69.6126 70.2471 70.1876 70.2471Z" fill="#6C2A29"/>
<path d="M78.714 70.2471C79.288 70.2471 79.7541 69.7746 79.7541 69.1927C79.7541 68.6099 79.288 68.1382 78.714 68.1382C78.1391 68.1382 77.6738 68.6099 77.6738 69.1927C77.6738 69.7746 78.1391 70.2471 78.714 70.2471Z" fill="#6C2A29"/>
<path d="M87.2394 70.2471C87.8134 70.2471 88.2795 69.7746 88.2795 69.1927C88.2795 68.6099 87.8134 68.1382 87.2394 68.1382C86.6654 68.1382 86.1992 68.6099 86.1992 69.1927C86.1992 69.7746 86.6654 70.2471 87.2394 70.2471Z" fill="#6C2A29"/>
<path d="M95.7648 70.2471C96.3388 70.2471 96.8049 69.7746 96.8049 69.1927C96.8049 68.6099 96.3388 68.1382 95.7648 68.1382C95.1908 68.1382 94.7246 68.6099 94.7246 69.1927C94.7246 69.7746 95.1908 70.2471 95.7648 70.2471Z" fill="#6C2A29"/>
<path d="M104.291 70.2471C104.866 70.2471 105.332 69.7746 105.332 69.1927C105.332 68.6099 104.866 68.1382 104.291 68.1382C103.717 68.1382 103.251 68.6099 103.251 69.1927C103.251 69.7746 103.717 70.2471 104.291 70.2471Z" fill="#6C2A29"/>
<path d="M112.817 70.2471C113.392 70.2471 113.859 69.7746 113.859 69.1927C113.859 68.6099 113.392 68.1382 112.817 68.1382C112.243 68.1382 111.777 68.6099 111.777 69.1927C111.777 69.7746 112.243 70.2471 112.817 70.2471Z" fill="#6C2A29"/>
<path d="M121.342 70.2471C121.918 70.2471 122.383 69.7746 122.383 69.1927C122.383 68.6099 121.918 68.1382 121.342 68.1382C120.769 68.1382 120.303 68.6099 120.303 69.1927C120.303 69.7746 120.769 70.2471 121.342 70.2471Z" fill="#6C2A29"/>
<path d="M129.868 70.2471C130.444 70.2471 130.909 69.7746 130.909 69.1927C130.909 68.6099 130.444 68.1382 129.868 68.1382C129.295 68.1382 128.828 68.6099 128.828 69.1927C128.828 69.7746 129.295 70.2471 129.868 70.2471Z" fill="#6C2A29"/>
<path d="M138.394 70.2471C138.969 70.2471 139.435 69.7746 139.435 69.1927C139.435 68.6099 138.969 68.1382 138.394 68.1382C137.821 68.1382 137.354 68.6099 137.354 69.1927C137.354 69.7746 137.821 70.2471 138.394 70.2471Z" fill="#6C2A29"/>
<path d="M146.92 70.2471C147.496 70.2471 147.961 69.7746 147.961 69.1927C147.961 68.6099 147.496 68.1382 146.92 68.1382C146.347 68.1382 145.88 68.6099 145.88 69.1927C145.88 69.7746 146.347 70.2471 146.92 70.2471Z" fill="#6C2A29"/>
<path d="M155.446 70.2471C156.022 70.2471 156.487 69.7746 156.487 69.1927C156.487 68.6099 156.022 68.1382 155.446 68.1382C154.872 68.1382 154.406 68.6099 154.406 69.1927C154.406 69.7746 154.872 70.2471 155.446 70.2471Z" fill="#6C2A29"/>
<path d="M163.973 70.2471C164.547 70.2471 165.013 69.7746 165.013 69.1927C165.013 68.6099 164.547 68.1382 163.973 68.1382C163.398 68.1382 162.932 68.6099 162.932 69.1927C162.932 69.7746 163.398 70.2471 163.973 70.2471Z" fill="#6C2A29"/>
<path d="M172.499 70.2471C173.074 70.2471 173.54 69.7746 173.54 69.1927C173.54 68.6099 173.074 68.1382 172.499 68.1382C171.925 68.1382 171.459 68.6099 171.459 69.1927C171.459 69.7746 171.925 70.2471 172.499 70.2471Z" fill="#6C2A29"/>
<path d="M181.025 70.2471C181.599 70.2471 182.066 69.7746 182.066 69.1927C182.066 68.6099 181.599 68.1382 181.025 68.1382C180.451 68.1382 179.984 68.6099 179.984 69.1927C179.984 69.7746 180.451 70.2471 181.025 70.2471Z" fill="#6C2A29"/>
<path d="M189.551 70.2471C190.126 70.2471 190.592 69.7746 190.592 69.1927C190.592 68.6099 190.126 68.1382 189.551 68.1382C188.977 68.1382 188.51 68.6099 188.51 69.1927C188.51 69.7746 188.977 70.2471 189.551 70.2471Z" fill="#6C2A29"/>
<path d="M198.075 70.2471C198.651 70.2471 199.116 69.7746 199.116 69.1927C199.116 68.6099 198.651 68.1382 198.075 68.1382C197.502 68.1382 197.035 68.6099 197.035 69.1927C197.035 69.7746 197.502 70.2471 198.075 70.2471Z" fill="#6C2A29"/>
<path d="M206.602 70.2471C207.178 70.2471 207.643 69.7746 207.643 69.1927C207.643 68.6099 207.178 68.1382 206.602 68.1382C206.029 68.1382 205.562 68.6099 205.562 69.1927C205.562 69.7746 206.029 70.2471 206.602 70.2471Z" fill="#6C2A29"/>
<path d="M215.128 70.2471C215.704 70.2471 216.169 69.7746 216.169 69.1927C216.169 68.6099 215.704 68.1382 215.128 68.1382C214.554 68.1382 214.088 68.6099 214.088 69.1927C214.088 69.7746 214.554 70.2471 215.128 70.2471Z" fill="#6C2A29"/>
<path d="M223.653 70.2471C224.229 70.2471 224.694 69.7746 224.694 69.1927C224.694 68.6099 224.229 68.1382 223.653 68.1382C223.079 68.1382 222.613 68.6099 222.613 69.1927C222.613 69.7746 223.079 70.2471 223.653 70.2471Z" fill="#6C2A29"/>
<path d="M232.181 70.2471C232.757 70.2471 233.222 69.7746 233.222 69.1927C233.222 68.6099 232.757 68.1382 232.181 68.1382C231.607 68.1382 231.141 68.6099 231.141 69.1927C231.141 69.7746 231.607 70.2471 232.181 70.2471Z" fill="#6C2A29"/>
<path d="M240.706 70.2471C241.281 70.2471 241.747 69.7746 241.747 69.1927C241.747 68.6099 241.281 68.1382 240.706 68.1382C240.132 68.1382 239.666 68.6099 239.666 69.1927C239.666 69.7746 240.132 70.2471 240.706 70.2471Z" fill="#6C2A29"/>
<path d="M249.233 70.2471C249.807 70.2471 250.274 69.7746 250.274 69.1927C250.274 68.6099 249.807 68.1382 249.233 68.1382C248.659 68.1382 248.192 68.6099 248.192 69.1927C248.192 69.7746 248.659 70.2471 249.233 70.2471Z" fill="#6C2A29"/>
<path d="M257.758 70.2471C258.334 70.2471 258.799 69.7746 258.799 69.1927C258.799 68.6099 258.334 68.1382 257.758 68.1382C257.185 68.1382 256.719 68.6099 256.719 69.1927C256.719 69.7746 257.185 70.2471 257.758 70.2471Z" fill="#6C2A29"/>
<path d="M266.283 70.2471C266.859 70.2471 267.324 69.7746 267.324 69.1927C267.324 68.6099 266.859 68.1382 266.283 68.1382C265.71 68.1382 265.243 68.6099 265.243 69.1927C265.243 69.7746 265.71 70.2471 266.283 70.2471Z" fill="#6C2A29"/>
<path d="M6.24328 79.0328C6.89589 79.0328 7.42511 78.4963 7.42511 77.8348C7.42511 77.1732 6.89589 76.6367 6.24328 76.6367C5.59068 76.6367 5.06055 77.1732 5.06055 77.8348C5.06055 78.4963 5.59068 79.0328 6.24328 79.0328Z" fill="#6C2A29"/>
<path d="M14.7687 79.0328C15.4213 79.0328 15.9505 78.4963 15.9505 77.8348C15.9505 77.1732 15.4213 76.6367 14.7687 76.6367C14.1161 76.6367 13.5859 77.1732 13.5859 77.8348C13.5859 78.4963 14.1161 79.0328 14.7687 79.0328Z" fill="#6C2A29"/>
<path d="M23.2951 79.0328C23.9477 79.0328 24.4778 78.4963 24.4778 77.8348C24.4778 77.1732 23.9477 76.6367 23.2951 76.6367C22.6425 76.6367 22.1133 77.1732 22.1133 77.8348C22.1133 78.4963 22.6425 79.0328 23.2951 79.0328Z" fill="#6C2A29"/>
<path d="M31.8205 79.0328C32.4731 79.0328 33.0032 78.4963 33.0032 77.8348C33.0032 77.1732 32.4731 76.6367 31.8205 76.6367C31.1679 76.6367 30.6387 77.1732 30.6387 77.8348C30.6387 78.4963 31.1679 79.0328 31.8205 79.0328Z" fill="#6C2A29"/>
<path d="M40.3468 79.0328C40.9994 79.0328 41.5295 78.4963 41.5295 77.8348C41.5295 77.1732 40.9994 76.6367 40.3468 76.6367C39.6942 76.6367 39.1641 77.1732 39.1641 77.8348C39.1641 78.4963 39.6942 79.0328 40.3468 79.0328Z" fill="#6C2A29"/>
<path d="M48.8732 79.0328C49.5258 79.0328 50.056 78.4963 50.056 77.8348C50.056 77.1732 49.5258 76.6367 48.8732 76.6367C48.2206 76.6367 47.6914 77.1732 47.6914 77.8348C47.6914 78.4963 48.2206 79.0328 48.8732 79.0328Z" fill="#6C2A29"/>
<path d="M57.3986 79.0328C58.0512 79.0328 58.5814 78.4963 58.5814 77.8348C58.5814 77.1732 58.0512 76.6367 57.3986 76.6367C56.746 76.6367 56.2168 77.1732 56.2168 77.8348C56.2168 78.4963 56.746 79.0328 57.3986 79.0328Z" fill="#6C2A29"/>
<path d="M65.9249 79.0328C66.5775 79.0328 67.1068 78.4963 67.1068 77.8348C67.1068 77.1732 66.5775 76.6367 65.9249 76.6367C65.2723 76.6367 64.7422 77.1732 64.7422 77.8348C64.7422 78.4963 65.2723 79.0328 65.9249 79.0328Z" fill="#6C2A29"/>
<path d="M74.4503 79.0328C75.1029 79.0328 75.6321 78.4963 75.6321 77.8348C75.6321 77.1732 75.1029 76.6367 74.4503 76.6367C73.7977 76.6367 73.2676 77.1732 73.2676 77.8348C73.2676 78.4963 73.7977 79.0328 74.4503 79.0328Z" fill="#6C2A29"/>
<path d="M82.9767 79.0328C83.6293 79.0328 84.1595 78.4963 84.1595 77.8348C84.1595 77.1732 83.6293 76.6367 82.9767 76.6367C82.3241 76.6367 81.7949 77.1732 81.7949 77.8348C81.7949 78.4963 82.3241 79.0328 82.9767 79.0328Z" fill="#6C2A29"/>
<path d="M91.5021 79.0328C92.1547 79.0328 92.6849 78.4963 92.6849 77.8348C92.6849 77.1732 92.1547 76.6367 91.5021 76.6367C90.8495 76.6367 90.3203 77.1732 90.3203 77.8348C90.3203 78.4963 90.8495 79.0328 91.5021 79.0328Z" fill="#6C2A29"/>
<path d="M100.028 79.0328C100.681 79.0328 101.21 78.4963 101.21 77.8348C101.21 77.1732 100.681 76.6367 100.028 76.6367C99.3758 76.6367 98.8457 77.1732 98.8457 77.8348C98.8457 78.4963 99.3758 79.0328 100.028 79.0328Z" fill="#6C2A29"/>
<path d="M108.555 79.0328C109.207 79.0328 109.737 78.4963 109.737 77.8348C109.737 77.1732 109.207 76.6367 108.555 76.6367C107.902 76.6367 107.373 77.1732 107.373 77.8348C107.373 78.4963 107.902 79.0328 108.555 79.0328Z" fill="#6C2A29"/>
<path d="M117.079 79.0328C117.733 79.0328 118.262 78.4963 118.262 77.8348C118.262 77.1732 117.733 76.6367 117.079 76.6367C116.428 76.6367 115.898 77.1732 115.898 77.8348C115.898 78.4963 116.428 79.0328 117.079 79.0328Z" fill="#6C2A29"/>
<path d="M125.605 79.0328C126.258 79.0328 126.787 78.4963 126.787 77.8348C126.787 77.1732 126.258 76.6367 125.605 76.6367C124.953 76.6367 124.424 77.1732 124.424 77.8348C124.424 78.4963 124.953 79.0328 125.605 79.0328Z" fill="#6C2A29"/>
<path d="M134.131 79.0328C134.785 79.0328 135.314 78.4963 135.314 77.8348C135.314 77.1732 134.785 76.6367 134.131 76.6367C133.479 76.6367 132.95 77.1732 132.95 77.8348C132.95 78.4963 133.479 79.0328 134.131 79.0328Z" fill="#6C2A29"/>
<path d="M142.657 79.0328C143.311 79.0328 143.84 78.4963 143.84 77.8348C143.84 77.1732 143.311 76.6367 142.657 76.6367C142.006 76.6367 141.477 77.1732 141.477 77.8348C141.477 78.4963 142.006 79.0328 142.657 79.0328Z" fill="#6C2A29"/>
<path d="M151.184 79.0328C151.837 79.0328 152.367 78.4963 152.367 77.8348C152.367 77.1732 151.837 76.6367 151.184 76.6367C150.531 76.6367 150.002 77.1732 150.002 77.8348C150.002 78.4963 150.531 79.0328 151.184 79.0328Z" fill="#6C2A29"/>
<path d="M159.709 79.0328C160.363 79.0328 160.891 78.4963 160.891 77.8348C160.891 77.1732 160.363 76.6367 159.709 76.6367C159.057 76.6367 158.527 77.1732 158.527 77.8348C158.527 78.4963 159.057 79.0328 159.709 79.0328Z" fill="#6C2A29"/>
<path d="M168.237 79.0328C168.89 79.0328 169.418 78.4963 169.418 77.8348C169.418 77.1732 168.89 76.6367 168.237 76.6367C167.584 76.6367 167.055 77.1732 167.055 77.8348C167.055 78.4963 167.584 79.0328 168.237 79.0328Z" fill="#6C2A29"/>
<path d="M176.762 79.0328C177.415 79.0328 177.944 78.4963 177.944 77.8348C177.944 77.1732 177.415 76.6367 176.762 76.6367C176.109 76.6367 175.58 77.1732 175.58 77.8348C175.58 78.4963 176.109 79.0328 176.762 79.0328Z" fill="#6C2A29"/>
<path d="M185.287 79.0328C185.94 79.0328 186.469 78.4963 186.469 77.8348C186.469 77.1732 185.94 76.6367 185.287 76.6367C184.635 76.6367 184.105 77.1732 184.105 77.8348C184.105 78.4963 184.635 79.0328 185.287 79.0328Z" fill="#6C2A29"/>
<path d="M193.813 79.0328C194.466 79.0328 194.995 78.4963 194.995 77.8348C194.995 77.1732 194.466 76.6367 193.813 76.6367C193.161 76.6367 192.632 77.1732 192.632 77.8348C192.632 78.4963 193.161 79.0328 193.813 79.0328Z" fill="#6C2A29"/>
<path d="M202.339 79.0328C202.993 79.0328 203.522 78.4963 203.522 77.8348C203.522 77.1732 202.993 76.6367 202.339 76.6367C201.687 76.6367 201.158 77.1732 201.158 77.8348C201.158 78.4963 201.687 79.0328 202.339 79.0328Z" fill="#6C2A29"/>
<path d="M210.865 79.0328C211.518 79.0328 212.047 78.4963 212.047 77.8348C212.047 77.1732 211.518 76.6367 210.865 76.6367C210.212 76.6367 209.684 77.1732 209.684 77.8348C209.684 78.4963 210.212 79.0328 210.865 79.0328Z" fill="#6C2A29"/>
<path d="M219.391 79.0328C220.044 79.0328 220.574 78.4963 220.574 77.8348C220.574 77.1732 220.044 76.6367 219.391 76.6367C218.738 76.6367 218.21 77.1732 218.21 77.8348C218.21 78.4963 218.738 79.0328 219.391 79.0328Z" fill="#6C2A29"/>
<path d="M227.917 79.0328C228.571 79.0328 229.099 78.4963 229.099 77.8348C229.099 77.1732 228.571 76.6367 227.917 76.6367C227.264 76.6367 226.734 77.1732 226.734 77.8348C226.734 78.4963 227.264 79.0328 227.917 79.0328Z" fill="#6C2A29"/>
<path d="M236.444 79.0328C237.096 79.0328 237.625 78.4963 237.625 77.8348C237.625 77.1732 237.096 76.6367 236.444 76.6367C235.791 76.6367 235.262 77.1732 235.262 77.8348C235.262 78.4963 235.791 79.0328 236.444 79.0328Z" fill="#6C2A29"/>
<path d="M244.969 79.0328C245.622 79.0328 246.151 78.4963 246.151 77.8348C246.151 77.1732 245.622 76.6367 244.969 76.6367C244.316 76.6367 243.787 77.1732 243.787 77.8348C243.787 78.4963 244.316 79.0328 244.969 79.0328Z" fill="#6C2A29"/>
<path d="M253.494 79.0328C254.148 79.0328 254.677 78.4963 254.677 77.8348C254.677 77.1732 254.148 76.6367 253.494 76.6367C252.843 76.6367 252.313 77.1732 252.313 77.8348C252.313 78.4963 252.843 79.0328 253.494 79.0328Z" fill="#6C2A29"/>
<path d="M262.021 79.0328C262.674 79.0328 263.203 78.4963 263.203 77.8348C263.203 77.1732 262.674 76.6367 262.021 76.6367C261.369 76.6367 260.84 77.1732 260.84 77.8348C260.84 78.4963 261.369 79.0328 262.021 79.0328Z" fill="#6C2A29"/>
<path d="M270.546 79.0328C271.2 79.0328 271.729 78.4963 271.729 77.8348C271.729 77.1732 271.2 76.6367 270.546 76.6367C269.894 76.6367 269.365 77.1732 269.365 77.8348C269.365 78.4963 269.894 79.0328 270.546 79.0328Z" fill="#6C2A29"/>
<path d="M1.98066 87.8204C2.71187 87.8204 3.30416 87.22 3.30416 86.4788C3.30416 85.7375 2.71187 85.1371 1.98066 85.1371C1.24945 85.1371 0.65625 85.7375 0.65625 86.4788C0.65625 87.22 1.24945 87.8204 1.98066 87.8204Z" fill="#6C2A29"/>
<path d="M10.5061 87.8204C11.2373 87.8204 11.8305 87.22 11.8305 86.4788C11.8305 85.7375 11.2373 85.1371 10.5061 85.1371C9.7749 85.1371 9.18262 85.7375 9.18262 86.4788C9.18262 87.22 9.7749 87.8204 10.5061 87.8204Z" fill="#6C2A29"/>
<path d="M19.0325 87.8204C19.7637 87.8204 20.356 87.22 20.356 86.4788C20.356 85.7375 19.7637 85.1371 19.0325 85.1371C18.3013 85.1371 17.709 85.7375 17.709 86.4788C17.709 87.22 18.3013 87.8204 19.0325 87.8204Z" fill="#6C2A29"/>
<path d="M27.5578 87.8204C28.289 87.8204 28.8813 87.22 28.8813 86.4788C28.8813 85.7375 28.289 85.1371 27.5578 85.1371C26.8266 85.1371 26.2334 85.7375 26.2334 86.4788C26.2334 87.22 26.8266 87.8204 27.5578 87.8204Z" fill="#6C2A29"/>
<path d="M36.0833 87.8204C36.8145 87.8204 37.4077 87.22 37.4077 86.4788C37.4077 85.7375 36.8145 85.1371 36.0833 85.1371C35.352 85.1371 34.7598 85.7375 34.7598 86.4788C34.7598 87.22 35.352 87.8204 36.0833 87.8204Z" fill="#6C2A29"/>
<path d="M44.6096 87.8204C45.3408 87.8204 45.9331 87.22 45.9331 86.4788C45.9331 85.7375 45.3408 85.1371 44.6096 85.1371C43.8784 85.1371 43.2861 85.7375 43.2861 86.4788C43.2861 87.22 43.8784 87.8204 44.6096 87.8204Z" fill="#6C2A29"/>
<path d="M53.136 87.8204C53.8672 87.8204 54.4595 87.22 54.4595 86.4788C54.4595 85.7375 53.8672 85.1371 53.136 85.1371C52.4048 85.1371 51.8125 85.7375 51.8125 86.4788C51.8125 87.22 52.4048 87.8204 53.136 87.8204Z" fill="#6C2A29"/>
<path d="M61.6614 87.8204C62.3926 87.8204 62.9849 87.22 62.9849 86.4788C62.9849 85.7375 62.3926 85.1371 61.6614 85.1371C60.9302 85.1371 60.3379 85.7375 60.3379 86.4788C60.3379 87.22 60.9302 87.8204 61.6614 87.8204Z" fill="#6C2A29"/>
<path d="M70.1877 87.8204C70.9189 87.8204 71.5112 87.22 71.5112 86.4788C71.5112 85.7375 70.9189 85.1371 70.1877 85.1371C69.4565 85.1371 68.8633 85.7375 68.8633 86.4788C68.8633 87.22 69.4565 87.8204 70.1877 87.8204Z" fill="#6C2A29"/>
<path d="M78.7141 87.8204C79.4453 87.8204 80.0385 87.22 80.0385 86.4788C80.0385 85.7375 79.4453 85.1371 78.7141 85.1371C77.9829 85.1371 77.3906 85.7375 77.3906 86.4788C77.3906 87.22 77.9829 87.8204 78.7141 87.8204Z" fill="#6C2A29"/>
<path d="M87.2395 87.8204C87.9707 87.8204 88.563 87.22 88.563 86.4788C88.563 85.7375 87.9707 85.1371 87.2395 85.1371C86.5083 85.1371 85.916 85.7375 85.916 86.4788C85.916 87.22 86.5083 87.8204 87.2395 87.8204Z" fill="#6C2A29"/>
<path d="M95.7658 87.8204C96.497 87.8204 97.0893 87.22 97.0893 86.4788C97.0893 85.7375 96.497 85.1371 95.7658 85.1371C95.0346 85.1371 94.4414 85.7375 94.4414 86.4788C94.4414 87.22 95.0346 87.8204 95.7658 87.8204Z" fill="#6C2A29"/>
<path d="M104.291 87.8204C105.022 87.8204 105.616 87.22 105.616 86.4788C105.616 85.7375 105.022 85.1371 104.291 85.1371C103.56 85.1371 102.968 85.7375 102.968 86.4788C102.968 87.22 103.56 87.8204 104.291 87.8204Z" fill="#6C2A29"/>
<path d="M112.818 87.8204C113.549 87.8204 114.142 87.22 114.142 86.4788C114.142 85.7375 113.549 85.1371 112.818 85.1371C112.086 85.1371 111.494 85.7375 111.494 86.4788C111.494 87.22 112.086 87.8204 112.818 87.8204Z" fill="#6C2A29"/>
<path d="M121.343 87.8204C122.075 87.8204 122.668 87.22 122.668 86.4788C122.668 85.7375 122.075 85.1371 121.343 85.1371C120.613 85.1371 120.02 85.7375 120.02 86.4788C120.02 87.22 120.613 87.8204 121.343 87.8204Z" fill="#6C2A29"/>
<path d="M129.868 87.8204C130.601 87.8204 131.193 87.22 131.193 86.4788C131.193 85.7375 130.601 85.1371 129.868 85.1371C129.138 85.1371 128.545 85.7375 128.545 86.4788C128.545 87.22 129.138 87.8204 129.868 87.8204Z" fill="#6C2A29"/>
<path d="M138.394 87.8204C139.126 87.8204 139.718 87.22 139.718 86.4788C139.718 85.7375 139.126 85.1371 138.394 85.1371C137.664 85.1371 137.07 85.7375 137.07 86.4788C137.07 87.22 137.664 87.8204 138.394 87.8204Z" fill="#6C2A29"/>
<path d="M146.92 87.8204C147.652 87.8204 148.245 87.22 148.245 86.4788C148.245 85.7375 147.652 85.1371 146.92 85.1371C146.189 85.1371 145.597 85.7375 145.597 86.4788C145.597 87.22 146.189 87.8204 146.92 87.8204Z" fill="#6C2A29"/>
<path d="M155.447 87.8204C156.179 87.8204 156.771 87.22 156.771 86.4788C156.771 85.7375 156.179 85.1371 155.447 85.1371C154.715 85.1371 154.123 85.7375 154.123 86.4788C154.123 87.22 154.715 87.8204 155.447 87.8204Z" fill="#6C2A29"/>
<path d="M163.973 87.8204C164.704 87.8204 165.296 87.22 165.296 86.4788C165.296 85.7375 164.704 85.1371 163.973 85.1371C163.241 85.1371 162.648 85.7375 162.648 86.4788C162.648 87.22 163.241 87.8204 163.973 87.8204Z" fill="#6C2A29"/>
<path d="M172.499 87.8204C173.231 87.8204 173.824 87.22 173.824 86.4788C173.824 85.7375 173.231 85.1371 172.499 85.1371C171.768 85.1371 171.176 85.7375 171.176 86.4788C171.176 87.22 171.768 87.8204 172.499 87.8204Z" fill="#6C2A29"/>
<path d="M181.026 87.8204C181.757 87.8204 182.35 87.22 182.35 86.4788C182.35 85.7375 181.757 85.1371 181.026 85.1371C180.294 85.1371 179.701 85.7375 179.701 86.4788C179.701 87.22 180.294 87.8204 181.026 87.8204Z" fill="#6C2A29"/>
<path d="M189.551 87.8204C190.282 87.8204 190.875 87.22 190.875 86.4788C190.875 85.7375 190.282 85.1371 189.551 85.1371C188.82 85.1371 188.227 85.7375 188.227 86.4788C188.227 87.22 188.82 87.8204 189.551 87.8204Z" fill="#6C2A29"/>
<path d="M198.075 87.8204C198.808 87.8204 199.401 87.22 199.401 86.4788C199.401 85.7375 198.808 85.1371 198.075 85.1371C197.345 85.1371 196.752 85.7375 196.752 86.4788C196.752 87.22 197.345 87.8204 198.075 87.8204Z" fill="#6C2A29"/>
<path d="M206.602 87.8204C207.334 87.8204 207.926 87.22 207.926 86.4788C207.926 85.7375 207.334 85.1371 206.602 85.1371C205.871 85.1371 205.278 85.7375 205.278 86.4788C205.278 87.22 205.871 87.8204 206.602 87.8204Z" fill="#6C2A29"/>
<path d="M215.128 87.8204C215.86 87.8204 216.453 87.22 216.453 86.4788C216.453 85.7375 215.86 85.1371 215.128 85.1371C214.397 85.1371 213.805 85.7375 213.805 86.4788C213.805 87.22 214.397 87.8204 215.128 87.8204Z" fill="#6C2A29"/>
<path d="M223.654 87.8204C224.386 87.8204 224.978 87.22 224.978 86.4788C224.978 85.7375 224.386 85.1371 223.654 85.1371C222.922 85.1371 222.33 85.7375 222.33 86.4788C222.33 87.22 222.922 87.8204 223.654 87.8204Z" fill="#6C2A29"/>
<path d="M232.181 87.8204C232.913 87.8204 233.505 87.22 233.505 86.4788C233.505 85.7375 232.913 85.1371 232.181 85.1371C231.45 85.1371 230.857 85.7375 230.857 86.4788C230.857 87.22 231.45 87.8204 232.181 87.8204Z" fill="#6C2A29"/>
<path d="M240.706 87.8204C241.438 87.8204 242.031 87.22 242.031 86.4788C242.031 85.7375 241.438 85.1371 240.706 85.1371C239.975 85.1371 239.383 85.7375 239.383 86.4788C239.383 87.22 239.975 87.8204 240.706 87.8204Z" fill="#6C2A29"/>
<path d="M249.233 87.8204C249.964 87.8204 250.557 87.22 250.557 86.4788C250.557 85.7375 249.964 85.1371 249.233 85.1371C248.501 85.1371 247.909 85.7375 247.909 86.4788C247.909 87.22 248.501 87.8204 249.233 87.8204Z" fill="#6C2A29"/>
<path d="M257.757 87.8204C258.489 87.8204 259.082 87.22 259.082 86.4788C259.082 85.7375 258.489 85.1371 257.757 85.1371C257.027 85.1371 256.434 85.7375 256.434 86.4788C256.434 87.22 257.027 87.8204 257.757 87.8204Z" fill="#6C2A29"/>
<path d="M266.283 87.8204C267.016 87.8204 267.608 87.22 267.608 86.4788C267.608 85.7375 267.016 85.1371 266.283 85.1371C265.553 85.1371 264.96 85.7375 264.96 86.4788C264.96 87.22 265.553 87.8204 266.283 87.8204Z" fill="#6C2A29"/>
<path d="M6.24343 96.6071C7.05233 96.6071 7.70951 95.9418 7.70951 95.1209C7.70951 94.3009 7.05233 93.6356 6.24343 93.6356C5.43361 93.6356 4.77734 94.3009 4.77734 95.1209C4.77734 95.9418 5.43361 96.6071 6.24343 96.6071Z" fill="#6C2A29"/>
<path d="M14.7688 96.6071C15.5786 96.6071 16.2349 95.9418 16.2349 95.1209C16.2349 94.3009 15.5786 93.6356 14.7688 93.6356C13.9599 93.6356 13.3027 94.3009 13.3027 95.1209C13.3027 95.9418 13.9599 96.6071 14.7688 96.6071Z" fill="#6C2A29"/>
<path d="M23.2942 96.6071C24.104 96.6071 24.7603 95.9418 24.7603 95.1209C24.7603 94.3009 24.104 93.6356 23.2942 93.6356C22.4844 93.6356 21.8281 94.3009 21.8281 95.1209C21.8281 95.9418 22.4844 96.6071 23.2942 96.6071Z" fill="#6C2A29"/>
<path d="M31.8206 96.6071C32.6295 96.6071 33.2867 95.9418 33.2867 95.1209C33.2867 94.3009 32.6295 93.6356 31.8206 93.6356C31.0108 93.6356 30.3545 94.3009 30.3545 95.1209C30.3545 95.9418 31.0108 96.6071 31.8206 96.6071Z" fill="#6C2A29"/>
<path d="M40.3469 96.6071C41.1568 96.6071 41.813 95.9418 41.813 95.1209C41.813 94.3009 41.1568 93.6356 40.3469 93.6356C39.538 93.6356 38.8809 94.3009 38.8809 95.1209C38.8809 95.9418 39.538 96.6071 40.3469 96.6071Z" fill="#6C2A29"/>
<path d="M48.8734 96.6071C49.6832 96.6071 50.3394 95.9418 50.3394 95.1209C50.3394 94.3009 49.6832 93.6356 48.8734 93.6356C48.0636 93.6356 47.4082 94.3009 47.4082 95.1209C47.4082 95.9418 48.0636 96.6071 48.8734 96.6071Z" fill="#6C2A29"/>
<path d="M57.3987 96.6071C58.2085 96.6071 58.8648 95.9418 58.8648 95.1209C58.8648 94.3009 58.2085 93.6356 57.3987 93.6356C56.5889 93.6356 55.9326 94.3009 55.9326 95.1209C55.9326 95.9418 56.5889 96.6071 57.3987 96.6071Z" fill="#6C2A29"/>
<path d="M65.9251 96.6071C66.7349 96.6071 67.3912 95.9418 67.3912 95.1209C67.3912 94.3009 66.7349 93.6356 65.9251 93.6356C65.1153 93.6356 64.459 94.3009 64.459 95.1209C64.459 95.9418 65.1153 96.6071 65.9251 96.6071Z" fill="#6C2A29"/>
<path d="M74.4505 96.6071C75.2594 96.6071 75.9165 95.9418 75.9165 95.1209C75.9165 94.3009 75.2594 93.6356 74.4505 93.6356C73.6406 93.6356 72.9844 94.3009 72.9844 95.1209C72.9844 95.9418 73.6406 96.6071 74.4505 96.6071Z" fill="#6C2A29"/>
<path d="M82.9758 96.6071C83.7857 96.6071 84.4419 95.9418 84.4419 95.1209C84.4419 94.3009 83.7857 93.6356 82.9758 93.6356C82.166 93.6356 81.5098 94.3009 81.5098 95.1209C81.5098 95.9418 82.166 96.6071 82.9758 96.6071Z" fill="#6C2A29"/>
<path d="M91.5022 96.6071C92.312 96.6071 92.9683 95.9418 92.9683 95.1209C92.9683 94.3009 92.312 93.6356 91.5022 93.6356C90.6924 93.6356 90.0361 94.3009 90.0361 95.1209C90.0361 95.9418 90.6924 96.6071 91.5022 96.6071Z" fill="#6C2A29"/>
<path d="M100.029 96.6071C100.837 96.6071 101.495 95.9418 101.495 95.1209C101.495 94.3009 100.837 93.6356 100.029 93.6356C99.2188 93.6356 98.5625 94.3009 98.5625 95.1209C98.5625 95.9418 99.2188 96.6071 100.029 96.6071Z" fill="#6C2A29"/>
<path d="M108.554 96.6071C109.364 96.6071 110.02 95.9418 110.02 95.1209C110.02 94.3009 109.364 93.6356 108.554 93.6356C107.744 93.6356 107.088 94.3009 107.088 95.1209C107.088 95.9418 107.744 96.6071 108.554 96.6071Z" fill="#6C2A29"/>
<path d="M117.079 96.6071C117.89 96.6071 118.546 95.9418 118.546 95.1209C118.546 94.3009 117.89 93.6356 117.079 93.6356C116.271 93.6356 115.615 94.3009 115.615 95.1209C115.615 95.9418 116.271 96.6071 117.079 96.6071Z" fill="#6C2A29"/>
<path d="M125.606 96.6071C126.417 96.6071 127.073 95.9418 127.073 95.1209C127.073 94.3009 126.417 93.6356 125.606 93.6356C124.798 93.6356 124.141 94.3009 124.141 95.1209C124.141 95.9418 124.798 96.6071 125.606 96.6071Z" fill="#6C2A29"/>
<path d="M134.131 96.6071C134.942 96.6071 135.598 95.9418 135.598 95.1209C135.598 94.3009 134.942 93.6356 134.131 93.6356C133.322 93.6356 132.667 94.3009 132.667 95.1209C132.667 95.9418 133.322 96.6071 134.131 96.6071Z" fill="#6C2A29"/>
<path d="M142.658 96.6071C143.468 96.6071 144.124 95.9418 144.124 95.1209C144.124 94.3009 143.468 93.6356 142.658 93.6356C141.849 93.6356 141.191 94.3009 141.191 95.1209C141.191 95.9418 141.849 96.6071 142.658 96.6071Z" fill="#6C2A29"/>
<path d="M151.183 96.6071C151.994 96.6071 152.65 95.9418 152.65 95.1209C152.65 94.3009 151.994 93.6356 151.183 93.6356C150.374 93.6356 149.717 94.3009 149.717 95.1209C149.717 95.9418 150.374 96.6071 151.183 96.6071Z" fill="#6C2A29"/>
<path d="M159.709 96.6071C160.52 96.6071 161.176 95.9418 161.176 95.1209C161.176 94.3009 160.52 93.6356 159.709 93.6356C158.9 93.6356 158.243 94.3009 158.243 95.1209C158.243 95.9418 158.9 96.6071 159.709 96.6071Z" fill="#6C2A29"/>
<path d="M168.236 96.6071C169.046 96.6071 169.703 95.9418 169.703 95.1209C169.703 94.3009 169.046 93.6356 168.236 93.6356C167.427 93.6356 166.77 94.3009 166.77 95.1209C166.77 95.9418 167.427 96.6071 168.236 96.6071Z" fill="#6C2A29"/>
<path d="M176.762 96.6071C177.573 96.6071 178.228 95.9418 178.228 95.1209C178.228 94.3009 177.573 93.6356 176.762 93.6356C175.953 93.6356 175.296 94.3009 175.296 95.1209C175.296 95.9418 175.953 96.6071 176.762 96.6071Z" fill="#6C2A29"/>
<path d="M185.288 96.6071C186.099 96.6071 186.754 95.9418 186.754 95.1209C186.754 94.3009 186.099 93.6356 185.288 93.6356C184.479 93.6356 183.822 94.3009 183.822 95.1209C183.822 95.9418 184.479 96.6071 185.288 96.6071Z" fill="#6C2A29"/>
<path d="M193.813 96.6071C194.624 96.6071 195.279 95.9418 195.279 95.1209C195.279 94.3009 194.624 93.6356 193.813 93.6356C193.005 93.6356 192.348 94.3009 192.348 95.1209C192.348 95.9418 193.005 96.6071 193.813 96.6071Z" fill="#6C2A29"/>
<path d="M202.338 96.6071C203.149 96.6071 203.804 95.9418 203.804 95.1209C203.804 94.3009 203.149 93.6356 202.338 93.6356C201.53 93.6356 200.873 94.3009 200.873 95.1209C200.873 95.9418 201.53 96.6071 202.338 96.6071Z" fill="#6C2A29"/>
<path d="M210.865 96.6071C211.675 96.6071 212.332 95.9418 212.332 95.1209C212.332 94.3009 211.675 93.6356 210.865 93.6356C210.056 93.6356 209.4 94.3009 209.4 95.1209C209.4 95.9418 210.056 96.6071 210.865 96.6071Z" fill="#6C2A29"/>
<path d="M219.391 96.6071C220.202 96.6071 220.858 95.9418 220.858 95.1209C220.858 94.3009 220.202 93.6356 219.391 93.6356C218.582 93.6356 217.925 94.3009 217.925 95.1209C217.925 95.9418 218.582 96.6071 219.391 96.6071Z" fill="#6C2A29"/>
<path d="M227.917 96.6071C228.728 96.6071 229.382 95.9418 229.382 95.1209C229.382 94.3009 228.728 93.6356 227.917 93.6356C227.107 93.6356 226.451 94.3009 226.451 95.1209C226.451 95.9418 227.107 96.6071 227.917 96.6071Z" fill="#6C2A29"/>
<path d="M236.444 96.6071C237.254 96.6071 237.91 95.9418 237.91 95.1209C237.91 94.3009 237.254 93.6356 236.444 93.6356C235.635 93.6356 234.978 94.3009 234.978 95.1209C234.978 95.9418 235.635 96.6071 236.444 96.6071Z" fill="#6C2A29"/>
<path d="M244.969 96.6071C245.78 96.6071 246.435 95.9418 246.435 95.1209C246.435 94.3009 245.78 93.6356 244.969 93.6356C244.16 93.6356 243.504 94.3009 243.504 95.1209C243.504 95.9418 244.16 96.6071 244.969 96.6071Z" fill="#6C2A29"/>
<path d="M253.494 96.6071C254.305 96.6071 254.961 95.9418 254.961 95.1209C254.961 94.3009 254.305 93.6356 253.494 93.6356C252.686 93.6356 252.029 94.3009 252.029 95.1209C252.029 95.9418 252.686 96.6071 253.494 96.6071Z" fill="#6C2A29"/>
<path d="M262.02 96.6071C262.831 96.6071 263.486 95.9418 263.486 95.1209C263.486 94.3009 262.831 93.6356 262.02 93.6356C261.211 93.6356 260.555 94.3009 260.555 95.1209C260.555 95.9418 261.211 96.6071 262.02 96.6071Z" fill="#6C2A29"/>
<path d="M270.546 96.6071C271.357 96.6071 272.012 95.9418 272.012 95.1209C272.012 94.3009 271.357 93.6356 270.546 93.6356C269.737 93.6356 269.081 94.3009 269.081 95.1209C269.081 95.9418 269.737 96.6071 270.546 96.6071Z" fill="#6C2A29"/>
</svg>
