<svg width="1400" height="186" viewBox="0 0 1400 186" fill="none" xmlns="http://www.w3.org/2000/svg">
<path d="M364.699 185.001L1.21484 185V68.6504C1.34265 68.5397 1.4696 68.428 1.59631 68.3164L1.64771 68.2705L1.6554 68.2638C2.28699 67.7084 2.93994 67.1342 3.67712 66.6929C4.29504 66.3236 4.8761 65.8967 5.43823 65.484L5.45032 65.4751L5.4574 65.4698C5.79321 65.223 6.09644 65.0012 6.40771 64.7858C6.7865 64.5238 7.06482 64.2203 7.33423 63.9269C7.52612 63.7173 7.7417 63.4814 7.99719 63.2675C8.36414 62.9596 8.7605 62.6829 9.14392 62.415L9.14868 62.4119C9.74133 61.9966 10.3542 61.5673 10.8727 61.0237C11.8859 59.9618 13.3003 58.9193 15.0767 57.925C16.3164 57.231 17.629 56.5066 18.6836 55.9243L18.7981 55.8612L18.8179 55.8506C21.2021 54.5356 23.6661 53.1765 26.0485 51.7853C27.3959 50.9984 28.8445 50.3549 30.2455 49.7325L30.2623 49.7251L30.2722 49.7206C31.3888 49.2249 32.541 48.7133 33.6373 48.1312C34.4515 47.6987 35.1936 47.1918 35.979 46.655L36.0016 46.6396C36.4163 46.3567 36.845 46.064 37.2877 45.7822C38.3995 45.0739 39.6536 44.0698 40.9139 42.8787C41.3948 42.4236 41.8524 41.9022 42.295 41.3978L42.3033 41.3883C43.1152 40.4624 43.9546 39.5049 44.999 38.8748L45.8464 38.3634L46.5343 37.9485L46.869 37.7471L46.9025 37.7273L47.1886 37.5546C49.5347 36.14 51.9603 34.6771 54.3669 33.1949C54.9564 32.8314 55.4965 32.3541 56.0188 31.8926L56.0311 31.8816C56.6689 31.3165 57.3278 30.733 58.0841 30.35C58.3093 30.236 58.5486 30.1565 58.78 30.0798L58.7932 30.0754L58.806 30.0709C59.1224 29.9663 59.4486 29.8585 59.7408 29.6639C59.9353 29.5338 60.1041 29.3622 60.2673 29.1962L60.2822 29.181C60.462 28.9994 60.6472 28.8125 60.8677 28.6813C61.0284 28.5847 61.2562 28.5133 61.4764 28.444C61.6808 28.3807 61.8914 28.3154 62.0564 28.2288C62.197 28.1542 62.3386 28.0728 62.4716 27.9955L62.4768 27.9927C62.7819 27.8157 63.1277 27.6149 63.4976 27.4969C65.314 26.9164 67.0664 26.0055 68.6896 25.1074C71.1797 23.7284 73.8601 22.6184 76.4523 21.5449L76.4805 21.5333L76.4883 21.53C78.2131 20.8151 79.9969 20.0758 81.7126 19.2609C83.2559 18.5267 84.7019 17.554 86.1002 16.6133L86.1755 16.5624L86.2208 16.532C86.5444 16.314 86.8792 16.0887 87.2097 15.8716C88.0265 15.3346 88.8762 14.8196 89.6982 14.3218L89.7064 14.3175L89.7281 14.3042C90.7506 13.6846 91.8081 13.0439 92.7899 12.368C93.1343 12.1311 93.4917 11.8737 93.807 11.6467L93.8977 11.5813L93.9052 11.576C94.9304 10.8362 95.9902 10.0714 97.1511 9.5033C97.6465 9.26001 97.9585 8.99231 98.3193 8.68237L98.3267 8.67615L98.332 8.67139C98.4678 8.55603 98.6212 8.42505 98.7965 8.28748C98.949 8.1676 99.1514 8.07654 99.3472 7.98853C99.7561 7.80493 100.179 7.61487 100.227 7.16687C100.069 7.09998 99.9174 7.06689 99.7639 7.06689C99.505 7.06689 99.2781 7.15906 99.0377 7.25696L99.0294 7.26038L99.0247 7.26233C98.8413 7.33765 98.6526 7.41492 98.4399 7.45569C98.212 7.50012 97.9883 7.50623 97.7992 7.50623C97.7701 7.50623 97.7408 7.50586 97.7115 7.50562L97.6823 7.50549L97.6238 7.50525L97.5896 7.50439L97.5618 7.50403C97.5054 7.5033 97.4489 7.50256 97.3922 7.50256C97.1476 7.50256 96.8835 7.51196 96.6121 7.58093C96.4364 7.62659 96.2455 7.66431 96.0436 7.70435L96.0127 7.71057L96.0038 7.7124L95.9819 7.71667C95.6354 7.78577 95.2772 7.85706 94.9857 7.96509C94.7305 8.05981 94.5365 8.21802 94.3486 8.37085C94.1017 8.57129 93.8684 8.76074 93.5466 8.76074C93.3969 8.76074 93.2375 8.71985 93.0599 8.63562C93.2703 8.37891 93.6008 8.23877 93.9203 8.10303L93.9292 8.09924L93.951 8.08997C94.0786 8.03613 94.2375 7.96948 94.373 7.8949C94.9314 7.58728 95.4343 7.20569 95.9208 6.83667L95.9353 6.82568C96.0558 6.73328 96.2126 6.61511 96.3772 6.49268C97.7074 5.50708 99.0612 4.79871 100.495 4.04895L100.538 4.026L100.55 4.02014C101.162 3.69873 101.796 3.36633 102.424 3.01147C103.608 2.34216 104.74 1.81982 105.938 1.26672L106.089 1.1969L106.1 1.19165C106.479 1.01611 106.91 0.817505 107.338 0.613037L107.361 0.602051L107.4 0.583496H1399V57.4446C1398.92 57.4823 1398.85 57.514 1398.79 57.548C1396.93 58.5354 1395.17 59.8811 1393.47 61.1821C1391.96 62.3402 1390.4 63.5375 1388.76 64.4851C1387.99 64.9307 1387.22 65.3771 1386.44 65.8243C1379.24 69.9836 1371.78 74.2845 1365.24 79.3937C1364.22 80.1862 1363.11 80.7648 1362.04 81.3242C1360.55 82.1023 1359.01 82.9056 1357.77 84.2708C1355.93 86.298 1353.98 87.701 1351.43 89.462C1349.6 90.7267 1347.94 92.1051 1346.33 93.438L1346.31 93.454C1344.78 94.7142 1343.21 96.014 1341.52 97.1984C1339.8 98.4087 1337.94 99.5518 1336.13 100.657L1336.13 100.663L1336.09 100.682L1336.09 100.685L1336.07 100.694C1332.52 102.875 1328.84 105.131 1325.91 108.064C1324.2 109.776 1322.23 111.256 1320.32 112.688L1320.31 112.697L1320.3 112.701C1318.52 114.041 1316.67 115.426 1315.03 117.005C1314.03 117.967 1312.94 118.804 1311.9 119.614C1310.58 120.627 1309.23 121.675 1308.03 122.968C1306.12 125.046 1303.84 126.778 1301.66 128.341C1299.55 129.862 1297.51 131.568 1295.54 133.216L1295.53 133.226L1295.53 133.231C1293.99 134.515 1292.41 135.84 1290.8 137.068C1290.24 137.502 1289.61 137.869 1289.01 138.224L1289 138.227L1288.99 138.233C1288.39 138.587 1287.77 138.954 1287.21 139.382C1286.6 139.849 1286.03 140.382 1285.48 140.897L1285.46 140.923L1285.45 140.929L1285.45 140.933C1284.77 141.571 1284.07 142.228 1283.29 142.768C1283.05 142.934 1282.76 143.084 1282.49 143.23L1282.48 143.236L1282.47 143.24C1282.05 143.458 1281.62 143.683 1281.31 143.972C1281.03 144.235 1280.81 144.553 1280.59 144.861C1280.34 145.218 1280.08 145.586 1279.73 145.884C1279.43 146.132 1279.06 146.264 1278.7 146.392L1278.69 146.395C1278.33 146.522 1277.95 146.653 1277.67 146.9C1277.31 147.209 1277.07 147.56 1276.85 147.899L1276.84 147.905C1276.61 148.247 1276.37 148.601 1276.01 148.925C1275.24 149.605 1274.39 150.147 1273.55 150.671C1272.55 151.304 1271.51 151.958 1270.62 152.864C1269.69 153.801 1268.67 154.515 1267.68 155.205L1267.67 155.211C1266.79 155.826 1265.88 156.461 1265.05 157.251C1264.29 157.967 1263.97 158.163 1263.2 158.636L1263.19 158.639L1263.16 158.662L1263.12 158.682C1263.02 158.743 1262.92 158.807 1262.8 158.878C1262.13 159.289 1261.89 159.518 1261.58 159.809C1261.41 159.97 1261.2 160.168 1260.88 160.424C1260.58 160.667 1260.27 160.923 1259.95 161.194L1259.91 161.227C1258.99 161.979 1258.05 162.757 1257.13 163.403C1256.64 163.744 1256.14 164.105 1255.66 164.455L1255.61 164.487L1255.61 164.49L1255.56 164.523L1255.53 164.548C1254.04 165.619 1252.51 166.726 1250.95 167.603C1249.9 168.191 1248.75 168.713 1247.64 169.217L1247.63 169.221L1247.61 169.227L1247.61 169.229L1247.58 169.243C1246.42 169.768 1245.23 170.311 1244.13 170.938C1243.8 171.126 1243.53 171.403 1243.28 171.67C1242.91 172.051 1242.56 172.41 1242.07 172.526C1243.23 172.407 1244.3 171.906 1245.34 171.42L1245.35 171.414C1245.67 171.265 1246.03 171.097 1246.39 170.946C1249.67 169.561 1253.28 168.625 1256.77 167.72L1256.78 167.719L1257.02 167.657L1257.04 167.65C1257.82 167.448 1258.7 167.22 1259.53 166.997C1260.04 166.859 1260.56 166.704 1261.11 166.54L1261.15 166.53L1261.16 166.526C1263.04 165.969 1265.16 165.338 1267.16 165.309C1265.85 166.919 1264.14 168.26 1262.48 169.557L1262.47 169.566L1262.46 169.572C1261.74 170.135 1260.92 170.775 1260.18 171.416C1259.5 172 1258.72 172.483 1257.97 172.951C1257.42 173.292 1256.85 173.643 1256.33 174.03C1254.95 175.049 1253.71 176.259 1252.51 177.429L1252.5 177.432C1251.26 178.642 1249.98 179.893 1248.53 180.946C1246.52 182.402 1244.17 183.88 1242.09 185L437.697 185L444.535 180.177H414.583L430.574 172.916L444.535 166.577L364.699 185.001Z" fill="#202020" stroke="#707070"/>
</svg>
